%TF.GenerationSoftware,KiCad,Pcbnew,(5.99.0-11435-g252647e93c)*%
%TF.CreationDate,2021-07-20T11:27:30+10:00*%
%TF.ProjectId,ESP32 Clone devkit,45535033-3220-4436-9c6f-6e6520646576,1*%
%TF.SameCoordinates,Original*%
%TF.FileFunction,Copper,L3,Inr*%
%TF.FilePolarity,Positive*%
%FSLAX46Y46*%
G04 Gerber Fmt 4.6, Leading zero omitted, Abs format (unit mm)*
G04 Created by KiCad (PCBNEW (5.99.0-11435-g252647e93c)) date 2021-07-20 11:27:30*
%MOMM*%
%LPD*%
G01*
G04 APERTURE LIST*
%TA.AperFunction,ComponentPad*%
%ADD10O,1.000000X1.900000*%
%TD*%
%TA.AperFunction,ComponentPad*%
%ADD11O,1.050000X1.250000*%
%TD*%
%TA.AperFunction,ComponentPad*%
%ADD12O,1.700000X1.700000*%
%TD*%
%TA.AperFunction,ComponentPad*%
%ADD13R,1.700000X1.700000*%
%TD*%
%TA.AperFunction,ViaPad*%
%ADD14C,0.600000*%
%TD*%
%TA.AperFunction,ViaPad*%
%ADD15C,0.500000*%
%TD*%
%TA.AperFunction,Conductor*%
%ADD16C,0.100000*%
%TD*%
%TA.AperFunction,Conductor*%
%ADD17C,0.250000*%
%TD*%
G04 APERTURE END LIST*
D10*
%TO.N,GND*%
%TO.C,J1*%
X93837000Y-117326000D03*
X85487000Y-117326000D03*
D11*
X91887000Y-114326000D03*
X87437000Y-114326000D03*
%TD*%
D12*
%TO.N,/CLK*%
%TO.C,J3*%
X103124000Y-118110000D03*
%TO.N,/SD0*%
X103124000Y-115570000D03*
%TO.N,/SD1*%
X103124000Y-113030000D03*
%TO.N,/IO15*%
X103124000Y-110490000D03*
%TO.N,/IO2*%
X103124000Y-107950000D03*
%TO.N,/IO0*%
X103124000Y-105410000D03*
%TO.N,/IO4*%
X103124000Y-102870000D03*
%TO.N,/IO16*%
X103124000Y-100330000D03*
%TO.N,/IO17*%
X103124000Y-97790000D03*
%TO.N,/IO5*%
X103124000Y-95250000D03*
%TO.N,/IO18*%
X103124000Y-92710000D03*
%TO.N,/IO19*%
X103124000Y-90170000D03*
%TO.N,GND*%
X103124000Y-87630000D03*
%TO.N,/IO21*%
X103124000Y-85090000D03*
%TO.N,/RXD0*%
X103124000Y-82550000D03*
%TO.N,/TXD0*%
X103124000Y-80010000D03*
%TO.N,/IO22*%
X103124000Y-77470000D03*
%TO.N,/IO23*%
X103124000Y-74930000D03*
D13*
%TO.N,GND*%
X103124000Y-72390000D03*
%TD*%
D12*
%TO.N,/EXT_5V*%
%TO.C,J2*%
X76200000Y-118110000D03*
%TO.N,/CMD*%
X76200000Y-115570000D03*
%TO.N,/SD3*%
X76200000Y-113030000D03*
%TO.N,/SD2*%
X76200000Y-110490000D03*
%TO.N,/IO13*%
X76200000Y-107950000D03*
%TO.N,GND*%
X76200000Y-105410000D03*
%TO.N,/IO12*%
X76200000Y-102870000D03*
%TO.N,/IO14*%
X76200000Y-100330000D03*
%TO.N,/IO27*%
X76200000Y-97790000D03*
%TO.N,/IO26*%
X76200000Y-95250000D03*
%TO.N,/IO25*%
X76200000Y-92710000D03*
%TO.N,/IO33*%
X76200000Y-90170000D03*
%TO.N,/IO32*%
X76200000Y-87630000D03*
%TO.N,/IO35*%
X76200000Y-85090000D03*
%TO.N,/IO34*%
X76200000Y-82550000D03*
%TO.N,/SENSOR_VN*%
X76200000Y-80010000D03*
%TO.N,/SENSOR_VP*%
X76200000Y-77470000D03*
%TO.N,/EN*%
X76200000Y-74930000D03*
D13*
%TO.N,/VDD33*%
X76200000Y-72390000D03*
%TD*%
D14*
%TO.N,GND*%
X91601500Y-93078500D03*
X80806500Y-102222500D03*
%TO.N,/VDD33*%
X86267500Y-99682500D03*
%TO.N,/VBUS*%
X87537500Y-102363520D03*
X98205500Y-94983500D03*
D15*
%TO.N,Net-(R25-Pad1)*%
X92582989Y-102476500D03*
X91093500Y-109455500D03*
%TO.N,/USB_DP*%
X87029500Y-93205500D03*
D14*
%TO.N,/EXT_5V*%
X90077500Y-99555500D03*
%TO.N,/VDD33*%
X96046500Y-96693000D03*
D15*
%TO.N,/EN*%
X98713500Y-98031500D03*
X87410500Y-94983500D03*
%TO.N,/IO4*%
X100237500Y-86474500D03*
D14*
%TO.N,GND*%
X93506500Y-106032500D03*
D15*
%TO.N,/USB_DN*%
X92744500Y-105143500D03*
X93980000Y-93726000D03*
%TO.N,/TXD*%
X89535000Y-102616000D03*
X97536000Y-98298000D03*
%TO.N,/TXD0*%
X94869000Y-95603500D03*
%TO.N,/RXD*%
X88900000Y-102616000D03*
%TO.N,Net-(R24-Pad2)*%
X92710000Y-95928498D03*
X90263500Y-109855000D03*
%TO.N,Net-(R23-Pad1)*%
X93472000Y-98425000D03*
X88900000Y-109855000D03*
D14*
%TO.N,/EXT_5V*%
X77597000Y-116967000D03*
D15*
%TO.N,/RXD0*%
X99695000Y-95377000D03*
D14*
%TO.N,/EXT_5V*%
X96647000Y-99314000D03*
%TO.N,/VBUS*%
X85725000Y-103886000D03*
X92075000Y-113157000D03*
%TO.N,/VDD33*%
X84963000Y-94488000D03*
X78232000Y-72644000D03*
D15*
%TO.N,Net-(C21-Pad1)*%
X78994000Y-72644000D03*
X80010000Y-95631000D03*
D14*
%TO.N,/VDD33*%
X91440000Y-108585000D03*
X92837000Y-104267000D03*
D15*
%TO.N,/USB_DP*%
X94522500Y-106794500D03*
X92129019Y-109601000D03*
%TO.N,/DTR*%
X97536000Y-113411000D03*
%TO.N,/USB_DP*%
X89662000Y-113411000D03*
%TO.N,/USB_DN*%
X90551000Y-113284000D03*
%TO.N,/IO0*%
X97028000Y-115824000D03*
%TO.N,/DTR*%
X83693000Y-113792000D03*
%TO.N,/RTS*%
X84200655Y-113410655D03*
%TO.N,/EN*%
X91059000Y-112522000D03*
X83693000Y-114554000D03*
%TD*%
D16*
%TO.N,Net-(R23-Pad1)*%
X88900000Y-109855000D02*
X89293500Y-109461500D01*
X95084980Y-100037980D02*
X93472000Y-98425000D01*
X89293500Y-109461500D02*
X89927794Y-109461500D01*
X89927794Y-109461500D02*
X90333305Y-109055989D01*
X90333305Y-109055989D02*
X92994847Y-109055989D01*
X92994847Y-109055989D02*
X95084980Y-106965856D01*
X95084980Y-106965856D02*
X95084980Y-100037980D01*
%TO.N,Net-(R24-Pad2)*%
X90263500Y-109855000D02*
X91360000Y-109855000D01*
X91360000Y-109855000D02*
X91601500Y-110096500D01*
X92236500Y-110096500D02*
X95284500Y-107048500D01*
X91601500Y-110096500D02*
X92236500Y-110096500D01*
X95284500Y-107048500D02*
X95284500Y-98586500D01*
X95284500Y-98586500D02*
X92710000Y-96012000D01*
X92710000Y-96012000D02*
X92710000Y-95928498D01*
%TO.N,/USB_DP*%
X87029500Y-93205500D02*
X91983969Y-98159969D01*
X91983969Y-98159969D02*
X91983970Y-105145676D01*
X91983970Y-105145676D02*
X93632794Y-106794500D01*
X93632794Y-106794500D02*
X94522500Y-106794500D01*
D17*
%TO.N,/VBUS*%
X98205500Y-94983500D02*
X98205500Y-105270500D01*
X98205500Y-105270500D02*
X92490500Y-110985500D01*
X92490500Y-110985500D02*
X87283500Y-110985500D01*
X86140500Y-109842500D02*
X86140500Y-104508500D01*
X87283500Y-110985500D02*
X86140500Y-109842500D01*
X86140500Y-104508500D02*
X87537500Y-103111500D01*
X87537500Y-103111500D02*
X87537500Y-102363520D01*
D16*
%TO.N,/IO4*%
X100364500Y-86474500D02*
X101634500Y-87744500D01*
X101634500Y-87744500D02*
X101634500Y-101380500D01*
X101634500Y-101380500D02*
X103124000Y-102870000D01*
%TO.N,/USB_DN*%
X93980000Y-93726000D02*
X92183489Y-95522511D01*
X92183489Y-95522511D02*
X92183489Y-104709489D01*
X92183489Y-104709489D02*
X92617500Y-105143500D01*
X92617500Y-105143500D02*
X92744500Y-105143500D01*
%TD*%
M02*
