%TF.GenerationSoftware,KiCad,Pcbnew,(5.99.0-11435-g252647e93c)*%
%TF.CreationDate,2021-07-20T11:27:33+10:00*%
%TF.ProjectId,ESP32 Clone devkit,45535033-3220-4436-9c6f-6e6520646576,1*%
%TF.SameCoordinates,Original*%
%TF.FileFunction,Soldermask,Top*%
%TF.FilePolarity,Negative*%
%FSLAX46Y46*%
G04 Gerber Fmt 4.6, Leading zero omitted, Abs format (unit mm)*
G04 Created by KiCad (PCBNEW (5.99.0-11435-g252647e93c)) date 2021-07-20 11:27:33*
%MOMM*%
%LPD*%
G01*
G04 APERTURE LIST*
G04 Aperture macros list*
%AMRoundRect*
0 Rectangle with rounded corners*
0 $1 Rounding radius*
0 $2 $3 $4 $5 $6 $7 $8 $9 X,Y pos of 4 corners*
0 Add a 4 corners polygon primitive as box body*
4,1,4,$2,$3,$4,$5,$6,$7,$8,$9,$2,$3,0*
0 Add four circle primitives for the rounded corners*
1,1,$1+$1,$2,$3*
1,1,$1+$1,$4,$5*
1,1,$1+$1,$6,$7*
1,1,$1+$1,$8,$9*
0 Add four rect primitives between the rounded corners*
20,1,$1+$1,$2,$3,$4,$5,0*
20,1,$1+$1,$4,$5,$6,$7,0*
20,1,$1+$1,$6,$7,$8,$9,0*
20,1,$1+$1,$8,$9,$2,$3,0*%
G04 Aperture macros list end*
%ADD10R,0.875000X1.900000*%
%ADD11R,2.900000X1.900000*%
%ADD12R,0.400000X1.350000*%
%ADD13O,1.000000X1.900000*%
%ADD14O,1.050000X1.250000*%
%ADD15R,5.000000X5.000000*%
%ADD16R,2.000000X0.900000*%
%ADD17R,0.900000X2.000000*%
%ADD18RoundRect,0.075000X-0.125000X-0.075000X0.125000X-0.075000X0.125000X0.075000X-0.125000X0.075000X0*%
%ADD19RoundRect,0.075000X0.125000X0.075000X-0.125000X0.075000X-0.125000X-0.075000X0.125000X-0.075000X0*%
%ADD20R,1.550000X1.300000*%
%ADD21RoundRect,0.070000X-0.650000X-0.300000X0.650000X-0.300000X0.650000X0.300000X-0.650000X0.300000X0*%
%ADD22O,1.700000X1.700000*%
%ADD23R,1.700000X1.700000*%
%ADD24R,0.600000X0.700000*%
%ADD25R,0.600000X0.450000*%
%ADD26RoundRect,0.218750X-0.218750X-0.256250X0.218750X-0.256250X0.218750X0.256250X-0.218750X0.256250X0*%
%ADD27RoundRect,0.100000X-0.130000X-0.100000X0.130000X-0.100000X0.130000X0.100000X-0.130000X0.100000X0*%
G04 APERTURE END LIST*
D10*
%TO.C,J1*%
X85924500Y-117326000D03*
X93399500Y-117326000D03*
D11*
X89662000Y-117326000D03*
D12*
X90312000Y-114651000D03*
D13*
X93837000Y-117326000D03*
X85487000Y-117326000D03*
D14*
X91887000Y-114326000D03*
D12*
X90962000Y-114651000D03*
X89662000Y-114651000D03*
X89012000Y-114651000D03*
X88362000Y-114651000D03*
D14*
X87437000Y-114326000D03*
%TD*%
D15*
%TO.C,MOD1*%
X88677000Y-77620000D03*
D16*
X98177000Y-87630000D03*
X98177000Y-86360000D03*
X98177000Y-85090000D03*
X98177000Y-83820000D03*
X98177000Y-82550000D03*
X98177000Y-81280000D03*
X98177000Y-80010000D03*
X98177000Y-78740000D03*
X98177000Y-77470000D03*
X98177000Y-76200000D03*
X98177000Y-74930000D03*
X98177000Y-73660000D03*
X98177000Y-72390000D03*
X98177000Y-71120000D03*
X81177000Y-87630000D03*
X81177000Y-86360000D03*
X81177000Y-85090000D03*
X81177000Y-83820000D03*
X81177000Y-82550000D03*
X81177000Y-81280000D03*
X81177000Y-80010000D03*
X81177000Y-78740000D03*
X81177000Y-77470000D03*
X81177000Y-76200000D03*
X81177000Y-74930000D03*
X81177000Y-73660000D03*
X81177000Y-72390000D03*
D17*
X95392000Y-88630000D03*
X94122000Y-88630000D03*
X92852000Y-88630000D03*
X91582000Y-88630000D03*
X90312000Y-88630000D03*
X89042000Y-88630000D03*
X87772000Y-88630000D03*
X86502000Y-88630000D03*
X85232000Y-88630000D03*
X83962000Y-88630000D03*
D16*
X81177000Y-71120000D03*
%TD*%
D18*
%TO.C,C20*%
X84068640Y-96215200D03*
X84568640Y-96215200D03*
%TD*%
D19*
%TO.C,C15*%
X80310800Y-103124000D03*
X79810800Y-103124000D03*
%TD*%
D20*
%TO.C,SW2*%
X99191000Y-110962000D03*
X91241000Y-110962000D03*
X99191000Y-106462000D03*
X91241000Y-106462000D03*
%TD*%
%TO.C,SW1*%
X88083000Y-110962000D03*
X80133000Y-110962000D03*
X88083000Y-106462000D03*
X80133000Y-106462000D03*
%TD*%
D18*
%TO.C,R26*%
X93312932Y-103124000D03*
X92812932Y-103124000D03*
%TD*%
%TO.C,R25*%
X86811866Y-103124000D03*
X86311866Y-103124000D03*
%TD*%
%TO.C,R24*%
X91763520Y-96215200D03*
X91263520Y-96215200D03*
%TD*%
%TO.C,R23*%
X94521700Y-98907600D03*
X94021700Y-98907600D03*
%TD*%
%TO.C,R22*%
X98171000Y-119126000D03*
X97671000Y-119126000D03*
%TD*%
D19*
%TO.C,R21*%
X81030000Y-118237000D03*
X81530000Y-118237000D03*
%TD*%
%TO.C,R18*%
X98458400Y-96215200D03*
X98958400Y-96215200D03*
%TD*%
D18*
%TO.C,R17*%
X95360960Y-96215200D03*
X94860960Y-96215200D03*
%TD*%
%TO.C,R11*%
X98954400Y-98907600D03*
X98454400Y-98907600D03*
%TD*%
%TO.C,R2*%
X90089000Y-98907600D03*
X89589000Y-98907600D03*
%TD*%
D21*
%TO.C,Q2*%
X96994000Y-114670800D03*
X96994000Y-116570800D03*
X99094000Y-115620800D03*
%TD*%
%TO.C,Q1*%
X80191000Y-114467600D03*
X80191000Y-116367600D03*
X82291000Y-115417600D03*
%TD*%
D22*
%TO.C,J3*%
X103124000Y-118110000D03*
X103124000Y-115570000D03*
X103124000Y-113030000D03*
X103124000Y-110490000D03*
X103124000Y-107950000D03*
X103124000Y-105410000D03*
X103124000Y-102870000D03*
X103124000Y-100330000D03*
X103124000Y-97790000D03*
X103124000Y-95250000D03*
X103124000Y-92710000D03*
X103124000Y-90170000D03*
X103124000Y-87630000D03*
X103124000Y-85090000D03*
X103124000Y-82550000D03*
X103124000Y-80010000D03*
X103124000Y-77470000D03*
X103124000Y-74930000D03*
D23*
X103124000Y-72390000D03*
%TD*%
D22*
%TO.C,J2*%
X76200000Y-118110000D03*
X76200000Y-115570000D03*
X76200000Y-113030000D03*
X76200000Y-110490000D03*
X76200000Y-107950000D03*
X76200000Y-105410000D03*
X76200000Y-102870000D03*
X76200000Y-100330000D03*
X76200000Y-97790000D03*
X76200000Y-95250000D03*
X76200000Y-92710000D03*
X76200000Y-90170000D03*
X76200000Y-87630000D03*
X76200000Y-85090000D03*
X76200000Y-82550000D03*
X76200000Y-80010000D03*
X76200000Y-77470000D03*
X76200000Y-74930000D03*
D23*
X76200000Y-72390000D03*
%TD*%
D24*
%TO.C,D6*%
X80376800Y-92510800D03*
X81776800Y-92510800D03*
%TD*%
%TO.C,D5*%
X84329900Y-92510800D03*
X85729900Y-92510800D03*
%TD*%
%TO.C,D4*%
X92736100Y-92510800D03*
X94136100Y-92510800D03*
%TD*%
D25*
%TO.C,D3*%
X98789200Y-92760800D03*
X96689200Y-92760800D03*
%TD*%
D26*
%TO.C,D1*%
X90040500Y-92580800D03*
X88465500Y-92580800D03*
%TD*%
D18*
%TO.C,C22*%
X80971200Y-96215200D03*
X80471200Y-96215200D03*
%TD*%
D27*
%TO.C,C21*%
X81193600Y-98957600D03*
X80553600Y-98957600D03*
%TD*%
D18*
%TO.C,C19*%
X85656300Y-98907600D03*
X85156300Y-98907600D03*
%TD*%
%TO.C,C14*%
X99814000Y-103124000D03*
X99314000Y-103124000D03*
%TD*%
%TO.C,C9*%
X88166080Y-96215200D03*
X87666080Y-96215200D03*
%TD*%
M02*
