%TF.GenerationSoftware,KiCad,Pcbnew,(5.99.0-11435-g252647e93c)*%
%TF.CreationDate,2021-07-20T11:27:33+10:00*%
%TF.ProjectId,ESP32 Clone devkit,45535033-3220-4436-9c6f-6e6520646576,1*%
%TF.SameCoordinates,Original*%
%TF.FileFunction,Soldermask,Bot*%
%TF.FilePolarity,Negative*%
%FSLAX46Y46*%
G04 Gerber Fmt 4.6, Leading zero omitted, Abs format (unit mm)*
G04 Created by KiCad (PCBNEW (5.99.0-11435-g252647e93c)) date 2021-07-20 11:27:33*
%MOMM*%
%LPD*%
G01*
G04 APERTURE LIST*
G04 Aperture macros list*
%AMRoundRect*
0 Rectangle with rounded corners*
0 $1 Rounding radius*
0 $2 $3 $4 $5 $6 $7 $8 $9 X,Y pos of 4 corners*
0 Add a 4 corners polygon primitive as box body*
4,1,4,$2,$3,$4,$5,$6,$7,$8,$9,$2,$3,0*
0 Add four circle primitives for the rounded corners*
1,1,$1+$1,$2,$3*
1,1,$1+$1,$4,$5*
1,1,$1+$1,$6,$7*
1,1,$1+$1,$8,$9*
0 Add four rect primitives between the rounded corners*
20,1,$1+$1,$2,$3,$4,$5,0*
20,1,$1+$1,$4,$5,$6,$7,0*
20,1,$1+$1,$6,$7,$8,$9,0*
20,1,$1+$1,$8,$9,$2,$3,0*%
G04 Aperture macros list end*
%ADD10O,1.000000X1.900000*%
%ADD11O,1.050000X1.250000*%
%ADD12R,2.000000X1.500000*%
%ADD13R,2.000000X3.800000*%
%ADD14R,2.700000X2.700000*%
%ADD15RoundRect,0.062500X0.062500X0.425000X-0.062500X0.425000X-0.062500X-0.425000X0.062500X-0.425000X0*%
%ADD16RoundRect,0.062500X0.425000X0.062500X-0.425000X0.062500X-0.425000X-0.062500X0.425000X-0.062500X0*%
%ADD17O,1.700000X1.700000*%
%ADD18R,1.700000X1.700000*%
%ADD19RoundRect,0.100000X0.100000X-0.130000X0.100000X0.130000X-0.100000X0.130000X-0.100000X-0.130000X0*%
G04 APERTURE END LIST*
D10*
%TO.C,J1*%
X93837000Y-117326000D03*
X85487000Y-117326000D03*
D11*
X91887000Y-114326000D03*
X87437000Y-114326000D03*
%TD*%
D12*
%TO.C,U2*%
X92050000Y-94728000D03*
X92050000Y-99328000D03*
X92050000Y-97028000D03*
D13*
X85750000Y-97028000D03*
%TD*%
D14*
%TO.C,U1*%
X88858000Y-106462000D03*
D15*
X90358000Y-104099500D03*
X89858000Y-104099500D03*
X89358000Y-104099500D03*
X88858000Y-104099500D03*
X88358000Y-104099500D03*
X87858000Y-104099500D03*
X87358000Y-104099500D03*
D16*
X86495500Y-104962000D03*
X86495500Y-105462000D03*
X86495500Y-105962000D03*
X86495500Y-106462000D03*
X86495500Y-106962000D03*
X86495500Y-107462000D03*
X86495500Y-107962000D03*
D15*
X87358000Y-108824500D03*
X87858000Y-108824500D03*
X88358000Y-108824500D03*
X88858000Y-108824500D03*
X89358000Y-108824500D03*
X89858000Y-108824500D03*
X90358000Y-108824500D03*
D16*
X91220500Y-107962000D03*
X91220500Y-107462000D03*
X91220500Y-106962000D03*
X91220500Y-106462000D03*
X91220500Y-105962000D03*
X91220500Y-105462000D03*
X91220500Y-104962000D03*
%TD*%
D17*
%TO.C,J3*%
X103124000Y-118110000D03*
X103124000Y-115570000D03*
X103124000Y-113030000D03*
X103124000Y-110490000D03*
X103124000Y-107950000D03*
X103124000Y-105410000D03*
X103124000Y-102870000D03*
X103124000Y-100330000D03*
X103124000Y-97790000D03*
X103124000Y-95250000D03*
X103124000Y-92710000D03*
X103124000Y-90170000D03*
X103124000Y-87630000D03*
X103124000Y-85090000D03*
X103124000Y-82550000D03*
X103124000Y-80010000D03*
X103124000Y-77470000D03*
X103124000Y-74930000D03*
D18*
X103124000Y-72390000D03*
%TD*%
D17*
%TO.C,J2*%
X76200000Y-118110000D03*
X76200000Y-115570000D03*
X76200000Y-113030000D03*
X76200000Y-110490000D03*
X76200000Y-107950000D03*
X76200000Y-105410000D03*
X76200000Y-102870000D03*
X76200000Y-100330000D03*
X76200000Y-97790000D03*
X76200000Y-95250000D03*
X76200000Y-92710000D03*
X76200000Y-90170000D03*
X76200000Y-87630000D03*
X76200000Y-85090000D03*
X76200000Y-82550000D03*
X76200000Y-80010000D03*
X76200000Y-77470000D03*
X76200000Y-74930000D03*
D18*
X76200000Y-72390000D03*
%TD*%
D19*
%TO.C,C3*%
X95656400Y-95438000D03*
X95656400Y-96078000D03*
%TD*%
%TO.C,C1*%
X95656400Y-98740000D03*
X95656400Y-99380000D03*
%TD*%
M02*
