%TF.GenerationSoftware,KiCad,Pcbnew,(5.99.0-11435-g252647e93c)*%
%TF.CreationDate,2021-07-20T11:27:32+10:00*%
%TF.ProjectId,ESP32 Clone devkit,45535033-3220-4436-9c6f-6e6520646576,1*%
%TF.SameCoordinates,Original*%
%TF.FileFunction,Legend,Top*%
%TF.FilePolarity,Positive*%
%FSLAX46Y46*%
G04 Gerber Fmt 4.6, Leading zero omitted, Abs format (unit mm)*
G04 Created by KiCad (PCBNEW (5.99.0-11435-g252647e93c)) date 2021-07-20 11:27:32*
%MOMM*%
%LPD*%
G01*
G04 APERTURE LIST*
%ADD10C,0.060000*%
%ADD11C,0.100000*%
%ADD12C,0.120000*%
G04 APERTURE END LIST*
D10*
X100371738Y-115886880D02*
X100443166Y-115910690D01*
X100562214Y-115910690D01*
X100609833Y-115886880D01*
X100633642Y-115863071D01*
X100657452Y-115815452D01*
X100657452Y-115767833D01*
X100633642Y-115720214D01*
X100609833Y-115696404D01*
X100562214Y-115672595D01*
X100466976Y-115648785D01*
X100419357Y-115624976D01*
X100395547Y-115601166D01*
X100371738Y-115553547D01*
X100371738Y-115505928D01*
X100395547Y-115458309D01*
X100419357Y-115434500D01*
X100466976Y-115410690D01*
X100586023Y-115410690D01*
X100657452Y-115434500D01*
X100871738Y-115910690D02*
X100871738Y-115410690D01*
X100990785Y-115410690D01*
X101062214Y-115434500D01*
X101109833Y-115482119D01*
X101133642Y-115529738D01*
X101157452Y-115624976D01*
X101157452Y-115696404D01*
X101133642Y-115791642D01*
X101109833Y-115839261D01*
X101062214Y-115886880D01*
X100990785Y-115910690D01*
X100871738Y-115910690D01*
X101466976Y-115410690D02*
X101514595Y-115410690D01*
X101562214Y-115434500D01*
X101586023Y-115458309D01*
X101609833Y-115505928D01*
X101633642Y-115601166D01*
X101633642Y-115720214D01*
X101609833Y-115815452D01*
X101586023Y-115863071D01*
X101562214Y-115886880D01*
X101514595Y-115910690D01*
X101466976Y-115910690D01*
X101419357Y-115886880D01*
X101395547Y-115863071D01*
X101371738Y-115815452D01*
X101347928Y-115720214D01*
X101347928Y-115601166D01*
X101371738Y-115505928D01*
X101395547Y-115458309D01*
X101419357Y-115434500D01*
X101466976Y-115410690D01*
X101466976Y-105250690D02*
X101514595Y-105250690D01*
X101562214Y-105274500D01*
X101586024Y-105298309D01*
X101609833Y-105345928D01*
X101633643Y-105441166D01*
X101633643Y-105560214D01*
X101609833Y-105655452D01*
X101586024Y-105703071D01*
X101562214Y-105726880D01*
X101514595Y-105750690D01*
X101466976Y-105750690D01*
X101419357Y-105726880D01*
X101395548Y-105703071D01*
X101371738Y-105655452D01*
X101347929Y-105560214D01*
X101347929Y-105441166D01*
X101371738Y-105345928D01*
X101395548Y-105298309D01*
X101419357Y-105274500D01*
X101466976Y-105250690D01*
X100728880Y-118403071D02*
X100705071Y-118426880D01*
X100633642Y-118450690D01*
X100586023Y-118450690D01*
X100514595Y-118426880D01*
X100466976Y-118379261D01*
X100443166Y-118331642D01*
X100419357Y-118236404D01*
X100419357Y-118164976D01*
X100443166Y-118069738D01*
X100466976Y-118022119D01*
X100514595Y-117974500D01*
X100586023Y-117950690D01*
X100633642Y-117950690D01*
X100705071Y-117974500D01*
X100728880Y-117998309D01*
X101181261Y-118450690D02*
X100943166Y-118450690D01*
X100943166Y-117950690D01*
X101347928Y-118450690D02*
X101347928Y-117950690D01*
X101633642Y-118450690D02*
X101419357Y-118164976D01*
X101633642Y-117950690D02*
X101347928Y-118236404D01*
X101157452Y-90510690D02*
X100871738Y-90510690D01*
X101014595Y-90510690D02*
X101014595Y-90010690D01*
X100966976Y-90082119D01*
X100919357Y-90129738D01*
X100871738Y-90153547D01*
X101395547Y-90510690D02*
X101490785Y-90510690D01*
X101538404Y-90486880D01*
X101562214Y-90463071D01*
X101609833Y-90391642D01*
X101633642Y-90296404D01*
X101633642Y-90105928D01*
X101609833Y-90058309D01*
X101586023Y-90034500D01*
X101538404Y-90010690D01*
X101443166Y-90010690D01*
X101395547Y-90034500D01*
X101371738Y-90058309D01*
X101347928Y-90105928D01*
X101347928Y-90224976D01*
X101371738Y-90272595D01*
X101395547Y-90296404D01*
X101443166Y-90320214D01*
X101538404Y-90320214D01*
X101586023Y-90296404D01*
X101609833Y-90272595D01*
X101633642Y-90224976D01*
X101157452Y-93177690D02*
X100871738Y-93177690D01*
X101014595Y-93177690D02*
X101014595Y-92677690D01*
X100966976Y-92749119D01*
X100919357Y-92796738D01*
X100871738Y-92820547D01*
X101443166Y-92891976D02*
X101395547Y-92868166D01*
X101371738Y-92844357D01*
X101347928Y-92796738D01*
X101347928Y-92772928D01*
X101371738Y-92725309D01*
X101395547Y-92701500D01*
X101443166Y-92677690D01*
X101538404Y-92677690D01*
X101586023Y-92701500D01*
X101609833Y-92725309D01*
X101633642Y-92772928D01*
X101633642Y-92796738D01*
X101609833Y-92844357D01*
X101586023Y-92868166D01*
X101538404Y-92891976D01*
X101443166Y-92891976D01*
X101395547Y-92915785D01*
X101371738Y-92939595D01*
X101347928Y-92987214D01*
X101347928Y-93082452D01*
X101371738Y-93130071D01*
X101395547Y-93153880D01*
X101443166Y-93177690D01*
X101538404Y-93177690D01*
X101586023Y-93153880D01*
X101609833Y-93130071D01*
X101633642Y-93082452D01*
X101633642Y-92987214D01*
X101609833Y-92939595D01*
X101586023Y-92915785D01*
X101538404Y-92891976D01*
X100586023Y-87367500D02*
X100538404Y-87343690D01*
X100466975Y-87343690D01*
X100395547Y-87367500D01*
X100347928Y-87415119D01*
X100324118Y-87462738D01*
X100300309Y-87557976D01*
X100300309Y-87629404D01*
X100324118Y-87724642D01*
X100347928Y-87772261D01*
X100395547Y-87819880D01*
X100466975Y-87843690D01*
X100514594Y-87843690D01*
X100586023Y-87819880D01*
X100609832Y-87796071D01*
X100609832Y-87629404D01*
X100514594Y-87629404D01*
X100824118Y-87843690D02*
X100824118Y-87343690D01*
X101109832Y-87843690D01*
X101109832Y-87343690D01*
X101347928Y-87843690D02*
X101347928Y-87343690D01*
X101466975Y-87343690D01*
X101538404Y-87367500D01*
X101586023Y-87415119D01*
X101609832Y-87462738D01*
X101633642Y-87557976D01*
X101633642Y-87629404D01*
X101609832Y-87724642D01*
X101586023Y-87772261D01*
X101538404Y-87819880D01*
X101466975Y-87843690D01*
X101347928Y-87843690D01*
X101347929Y-107838309D02*
X101371738Y-107814500D01*
X101419357Y-107790690D01*
X101538405Y-107790690D01*
X101586024Y-107814500D01*
X101609833Y-107838309D01*
X101633643Y-107885928D01*
X101633643Y-107933547D01*
X101609833Y-108004976D01*
X101324119Y-108290690D01*
X101633643Y-108290690D01*
X100871738Y-74818309D02*
X100895547Y-74794500D01*
X100943166Y-74770690D01*
X101062214Y-74770690D01*
X101109833Y-74794500D01*
X101133642Y-74818309D01*
X101157452Y-74865928D01*
X101157452Y-74913547D01*
X101133642Y-74984976D01*
X100847928Y-75270690D01*
X101157452Y-75270690D01*
X101324119Y-74770690D02*
X101633642Y-74770690D01*
X101466976Y-74961166D01*
X101538404Y-74961166D01*
X101586023Y-74984976D01*
X101609833Y-75008785D01*
X101633642Y-75056404D01*
X101633642Y-75175452D01*
X101609833Y-75223071D01*
X101586023Y-75246880D01*
X101538404Y-75270690D01*
X101395547Y-75270690D01*
X101347928Y-75246880D01*
X101324119Y-75223071D01*
X101157452Y-100543690D02*
X100871738Y-100543690D01*
X101014595Y-100543690D02*
X101014595Y-100043690D01*
X100966976Y-100115119D01*
X100919357Y-100162738D01*
X100871738Y-100186547D01*
X101586023Y-100043690D02*
X101490785Y-100043690D01*
X101443166Y-100067500D01*
X101419357Y-100091309D01*
X101371738Y-100162738D01*
X101347928Y-100257976D01*
X101347928Y-100448452D01*
X101371738Y-100496071D01*
X101395547Y-100519880D01*
X101443166Y-100543690D01*
X101538404Y-100543690D01*
X101586023Y-100519880D01*
X101609833Y-100496071D01*
X101633642Y-100448452D01*
X101633642Y-100329404D01*
X101609833Y-100281785D01*
X101586023Y-100257976D01*
X101538404Y-100234166D01*
X101443166Y-100234166D01*
X101395547Y-100257976D01*
X101371738Y-100281785D01*
X101347928Y-100329404D01*
X100105136Y-80250638D02*
X100307166Y-80048608D01*
X100559704Y-80503176D02*
X100206151Y-80149623D01*
X100391346Y-79964428D02*
X100980601Y-80082279D01*
X100627048Y-79728726D02*
X100744899Y-80317982D01*
X101115288Y-79947592D02*
X100761735Y-79594039D01*
X100845914Y-79509859D01*
X100913258Y-79476188D01*
X100980601Y-79476188D01*
X101031109Y-79493024D01*
X101115288Y-79543531D01*
X101165796Y-79594039D01*
X101216304Y-79678218D01*
X101233140Y-79728726D01*
X101233140Y-79796069D01*
X101199468Y-79863413D01*
X101115288Y-79947592D01*
X101182632Y-79173142D02*
X101216304Y-79139470D01*
X101266811Y-79122634D01*
X101300483Y-79122634D01*
X101350991Y-79139470D01*
X101435170Y-79189978D01*
X101519349Y-79274157D01*
X101569857Y-79358337D01*
X101586693Y-79408844D01*
X101586693Y-79442516D01*
X101569857Y-79493024D01*
X101536185Y-79526695D01*
X101485678Y-79543531D01*
X101452006Y-79543531D01*
X101401498Y-79526695D01*
X101317319Y-79476188D01*
X101233140Y-79392008D01*
X101182632Y-79307829D01*
X101165796Y-79257321D01*
X101165796Y-79223650D01*
X101182632Y-79173142D01*
X100586023Y-72254500D02*
X100538404Y-72230690D01*
X100466975Y-72230690D01*
X100395547Y-72254500D01*
X100347928Y-72302119D01*
X100324118Y-72349738D01*
X100300309Y-72444976D01*
X100300309Y-72516404D01*
X100324118Y-72611642D01*
X100347928Y-72659261D01*
X100395547Y-72706880D01*
X100466975Y-72730690D01*
X100514594Y-72730690D01*
X100586023Y-72706880D01*
X100609832Y-72683071D01*
X100609832Y-72516404D01*
X100514594Y-72516404D01*
X100824118Y-72730690D02*
X100824118Y-72230690D01*
X101109832Y-72730690D01*
X101109832Y-72230690D01*
X101347928Y-72730690D02*
X101347928Y-72230690D01*
X101466975Y-72230690D01*
X101538404Y-72254500D01*
X101586023Y-72302119D01*
X101609832Y-72349738D01*
X101633642Y-72444976D01*
X101633642Y-72516404D01*
X101609832Y-72611642D01*
X101586023Y-72659261D01*
X101538404Y-72706880D01*
X101466975Y-72730690D01*
X101347928Y-72730690D01*
X101586024Y-102877357D02*
X101586024Y-103210690D01*
X101466976Y-102686880D02*
X101347929Y-103044023D01*
X101657452Y-103044023D01*
X101157452Y-98130690D02*
X100871738Y-98130690D01*
X101014595Y-98130690D02*
X101014595Y-97630690D01*
X100966976Y-97702119D01*
X100919357Y-97749738D01*
X100871738Y-97773547D01*
X101324119Y-97630690D02*
X101657452Y-97630690D01*
X101443166Y-98130690D01*
X101165452Y-110957690D02*
X100879738Y-110957690D01*
X101022595Y-110957690D02*
X101022595Y-110457690D01*
X100974976Y-110529119D01*
X100927357Y-110576738D01*
X100879738Y-110600547D01*
X101617833Y-110457690D02*
X101379738Y-110457690D01*
X101355928Y-110695785D01*
X101379738Y-110671976D01*
X101427357Y-110648166D01*
X101546404Y-110648166D01*
X101594023Y-110671976D01*
X101617833Y-110695785D01*
X101641642Y-110743404D01*
X101641642Y-110862452D01*
X101617833Y-110910071D01*
X101594023Y-110933880D01*
X101546404Y-110957690D01*
X101427357Y-110957690D01*
X101379738Y-110933880D01*
X101355928Y-110910071D01*
X100871738Y-77358309D02*
X100895547Y-77334500D01*
X100943166Y-77310690D01*
X101062214Y-77310690D01*
X101109833Y-77334500D01*
X101133642Y-77358309D01*
X101157452Y-77405928D01*
X101157452Y-77453547D01*
X101133642Y-77524976D01*
X100847928Y-77810690D01*
X101157452Y-77810690D01*
X101347928Y-77358309D02*
X101371738Y-77334500D01*
X101419357Y-77310690D01*
X101538404Y-77310690D01*
X101586023Y-77334500D01*
X101609833Y-77358309D01*
X101633642Y-77405928D01*
X101633642Y-77453547D01*
X101609833Y-77524976D01*
X101324119Y-77810690D01*
X101633642Y-77810690D01*
X100584227Y-83018653D02*
X100298017Y-82968146D01*
X100382197Y-83220684D02*
X100028643Y-82867130D01*
X100163330Y-82732443D01*
X100213838Y-82715608D01*
X100247510Y-82715608D01*
X100298017Y-82732443D01*
X100348525Y-82782951D01*
X100365361Y-82833459D01*
X100365361Y-82867130D01*
X100348525Y-82917638D01*
X100213838Y-83052325D01*
X100348525Y-82547249D02*
X100937781Y-82665100D01*
X100584227Y-82311546D02*
X100702079Y-82900802D01*
X101072468Y-82530413D02*
X100718914Y-82176859D01*
X100803094Y-82092680D01*
X100870437Y-82059008D01*
X100937781Y-82059008D01*
X100988288Y-82075844D01*
X101072468Y-82126352D01*
X101122975Y-82176859D01*
X101173483Y-82261039D01*
X101190319Y-82311546D01*
X101190319Y-82378890D01*
X101156647Y-82446233D01*
X101072468Y-82530413D01*
X101139811Y-81755963D02*
X101173483Y-81722291D01*
X101223991Y-81705455D01*
X101257662Y-81705455D01*
X101308170Y-81722291D01*
X101392349Y-81772798D01*
X101476529Y-81856978D01*
X101527036Y-81941157D01*
X101543872Y-81991665D01*
X101543872Y-82025337D01*
X101527036Y-82075844D01*
X101493365Y-82109516D01*
X101442857Y-82126352D01*
X101409185Y-82126352D01*
X101358678Y-82109516D01*
X101274498Y-82059008D01*
X101190319Y-81974829D01*
X101139811Y-81890650D01*
X101122975Y-81840142D01*
X101122975Y-81806470D01*
X101139811Y-81755963D01*
X100371738Y-113346880D02*
X100443166Y-113370690D01*
X100562214Y-113370690D01*
X100609833Y-113346880D01*
X100633642Y-113323071D01*
X100657452Y-113275452D01*
X100657452Y-113227833D01*
X100633642Y-113180214D01*
X100609833Y-113156404D01*
X100562214Y-113132595D01*
X100466976Y-113108785D01*
X100419357Y-113084976D01*
X100395547Y-113061166D01*
X100371738Y-113013547D01*
X100371738Y-112965928D01*
X100395547Y-112918309D01*
X100419357Y-112894500D01*
X100466976Y-112870690D01*
X100586023Y-112870690D01*
X100657452Y-112894500D01*
X100871738Y-113370690D02*
X100871738Y-112870690D01*
X100990785Y-112870690D01*
X101062214Y-112894500D01*
X101109833Y-112942119D01*
X101133642Y-112989738D01*
X101157452Y-113084976D01*
X101157452Y-113156404D01*
X101133642Y-113251642D01*
X101109833Y-113299261D01*
X101062214Y-113346880D01*
X100990785Y-113370690D01*
X100871738Y-113370690D01*
X101633642Y-113370690D02*
X101347928Y-113370690D01*
X101490785Y-113370690D02*
X101490785Y-112870690D01*
X101443166Y-112942119D01*
X101395547Y-112989738D01*
X101347928Y-113013547D01*
X100871738Y-84978309D02*
X100895547Y-84954500D01*
X100943166Y-84930690D01*
X101062214Y-84930690D01*
X101109833Y-84954500D01*
X101133642Y-84978309D01*
X101157452Y-85025928D01*
X101157452Y-85073547D01*
X101133642Y-85144976D01*
X100847928Y-85430690D01*
X101157452Y-85430690D01*
X101633642Y-85430690D02*
X101347928Y-85430690D01*
X101490785Y-85430690D02*
X101490785Y-84930690D01*
X101443166Y-85002119D01*
X101395547Y-85049738D01*
X101347928Y-85073547D01*
X101609833Y-95090690D02*
X101371738Y-95090690D01*
X101347929Y-95328785D01*
X101371738Y-95304976D01*
X101419357Y-95281166D01*
X101538405Y-95281166D01*
X101586024Y-95304976D01*
X101609833Y-95328785D01*
X101633643Y-95376404D01*
X101633643Y-95495452D01*
X101609833Y-95543071D01*
X101586024Y-95566880D01*
X101538405Y-95590690D01*
X101419357Y-95590690D01*
X101371738Y-95566880D01*
X101347929Y-95543071D01*
X78154642Y-117823690D02*
X77916547Y-117823690D01*
X77892738Y-118061785D01*
X77916547Y-118037976D01*
X77964166Y-118014166D01*
X78083214Y-118014166D01*
X78130833Y-118037976D01*
X78154642Y-118061785D01*
X78178452Y-118109404D01*
X78178452Y-118228452D01*
X78154642Y-118276071D01*
X78130833Y-118299880D01*
X78083214Y-118323690D01*
X77964166Y-118323690D01*
X77916547Y-118299880D01*
X77892738Y-118276071D01*
X78321309Y-117823690D02*
X78487976Y-118323690D01*
X78654642Y-117823690D01*
X78202261Y-115736071D02*
X78178452Y-115759880D01*
X78107023Y-115783690D01*
X78059404Y-115783690D01*
X77987976Y-115759880D01*
X77940357Y-115712261D01*
X77916547Y-115664642D01*
X77892738Y-115569404D01*
X77892738Y-115497976D01*
X77916547Y-115402738D01*
X77940357Y-115355119D01*
X77987976Y-115307500D01*
X78059404Y-115283690D01*
X78107023Y-115283690D01*
X78178452Y-115307500D01*
X78202261Y-115331309D01*
X78416547Y-115783690D02*
X78416547Y-115283690D01*
X78583214Y-115640833D01*
X78749880Y-115283690D01*
X78749880Y-115783690D01*
X78987976Y-115783690D02*
X78987976Y-115283690D01*
X79107023Y-115283690D01*
X79178452Y-115307500D01*
X79226071Y-115355119D01*
X79249880Y-115402738D01*
X79273690Y-115497976D01*
X79273690Y-115569404D01*
X79249880Y-115664642D01*
X79226071Y-115712261D01*
X79178452Y-115759880D01*
X79107023Y-115783690D01*
X78987976Y-115783690D01*
X77892738Y-113219880D02*
X77964166Y-113243690D01*
X78083214Y-113243690D01*
X78130833Y-113219880D01*
X78154642Y-113196071D01*
X78178452Y-113148452D01*
X78178452Y-113100833D01*
X78154642Y-113053214D01*
X78130833Y-113029404D01*
X78083214Y-113005595D01*
X77987976Y-112981785D01*
X77940357Y-112957976D01*
X77916547Y-112934166D01*
X77892738Y-112886547D01*
X77892738Y-112838928D01*
X77916547Y-112791309D01*
X77940357Y-112767500D01*
X77987976Y-112743690D01*
X78107023Y-112743690D01*
X78178452Y-112767500D01*
X78392738Y-113243690D02*
X78392738Y-112743690D01*
X78511785Y-112743690D01*
X78583214Y-112767500D01*
X78630833Y-112815119D01*
X78654642Y-112862738D01*
X78678452Y-112957976D01*
X78678452Y-113029404D01*
X78654642Y-113124642D01*
X78630833Y-113172261D01*
X78583214Y-113219880D01*
X78511785Y-113243690D01*
X78392738Y-113243690D01*
X78845119Y-112743690D02*
X79154642Y-112743690D01*
X78987976Y-112934166D01*
X79059404Y-112934166D01*
X79107023Y-112957976D01*
X79130833Y-112981785D01*
X79154642Y-113029404D01*
X79154642Y-113148452D01*
X79130833Y-113196071D01*
X79107023Y-113219880D01*
X79059404Y-113243690D01*
X78916547Y-113243690D01*
X78868928Y-113219880D01*
X78845119Y-113196071D01*
X77892738Y-110679880D02*
X77964166Y-110703690D01*
X78083214Y-110703690D01*
X78130833Y-110679880D01*
X78154642Y-110656071D01*
X78178452Y-110608452D01*
X78178452Y-110560833D01*
X78154642Y-110513214D01*
X78130833Y-110489404D01*
X78083214Y-110465595D01*
X77987976Y-110441785D01*
X77940357Y-110417976D01*
X77916547Y-110394166D01*
X77892738Y-110346547D01*
X77892738Y-110298928D01*
X77916547Y-110251309D01*
X77940357Y-110227500D01*
X77987976Y-110203690D01*
X78107023Y-110203690D01*
X78178452Y-110227500D01*
X78392738Y-110703690D02*
X78392738Y-110203690D01*
X78511785Y-110203690D01*
X78583214Y-110227500D01*
X78630833Y-110275119D01*
X78654642Y-110322738D01*
X78678452Y-110417976D01*
X78678452Y-110489404D01*
X78654642Y-110584642D01*
X78630833Y-110632261D01*
X78583214Y-110679880D01*
X78511785Y-110703690D01*
X78392738Y-110703690D01*
X78868928Y-110251309D02*
X78892738Y-110227500D01*
X78940357Y-110203690D01*
X79059404Y-110203690D01*
X79107023Y-110227500D01*
X79130833Y-110251309D01*
X79154642Y-110298928D01*
X79154642Y-110346547D01*
X79130833Y-110417976D01*
X78845119Y-110703690D01*
X79154642Y-110703690D01*
X78178452Y-108163690D02*
X77892738Y-108163690D01*
X78035595Y-108163690D02*
X78035595Y-107663690D01*
X77987976Y-107735119D01*
X77940357Y-107782738D01*
X77892738Y-107806547D01*
X78345119Y-107663690D02*
X78654642Y-107663690D01*
X78487976Y-107854166D01*
X78559404Y-107854166D01*
X78607023Y-107877976D01*
X78630833Y-107901785D01*
X78654642Y-107949404D01*
X78654642Y-108068452D01*
X78630833Y-108116071D01*
X78607023Y-108139880D01*
X78559404Y-108163690D01*
X78416547Y-108163690D01*
X78368928Y-108139880D01*
X78345119Y-108116071D01*
X78178452Y-105147500D02*
X78130833Y-105123690D01*
X78059404Y-105123690D01*
X77987976Y-105147500D01*
X77940357Y-105195119D01*
X77916547Y-105242738D01*
X77892738Y-105337976D01*
X77892738Y-105409404D01*
X77916547Y-105504642D01*
X77940357Y-105552261D01*
X77987976Y-105599880D01*
X78059404Y-105623690D01*
X78107023Y-105623690D01*
X78178452Y-105599880D01*
X78202261Y-105576071D01*
X78202261Y-105409404D01*
X78107023Y-105409404D01*
X78416547Y-105623690D02*
X78416547Y-105123690D01*
X78702261Y-105623690D01*
X78702261Y-105123690D01*
X78940357Y-105623690D02*
X78940357Y-105123690D01*
X79059404Y-105123690D01*
X79130833Y-105147500D01*
X79178452Y-105195119D01*
X79202261Y-105242738D01*
X79226071Y-105337976D01*
X79226071Y-105409404D01*
X79202261Y-105504642D01*
X79178452Y-105552261D01*
X79130833Y-105599880D01*
X79059404Y-105623690D01*
X78940357Y-105623690D01*
X78178452Y-103083690D02*
X77892738Y-103083690D01*
X78035595Y-103083690D02*
X78035595Y-102583690D01*
X77987976Y-102655119D01*
X77940357Y-102702738D01*
X77892738Y-102726547D01*
X78368928Y-102631309D02*
X78392738Y-102607500D01*
X78440357Y-102583690D01*
X78559404Y-102583690D01*
X78607023Y-102607500D01*
X78630833Y-102631309D01*
X78654642Y-102678928D01*
X78654642Y-102726547D01*
X78630833Y-102797976D01*
X78345119Y-103083690D01*
X78654642Y-103083690D01*
X78178452Y-100416690D02*
X77892738Y-100416690D01*
X78035595Y-100416690D02*
X78035595Y-99916690D01*
X77987976Y-99988119D01*
X77940357Y-100035738D01*
X77892738Y-100059547D01*
X78607023Y-100083357D02*
X78607023Y-100416690D01*
X78487976Y-99892880D02*
X78368928Y-100250023D01*
X78678452Y-100250023D01*
X77892738Y-97678309D02*
X77916547Y-97654500D01*
X77964166Y-97630690D01*
X78083214Y-97630690D01*
X78130833Y-97654500D01*
X78154642Y-97678309D01*
X78178452Y-97725928D01*
X78178452Y-97773547D01*
X78154642Y-97844976D01*
X77868928Y-98130690D01*
X78178452Y-98130690D01*
X78345119Y-97630690D02*
X78678452Y-97630690D01*
X78464166Y-98130690D01*
X77892738Y-95011309D02*
X77916547Y-94987500D01*
X77964166Y-94963690D01*
X78083214Y-94963690D01*
X78130833Y-94987500D01*
X78154642Y-95011309D01*
X78178452Y-95058928D01*
X78178452Y-95106547D01*
X78154642Y-95177976D01*
X77868928Y-95463690D01*
X78178452Y-95463690D01*
X78607023Y-94963690D02*
X78511785Y-94963690D01*
X78464166Y-94987500D01*
X78440357Y-95011309D01*
X78392738Y-95082738D01*
X78368928Y-95177976D01*
X78368928Y-95368452D01*
X78392738Y-95416071D01*
X78416547Y-95439880D01*
X78464166Y-95463690D01*
X78559404Y-95463690D01*
X78607023Y-95439880D01*
X78630833Y-95416071D01*
X78654642Y-95368452D01*
X78654642Y-95249404D01*
X78630833Y-95201785D01*
X78607023Y-95177976D01*
X78559404Y-95154166D01*
X78464166Y-95154166D01*
X78416547Y-95177976D01*
X78392738Y-95201785D01*
X78368928Y-95249404D01*
X77892738Y-92598309D02*
X77916547Y-92574500D01*
X77964166Y-92550690D01*
X78083214Y-92550690D01*
X78130833Y-92574500D01*
X78154642Y-92598309D01*
X78178452Y-92645928D01*
X78178452Y-92693547D01*
X78154642Y-92764976D01*
X77868928Y-93050690D01*
X78178452Y-93050690D01*
X78630833Y-92550690D02*
X78392738Y-92550690D01*
X78368928Y-92788785D01*
X78392738Y-92764976D01*
X78440357Y-92741166D01*
X78559404Y-92741166D01*
X78607023Y-92764976D01*
X78630833Y-92788785D01*
X78654642Y-92836404D01*
X78654642Y-92955452D01*
X78630833Y-93003071D01*
X78607023Y-93026880D01*
X78559404Y-93050690D01*
X78440357Y-93050690D01*
X78392738Y-93026880D01*
X78368928Y-93003071D01*
X77868928Y-89883690D02*
X78178452Y-89883690D01*
X78011785Y-90074166D01*
X78083214Y-90074166D01*
X78130833Y-90097976D01*
X78154642Y-90121785D01*
X78178452Y-90169404D01*
X78178452Y-90288452D01*
X78154642Y-90336071D01*
X78130833Y-90359880D01*
X78083214Y-90383690D01*
X77940357Y-90383690D01*
X77892738Y-90359880D01*
X77868928Y-90336071D01*
X78345119Y-89883690D02*
X78654642Y-89883690D01*
X78487976Y-90074166D01*
X78559404Y-90074166D01*
X78607023Y-90097976D01*
X78630833Y-90121785D01*
X78654642Y-90169404D01*
X78654642Y-90288452D01*
X78630833Y-90336071D01*
X78607023Y-90359880D01*
X78559404Y-90383690D01*
X78416547Y-90383690D01*
X78368928Y-90359880D01*
X78345119Y-90336071D01*
X77868928Y-87216690D02*
X78178452Y-87216690D01*
X78011785Y-87407166D01*
X78083214Y-87407166D01*
X78130833Y-87430976D01*
X78154642Y-87454785D01*
X78178452Y-87502404D01*
X78178452Y-87621452D01*
X78154642Y-87669071D01*
X78130833Y-87692880D01*
X78083214Y-87716690D01*
X77940357Y-87716690D01*
X77892738Y-87692880D01*
X77868928Y-87669071D01*
X78368928Y-87264309D02*
X78392738Y-87240500D01*
X78440357Y-87216690D01*
X78559404Y-87216690D01*
X78607023Y-87240500D01*
X78630833Y-87264309D01*
X78654642Y-87311928D01*
X78654642Y-87359547D01*
X78630833Y-87430976D01*
X78345119Y-87716690D01*
X78654642Y-87716690D01*
X77868928Y-84803690D02*
X78178452Y-84803690D01*
X78011785Y-84994166D01*
X78083214Y-84994166D01*
X78130833Y-85017976D01*
X78154642Y-85041785D01*
X78178452Y-85089404D01*
X78178452Y-85208452D01*
X78154642Y-85256071D01*
X78130833Y-85279880D01*
X78083214Y-85303690D01*
X77940357Y-85303690D01*
X77892738Y-85279880D01*
X77868928Y-85256071D01*
X78630833Y-84803690D02*
X78392738Y-84803690D01*
X78368928Y-85041785D01*
X78392738Y-85017976D01*
X78440357Y-84994166D01*
X78559404Y-84994166D01*
X78607023Y-85017976D01*
X78630833Y-85041785D01*
X78654642Y-85089404D01*
X78654642Y-85208452D01*
X78630833Y-85256071D01*
X78607023Y-85279880D01*
X78559404Y-85303690D01*
X78440357Y-85303690D01*
X78392738Y-85279880D01*
X78368928Y-85256071D01*
X77868928Y-82263690D02*
X78178452Y-82263690D01*
X78011785Y-82454166D01*
X78083214Y-82454166D01*
X78130833Y-82477976D01*
X78154642Y-82501785D01*
X78178452Y-82549404D01*
X78178452Y-82668452D01*
X78154642Y-82716071D01*
X78130833Y-82739880D01*
X78083214Y-82763690D01*
X77940357Y-82763690D01*
X77892738Y-82739880D01*
X77868928Y-82716071D01*
X78607023Y-82430357D02*
X78607023Y-82763690D01*
X78487976Y-82239880D02*
X78368928Y-82597023D01*
X78678452Y-82597023D01*
X77996525Y-80426684D02*
X78063869Y-80393012D01*
X78148048Y-80308833D01*
X78164884Y-80258325D01*
X78164884Y-80224653D01*
X78148048Y-80174146D01*
X78114376Y-80140474D01*
X78063869Y-80123638D01*
X78030197Y-80123638D01*
X77979689Y-80140474D01*
X77895510Y-80190982D01*
X77845002Y-80207817D01*
X77811330Y-80207817D01*
X77760823Y-80190982D01*
X77727151Y-80157310D01*
X77710315Y-80106802D01*
X77710315Y-80073130D01*
X77727151Y-80022623D01*
X77811330Y-79938443D01*
X77878674Y-79904772D01*
X78181720Y-79904772D02*
X78299571Y-79786920D01*
X78535273Y-79921608D02*
X78366914Y-80089966D01*
X78013361Y-79736413D01*
X78181720Y-79568054D01*
X78686796Y-79770085D02*
X78333243Y-79416531D01*
X78888827Y-79568054D01*
X78535273Y-79214501D01*
X79006678Y-79517546D02*
X79276052Y-79248172D01*
X78922498Y-78827276D02*
X79393903Y-79062978D01*
X79158201Y-78591573D01*
X79629605Y-78827276D02*
X79276052Y-78473722D01*
X79831636Y-78625245D01*
X79478082Y-78271692D01*
X78123525Y-78267684D02*
X78190869Y-78234012D01*
X78275048Y-78149833D01*
X78291884Y-78099325D01*
X78291884Y-78065653D01*
X78275048Y-78015146D01*
X78241376Y-77981474D01*
X78190869Y-77964638D01*
X78157197Y-77964638D01*
X78106689Y-77981474D01*
X78022510Y-78031982D01*
X77972002Y-78048817D01*
X77938330Y-78048817D01*
X77887823Y-78031982D01*
X77854151Y-77998310D01*
X77837315Y-77947802D01*
X77837315Y-77914130D01*
X77854151Y-77863623D01*
X77938330Y-77779443D01*
X78005674Y-77745772D01*
X78308720Y-77745772D02*
X78426571Y-77627920D01*
X78662273Y-77762608D02*
X78493914Y-77930966D01*
X78140361Y-77577413D01*
X78308720Y-77409054D01*
X78813796Y-77611085D02*
X78460243Y-77257531D01*
X79015827Y-77409054D01*
X78662273Y-77055501D01*
X79133678Y-77358546D02*
X79403052Y-77089172D01*
X79049498Y-76668276D02*
X79520903Y-76903978D01*
X79285201Y-76432573D01*
X79756605Y-76668276D02*
X79403052Y-76314722D01*
X79537739Y-76180035D01*
X79588246Y-76163199D01*
X79621918Y-76163199D01*
X79672426Y-76180035D01*
X79722933Y-76230543D01*
X79739769Y-76281050D01*
X79739769Y-76314722D01*
X79722933Y-76365230D01*
X79588246Y-76499917D01*
X77916547Y-74881785D02*
X78083214Y-74881785D01*
X78154642Y-75143690D02*
X77916547Y-75143690D01*
X77916547Y-74643690D01*
X78154642Y-74643690D01*
X78368928Y-75143690D02*
X78368928Y-74643690D01*
X78654642Y-75143690D01*
X78654642Y-74643690D01*
X77868928Y-72103690D02*
X78178452Y-72103690D01*
X78011785Y-72294166D01*
X78083214Y-72294166D01*
X78130833Y-72317976D01*
X78154642Y-72341785D01*
X78178452Y-72389404D01*
X78178452Y-72508452D01*
X78154642Y-72556071D01*
X78130833Y-72579880D01*
X78083214Y-72603690D01*
X77940357Y-72603690D01*
X77892738Y-72579880D01*
X77868928Y-72556071D01*
X78321309Y-72103690D02*
X78487976Y-72603690D01*
X78654642Y-72103690D01*
X78773690Y-72103690D02*
X79083214Y-72103690D01*
X78916547Y-72294166D01*
X78987976Y-72294166D01*
X79035595Y-72317976D01*
X79059404Y-72341785D01*
X79083214Y-72389404D01*
X79083214Y-72508452D01*
X79059404Y-72556071D01*
X79035595Y-72579880D01*
X78987976Y-72603690D01*
X78845119Y-72603690D01*
X78797500Y-72579880D01*
X78773690Y-72556071D01*
D11*
X94948023Y-104451357D02*
X95214690Y-104451357D01*
X95328976Y-104870404D02*
X94948023Y-104870404D01*
X94948023Y-104070404D01*
X95328976Y-104070404D01*
X95671833Y-104870404D02*
X95671833Y-104070404D01*
X96128976Y-104870404D01*
X96128976Y-104070404D01*
X82641785Y-104324357D02*
X82756071Y-104362452D01*
X82794166Y-104400547D01*
X82832261Y-104476738D01*
X82832261Y-104591023D01*
X82794166Y-104667214D01*
X82756071Y-104705309D01*
X82679880Y-104743404D01*
X82375119Y-104743404D01*
X82375119Y-103943404D01*
X82641785Y-103943404D01*
X82717976Y-103981500D01*
X82756071Y-104019595D01*
X82794166Y-104095785D01*
X82794166Y-104171976D01*
X82756071Y-104248166D01*
X82717976Y-104286261D01*
X82641785Y-104324357D01*
X82375119Y-104324357D01*
X83327500Y-103943404D02*
X83479880Y-103943404D01*
X83556071Y-103981500D01*
X83632261Y-104057690D01*
X83670357Y-104210071D01*
X83670357Y-104476738D01*
X83632261Y-104629119D01*
X83556071Y-104705309D01*
X83479880Y-104743404D01*
X83327500Y-104743404D01*
X83251309Y-104705309D01*
X83175119Y-104629119D01*
X83137023Y-104476738D01*
X83137023Y-104210071D01*
X83175119Y-104057690D01*
X83251309Y-103981500D01*
X83327500Y-103943404D01*
X84165595Y-103943404D02*
X84317976Y-103943404D01*
X84394166Y-103981500D01*
X84470357Y-104057690D01*
X84508452Y-104210071D01*
X84508452Y-104476738D01*
X84470357Y-104629119D01*
X84394166Y-104705309D01*
X84317976Y-104743404D01*
X84165595Y-104743404D01*
X84089404Y-104705309D01*
X84013214Y-104629119D01*
X83975119Y-104476738D01*
X83975119Y-104210071D01*
X84013214Y-104057690D01*
X84089404Y-103981500D01*
X84165595Y-103943404D01*
X84737023Y-103943404D02*
X85194166Y-103943404D01*
X84965595Y-104743404D02*
X84965595Y-103943404D01*
%TO.C,J1*%
X89462000Y-112197428D02*
X89462000Y-112626000D01*
X89433428Y-112711714D01*
X89376285Y-112768857D01*
X89290571Y-112797428D01*
X89233428Y-112797428D01*
X90062000Y-112797428D02*
X89719142Y-112797428D01*
X89890571Y-112797428D02*
X89890571Y-112197428D01*
X89833428Y-112283142D01*
X89776285Y-112340285D01*
X89719142Y-112368857D01*
%TO.C,MOD1*%
X88816000Y-66057428D02*
X88816000Y-65457428D01*
X89016000Y-65886000D01*
X89216000Y-65457428D01*
X89216000Y-66057428D01*
X89616000Y-65457428D02*
X89730285Y-65457428D01*
X89787428Y-65486000D01*
X89844571Y-65543142D01*
X89873142Y-65657428D01*
X89873142Y-65857428D01*
X89844571Y-65971714D01*
X89787428Y-66028857D01*
X89730285Y-66057428D01*
X89616000Y-66057428D01*
X89558857Y-66028857D01*
X89501714Y-65971714D01*
X89473142Y-65857428D01*
X89473142Y-65657428D01*
X89501714Y-65543142D01*
X89558857Y-65486000D01*
X89616000Y-65457428D01*
X90130285Y-66057428D02*
X90130285Y-65457428D01*
X90273142Y-65457428D01*
X90358857Y-65486000D01*
X90416000Y-65543142D01*
X90444571Y-65600285D01*
X90473142Y-65714571D01*
X90473142Y-65800285D01*
X90444571Y-65914571D01*
X90416000Y-65971714D01*
X90358857Y-66028857D01*
X90273142Y-66057428D01*
X90130285Y-66057428D01*
X91044571Y-66057428D02*
X90701714Y-66057428D01*
X90873142Y-66057428D02*
X90873142Y-65457428D01*
X90816000Y-65543142D01*
X90758857Y-65600285D01*
X90701714Y-65628857D01*
%TO.C,C20*%
X83932925Y-95705785D02*
X83904354Y-95734357D01*
X83818640Y-95762928D01*
X83761497Y-95762928D01*
X83675782Y-95734357D01*
X83618640Y-95677214D01*
X83590068Y-95620071D01*
X83561497Y-95505785D01*
X83561497Y-95420071D01*
X83590068Y-95305785D01*
X83618640Y-95248642D01*
X83675782Y-95191500D01*
X83761497Y-95162928D01*
X83818640Y-95162928D01*
X83904354Y-95191500D01*
X83932925Y-95220071D01*
X84161497Y-95220071D02*
X84190068Y-95191500D01*
X84247211Y-95162928D01*
X84390068Y-95162928D01*
X84447211Y-95191500D01*
X84475782Y-95220071D01*
X84504354Y-95277214D01*
X84504354Y-95334357D01*
X84475782Y-95420071D01*
X84132925Y-95762928D01*
X84504354Y-95762928D01*
X84875782Y-95162928D02*
X84932925Y-95162928D01*
X84990068Y-95191500D01*
X85018640Y-95220071D01*
X85047211Y-95277214D01*
X85075782Y-95391500D01*
X85075782Y-95534357D01*
X85047211Y-95648642D01*
X85018640Y-95705785D01*
X84990068Y-95734357D01*
X84932925Y-95762928D01*
X84875782Y-95762928D01*
X84818640Y-95734357D01*
X84790068Y-95705785D01*
X84761497Y-95648642D01*
X84732925Y-95534357D01*
X84732925Y-95391500D01*
X84761497Y-95277214D01*
X84790068Y-95220071D01*
X84818640Y-95191500D01*
X84875782Y-95162928D01*
%TO.C,C15*%
X78464451Y-104338285D02*
X78435880Y-104366857D01*
X78350166Y-104395428D01*
X78293023Y-104395428D01*
X78207308Y-104366857D01*
X78150166Y-104309714D01*
X78121594Y-104252571D01*
X78093023Y-104138285D01*
X78093023Y-104052571D01*
X78121594Y-103938285D01*
X78150166Y-103881142D01*
X78207308Y-103824000D01*
X78293023Y-103795428D01*
X78350166Y-103795428D01*
X78435880Y-103824000D01*
X78464451Y-103852571D01*
X79035880Y-104395428D02*
X78693023Y-104395428D01*
X78864451Y-104395428D02*
X78864451Y-103795428D01*
X78807308Y-103881142D01*
X78750166Y-103938285D01*
X78693023Y-103966857D01*
X79578737Y-103795428D02*
X79293023Y-103795428D01*
X79264451Y-104081142D01*
X79293023Y-104052571D01*
X79350166Y-104024000D01*
X79493023Y-104024000D01*
X79550166Y-104052571D01*
X79578737Y-104081142D01*
X79607308Y-104138285D01*
X79607308Y-104281142D01*
X79578737Y-104338285D01*
X79550166Y-104366857D01*
X79493023Y-104395428D01*
X79350166Y-104395428D01*
X79293023Y-104366857D01*
X79264451Y-104338285D01*
%TO.C,R26*%
X92677217Y-102395428D02*
X92477217Y-102109714D01*
X92334360Y-102395428D02*
X92334360Y-101795428D01*
X92562932Y-101795428D01*
X92620074Y-101824000D01*
X92648646Y-101852571D01*
X92677217Y-101909714D01*
X92677217Y-101995428D01*
X92648646Y-102052571D01*
X92620074Y-102081142D01*
X92562932Y-102109714D01*
X92334360Y-102109714D01*
X92905789Y-101852571D02*
X92934360Y-101824000D01*
X92991503Y-101795428D01*
X93134360Y-101795428D01*
X93191503Y-101824000D01*
X93220074Y-101852571D01*
X93248646Y-101909714D01*
X93248646Y-101966857D01*
X93220074Y-102052571D01*
X92877217Y-102395428D01*
X93248646Y-102395428D01*
X93762932Y-101795428D02*
X93648646Y-101795428D01*
X93591503Y-101824000D01*
X93562932Y-101852571D01*
X93505789Y-101938285D01*
X93477217Y-102052571D01*
X93477217Y-102281142D01*
X93505789Y-102338285D01*
X93534360Y-102366857D01*
X93591503Y-102395428D01*
X93705789Y-102395428D01*
X93762932Y-102366857D01*
X93791503Y-102338285D01*
X93820074Y-102281142D01*
X93820074Y-102138285D01*
X93791503Y-102081142D01*
X93762932Y-102052571D01*
X93705789Y-102024000D01*
X93591503Y-102024000D01*
X93534360Y-102052571D01*
X93505789Y-102081142D01*
X93477217Y-102138285D01*
%TO.C,R25*%
X86176151Y-102395428D02*
X85976151Y-102109714D01*
X85833294Y-102395428D02*
X85833294Y-101795428D01*
X86061866Y-101795428D01*
X86119008Y-101824000D01*
X86147580Y-101852571D01*
X86176151Y-101909714D01*
X86176151Y-101995428D01*
X86147580Y-102052571D01*
X86119008Y-102081142D01*
X86061866Y-102109714D01*
X85833294Y-102109714D01*
X86404723Y-101852571D02*
X86433294Y-101824000D01*
X86490437Y-101795428D01*
X86633294Y-101795428D01*
X86690437Y-101824000D01*
X86719008Y-101852571D01*
X86747580Y-101909714D01*
X86747580Y-101966857D01*
X86719008Y-102052571D01*
X86376151Y-102395428D01*
X86747580Y-102395428D01*
X87290437Y-101795428D02*
X87004723Y-101795428D01*
X86976151Y-102081142D01*
X87004723Y-102052571D01*
X87061866Y-102024000D01*
X87204723Y-102024000D01*
X87261866Y-102052571D01*
X87290437Y-102081142D01*
X87319008Y-102138285D01*
X87319008Y-102281142D01*
X87290437Y-102338285D01*
X87261866Y-102366857D01*
X87204723Y-102395428D01*
X87061866Y-102395428D01*
X87004723Y-102366857D01*
X86976151Y-102338285D01*
%TO.C,R24*%
X91127805Y-95635928D02*
X90927805Y-95350214D01*
X90784948Y-95635928D02*
X90784948Y-95035928D01*
X91013520Y-95035928D01*
X91070662Y-95064500D01*
X91099234Y-95093071D01*
X91127805Y-95150214D01*
X91127805Y-95235928D01*
X91099234Y-95293071D01*
X91070662Y-95321642D01*
X91013520Y-95350214D01*
X90784948Y-95350214D01*
X91356377Y-95093071D02*
X91384948Y-95064500D01*
X91442091Y-95035928D01*
X91584948Y-95035928D01*
X91642091Y-95064500D01*
X91670662Y-95093071D01*
X91699234Y-95150214D01*
X91699234Y-95207357D01*
X91670662Y-95293071D01*
X91327805Y-95635928D01*
X91699234Y-95635928D01*
X92213520Y-95235928D02*
X92213520Y-95635928D01*
X92070662Y-95007357D02*
X91927805Y-95435928D01*
X92299234Y-95435928D01*
%TO.C,R23*%
X93885985Y-98179028D02*
X93685985Y-97893314D01*
X93543128Y-98179028D02*
X93543128Y-97579028D01*
X93771700Y-97579028D01*
X93828842Y-97607600D01*
X93857414Y-97636171D01*
X93885985Y-97693314D01*
X93885985Y-97779028D01*
X93857414Y-97836171D01*
X93828842Y-97864742D01*
X93771700Y-97893314D01*
X93543128Y-97893314D01*
X94114557Y-97636171D02*
X94143128Y-97607600D01*
X94200271Y-97579028D01*
X94343128Y-97579028D01*
X94400271Y-97607600D01*
X94428842Y-97636171D01*
X94457414Y-97693314D01*
X94457414Y-97750457D01*
X94428842Y-97836171D01*
X94085985Y-98179028D01*
X94457414Y-98179028D01*
X94657414Y-97579028D02*
X95028842Y-97579028D01*
X94828842Y-97807600D01*
X94914557Y-97807600D01*
X94971700Y-97836171D01*
X95000271Y-97864742D01*
X95028842Y-97921885D01*
X95028842Y-98064742D01*
X95000271Y-98121885D01*
X94971700Y-98150457D01*
X94914557Y-98179028D01*
X94743128Y-98179028D01*
X94685985Y-98150457D01*
X94657414Y-98121885D01*
%TO.C,R22*%
X97535285Y-118397428D02*
X97335285Y-118111714D01*
X97192428Y-118397428D02*
X97192428Y-117797428D01*
X97421000Y-117797428D01*
X97478142Y-117826000D01*
X97506714Y-117854571D01*
X97535285Y-117911714D01*
X97535285Y-117997428D01*
X97506714Y-118054571D01*
X97478142Y-118083142D01*
X97421000Y-118111714D01*
X97192428Y-118111714D01*
X97763857Y-117854571D02*
X97792428Y-117826000D01*
X97849571Y-117797428D01*
X97992428Y-117797428D01*
X98049571Y-117826000D01*
X98078142Y-117854571D01*
X98106714Y-117911714D01*
X98106714Y-117968857D01*
X98078142Y-118054571D01*
X97735285Y-118397428D01*
X98106714Y-118397428D01*
X98335285Y-117854571D02*
X98363857Y-117826000D01*
X98421000Y-117797428D01*
X98563857Y-117797428D01*
X98621000Y-117826000D01*
X98649571Y-117854571D01*
X98678142Y-117911714D01*
X98678142Y-117968857D01*
X98649571Y-118054571D01*
X98306714Y-118397428D01*
X98678142Y-118397428D01*
%TO.C,R21*%
X80894285Y-119508428D02*
X80694285Y-119222714D01*
X80551428Y-119508428D02*
X80551428Y-118908428D01*
X80780000Y-118908428D01*
X80837142Y-118937000D01*
X80865714Y-118965571D01*
X80894285Y-119022714D01*
X80894285Y-119108428D01*
X80865714Y-119165571D01*
X80837142Y-119194142D01*
X80780000Y-119222714D01*
X80551428Y-119222714D01*
X81122857Y-118965571D02*
X81151428Y-118937000D01*
X81208571Y-118908428D01*
X81351428Y-118908428D01*
X81408571Y-118937000D01*
X81437142Y-118965571D01*
X81465714Y-119022714D01*
X81465714Y-119079857D01*
X81437142Y-119165571D01*
X81094285Y-119508428D01*
X81465714Y-119508428D01*
X82037142Y-119508428D02*
X81694285Y-119508428D01*
X81865714Y-119508428D02*
X81865714Y-118908428D01*
X81808571Y-118994142D01*
X81751428Y-119051285D01*
X81694285Y-119079857D01*
%TO.C,R18*%
X98327785Y-95635928D02*
X98127785Y-95350214D01*
X97984928Y-95635928D02*
X97984928Y-95035928D01*
X98213500Y-95035928D01*
X98270642Y-95064500D01*
X98299214Y-95093071D01*
X98327785Y-95150214D01*
X98327785Y-95235928D01*
X98299214Y-95293071D01*
X98270642Y-95321642D01*
X98213500Y-95350214D01*
X97984928Y-95350214D01*
X98899214Y-95635928D02*
X98556357Y-95635928D01*
X98727785Y-95635928D02*
X98727785Y-95035928D01*
X98670642Y-95121642D01*
X98613500Y-95178785D01*
X98556357Y-95207357D01*
X99242071Y-95293071D02*
X99184928Y-95264500D01*
X99156357Y-95235928D01*
X99127785Y-95178785D01*
X99127785Y-95150214D01*
X99156357Y-95093071D01*
X99184928Y-95064500D01*
X99242071Y-95035928D01*
X99356357Y-95035928D01*
X99413500Y-95064500D01*
X99442071Y-95093071D01*
X99470642Y-95150214D01*
X99470642Y-95178785D01*
X99442071Y-95235928D01*
X99413500Y-95264500D01*
X99356357Y-95293071D01*
X99242071Y-95293071D01*
X99184928Y-95321642D01*
X99156357Y-95350214D01*
X99127785Y-95407357D01*
X99127785Y-95521642D01*
X99156357Y-95578785D01*
X99184928Y-95607357D01*
X99242071Y-95635928D01*
X99356357Y-95635928D01*
X99413500Y-95607357D01*
X99442071Y-95578785D01*
X99470642Y-95521642D01*
X99470642Y-95407357D01*
X99442071Y-95350214D01*
X99413500Y-95321642D01*
X99356357Y-95293071D01*
%TO.C,R17*%
X94725245Y-95486628D02*
X94525245Y-95200914D01*
X94382388Y-95486628D02*
X94382388Y-94886628D01*
X94610960Y-94886628D01*
X94668102Y-94915200D01*
X94696674Y-94943771D01*
X94725245Y-95000914D01*
X94725245Y-95086628D01*
X94696674Y-95143771D01*
X94668102Y-95172342D01*
X94610960Y-95200914D01*
X94382388Y-95200914D01*
X95296674Y-95486628D02*
X94953817Y-95486628D01*
X95125245Y-95486628D02*
X95125245Y-94886628D01*
X95068102Y-94972342D01*
X95010960Y-95029485D01*
X94953817Y-95058057D01*
X95496674Y-94886628D02*
X95896674Y-94886628D01*
X95639531Y-95486628D01*
%TO.C,R11*%
X98318685Y-98179028D02*
X98118685Y-97893314D01*
X97975828Y-98179028D02*
X97975828Y-97579028D01*
X98204400Y-97579028D01*
X98261542Y-97607600D01*
X98290114Y-97636171D01*
X98318685Y-97693314D01*
X98318685Y-97779028D01*
X98290114Y-97836171D01*
X98261542Y-97864742D01*
X98204400Y-97893314D01*
X97975828Y-97893314D01*
X98890114Y-98179028D02*
X98547257Y-98179028D01*
X98718685Y-98179028D02*
X98718685Y-97579028D01*
X98661542Y-97664742D01*
X98604400Y-97721885D01*
X98547257Y-97750457D01*
X99461542Y-98179028D02*
X99118685Y-98179028D01*
X99290114Y-98179028D02*
X99290114Y-97579028D01*
X99232971Y-97664742D01*
X99175828Y-97721885D01*
X99118685Y-97750457D01*
%TO.C,R2*%
X89739000Y-98179028D02*
X89539000Y-97893314D01*
X89396142Y-98179028D02*
X89396142Y-97579028D01*
X89624714Y-97579028D01*
X89681857Y-97607600D01*
X89710428Y-97636171D01*
X89739000Y-97693314D01*
X89739000Y-97779028D01*
X89710428Y-97836171D01*
X89681857Y-97864742D01*
X89624714Y-97893314D01*
X89396142Y-97893314D01*
X89967571Y-97636171D02*
X89996142Y-97607600D01*
X90053285Y-97579028D01*
X90196142Y-97579028D01*
X90253285Y-97607600D01*
X90281857Y-97636171D01*
X90310428Y-97693314D01*
X90310428Y-97750457D01*
X90281857Y-97836171D01*
X89939000Y-98179028D01*
X90310428Y-98179028D01*
%TO.C,Q2*%
X99291357Y-113473071D02*
X99234214Y-113444500D01*
X99177071Y-113387357D01*
X99091357Y-113301642D01*
X99034214Y-113273071D01*
X98977071Y-113273071D01*
X99005642Y-113415928D02*
X98948500Y-113387357D01*
X98891357Y-113330214D01*
X98862785Y-113215928D01*
X98862785Y-113015928D01*
X98891357Y-112901642D01*
X98948500Y-112844500D01*
X99005642Y-112815928D01*
X99119928Y-112815928D01*
X99177071Y-112844500D01*
X99234214Y-112901642D01*
X99262785Y-113015928D01*
X99262785Y-113215928D01*
X99234214Y-113330214D01*
X99177071Y-113387357D01*
X99119928Y-113415928D01*
X99005642Y-113415928D01*
X99491357Y-112873071D02*
X99519928Y-112844500D01*
X99577071Y-112815928D01*
X99719928Y-112815928D01*
X99777071Y-112844500D01*
X99805642Y-112873071D01*
X99834214Y-112930214D01*
X99834214Y-112987357D01*
X99805642Y-113073071D01*
X99462785Y-113415928D01*
X99834214Y-113415928D01*
%TO.C,Q1*%
X80114357Y-113219071D02*
X80057214Y-113190500D01*
X80000071Y-113133357D01*
X79914357Y-113047642D01*
X79857214Y-113019071D01*
X79800071Y-113019071D01*
X79828642Y-113161928D02*
X79771500Y-113133357D01*
X79714357Y-113076214D01*
X79685785Y-112961928D01*
X79685785Y-112761928D01*
X79714357Y-112647642D01*
X79771500Y-112590500D01*
X79828642Y-112561928D01*
X79942928Y-112561928D01*
X80000071Y-112590500D01*
X80057214Y-112647642D01*
X80085785Y-112761928D01*
X80085785Y-112961928D01*
X80057214Y-113076214D01*
X80000071Y-113133357D01*
X79942928Y-113161928D01*
X79828642Y-113161928D01*
X80657214Y-113161928D02*
X80314357Y-113161928D01*
X80485785Y-113161928D02*
X80485785Y-112561928D01*
X80428642Y-112647642D01*
X80371500Y-112704785D01*
X80314357Y-112733357D01*
%TO.C,D6*%
X80633942Y-91482228D02*
X80633942Y-90882228D01*
X80776800Y-90882228D01*
X80862514Y-90910800D01*
X80919657Y-90967942D01*
X80948228Y-91025085D01*
X80976800Y-91139371D01*
X80976800Y-91225085D01*
X80948228Y-91339371D01*
X80919657Y-91396514D01*
X80862514Y-91453657D01*
X80776800Y-91482228D01*
X80633942Y-91482228D01*
X81491085Y-90882228D02*
X81376800Y-90882228D01*
X81319657Y-90910800D01*
X81291085Y-90939371D01*
X81233942Y-91025085D01*
X81205371Y-91139371D01*
X81205371Y-91367942D01*
X81233942Y-91425085D01*
X81262514Y-91453657D01*
X81319657Y-91482228D01*
X81433942Y-91482228D01*
X81491085Y-91453657D01*
X81519657Y-91425085D01*
X81548228Y-91367942D01*
X81548228Y-91225085D01*
X81519657Y-91167942D01*
X81491085Y-91139371D01*
X81433942Y-91110800D01*
X81319657Y-91110800D01*
X81262514Y-91139371D01*
X81233942Y-91167942D01*
X81205371Y-91225085D01*
%TO.C,D5*%
X84587042Y-91482228D02*
X84587042Y-90882228D01*
X84729900Y-90882228D01*
X84815614Y-90910800D01*
X84872757Y-90967942D01*
X84901328Y-91025085D01*
X84929900Y-91139371D01*
X84929900Y-91225085D01*
X84901328Y-91339371D01*
X84872757Y-91396514D01*
X84815614Y-91453657D01*
X84729900Y-91482228D01*
X84587042Y-91482228D01*
X85472757Y-90882228D02*
X85187042Y-90882228D01*
X85158471Y-91167942D01*
X85187042Y-91139371D01*
X85244185Y-91110800D01*
X85387042Y-91110800D01*
X85444185Y-91139371D01*
X85472757Y-91167942D01*
X85501328Y-91225085D01*
X85501328Y-91367942D01*
X85472757Y-91425085D01*
X85444185Y-91453657D01*
X85387042Y-91482228D01*
X85244185Y-91482228D01*
X85187042Y-91453657D01*
X85158471Y-91425085D01*
%TO.C,D4*%
X92936642Y-91571928D02*
X92936642Y-90971928D01*
X93079500Y-90971928D01*
X93165214Y-91000500D01*
X93222357Y-91057642D01*
X93250928Y-91114785D01*
X93279500Y-91229071D01*
X93279500Y-91314785D01*
X93250928Y-91429071D01*
X93222357Y-91486214D01*
X93165214Y-91543357D01*
X93079500Y-91571928D01*
X92936642Y-91571928D01*
X93793785Y-91171928D02*
X93793785Y-91571928D01*
X93650928Y-90943357D02*
X93508071Y-91371928D01*
X93879500Y-91371928D01*
%TO.C,D3*%
X97254642Y-91571928D02*
X97254642Y-90971928D01*
X97397500Y-90971928D01*
X97483214Y-91000500D01*
X97540357Y-91057642D01*
X97568928Y-91114785D01*
X97597500Y-91229071D01*
X97597500Y-91314785D01*
X97568928Y-91429071D01*
X97540357Y-91486214D01*
X97483214Y-91543357D01*
X97397500Y-91571928D01*
X97254642Y-91571928D01*
X97797500Y-90971928D02*
X98168928Y-90971928D01*
X97968928Y-91200500D01*
X98054642Y-91200500D01*
X98111785Y-91229071D01*
X98140357Y-91257642D01*
X98168928Y-91314785D01*
X98168928Y-91457642D01*
X98140357Y-91514785D01*
X98111785Y-91543357D01*
X98054642Y-91571928D01*
X97883214Y-91571928D01*
X97826071Y-91543357D01*
X97797500Y-91514785D01*
%TO.C,D1*%
X88810142Y-91422228D02*
X88810142Y-90822228D01*
X88953000Y-90822228D01*
X89038714Y-90850800D01*
X89095857Y-90907942D01*
X89124428Y-90965085D01*
X89153000Y-91079371D01*
X89153000Y-91165085D01*
X89124428Y-91279371D01*
X89095857Y-91336514D01*
X89038714Y-91393657D01*
X88953000Y-91422228D01*
X88810142Y-91422228D01*
X89724428Y-91422228D02*
X89381571Y-91422228D01*
X89553000Y-91422228D02*
X89553000Y-90822228D01*
X89495857Y-90907942D01*
X89438714Y-90965085D01*
X89381571Y-90993657D01*
%TO.C,C22*%
X80335485Y-95429485D02*
X80306914Y-95458057D01*
X80221200Y-95486628D01*
X80164057Y-95486628D01*
X80078342Y-95458057D01*
X80021200Y-95400914D01*
X79992628Y-95343771D01*
X79964057Y-95229485D01*
X79964057Y-95143771D01*
X79992628Y-95029485D01*
X80021200Y-94972342D01*
X80078342Y-94915200D01*
X80164057Y-94886628D01*
X80221200Y-94886628D01*
X80306914Y-94915200D01*
X80335485Y-94943771D01*
X80564057Y-94943771D02*
X80592628Y-94915200D01*
X80649771Y-94886628D01*
X80792628Y-94886628D01*
X80849771Y-94915200D01*
X80878342Y-94943771D01*
X80906914Y-95000914D01*
X80906914Y-95058057D01*
X80878342Y-95143771D01*
X80535485Y-95486628D01*
X80906914Y-95486628D01*
X81135485Y-94943771D02*
X81164057Y-94915200D01*
X81221200Y-94886628D01*
X81364057Y-94886628D01*
X81421200Y-94915200D01*
X81449771Y-94943771D01*
X81478342Y-95000914D01*
X81478342Y-95058057D01*
X81449771Y-95143771D01*
X81106914Y-95486628D01*
X81478342Y-95486628D01*
%TO.C,C21*%
X80487885Y-98121885D02*
X80459314Y-98150457D01*
X80373600Y-98179028D01*
X80316457Y-98179028D01*
X80230742Y-98150457D01*
X80173600Y-98093314D01*
X80145028Y-98036171D01*
X80116457Y-97921885D01*
X80116457Y-97836171D01*
X80145028Y-97721885D01*
X80173600Y-97664742D01*
X80230742Y-97607600D01*
X80316457Y-97579028D01*
X80373600Y-97579028D01*
X80459314Y-97607600D01*
X80487885Y-97636171D01*
X80716457Y-97636171D02*
X80745028Y-97607600D01*
X80802171Y-97579028D01*
X80945028Y-97579028D01*
X81002171Y-97607600D01*
X81030742Y-97636171D01*
X81059314Y-97693314D01*
X81059314Y-97750457D01*
X81030742Y-97836171D01*
X80687885Y-98179028D01*
X81059314Y-98179028D01*
X81630742Y-98179028D02*
X81287885Y-98179028D01*
X81459314Y-98179028D02*
X81459314Y-97579028D01*
X81402171Y-97664742D01*
X81345028Y-97721885D01*
X81287885Y-97750457D01*
%TO.C,C19*%
X85020585Y-98121885D02*
X84992014Y-98150457D01*
X84906300Y-98179028D01*
X84849157Y-98179028D01*
X84763442Y-98150457D01*
X84706300Y-98093314D01*
X84677728Y-98036171D01*
X84649157Y-97921885D01*
X84649157Y-97836171D01*
X84677728Y-97721885D01*
X84706300Y-97664742D01*
X84763442Y-97607600D01*
X84849157Y-97579028D01*
X84906300Y-97579028D01*
X84992014Y-97607600D01*
X85020585Y-97636171D01*
X85592014Y-98179028D02*
X85249157Y-98179028D01*
X85420585Y-98179028D02*
X85420585Y-97579028D01*
X85363442Y-97664742D01*
X85306300Y-97721885D01*
X85249157Y-97750457D01*
X85877728Y-98179028D02*
X85992014Y-98179028D01*
X86049157Y-98150457D01*
X86077728Y-98121885D01*
X86134871Y-98036171D01*
X86163442Y-97921885D01*
X86163442Y-97693314D01*
X86134871Y-97636171D01*
X86106300Y-97607600D01*
X86049157Y-97579028D01*
X85934871Y-97579028D01*
X85877728Y-97607600D01*
X85849157Y-97636171D01*
X85820585Y-97693314D01*
X85820585Y-97836171D01*
X85849157Y-97893314D01*
X85877728Y-97921885D01*
X85934871Y-97950457D01*
X86049157Y-97950457D01*
X86106300Y-97921885D01*
X86134871Y-97893314D01*
X86163442Y-97836171D01*
%TO.C,C14*%
X99178285Y-102338285D02*
X99149714Y-102366857D01*
X99064000Y-102395428D01*
X99006857Y-102395428D01*
X98921142Y-102366857D01*
X98864000Y-102309714D01*
X98835428Y-102252571D01*
X98806857Y-102138285D01*
X98806857Y-102052571D01*
X98835428Y-101938285D01*
X98864000Y-101881142D01*
X98921142Y-101824000D01*
X99006857Y-101795428D01*
X99064000Y-101795428D01*
X99149714Y-101824000D01*
X99178285Y-101852571D01*
X99749714Y-102395428D02*
X99406857Y-102395428D01*
X99578285Y-102395428D02*
X99578285Y-101795428D01*
X99521142Y-101881142D01*
X99464000Y-101938285D01*
X99406857Y-101966857D01*
X100264000Y-101995428D02*
X100264000Y-102395428D01*
X100121142Y-101766857D02*
X99978285Y-102195428D01*
X100349714Y-102195428D01*
%TO.C,C9*%
X87816080Y-95578785D02*
X87787508Y-95607357D01*
X87701794Y-95635928D01*
X87644651Y-95635928D01*
X87558937Y-95607357D01*
X87501794Y-95550214D01*
X87473222Y-95493071D01*
X87444651Y-95378785D01*
X87444651Y-95293071D01*
X87473222Y-95178785D01*
X87501794Y-95121642D01*
X87558937Y-95064500D01*
X87644651Y-95035928D01*
X87701794Y-95035928D01*
X87787508Y-95064500D01*
X87816080Y-95093071D01*
X88101794Y-95635928D02*
X88216080Y-95635928D01*
X88273222Y-95607357D01*
X88301794Y-95578785D01*
X88358937Y-95493071D01*
X88387508Y-95378785D01*
X88387508Y-95150214D01*
X88358937Y-95093071D01*
X88330365Y-95064500D01*
X88273222Y-95035928D01*
X88158937Y-95035928D01*
X88101794Y-95064500D01*
X88073222Y-95093071D01*
X88044651Y-95150214D01*
X88044651Y-95293071D01*
X88073222Y-95350214D01*
X88101794Y-95378785D01*
X88158937Y-95407357D01*
X88273222Y-95407357D01*
X88330365Y-95378785D01*
X88358937Y-95350214D01*
X88387508Y-95293071D01*
D12*
%TO.C,J1*%
X85792000Y-118526000D02*
X85792000Y-118776000D01*
X93532000Y-118526000D02*
X93532000Y-118776000D01*
X92662000Y-114056000D02*
X93532000Y-114056000D01*
X85792000Y-114056000D02*
X85792000Y-116126000D01*
X93532000Y-114056000D02*
X93532000Y-116126000D01*
X85792000Y-114056000D02*
X86662000Y-114056000D01*
X90962000Y-113826000D02*
X90662000Y-113526000D01*
X90962000Y-113826000D02*
X91262000Y-113526000D01*
X90662000Y-113526000D02*
X91262000Y-113526000D01*
D11*
%TO.C,MOD1*%
X80607000Y-89205000D02*
X83257000Y-89205000D01*
X80607000Y-88155000D02*
X80607000Y-89205000D01*
X98757000Y-89225000D02*
X96057000Y-89225000D01*
X98757000Y-88185000D02*
X98757000Y-89225000D01*
X80637000Y-63585000D02*
X82267000Y-63585000D01*
X80637000Y-65215000D02*
X80637000Y-63585000D01*
X98707000Y-63585000D02*
X97067000Y-63585000D01*
X98707000Y-65205000D02*
X98707000Y-63585000D01*
D12*
%TO.C,SW2*%
X98366000Y-107412000D02*
X98366000Y-110012000D01*
X92066000Y-112162000D02*
X92066000Y-111912000D01*
X98366000Y-112162000D02*
X92066000Y-112162000D01*
X98366000Y-111912000D02*
X98366000Y-112162000D01*
X92066000Y-110012000D02*
X92066000Y-107412000D01*
X98366000Y-105262000D02*
X98366000Y-105512000D01*
X92066000Y-105262000D02*
X98366000Y-105262000D01*
X92066000Y-105512000D02*
X92066000Y-105262000D01*
%TO.C,SW1*%
X87258000Y-107412000D02*
X87258000Y-110012000D01*
X80958000Y-112162000D02*
X80958000Y-111912000D01*
X87258000Y-112162000D02*
X80958000Y-112162000D01*
X87258000Y-111912000D02*
X87258000Y-112162000D01*
X80958000Y-110012000D02*
X80958000Y-107412000D01*
X87258000Y-105262000D02*
X87258000Y-105512000D01*
X80958000Y-105262000D02*
X87258000Y-105262000D01*
X80958000Y-105512000D02*
X80958000Y-105262000D01*
D11*
%TO.C,Q2*%
X98869000Y-113970800D02*
X98869000Y-114270800D01*
X98494000Y-113970800D02*
X98869000Y-113970800D01*
X98869000Y-117270800D02*
X98419000Y-117270800D01*
X98869000Y-116970800D02*
X98869000Y-117270800D01*
X98869000Y-117045800D02*
X98869000Y-116920800D01*
X97219000Y-117270800D02*
X97219000Y-116920800D01*
X97694000Y-117270800D02*
X97219000Y-117270800D01*
X97219000Y-114295800D02*
X96444000Y-114295800D01*
X97219000Y-114245800D02*
X97219000Y-114295800D01*
X97594000Y-113970800D02*
X97219000Y-114245800D01*
X97869000Y-113970800D02*
X97594000Y-113970800D01*
%TO.C,Q1*%
X82066000Y-113767600D02*
X82066000Y-114067600D01*
X81691000Y-113767600D02*
X82066000Y-113767600D01*
X82066000Y-117067600D02*
X81616000Y-117067600D01*
X82066000Y-116767600D02*
X82066000Y-117067600D01*
X82066000Y-116842600D02*
X82066000Y-116717600D01*
X80416000Y-117067600D02*
X80416000Y-116717600D01*
X80891000Y-117067600D02*
X80416000Y-117067600D01*
X80416000Y-114092600D02*
X79641000Y-114092600D01*
X80416000Y-114042600D02*
X80416000Y-114092600D01*
X80791000Y-113767600D02*
X80416000Y-114042600D01*
X81066000Y-113767600D02*
X80791000Y-113767600D01*
D12*
%TO.C,J3*%
X101794000Y-71060000D02*
X103124000Y-71060000D01*
X101794000Y-72390000D02*
X101794000Y-71060000D01*
X101794000Y-73660000D02*
X104454000Y-73660000D01*
X104454000Y-73660000D02*
X104454000Y-119440000D01*
X101794000Y-73660000D02*
X101794000Y-119440000D01*
X101794000Y-119440000D02*
X104454000Y-119440000D01*
%TO.C,J2*%
X74870000Y-71060000D02*
X76200000Y-71060000D01*
X74870000Y-72390000D02*
X74870000Y-71060000D01*
X74870000Y-73660000D02*
X77530000Y-73660000D01*
X77530000Y-73660000D02*
X77530000Y-119440000D01*
X74870000Y-73660000D02*
X74870000Y-119440000D01*
X74870000Y-119440000D02*
X77530000Y-119440000D01*
%TO.C,D6*%
X81776800Y-93110800D02*
X79926800Y-93110800D01*
X81776800Y-91910800D02*
X79926800Y-91910800D01*
X79926800Y-91910800D02*
X79926800Y-93110800D01*
%TO.C,D5*%
X85729900Y-93110800D02*
X83879900Y-93110800D01*
X85729900Y-91910800D02*
X83879900Y-91910800D01*
X83879900Y-91910800D02*
X83879900Y-93110800D01*
%TO.C,D4*%
X94136100Y-93110800D02*
X92286100Y-93110800D01*
X94136100Y-91910800D02*
X92286100Y-91910800D01*
X92286100Y-91910800D02*
X92286100Y-93110800D01*
%TO.C,D3*%
X96239200Y-91910800D02*
X98789200Y-91910800D01*
X96239200Y-93610800D02*
X98789200Y-93610800D01*
X96239200Y-91910800D02*
X96239200Y-93610800D01*
%TO.C,D1*%
X87768000Y-93315800D02*
X90053000Y-93315800D01*
X87768000Y-91845800D02*
X87768000Y-93315800D01*
X90053000Y-91845800D02*
X87768000Y-91845800D01*
%TD*%
M02*
