%TF.GenerationSoftware,KiCad,Pcbnew,(5.99.0-11435-g252647e93c)*%
%TF.CreationDate,2021-07-20T11:27:30+10:00*%
%TF.ProjectId,ESP32 Clone devkit,45535033-3220-4436-9c6f-6e6520646576,1*%
%TF.SameCoordinates,Original*%
%TF.FileFunction,Copper,L4,Bot*%
%TF.FilePolarity,Positive*%
%FSLAX46Y46*%
G04 Gerber Fmt 4.6, Leading zero omitted, Abs format (unit mm)*
G04 Created by KiCad (PCBNEW (5.99.0-11435-g252647e93c)) date 2021-07-20 11:27:30*
%MOMM*%
%LPD*%
G01*
G04 APERTURE LIST*
G04 Aperture macros list*
%AMRoundRect*
0 Rectangle with rounded corners*
0 $1 Rounding radius*
0 $2 $3 $4 $5 $6 $7 $8 $9 X,Y pos of 4 corners*
0 Add a 4 corners polygon primitive as box body*
4,1,4,$2,$3,$4,$5,$6,$7,$8,$9,$2,$3,0*
0 Add four circle primitives for the rounded corners*
1,1,$1+$1,$2,$3*
1,1,$1+$1,$4,$5*
1,1,$1+$1,$6,$7*
1,1,$1+$1,$8,$9*
0 Add four rect primitives between the rounded corners*
20,1,$1+$1,$2,$3,$4,$5,0*
20,1,$1+$1,$4,$5,$6,$7,0*
20,1,$1+$1,$6,$7,$8,$9,0*
20,1,$1+$1,$8,$9,$2,$3,0*%
G04 Aperture macros list end*
%TA.AperFunction,ComponentPad*%
%ADD10O,1.000000X1.900000*%
%TD*%
%TA.AperFunction,ComponentPad*%
%ADD11O,1.050000X1.250000*%
%TD*%
%TA.AperFunction,SMDPad,CuDef*%
%ADD12R,2.000000X1.500000*%
%TD*%
%TA.AperFunction,SMDPad,CuDef*%
%ADD13R,2.000000X3.800000*%
%TD*%
%TA.AperFunction,SMDPad,CuDef*%
%ADD14R,2.700000X2.700000*%
%TD*%
%TA.AperFunction,SMDPad,CuDef*%
%ADD15RoundRect,0.062500X0.062500X0.425000X-0.062500X0.425000X-0.062500X-0.425000X0.062500X-0.425000X0*%
%TD*%
%TA.AperFunction,SMDPad,CuDef*%
%ADD16RoundRect,0.062500X0.425000X0.062500X-0.425000X0.062500X-0.425000X-0.062500X0.425000X-0.062500X0*%
%TD*%
%TA.AperFunction,ComponentPad*%
%ADD17O,1.700000X1.700000*%
%TD*%
%TA.AperFunction,ComponentPad*%
%ADD18R,1.700000X1.700000*%
%TD*%
%TA.AperFunction,SMDPad,CuDef*%
%ADD19RoundRect,0.100000X0.100000X-0.130000X0.100000X0.130000X-0.100000X0.130000X-0.100000X-0.130000X0*%
%TD*%
%TA.AperFunction,ViaPad*%
%ADD20C,0.600000*%
%TD*%
%TA.AperFunction,ViaPad*%
%ADD21C,0.500000*%
%TD*%
%TA.AperFunction,Conductor*%
%ADD22C,0.100000*%
%TD*%
%TA.AperFunction,Conductor*%
%ADD23C,0.250000*%
%TD*%
G04 APERTURE END LIST*
D10*
%TO.P,J1,6,Shield*%
%TO.N,GND*%
X93837000Y-117326000D03*
X85487000Y-117326000D03*
D11*
X91887000Y-114326000D03*
X87437000Y-114326000D03*
%TD*%
D12*
%TO.P,U2,1,GND*%
%TO.N,GND*%
X92050000Y-94728000D03*
%TO.P,U2,3,VI*%
%TO.N,/EXT_5V*%
X92050000Y-99328000D03*
%TO.P,U2,2,VO*%
%TO.N,/VDD33*%
X92050000Y-97028000D03*
D13*
X85750000Y-97028000D03*
%TD*%
D14*
%TO.P,U1,29,GND*%
%TO.N,GND*%
X88858000Y-106462000D03*
D15*
%TO.P,U1,28,DTR*%
%TO.N,/DTR*%
X90358000Y-104099500D03*
%TO.P,U1,27,DSR*%
%TO.N,N/C*%
X89858000Y-104099500D03*
%TO.P,U1,26,TXD*%
%TO.N,/TXD*%
X89358000Y-104099500D03*
%TO.P,U1,25,RXD*%
%TO.N,/RXD*%
X88858000Y-104099500D03*
%TO.P,U1,24,RTS*%
%TO.N,/RTS*%
X88358000Y-104099500D03*
%TO.P,U1,23,CTS*%
%TO.N,N/C*%
X87858000Y-104099500D03*
%TO.P,U1,22,GPIO.4*%
X87358000Y-104099500D03*
D16*
%TO.P,U1,21,GPIO.5*%
X86495500Y-104962000D03*
%TO.P,U1,20,GPIO.6*%
X86495500Y-105462000D03*
%TO.P,U1,19,GPIO.0/TXT*%
X86495500Y-105962000D03*
%TO.P,U1,18,GPIO.1/RXT*%
X86495500Y-106462000D03*
%TO.P,U1,17,GPIO.2/RS485*%
X86495500Y-106962000D03*
%TO.P,U1,16,GPIO.3/WAKEUP*%
X86495500Y-107462000D03*
%TO.P,U1,15,CHR0*%
X86495500Y-107962000D03*
D15*
%TO.P,U1,14,CHR1*%
X87358000Y-108824500D03*
%TO.P,U1,13,CHREN*%
X87858000Y-108824500D03*
%TO.P,U1,12,SUSPEND*%
X88358000Y-108824500D03*
%TO.P,U1,11,~SUSPENDB*%
%TO.N,Net-(R23-Pad1)*%
X88858000Y-108824500D03*
%TO.P,U1,10,NC*%
%TO.N,N/C*%
X89358000Y-108824500D03*
%TO.P,U1,9,~RST*%
%TO.N,Net-(R24-Pad2)*%
X89858000Y-108824500D03*
%TO.P,U1,8,VBUS*%
%TO.N,Net-(R25-Pad1)*%
X90358000Y-108824500D03*
D16*
%TO.P,U1,7,VREGIN*%
%TO.N,/VDD33*%
X91220500Y-107962000D03*
%TO.P,U1,6,VDD*%
X91220500Y-107462000D03*
%TO.P,U1,5,D-*%
%TO.N,/USB_DN*%
X91220500Y-106962000D03*
%TO.P,U1,4,D+*%
%TO.N,/USB_DP*%
X91220500Y-106462000D03*
%TO.P,U1,3,GND*%
%TO.N,GND*%
X91220500Y-105962000D03*
%TO.P,U1,2,RI/CLK*%
%TO.N,N/C*%
X91220500Y-105462000D03*
%TO.P,U1,1,DCD*%
X91220500Y-104962000D03*
%TD*%
D17*
%TO.P,J3,19,Pin_19*%
%TO.N,/CLK*%
X103124000Y-118110000D03*
%TO.P,J3,18,Pin_18*%
%TO.N,/SD0*%
X103124000Y-115570000D03*
%TO.P,J3,17,Pin_17*%
%TO.N,/SD1*%
X103124000Y-113030000D03*
%TO.P,J3,16,Pin_16*%
%TO.N,/IO15*%
X103124000Y-110490000D03*
%TO.P,J3,15,Pin_15*%
%TO.N,/IO2*%
X103124000Y-107950000D03*
%TO.P,J3,14,Pin_14*%
%TO.N,/IO0*%
X103124000Y-105410000D03*
%TO.P,J3,13,Pin_13*%
%TO.N,/IO4*%
X103124000Y-102870000D03*
%TO.P,J3,12,Pin_12*%
%TO.N,/IO16*%
X103124000Y-100330000D03*
%TO.P,J3,11,Pin_11*%
%TO.N,/IO17*%
X103124000Y-97790000D03*
%TO.P,J3,10,Pin_10*%
%TO.N,/IO5*%
X103124000Y-95250000D03*
%TO.P,J3,9,Pin_9*%
%TO.N,/IO18*%
X103124000Y-92710000D03*
%TO.P,J3,8,Pin_8*%
%TO.N,/IO19*%
X103124000Y-90170000D03*
%TO.P,J3,7,Pin_7*%
%TO.N,GND*%
X103124000Y-87630000D03*
%TO.P,J3,6,Pin_6*%
%TO.N,/IO21*%
X103124000Y-85090000D03*
%TO.P,J3,5,Pin_5*%
%TO.N,/RXD0*%
X103124000Y-82550000D03*
%TO.P,J3,4,Pin_4*%
%TO.N,/TXD0*%
X103124000Y-80010000D03*
%TO.P,J3,3,Pin_3*%
%TO.N,/IO22*%
X103124000Y-77470000D03*
%TO.P,J3,2,Pin_2*%
%TO.N,/IO23*%
X103124000Y-74930000D03*
D18*
%TO.P,J3,1,Pin_1*%
%TO.N,GND*%
X103124000Y-72390000D03*
%TD*%
D17*
%TO.P,J2,19,Pin_19*%
%TO.N,/EXT_5V*%
X76200000Y-118110000D03*
%TO.P,J2,18,Pin_18*%
%TO.N,/CMD*%
X76200000Y-115570000D03*
%TO.P,J2,17,Pin_17*%
%TO.N,/SD3*%
X76200000Y-113030000D03*
%TO.P,J2,16,Pin_16*%
%TO.N,/SD2*%
X76200000Y-110490000D03*
%TO.P,J2,15,Pin_15*%
%TO.N,/IO13*%
X76200000Y-107950000D03*
%TO.P,J2,14,Pin_14*%
%TO.N,GND*%
X76200000Y-105410000D03*
%TO.P,J2,13,Pin_13*%
%TO.N,/IO12*%
X76200000Y-102870000D03*
%TO.P,J2,12,Pin_12*%
%TO.N,/IO14*%
X76200000Y-100330000D03*
%TO.P,J2,11,Pin_11*%
%TO.N,/IO27*%
X76200000Y-97790000D03*
%TO.P,J2,10,Pin_10*%
%TO.N,/IO26*%
X76200000Y-95250000D03*
%TO.P,J2,9,Pin_9*%
%TO.N,/IO25*%
X76200000Y-92710000D03*
%TO.P,J2,8,Pin_8*%
%TO.N,/IO33*%
X76200000Y-90170000D03*
%TO.P,J2,7,Pin_7*%
%TO.N,/IO32*%
X76200000Y-87630000D03*
%TO.P,J2,6,Pin_6*%
%TO.N,/IO35*%
X76200000Y-85090000D03*
%TO.P,J2,5,Pin_5*%
%TO.N,/IO34*%
X76200000Y-82550000D03*
%TO.P,J2,4,Pin_4*%
%TO.N,/SENSOR_VN*%
X76200000Y-80010000D03*
%TO.P,J2,3,Pin_3*%
%TO.N,/SENSOR_VP*%
X76200000Y-77470000D03*
%TO.P,J2,2,Pin_2*%
%TO.N,/EN*%
X76200000Y-74930000D03*
D18*
%TO.P,J2,1,Pin_1*%
%TO.N,/VDD33*%
X76200000Y-72390000D03*
%TD*%
D19*
%TO.P,C3,2*%
%TO.N,GND*%
X95656400Y-95438000D03*
%TO.P,C3,1*%
%TO.N,/VDD33*%
X95656400Y-96078000D03*
%TD*%
%TO.P,C1,2*%
%TO.N,GND*%
X95656400Y-98740000D03*
%TO.P,C1,1*%
%TO.N,/EXT_5V*%
X95656400Y-99380000D03*
%TD*%
D20*
%TO.N,GND*%
X91601500Y-93078500D03*
X80806500Y-102222500D03*
%TO.N,/VDD33*%
X86267500Y-99682500D03*
%TO.N,/VBUS*%
X87537500Y-102363520D03*
X98205500Y-94983500D03*
D21*
%TO.N,Net-(R25-Pad1)*%
X92582989Y-102476500D03*
X91093500Y-109455500D03*
%TO.N,/USB_DP*%
X87029500Y-93205500D03*
D20*
%TO.N,/EXT_5V*%
X90077500Y-99555500D03*
%TO.N,/VDD33*%
X96046500Y-96693000D03*
D21*
%TO.N,/EN*%
X98713500Y-98031500D03*
X87410500Y-94983500D03*
%TO.N,/IO4*%
X100237500Y-86474500D03*
D20*
%TO.N,GND*%
X93506500Y-106032500D03*
D21*
%TO.N,/USB_DN*%
X92744500Y-105143500D03*
X93980000Y-93726000D03*
%TO.N,/TXD*%
X89535000Y-102616000D03*
X97536000Y-98298000D03*
%TO.N,/TXD0*%
X94869000Y-95603500D03*
%TO.N,/RXD*%
X88900000Y-102616000D03*
%TO.N,Net-(R24-Pad2)*%
X92710000Y-95928498D03*
X90263500Y-109855000D03*
%TO.N,Net-(R23-Pad1)*%
X93472000Y-98425000D03*
X88900000Y-109855000D03*
D20*
%TO.N,/EXT_5V*%
X77597000Y-116967000D03*
D21*
%TO.N,/RXD0*%
X99695000Y-95377000D03*
D20*
%TO.N,/EXT_5V*%
X96647000Y-99314000D03*
%TO.N,/VBUS*%
X85725000Y-103886000D03*
X92075000Y-113157000D03*
%TO.N,/VDD33*%
X84963000Y-94488000D03*
X78232000Y-72644000D03*
D21*
%TO.N,Net-(C21-Pad1)*%
X78994000Y-72644000D03*
X80010000Y-95631000D03*
D20*
%TO.N,/VDD33*%
X91440000Y-108585000D03*
X92837000Y-104267000D03*
D21*
%TO.N,/USB_DP*%
X94522500Y-106794500D03*
X92129019Y-109601000D03*
%TO.N,/DTR*%
X97536000Y-113411000D03*
%TO.N,/USB_DP*%
X89662000Y-113411000D03*
%TO.N,/USB_DN*%
X90551000Y-113284000D03*
%TO.N,/IO0*%
X97028000Y-115824000D03*
%TO.N,/DTR*%
X83693000Y-113792000D03*
%TO.N,/RTS*%
X84200655Y-113410655D03*
%TO.N,/EN*%
X91059000Y-112522000D03*
X83693000Y-114554000D03*
%TD*%
D22*
%TO.N,/USB_DP*%
X89662000Y-113411000D02*
X89662000Y-113052000D01*
X89662000Y-113052000D02*
X90839500Y-111874500D01*
X91989331Y-111874500D02*
X92329000Y-111534831D01*
X90839500Y-111874500D02*
X91989331Y-111874500D01*
X92329000Y-111534831D02*
X92329000Y-109800981D01*
X92329000Y-109800981D02*
X92129019Y-109601000D01*
D23*
%TO.N,GND*%
X91601500Y-93078500D02*
X91601500Y-94279500D01*
X91601500Y-94279500D02*
X92050000Y-94728000D01*
X79663500Y-101968500D02*
X80552500Y-101968500D01*
X80552500Y-101968500D02*
X80806500Y-102222500D01*
X76200000Y-105410000D02*
X79641500Y-101968500D01*
X79641500Y-101968500D02*
X79663500Y-101968500D01*
%TO.N,/VDD33*%
X86267500Y-99682500D02*
X86267500Y-97545500D01*
X86267500Y-97545500D02*
X85750000Y-97028000D01*
D22*
%TO.N,/RTS*%
X87991020Y-101914020D02*
X86074144Y-101914020D01*
X88358000Y-102281000D02*
X87991020Y-101914020D01*
X86074144Y-101914020D02*
X84273520Y-103714644D01*
X84273520Y-103714644D02*
X84273520Y-110163480D01*
X88358000Y-104099500D02*
X88358000Y-102281000D01*
X84273520Y-110163480D02*
X84201000Y-110236000D01*
X84201000Y-113410310D02*
X84200655Y-113410655D01*
X84201000Y-110236000D02*
X84201000Y-113410310D01*
%TO.N,/DTR*%
X90358000Y-104099500D02*
X90358000Y-102550000D01*
X89522500Y-101714500D02*
X85991501Y-101714500D01*
X84074000Y-103632001D02*
X84074000Y-110080836D01*
X83693000Y-113185163D02*
X83693000Y-113792000D01*
X85991501Y-101714500D02*
X84074000Y-103632001D01*
X90358000Y-102550000D02*
X89522500Y-101714500D01*
X84074000Y-110080836D02*
X84001480Y-110153356D01*
X84001480Y-110153356D02*
X84001480Y-112876683D01*
X84001480Y-112876683D02*
X83693000Y-113185163D01*
%TO.N,Net-(R25-Pad1)*%
X90462500Y-108824500D02*
X91093500Y-109455500D01*
X90358000Y-108824500D02*
X90462500Y-108824500D01*
D23*
%TO.N,/EXT_5V*%
X91822500Y-99555500D02*
X92050000Y-99328000D01*
X90077500Y-99555500D02*
X91822500Y-99555500D01*
%TO.N,/VDD33*%
X96046500Y-96693000D02*
X96046500Y-96468100D01*
X96046500Y-96468100D02*
X95656400Y-96078000D01*
%TO.N,GND*%
X93436000Y-105962000D02*
X93506500Y-106032500D01*
X91220500Y-105962000D02*
X93436000Y-105962000D01*
D22*
%TO.N,/USB_DP*%
X92696000Y-106462000D02*
X91220500Y-106462000D01*
X94522500Y-106794500D02*
X93028500Y-106794500D01*
X93028500Y-106794500D02*
X92696000Y-106462000D01*
%TO.N,/USB_DN*%
X95411500Y-105298664D02*
X95411500Y-106540500D01*
X95411500Y-106540500D02*
X94522500Y-107429500D01*
X95256336Y-105143500D02*
X95411500Y-105298664D01*
X92744500Y-105143500D02*
X95256336Y-105143500D01*
X94522500Y-107429500D02*
X92824500Y-107429500D01*
X92824500Y-107429500D02*
X92357000Y-106962000D01*
%TO.N,/DTR*%
X97536000Y-113411000D02*
X95665500Y-111540500D01*
X95665500Y-111540500D02*
X95665500Y-105270500D01*
X95665500Y-105270500D02*
X95111511Y-104716511D01*
X95111511Y-104716511D02*
X92650805Y-104716511D01*
X92650805Y-104716511D02*
X92387489Y-104453195D01*
X92387489Y-104453195D02*
X92387489Y-104278489D01*
X92387489Y-104278489D02*
X92208500Y-104099500D01*
X92208500Y-104099500D02*
X90358000Y-104099500D01*
%TO.N,/TXD*%
X89535000Y-102616000D02*
X89358000Y-102793000D01*
X89358000Y-102793000D02*
X89358000Y-104099500D01*
%TO.N,/RXD*%
X88900000Y-102616000D02*
X88858000Y-102658000D01*
X88858000Y-102658000D02*
X88858000Y-104099500D01*
%TO.N,Net-(R24-Pad2)*%
X89858000Y-108824500D02*
X89858000Y-109449500D01*
X89858000Y-109449500D02*
X90263500Y-109855000D01*
%TO.N,Net-(R23-Pad1)*%
X88858000Y-108824500D02*
X88858000Y-109312000D01*
X88858000Y-109312000D02*
X88900000Y-109354000D01*
X88900000Y-109354000D02*
X88900000Y-109855000D01*
D23*
%TO.N,/EXT_5V*%
X97224550Y-116298511D02*
X98298000Y-115225061D01*
X77597000Y-116967000D02*
X78412520Y-116151480D01*
X98298000Y-115225061D02*
X98298000Y-100965000D01*
X78412520Y-116151480D02*
X96684419Y-116151480D01*
X96684419Y-116151480D02*
X96831450Y-116298511D01*
X98298000Y-100965000D02*
X96647000Y-99314000D01*
X96831450Y-116298511D02*
X97224550Y-116298511D01*
X96647000Y-99314000D02*
X95722400Y-99314000D01*
X95722400Y-99314000D02*
X95656400Y-99380000D01*
%TO.N,/VBUS*%
X85471000Y-104140000D02*
X85725000Y-103886000D01*
X85471000Y-110109000D02*
X85471000Y-104267000D01*
X90626019Y-114427000D02*
X89789000Y-114427000D01*
X92075000Y-113157000D02*
X91896019Y-113157000D01*
X85471000Y-104267000D02*
X85471000Y-104140000D01*
X91896019Y-113157000D02*
X90626019Y-114427000D01*
X89789000Y-114427000D02*
X85471000Y-110109000D01*
%TO.N,/VDD33*%
X85065000Y-94386000D02*
X85750000Y-94386000D01*
X85750000Y-80162000D02*
X85750000Y-94386000D01*
X85750000Y-94386000D02*
X85750000Y-97028000D01*
X84963000Y-94488000D02*
X85065000Y-94386000D01*
X78232000Y-72644000D02*
X85750000Y-80162000D01*
X88900000Y-100330000D02*
X88646000Y-100330000D01*
X92837000Y-104267000D02*
X88900000Y-100330000D01*
X85750000Y-97434000D02*
X85750000Y-97028000D01*
X91220500Y-108365500D02*
X91440000Y-108585000D01*
X91220500Y-107962000D02*
X91220500Y-108365500D01*
X88646000Y-100330000D02*
X85750000Y-97434000D01*
%TO.N,/EXT_5V*%
X95656400Y-99380000D02*
X92102000Y-99380000D01*
X92102000Y-99380000D02*
X92050000Y-99328000D01*
%TO.N,/VDD33*%
X95656400Y-96078000D02*
X94549000Y-96078000D01*
X94549000Y-96078000D02*
X93599000Y-97028000D01*
X93599000Y-97028000D02*
X92050000Y-97028000D01*
%TO.N,GND*%
X95656400Y-98740000D02*
X95656400Y-98272600D01*
X95656400Y-98272600D02*
X96774000Y-97155000D01*
X96774000Y-97155000D02*
X96774000Y-95758000D01*
X96774000Y-95758000D02*
X96454000Y-95438000D01*
X96454000Y-95438000D02*
X95656400Y-95438000D01*
X92050000Y-94728000D02*
X94982000Y-94728000D01*
X94982000Y-94728000D02*
X95656400Y-95402400D01*
X95656400Y-95402400D02*
X95656400Y-95438000D01*
%TO.N,/VDD33*%
X92050000Y-97028000D02*
X85750000Y-97028000D01*
X91220500Y-107962000D02*
X91220500Y-107462000D01*
D22*
%TO.N,/USB_DN*%
X90551000Y-113284000D02*
X90861995Y-113284000D01*
X92357000Y-106962000D02*
X91220500Y-106962000D01*
X90861995Y-113284000D02*
X92528519Y-111617476D01*
X92528519Y-111617476D02*
X92528519Y-107133519D01*
X92528519Y-107133519D02*
X92357000Y-106962000D01*
D23*
%TO.N,GND*%
X91220500Y-105962000D02*
X89358000Y-105962000D01*
X89358000Y-105962000D02*
X88858000Y-106462000D01*
%TD*%
%TA.AperFunction,Conductor*%
%TO.N,GND*%
G36*
X99704597Y-70750546D02*
G01*
X99708205Y-70753628D01*
X99878649Y-70858077D01*
X99883219Y-70859970D01*
X99883221Y-70859971D01*
X99970992Y-70896326D01*
X100063335Y-70934576D01*
X100257713Y-70981243D01*
X100407104Y-70993000D01*
X100415122Y-70993631D01*
X100426142Y-70994989D01*
X100439664Y-70997264D01*
X100444460Y-70998071D01*
X100450699Y-70998147D01*
X100452140Y-70998165D01*
X100452144Y-70998165D01*
X100456999Y-70998224D01*
X100484587Y-70994273D01*
X100502450Y-70993000D01*
X101797178Y-70993000D01*
X101865299Y-71013002D01*
X101911792Y-71066658D01*
X101921896Y-71136932D01*
X101898004Y-71194565D01*
X101829214Y-71286351D01*
X101820676Y-71301946D01*
X101775522Y-71422394D01*
X101771895Y-71437649D01*
X101766369Y-71488514D01*
X101766000Y-71495328D01*
X101766000Y-72117885D01*
X101770475Y-72133124D01*
X101771865Y-72134329D01*
X101779548Y-72136000D01*
X103252000Y-72136000D01*
X103320121Y-72156002D01*
X103366614Y-72209658D01*
X103378000Y-72262000D01*
X103378000Y-72518000D01*
X103357998Y-72586121D01*
X103304342Y-72632614D01*
X103252000Y-72644000D01*
X101784115Y-72644000D01*
X101768876Y-72648475D01*
X101767671Y-72649865D01*
X101766000Y-72657548D01*
X101766000Y-73284672D01*
X101766369Y-73291486D01*
X101771895Y-73342351D01*
X101775522Y-73357606D01*
X101820676Y-73478054D01*
X101829214Y-73493649D01*
X101905715Y-73595724D01*
X101918276Y-73608285D01*
X102020351Y-73684786D01*
X102035946Y-73693324D01*
X102144827Y-73734142D01*
X102201591Y-73776784D01*
X102226291Y-73843345D01*
X102211083Y-73912694D01*
X102191691Y-73939175D01*
X102068200Y-74068401D01*
X102064629Y-74072138D01*
X101938743Y-74256680D01*
X101844688Y-74459305D01*
X101784989Y-74674570D01*
X101761251Y-74896695D01*
X101761548Y-74901848D01*
X101761548Y-74901851D01*
X101767011Y-74996590D01*
X101774110Y-75119715D01*
X101775247Y-75124761D01*
X101775248Y-75124767D01*
X101795119Y-75212939D01*
X101823222Y-75337639D01*
X101907266Y-75544616D01*
X101945828Y-75607543D01*
X102021291Y-75730688D01*
X102023987Y-75735088D01*
X102170250Y-75903938D01*
X102342126Y-76046632D01*
X102362436Y-76058500D01*
X102415445Y-76089476D01*
X102464169Y-76141114D01*
X102477240Y-76210897D01*
X102450509Y-76276669D01*
X102410055Y-76310027D01*
X102397607Y-76316507D01*
X102393474Y-76319610D01*
X102393471Y-76319612D01*
X102332876Y-76365108D01*
X102218965Y-76450635D01*
X102215393Y-76454373D01*
X102098104Y-76577109D01*
X102064629Y-76612138D01*
X101938743Y-76796680D01*
X101844688Y-76999305D01*
X101784989Y-77214570D01*
X101761251Y-77436695D01*
X101761548Y-77441848D01*
X101761548Y-77441851D01*
X101767011Y-77536590D01*
X101774110Y-77659715D01*
X101775247Y-77664761D01*
X101775248Y-77664767D01*
X101795119Y-77752939D01*
X101823222Y-77877639D01*
X101907266Y-78084616D01*
X101945828Y-78147543D01*
X102021291Y-78270688D01*
X102023987Y-78275088D01*
X102170250Y-78443938D01*
X102342126Y-78586632D01*
X102362436Y-78598500D01*
X102415445Y-78629476D01*
X102464169Y-78681114D01*
X102477240Y-78750897D01*
X102450509Y-78816669D01*
X102410055Y-78850027D01*
X102397607Y-78856507D01*
X102393474Y-78859610D01*
X102393471Y-78859612D01*
X102332876Y-78905108D01*
X102218965Y-78990635D01*
X102215393Y-78994373D01*
X102098104Y-79117109D01*
X102064629Y-79152138D01*
X101938743Y-79336680D01*
X101844688Y-79539305D01*
X101784989Y-79754570D01*
X101761251Y-79976695D01*
X101761548Y-79981848D01*
X101761548Y-79981851D01*
X101769637Y-80122144D01*
X101774110Y-80199715D01*
X101775247Y-80204761D01*
X101775248Y-80204767D01*
X101795119Y-80292939D01*
X101823222Y-80417639D01*
X101907266Y-80624616D01*
X101945828Y-80687543D01*
X102021291Y-80810688D01*
X102023987Y-80815088D01*
X102170250Y-80983938D01*
X102342126Y-81126632D01*
X102362436Y-81138500D01*
X102415445Y-81169476D01*
X102464169Y-81221114D01*
X102477240Y-81290897D01*
X102450509Y-81356669D01*
X102410055Y-81390027D01*
X102397607Y-81396507D01*
X102393474Y-81399610D01*
X102393471Y-81399612D01*
X102332876Y-81445108D01*
X102218965Y-81530635D01*
X102215393Y-81534373D01*
X102098104Y-81657109D01*
X102064629Y-81692138D01*
X101938743Y-81876680D01*
X101844688Y-82079305D01*
X101784989Y-82294570D01*
X101761251Y-82516695D01*
X101761548Y-82521848D01*
X101761548Y-82521851D01*
X101767011Y-82616590D01*
X101774110Y-82739715D01*
X101775247Y-82744761D01*
X101775248Y-82744767D01*
X101795119Y-82832939D01*
X101823222Y-82957639D01*
X101907266Y-83164616D01*
X101945828Y-83227543D01*
X102021291Y-83350688D01*
X102023987Y-83355088D01*
X102170250Y-83523938D01*
X102342126Y-83666632D01*
X102362436Y-83678500D01*
X102415445Y-83709476D01*
X102464169Y-83761114D01*
X102477240Y-83830897D01*
X102450509Y-83896669D01*
X102410055Y-83930027D01*
X102397607Y-83936507D01*
X102393474Y-83939610D01*
X102393471Y-83939612D01*
X102332876Y-83985108D01*
X102218965Y-84070635D01*
X102215393Y-84074373D01*
X102098104Y-84197109D01*
X102064629Y-84232138D01*
X101938743Y-84416680D01*
X101844688Y-84619305D01*
X101784989Y-84834570D01*
X101761251Y-85056695D01*
X101761548Y-85061848D01*
X101761548Y-85061851D01*
X101767011Y-85156590D01*
X101774110Y-85279715D01*
X101775247Y-85284761D01*
X101775248Y-85284767D01*
X101795119Y-85372939D01*
X101823222Y-85497639D01*
X101907266Y-85704616D01*
X101945828Y-85767543D01*
X102021291Y-85890688D01*
X102023987Y-85895088D01*
X102170250Y-86063938D01*
X102342126Y-86206632D01*
X102362436Y-86218500D01*
X102415955Y-86249774D01*
X102464679Y-86301412D01*
X102477750Y-86371195D01*
X102451019Y-86436967D01*
X102410562Y-86470327D01*
X102402457Y-86474546D01*
X102393738Y-86480036D01*
X102223433Y-86607905D01*
X102215726Y-86614748D01*
X102068590Y-86768717D01*
X102062104Y-86776727D01*
X101942098Y-86952649D01*
X101937000Y-86961623D01*
X101847338Y-87154783D01*
X101843775Y-87164470D01*
X101788389Y-87364183D01*
X101789912Y-87372607D01*
X101802292Y-87376000D01*
X103252000Y-87376000D01*
X103320121Y-87396002D01*
X103366614Y-87449658D01*
X103378000Y-87502000D01*
X103378000Y-87758000D01*
X103357998Y-87826121D01*
X103304342Y-87872614D01*
X103252000Y-87884000D01*
X101807225Y-87884000D01*
X101793694Y-87887973D01*
X101792257Y-87897966D01*
X101822565Y-88032446D01*
X101825645Y-88042275D01*
X101905770Y-88239603D01*
X101910413Y-88248794D01*
X102021694Y-88430388D01*
X102027777Y-88438699D01*
X102167213Y-88599667D01*
X102174580Y-88606883D01*
X102338434Y-88742916D01*
X102346881Y-88748831D01*
X102415969Y-88789203D01*
X102464693Y-88840842D01*
X102477764Y-88910625D01*
X102451033Y-88976396D01*
X102410584Y-89009752D01*
X102397607Y-89016507D01*
X102393474Y-89019610D01*
X102393471Y-89019612D01*
X102332876Y-89065108D01*
X102218965Y-89150635D01*
X102215393Y-89154373D01*
X102098104Y-89277109D01*
X102064629Y-89312138D01*
X101938743Y-89496680D01*
X101844688Y-89699305D01*
X101784989Y-89914570D01*
X101761251Y-90136695D01*
X101761548Y-90141848D01*
X101761548Y-90141851D01*
X101767011Y-90236590D01*
X101774110Y-90359715D01*
X101775247Y-90364761D01*
X101775248Y-90364767D01*
X101795119Y-90452939D01*
X101823222Y-90577639D01*
X101907266Y-90784616D01*
X101945828Y-90847543D01*
X102021291Y-90970688D01*
X102023987Y-90975088D01*
X102170250Y-91143938D01*
X102342126Y-91286632D01*
X102362436Y-91298500D01*
X102415445Y-91329476D01*
X102464169Y-91381114D01*
X102477240Y-91450897D01*
X102450509Y-91516669D01*
X102410055Y-91550027D01*
X102397607Y-91556507D01*
X102393474Y-91559610D01*
X102393471Y-91559612D01*
X102223100Y-91687530D01*
X102218965Y-91690635D01*
X102161683Y-91750577D01*
X102081630Y-91834348D01*
X102064629Y-91852138D01*
X101938743Y-92036680D01*
X101923003Y-92070590D01*
X101865701Y-92194037D01*
X101844688Y-92239305D01*
X101784989Y-92454570D01*
X101761251Y-92676695D01*
X101761548Y-92681848D01*
X101761548Y-92681851D01*
X101773812Y-92894547D01*
X101774110Y-92899715D01*
X101775247Y-92904761D01*
X101775248Y-92904767D01*
X101795119Y-92992939D01*
X101823222Y-93117639D01*
X101907266Y-93324616D01*
X101945256Y-93386610D01*
X102021291Y-93510688D01*
X102023987Y-93515088D01*
X102170250Y-93683938D01*
X102342126Y-93826632D01*
X102389300Y-93854198D01*
X102415445Y-93869476D01*
X102464169Y-93921114D01*
X102477240Y-93990897D01*
X102450509Y-94056669D01*
X102410055Y-94090027D01*
X102397607Y-94096507D01*
X102393474Y-94099610D01*
X102393471Y-94099612D01*
X102231134Y-94221498D01*
X102218965Y-94230635D01*
X102212228Y-94237685D01*
X102074306Y-94382012D01*
X102064629Y-94392138D01*
X102061715Y-94396410D01*
X102061714Y-94396411D01*
X102008549Y-94474348D01*
X101938743Y-94576680D01*
X101912239Y-94633778D01*
X101849046Y-94769917D01*
X101844688Y-94779305D01*
X101784989Y-94994570D01*
X101761251Y-95216695D01*
X101761548Y-95221848D01*
X101761548Y-95221851D01*
X101767675Y-95328114D01*
X101774110Y-95439715D01*
X101775247Y-95444761D01*
X101775248Y-95444767D01*
X101784313Y-95484988D01*
X101823222Y-95657639D01*
X101879785Y-95796938D01*
X101900433Y-95847787D01*
X101907266Y-95864616D01*
X101942910Y-95922782D01*
X102021291Y-96050688D01*
X102023987Y-96055088D01*
X102170250Y-96223938D01*
X102342126Y-96366632D01*
X102363887Y-96379348D01*
X102415445Y-96409476D01*
X102464169Y-96461114D01*
X102477240Y-96530897D01*
X102450509Y-96596669D01*
X102410055Y-96630027D01*
X102397607Y-96636507D01*
X102393474Y-96639610D01*
X102393471Y-96639612D01*
X102223100Y-96767530D01*
X102218965Y-96770635D01*
X102201479Y-96788933D01*
X102106459Y-96888366D01*
X102064629Y-96932138D01*
X102061715Y-96936410D01*
X102061714Y-96936411D01*
X102012343Y-97008787D01*
X101938743Y-97116680D01*
X101915380Y-97167011D01*
X101857951Y-97290733D01*
X101844688Y-97319305D01*
X101784989Y-97534570D01*
X101761251Y-97756695D01*
X101761548Y-97761848D01*
X101761548Y-97761851D01*
X101766962Y-97855738D01*
X101774110Y-97979715D01*
X101775247Y-97984761D01*
X101775248Y-97984767D01*
X101791465Y-98056723D01*
X101823222Y-98197639D01*
X101907266Y-98404616D01*
X101945828Y-98467543D01*
X102021291Y-98590688D01*
X102023987Y-98595088D01*
X102170250Y-98763938D01*
X102342126Y-98906632D01*
X102382063Y-98929969D01*
X102415445Y-98949476D01*
X102464169Y-99001114D01*
X102477240Y-99070897D01*
X102450509Y-99136669D01*
X102410055Y-99170027D01*
X102397607Y-99176507D01*
X102393474Y-99179610D01*
X102393471Y-99179612D01*
X102223100Y-99307530D01*
X102218965Y-99310635D01*
X102215393Y-99314373D01*
X102098104Y-99437109D01*
X102064629Y-99472138D01*
X102061715Y-99476410D01*
X102061714Y-99476411D01*
X102019073Y-99538920D01*
X101938743Y-99656680D01*
X101891715Y-99757993D01*
X101848237Y-99851660D01*
X101844688Y-99859305D01*
X101784989Y-100074570D01*
X101761251Y-100296695D01*
X101761548Y-100301848D01*
X101761548Y-100301851D01*
X101771666Y-100477320D01*
X101774110Y-100519715D01*
X101775247Y-100524761D01*
X101775248Y-100524767D01*
X101789161Y-100586500D01*
X101823222Y-100737639D01*
X101884673Y-100888976D01*
X101895341Y-100915247D01*
X101907266Y-100944616D01*
X101945828Y-101007543D01*
X102021291Y-101130688D01*
X102023987Y-101135088D01*
X102170250Y-101303938D01*
X102342126Y-101446632D01*
X102362436Y-101458500D01*
X102415445Y-101489476D01*
X102464169Y-101541114D01*
X102477240Y-101610897D01*
X102450509Y-101676669D01*
X102410055Y-101710027D01*
X102397607Y-101716507D01*
X102393474Y-101719610D01*
X102393471Y-101719612D01*
X102264014Y-101816811D01*
X102218965Y-101850635D01*
X102215393Y-101854373D01*
X102098104Y-101977109D01*
X102064629Y-102012138D01*
X101938743Y-102196680D01*
X101923003Y-102230590D01*
X101859953Y-102366420D01*
X101844688Y-102399305D01*
X101784989Y-102614570D01*
X101761251Y-102836695D01*
X101761548Y-102841848D01*
X101761548Y-102841851D01*
X101767011Y-102936590D01*
X101774110Y-103059715D01*
X101775247Y-103064761D01*
X101775248Y-103064767D01*
X101783464Y-103101221D01*
X101823222Y-103277639D01*
X101868684Y-103389599D01*
X101895812Y-103456407D01*
X101907266Y-103484616D01*
X101945828Y-103547543D01*
X102021291Y-103670688D01*
X102023987Y-103675088D01*
X102170250Y-103843938D01*
X102342126Y-103986632D01*
X102362436Y-103998500D01*
X102415445Y-104029476D01*
X102464169Y-104081114D01*
X102477240Y-104150897D01*
X102450509Y-104216669D01*
X102410055Y-104250027D01*
X102397607Y-104256507D01*
X102393474Y-104259610D01*
X102393471Y-104259612D01*
X102223100Y-104387530D01*
X102218965Y-104390635D01*
X102215393Y-104394373D01*
X102098104Y-104517109D01*
X102064629Y-104552138D01*
X101938743Y-104736680D01*
X101922899Y-104770814D01*
X101849294Y-104929383D01*
X101844688Y-104939305D01*
X101784989Y-105154570D01*
X101761251Y-105376695D01*
X101761548Y-105381848D01*
X101761548Y-105381851D01*
X101766830Y-105473462D01*
X101774110Y-105599715D01*
X101775247Y-105604761D01*
X101775248Y-105604767D01*
X101788597Y-105664000D01*
X101823222Y-105817639D01*
X101907266Y-106024616D01*
X101923660Y-106051368D01*
X102015950Y-106201972D01*
X102023987Y-106215088D01*
X102170250Y-106383938D01*
X102342126Y-106526632D01*
X102362436Y-106538500D01*
X102415445Y-106569476D01*
X102464169Y-106621114D01*
X102477240Y-106690897D01*
X102450509Y-106756669D01*
X102410055Y-106790027D01*
X102397607Y-106796507D01*
X102393474Y-106799610D01*
X102393471Y-106799612D01*
X102332876Y-106845108D01*
X102218965Y-106930635D01*
X102215393Y-106934373D01*
X102098104Y-107057109D01*
X102064629Y-107092138D01*
X101938743Y-107276680D01*
X101844688Y-107479305D01*
X101784989Y-107694570D01*
X101761251Y-107916695D01*
X101761548Y-107921848D01*
X101761548Y-107921851D01*
X101769773Y-108064500D01*
X101774110Y-108139715D01*
X101775247Y-108144761D01*
X101775248Y-108144767D01*
X101795119Y-108232939D01*
X101823222Y-108357639D01*
X101907266Y-108564616D01*
X101945828Y-108627543D01*
X102021291Y-108750688D01*
X102023987Y-108755088D01*
X102170250Y-108923938D01*
X102342126Y-109066632D01*
X102362436Y-109078500D01*
X102415445Y-109109476D01*
X102464169Y-109161114D01*
X102477240Y-109230897D01*
X102450509Y-109296669D01*
X102410055Y-109330027D01*
X102397607Y-109336507D01*
X102393474Y-109339610D01*
X102393471Y-109339612D01*
X102223100Y-109467530D01*
X102218965Y-109470635D01*
X102215393Y-109474373D01*
X102098104Y-109597109D01*
X102064629Y-109632138D01*
X101938743Y-109816680D01*
X101924857Y-109846595D01*
X101850544Y-110006690D01*
X101844688Y-110019305D01*
X101784989Y-110234570D01*
X101761251Y-110456695D01*
X101761548Y-110461848D01*
X101761548Y-110461851D01*
X101769315Y-110596558D01*
X101774110Y-110679715D01*
X101775247Y-110684761D01*
X101775248Y-110684767D01*
X101795119Y-110772939D01*
X101823222Y-110897639D01*
X101907266Y-111104616D01*
X101945828Y-111167543D01*
X102021291Y-111290688D01*
X102023987Y-111295088D01*
X102170250Y-111463938D01*
X102250562Y-111530614D01*
X102336446Y-111601916D01*
X102342126Y-111606632D01*
X102362436Y-111618500D01*
X102415445Y-111649476D01*
X102464169Y-111701114D01*
X102477240Y-111770897D01*
X102450509Y-111836669D01*
X102410055Y-111870027D01*
X102397607Y-111876507D01*
X102393474Y-111879610D01*
X102393471Y-111879612D01*
X102247632Y-111989111D01*
X102218965Y-112010635D01*
X102193894Y-112036870D01*
X102098104Y-112137109D01*
X102064629Y-112172138D01*
X101938743Y-112356680D01*
X101912302Y-112413642D01*
X101863730Y-112518283D01*
X101844688Y-112559305D01*
X101784989Y-112774570D01*
X101761251Y-112996695D01*
X101761548Y-113001848D01*
X101761548Y-113001851D01*
X101767202Y-113099908D01*
X101774110Y-113219715D01*
X101775247Y-113224761D01*
X101775248Y-113224767D01*
X101794027Y-113308091D01*
X101823222Y-113437639D01*
X101884673Y-113588976D01*
X101903296Y-113634838D01*
X101907266Y-113644616D01*
X101945828Y-113707543D01*
X102021291Y-113830688D01*
X102023987Y-113835088D01*
X102170250Y-114003938D01*
X102342126Y-114146632D01*
X102411608Y-114187234D01*
X102415445Y-114189476D01*
X102464169Y-114241114D01*
X102477240Y-114310897D01*
X102450509Y-114376669D01*
X102410055Y-114410027D01*
X102397607Y-114416507D01*
X102393474Y-114419610D01*
X102393471Y-114419612D01*
X102237992Y-114536349D01*
X102218965Y-114550635D01*
X102215393Y-114554373D01*
X102098104Y-114677109D01*
X102064629Y-114712138D01*
X102061715Y-114716410D01*
X102061714Y-114716411D01*
X102038519Y-114750414D01*
X101938743Y-114896680D01*
X101900723Y-114978588D01*
X101860510Y-115065220D01*
X101844688Y-115099305D01*
X101784989Y-115314570D01*
X101761251Y-115536695D01*
X101761548Y-115541848D01*
X101761548Y-115541851D01*
X101773812Y-115754547D01*
X101774110Y-115759715D01*
X101775247Y-115764761D01*
X101775248Y-115764767D01*
X101796275Y-115858069D01*
X101823222Y-115977639D01*
X101907266Y-116184616D01*
X101945828Y-116247543D01*
X102021291Y-116370688D01*
X102023987Y-116375088D01*
X102170250Y-116543938D01*
X102342126Y-116686632D01*
X102362436Y-116698500D01*
X102415445Y-116729476D01*
X102464169Y-116781114D01*
X102477240Y-116850897D01*
X102450509Y-116916669D01*
X102410055Y-116950027D01*
X102397607Y-116956507D01*
X102393474Y-116959610D01*
X102393471Y-116959612D01*
X102223100Y-117087530D01*
X102218965Y-117090635D01*
X102200605Y-117109848D01*
X102098104Y-117217109D01*
X102064629Y-117252138D01*
X101938743Y-117436680D01*
X101915831Y-117486040D01*
X101863808Y-117598115D01*
X101844688Y-117639305D01*
X101784989Y-117854570D01*
X101761251Y-118076695D01*
X101761548Y-118081848D01*
X101761548Y-118081851D01*
X101767011Y-118176590D01*
X101774110Y-118299715D01*
X101775247Y-118304761D01*
X101775248Y-118304767D01*
X101795119Y-118392939D01*
X101823222Y-118517639D01*
X101907266Y-118724616D01*
X101945828Y-118787543D01*
X102021291Y-118910688D01*
X102023987Y-118915088D01*
X102170250Y-119083938D01*
X102342126Y-119226632D01*
X102397978Y-119259269D01*
X102398736Y-119259712D01*
X102447460Y-119311350D01*
X102460531Y-119381133D01*
X102433800Y-119446905D01*
X102375753Y-119487784D01*
X102335166Y-119494500D01*
X76992156Y-119494500D01*
X76924035Y-119474498D01*
X76877542Y-119420842D01*
X76867438Y-119350568D01*
X76896932Y-119285988D01*
X76918988Y-119265921D01*
X76928314Y-119259269D01*
X77079860Y-119151173D01*
X77238096Y-118993489D01*
X77297594Y-118910689D01*
X77365435Y-118816277D01*
X77368453Y-118812077D01*
X77380579Y-118787543D01*
X77465136Y-118616453D01*
X77465137Y-118616451D01*
X77467430Y-118611811D01*
X77532370Y-118398069D01*
X77561529Y-118176590D01*
X77563156Y-118110000D01*
X77547921Y-117924689D01*
X77546622Y-117908888D01*
X77560975Y-117839357D01*
X77600503Y-117798980D01*
X80135000Y-117798980D01*
X80135000Y-118224500D01*
X81661000Y-118224500D01*
X81661000Y-117798980D01*
X80135000Y-117798980D01*
X77600503Y-117798980D01*
X77610641Y-117788624D01*
X77660778Y-117773083D01*
X77726025Y-117767145D01*
X77760600Y-117763998D01*
X77767302Y-117761820D01*
X77767304Y-117761820D01*
X77926409Y-117710124D01*
X77926412Y-117710123D01*
X77933108Y-117707947D01*
X78088912Y-117615069D01*
X78111511Y-117593548D01*
X84479000Y-117593548D01*
X84479000Y-117822657D01*
X84479301Y-117828805D01*
X84492812Y-117966603D01*
X84495195Y-117978638D01*
X84548767Y-118156076D01*
X84553441Y-118167416D01*
X84640460Y-118331077D01*
X84647249Y-118341294D01*
X84764397Y-118484933D01*
X84773041Y-118493637D01*
X84915856Y-118611784D01*
X84926027Y-118618644D01*
X85089076Y-118706804D01*
X85100381Y-118711556D01*
X85215692Y-118747250D01*
X85229795Y-118747456D01*
X85233000Y-118740701D01*
X85233000Y-117598115D01*
X85231659Y-117593548D01*
X85741000Y-117593548D01*
X85741000Y-118733924D01*
X85744973Y-118747455D01*
X85752768Y-118748575D01*
X85860521Y-118716862D01*
X85871889Y-118712269D01*
X86036154Y-118626393D01*
X86046415Y-118619679D01*
X86190873Y-118503532D01*
X86199632Y-118494954D01*
X86318778Y-118352961D01*
X86325708Y-118342841D01*
X86415002Y-118180415D01*
X86419834Y-118169142D01*
X86475880Y-117992462D01*
X86478430Y-117980468D01*
X86494607Y-117836239D01*
X86495000Y-117829215D01*
X86495000Y-117798980D01*
X87755000Y-117798980D01*
X87755000Y-118224500D01*
X89281000Y-118224500D01*
X89281000Y-117798980D01*
X90295000Y-117798980D01*
X90295000Y-118224500D01*
X91821000Y-118224500D01*
X91821000Y-117936530D01*
X91819839Y-117924689D01*
X91819576Y-117921619D01*
X91816848Y-117884464D01*
X91816660Y-117881390D01*
X91816059Y-117869095D01*
X91815947Y-117866021D01*
X91815038Y-117828818D01*
X91815000Y-117825740D01*
X91815000Y-117798980D01*
X90295000Y-117798980D01*
X89281000Y-117798980D01*
X87755000Y-117798980D01*
X86495000Y-117798980D01*
X86495000Y-117598115D01*
X86493659Y-117593548D01*
X92829000Y-117593548D01*
X92829000Y-117822657D01*
X92829301Y-117828805D01*
X92842812Y-117966603D01*
X92845195Y-117978638D01*
X92898767Y-118156076D01*
X92903441Y-118167416D01*
X92990460Y-118331077D01*
X92997249Y-118341294D01*
X93114397Y-118484933D01*
X93123041Y-118493637D01*
X93265856Y-118611784D01*
X93276027Y-118618644D01*
X93439076Y-118706804D01*
X93450381Y-118711556D01*
X93565692Y-118747250D01*
X93579795Y-118747456D01*
X93583000Y-118740701D01*
X93583000Y-117598115D01*
X93581659Y-117593548D01*
X94091000Y-117593548D01*
X94091000Y-118733924D01*
X94094973Y-118747455D01*
X94102768Y-118748575D01*
X94210521Y-118716862D01*
X94221889Y-118712269D01*
X94386154Y-118626393D01*
X94396415Y-118619679D01*
X94540873Y-118503532D01*
X94549632Y-118494954D01*
X94668778Y-118352961D01*
X94675708Y-118342841D01*
X94765002Y-118180415D01*
X94769834Y-118169142D01*
X94825880Y-117992462D01*
X94828430Y-117980468D01*
X94844607Y-117836239D01*
X94845000Y-117829215D01*
X94845000Y-117798011D01*
X97915000Y-117798011D01*
X97915000Y-118224500D01*
X99441000Y-118224500D01*
X99441000Y-116698500D01*
X100455000Y-116698500D01*
X100455000Y-118224500D01*
X100754089Y-118224500D01*
X100748932Y-118135064D01*
X100748740Y-118129901D01*
X100747704Y-118067438D01*
X100747725Y-118062272D01*
X100748229Y-118041630D01*
X100748461Y-118036467D01*
X100752548Y-117974095D01*
X100752991Y-117968945D01*
X100776729Y-117746820D01*
X100777384Y-117741690D01*
X100786573Y-117679849D01*
X100787438Y-117674753D01*
X100791308Y-117654470D01*
X100792379Y-117649419D01*
X100806590Y-117588594D01*
X100807869Y-117583588D01*
X100867568Y-117368323D01*
X100869050Y-117363374D01*
X100888196Y-117303918D01*
X100889879Y-117299035D01*
X100897008Y-117279657D01*
X100898892Y-117274843D01*
X100922864Y-117217109D01*
X100924944Y-117212377D01*
X101018999Y-117009752D01*
X101021272Y-117005108D01*
X101049896Y-116949533D01*
X101052356Y-116944987D01*
X101062556Y-116927033D01*
X101065199Y-116922595D01*
X101098256Y-116869591D01*
X101101080Y-116865265D01*
X101119012Y-116838978D01*
X101042688Y-116714429D01*
X101040079Y-116709969D01*
X101033682Y-116698500D01*
X100455000Y-116698500D01*
X99441000Y-116698500D01*
X99154475Y-116698500D01*
X98444467Y-117408508D01*
X98442958Y-117410332D01*
X98437721Y-117416272D01*
X98372202Y-117486040D01*
X98366605Y-117491637D01*
X98343581Y-117513257D01*
X98337645Y-117518490D01*
X98295942Y-117552990D01*
X98255383Y-117588748D01*
X98249285Y-117593793D01*
X98224330Y-117613151D01*
X98217926Y-117617804D01*
X98138771Y-117671600D01*
X98132087Y-117675842D01*
X98130065Y-117677038D01*
X98128175Y-117678411D01*
X98121627Y-117682860D01*
X98040815Y-117734143D01*
X98034001Y-117738174D01*
X98006323Y-117753389D01*
X97999271Y-117756981D01*
X97950326Y-117780011D01*
X97915000Y-117798011D01*
X94845000Y-117798011D01*
X94845000Y-117598115D01*
X94840525Y-117582876D01*
X94839135Y-117581671D01*
X94831452Y-117580000D01*
X94109115Y-117580000D01*
X94093876Y-117584475D01*
X94092671Y-117585865D01*
X94091000Y-117593548D01*
X93581659Y-117593548D01*
X93578525Y-117582876D01*
X93577135Y-117581671D01*
X93569452Y-117580000D01*
X92847115Y-117580000D01*
X92831876Y-117584475D01*
X92830671Y-117585865D01*
X92829000Y-117593548D01*
X86493659Y-117593548D01*
X86490525Y-117582876D01*
X86489135Y-117581671D01*
X86481452Y-117580000D01*
X85759115Y-117580000D01*
X85743876Y-117584475D01*
X85742671Y-117585865D01*
X85741000Y-117593548D01*
X85231659Y-117593548D01*
X85228525Y-117582876D01*
X85227135Y-117581671D01*
X85219452Y-117580000D01*
X84497115Y-117580000D01*
X84481876Y-117584475D01*
X84480671Y-117585865D01*
X84479000Y-117593548D01*
X78111511Y-117593548D01*
X78220266Y-117489982D01*
X78320643Y-117338902D01*
X78385055Y-117169338D01*
X78394639Y-117101145D01*
X78423927Y-117036471D01*
X78430318Y-117029586D01*
X78638019Y-116821885D01*
X78700331Y-116787859D01*
X78727114Y-116784980D01*
X84353000Y-116784980D01*
X84421121Y-116804982D01*
X84467614Y-116858638D01*
X84479000Y-116910980D01*
X84479000Y-117053885D01*
X84483475Y-117069124D01*
X84484865Y-117070329D01*
X84492548Y-117072000D01*
X86476885Y-117072000D01*
X86492124Y-117067525D01*
X86493329Y-117066135D01*
X86495000Y-117058452D01*
X86495000Y-116910980D01*
X86515002Y-116842859D01*
X86568658Y-116796366D01*
X86621000Y-116784980D01*
X92703000Y-116784980D01*
X92771121Y-116804982D01*
X92817614Y-116858638D01*
X92829000Y-116910980D01*
X92829000Y-117053885D01*
X92833475Y-117069124D01*
X92834865Y-117070329D01*
X92842548Y-117072000D01*
X94826885Y-117072000D01*
X94842124Y-117067525D01*
X94843329Y-117066135D01*
X94845000Y-117058452D01*
X94845000Y-116910980D01*
X94865002Y-116842859D01*
X94918658Y-116796366D01*
X94971000Y-116784980D01*
X96375427Y-116784980D01*
X96449487Y-116809043D01*
X96450349Y-116809669D01*
X96456129Y-116815097D01*
X96463078Y-116818917D01*
X96473882Y-116824857D01*
X96490406Y-116835710D01*
X96506409Y-116848124D01*
X96546993Y-116865687D01*
X96557623Y-116870894D01*
X96596390Y-116892206D01*
X96604067Y-116894177D01*
X96604072Y-116894179D01*
X96616008Y-116897243D01*
X96634716Y-116903648D01*
X96653305Y-116911692D01*
X96661133Y-116912932D01*
X96661140Y-116912934D01*
X96696974Y-116918610D01*
X96708594Y-116921016D01*
X96740409Y-116929184D01*
X96751420Y-116932011D01*
X96771674Y-116932011D01*
X96791384Y-116933562D01*
X96811393Y-116936731D01*
X96819285Y-116935985D01*
X96838030Y-116934213D01*
X96855412Y-116932570D01*
X96867269Y-116932011D01*
X97145783Y-116932011D01*
X97156966Y-116932538D01*
X97164459Y-116934213D01*
X97172385Y-116933964D01*
X97172386Y-116933964D01*
X97232536Y-116932073D01*
X97236495Y-116932011D01*
X97264406Y-116932011D01*
X97268341Y-116931514D01*
X97268406Y-116931506D01*
X97280243Y-116930573D01*
X97312501Y-116929559D01*
X97316520Y-116929433D01*
X97324439Y-116929184D01*
X97343893Y-116923532D01*
X97363250Y-116919524D01*
X97375480Y-116917979D01*
X97375481Y-116917979D01*
X97383347Y-116916985D01*
X97390718Y-116914066D01*
X97390720Y-116914066D01*
X97424462Y-116900707D01*
X97435692Y-116896862D01*
X97470533Y-116886740D01*
X97470534Y-116886740D01*
X97478143Y-116884529D01*
X97484962Y-116880496D01*
X97484967Y-116880494D01*
X97495578Y-116874218D01*
X97513326Y-116865523D01*
X97532167Y-116858063D01*
X97538645Y-116853357D01*
X97567937Y-116832075D01*
X97577857Y-116825559D01*
X97609085Y-116807091D01*
X97609088Y-116807089D01*
X97615912Y-116803053D01*
X97630233Y-116788732D01*
X97645267Y-116775891D01*
X97655244Y-116768642D01*
X97661657Y-116763983D01*
X97689848Y-116729906D01*
X97697838Y-116721127D01*
X98690247Y-115728718D01*
X98698537Y-115721174D01*
X98705018Y-115717061D01*
X98751659Y-115667393D01*
X98754413Y-115664552D01*
X98774135Y-115644830D01*
X98776612Y-115641637D01*
X98784317Y-115632616D01*
X98792007Y-115624427D01*
X98814586Y-115600382D01*
X98818407Y-115593432D01*
X98824346Y-115582629D01*
X98835202Y-115566102D01*
X98842757Y-115556363D01*
X98842758Y-115556361D01*
X98847614Y-115550101D01*
X98865174Y-115509521D01*
X98870391Y-115498873D01*
X98887875Y-115467070D01*
X98887876Y-115467068D01*
X98891695Y-115460121D01*
X98893714Y-115452260D01*
X98896733Y-115440499D01*
X98903137Y-115421795D01*
X98908033Y-115410481D01*
X98908033Y-115410480D01*
X98911181Y-115403206D01*
X98912420Y-115395383D01*
X98912423Y-115395373D01*
X98918099Y-115359537D01*
X98920505Y-115347917D01*
X98929528Y-115312772D01*
X98929528Y-115312771D01*
X98931500Y-115305091D01*
X98931500Y-115284837D01*
X98933051Y-115265126D01*
X98934980Y-115252947D01*
X98936220Y-115245118D01*
X98932059Y-115201099D01*
X98931500Y-115189242D01*
X98931500Y-114158500D01*
X100455000Y-114158500D01*
X100455000Y-115684500D01*
X100754089Y-115684500D01*
X100748932Y-115595064D01*
X100748740Y-115589901D01*
X100747704Y-115527438D01*
X100747725Y-115522272D01*
X100748229Y-115501630D01*
X100748461Y-115496467D01*
X100752548Y-115434095D01*
X100752991Y-115428945D01*
X100776729Y-115206820D01*
X100777384Y-115201690D01*
X100786573Y-115139849D01*
X100787438Y-115134753D01*
X100791308Y-115114470D01*
X100792379Y-115109419D01*
X100806590Y-115048594D01*
X100807869Y-115043588D01*
X100867568Y-114828323D01*
X100869050Y-114823374D01*
X100888196Y-114763918D01*
X100889879Y-114759035D01*
X100897008Y-114739657D01*
X100898892Y-114734843D01*
X100922864Y-114677109D01*
X100924944Y-114672377D01*
X101018999Y-114469752D01*
X101021272Y-114465108D01*
X101049896Y-114409533D01*
X101052356Y-114404987D01*
X101062556Y-114387033D01*
X101065199Y-114382595D01*
X101098256Y-114329591D01*
X101101080Y-114325265D01*
X101119012Y-114298978D01*
X101042688Y-114174429D01*
X101040079Y-114169969D01*
X101033682Y-114158500D01*
X100455000Y-114158500D01*
X98931500Y-114158500D01*
X98931500Y-111618500D01*
X100455000Y-111618500D01*
X100455000Y-113144500D01*
X100754089Y-113144500D01*
X100748932Y-113055064D01*
X100748740Y-113049901D01*
X100747704Y-112987438D01*
X100747725Y-112982272D01*
X100748229Y-112961630D01*
X100748461Y-112956467D01*
X100752548Y-112894095D01*
X100752991Y-112888945D01*
X100776729Y-112666820D01*
X100777384Y-112661690D01*
X100786573Y-112599849D01*
X100787438Y-112594753D01*
X100791308Y-112574470D01*
X100792379Y-112569419D01*
X100806590Y-112508594D01*
X100807869Y-112503588D01*
X100867568Y-112288323D01*
X100869050Y-112283374D01*
X100888196Y-112223918D01*
X100889879Y-112219035D01*
X100897008Y-112199657D01*
X100898892Y-112194843D01*
X100922864Y-112137109D01*
X100924944Y-112132377D01*
X101018999Y-111929752D01*
X101021272Y-111925108D01*
X101049896Y-111869533D01*
X101052356Y-111864987D01*
X101062556Y-111847033D01*
X101065199Y-111842595D01*
X101098256Y-111789591D01*
X101101080Y-111785265D01*
X101119012Y-111758978D01*
X101042688Y-111634429D01*
X101040079Y-111629969D01*
X101033682Y-111618500D01*
X100455000Y-111618500D01*
X98931500Y-111618500D01*
X98931500Y-109078500D01*
X100455000Y-109078500D01*
X100455000Y-110604500D01*
X100754089Y-110604500D01*
X100748932Y-110515064D01*
X100748740Y-110509901D01*
X100747704Y-110447438D01*
X100747725Y-110442272D01*
X100748229Y-110421630D01*
X100748461Y-110416467D01*
X100752548Y-110354095D01*
X100752991Y-110348945D01*
X100776729Y-110126820D01*
X100777384Y-110121690D01*
X100786573Y-110059849D01*
X100787438Y-110054753D01*
X100791308Y-110034470D01*
X100792379Y-110029419D01*
X100806590Y-109968594D01*
X100807869Y-109963588D01*
X100867568Y-109748323D01*
X100869050Y-109743374D01*
X100888196Y-109683918D01*
X100889879Y-109679035D01*
X100897008Y-109659657D01*
X100898892Y-109654843D01*
X100922864Y-109597109D01*
X100924944Y-109592377D01*
X101018999Y-109389752D01*
X101021272Y-109385108D01*
X101049896Y-109329533D01*
X101052356Y-109324987D01*
X101062556Y-109307033D01*
X101065199Y-109302595D01*
X101098256Y-109249591D01*
X101101080Y-109245265D01*
X101119012Y-109218978D01*
X101042688Y-109094429D01*
X101040079Y-109089969D01*
X101033682Y-109078500D01*
X100455000Y-109078500D01*
X98931500Y-109078500D01*
X98931500Y-106538500D01*
X100455000Y-106538500D01*
X100455000Y-108064500D01*
X100754089Y-108064500D01*
X100748932Y-107975064D01*
X100748740Y-107969901D01*
X100747704Y-107907438D01*
X100747725Y-107902272D01*
X100748229Y-107881630D01*
X100748461Y-107876467D01*
X100752548Y-107814095D01*
X100752991Y-107808945D01*
X100776729Y-107586820D01*
X100777384Y-107581690D01*
X100786573Y-107519849D01*
X100787438Y-107514753D01*
X100791308Y-107494470D01*
X100792379Y-107489419D01*
X100806590Y-107428594D01*
X100807869Y-107423588D01*
X100867568Y-107208323D01*
X100869050Y-107203374D01*
X100888196Y-107143918D01*
X100889879Y-107139035D01*
X100897008Y-107119657D01*
X100898892Y-107114843D01*
X100922864Y-107057109D01*
X100924944Y-107052377D01*
X101018999Y-106849752D01*
X101021272Y-106845108D01*
X101049896Y-106789533D01*
X101052356Y-106784987D01*
X101062556Y-106767033D01*
X101065199Y-106762595D01*
X101098256Y-106709591D01*
X101101080Y-106705265D01*
X101119012Y-106678978D01*
X101042688Y-106554429D01*
X101040079Y-106549969D01*
X101033682Y-106538500D01*
X100455000Y-106538500D01*
X98931500Y-106538500D01*
X98931500Y-103998500D01*
X100455000Y-103998500D01*
X100455000Y-105524500D01*
X100754089Y-105524500D01*
X100748932Y-105435064D01*
X100748740Y-105429901D01*
X100747704Y-105367438D01*
X100747725Y-105362272D01*
X100748229Y-105341630D01*
X100748461Y-105336467D01*
X100752548Y-105274095D01*
X100752991Y-105268945D01*
X100776729Y-105046820D01*
X100777384Y-105041690D01*
X100786573Y-104979849D01*
X100787438Y-104974753D01*
X100791308Y-104954470D01*
X100792379Y-104949419D01*
X100806590Y-104888594D01*
X100807869Y-104883588D01*
X100867568Y-104668323D01*
X100869050Y-104663374D01*
X100888196Y-104603918D01*
X100889879Y-104599035D01*
X100897008Y-104579657D01*
X100898892Y-104574843D01*
X100922864Y-104517109D01*
X100924944Y-104512377D01*
X101018999Y-104309752D01*
X101021272Y-104305108D01*
X101049896Y-104249533D01*
X101052356Y-104244987D01*
X101062556Y-104227033D01*
X101065199Y-104222595D01*
X101098256Y-104169591D01*
X101101080Y-104165265D01*
X101119012Y-104138978D01*
X101042688Y-104014429D01*
X101040079Y-104009969D01*
X101033682Y-103998500D01*
X100455000Y-103998500D01*
X98931500Y-103998500D01*
X98931500Y-101458500D01*
X100455000Y-101458500D01*
X100455000Y-102984500D01*
X100754089Y-102984500D01*
X100748932Y-102895064D01*
X100748740Y-102889901D01*
X100747704Y-102827438D01*
X100747725Y-102822272D01*
X100748229Y-102801630D01*
X100748461Y-102796467D01*
X100752548Y-102734095D01*
X100752991Y-102728945D01*
X100776729Y-102506820D01*
X100777384Y-102501690D01*
X100786573Y-102439849D01*
X100787438Y-102434753D01*
X100791308Y-102414470D01*
X100792379Y-102409419D01*
X100806590Y-102348594D01*
X100807869Y-102343588D01*
X100867568Y-102128323D01*
X100869050Y-102123374D01*
X100888196Y-102063918D01*
X100889879Y-102059035D01*
X100897008Y-102039657D01*
X100898892Y-102034843D01*
X100922864Y-101977109D01*
X100924944Y-101972377D01*
X101018999Y-101769752D01*
X101021272Y-101765108D01*
X101049896Y-101709533D01*
X101052356Y-101704987D01*
X101062556Y-101687033D01*
X101065199Y-101682595D01*
X101098256Y-101629591D01*
X101101080Y-101625265D01*
X101119012Y-101598978D01*
X101042688Y-101474429D01*
X101040079Y-101469969D01*
X101033682Y-101458500D01*
X100455000Y-101458500D01*
X98931500Y-101458500D01*
X98931500Y-101043768D01*
X98932027Y-101032585D01*
X98933702Y-101025092D01*
X98933151Y-101007543D01*
X98931562Y-100957002D01*
X98931500Y-100953044D01*
X98931500Y-100925144D01*
X98930996Y-100921153D01*
X98930063Y-100909311D01*
X98929846Y-100902390D01*
X98928674Y-100865111D01*
X98926461Y-100857493D01*
X98923021Y-100845652D01*
X98919012Y-100826293D01*
X98918846Y-100824983D01*
X98916474Y-100806203D01*
X98913558Y-100798837D01*
X98913556Y-100798831D01*
X98900200Y-100765098D01*
X98896355Y-100753868D01*
X98886230Y-100719017D01*
X98886230Y-100719016D01*
X98884019Y-100711407D01*
X98873705Y-100693966D01*
X98865008Y-100676213D01*
X98860472Y-100664758D01*
X98857552Y-100657383D01*
X98831563Y-100621612D01*
X98825047Y-100611692D01*
X98802542Y-100573638D01*
X98788221Y-100559317D01*
X98775380Y-100544283D01*
X98768131Y-100534306D01*
X98763472Y-100527893D01*
X98729395Y-100499702D01*
X98720616Y-100491712D01*
X97499418Y-99270513D01*
X97465392Y-99208201D01*
X97470457Y-99137385D01*
X97513004Y-99080550D01*
X97577093Y-99055937D01*
X97689483Y-99045709D01*
X97696185Y-99043531D01*
X97696187Y-99043531D01*
X97844623Y-98995301D01*
X97844626Y-98995300D01*
X97851322Y-98993124D01*
X97976504Y-98918500D01*
X100455000Y-98918500D01*
X100455000Y-100444500D01*
X100754089Y-100444500D01*
X100748932Y-100355064D01*
X100748740Y-100349901D01*
X100747704Y-100287438D01*
X100747725Y-100282272D01*
X100748229Y-100261630D01*
X100748461Y-100256467D01*
X100752548Y-100194095D01*
X100752991Y-100188945D01*
X100776729Y-99966820D01*
X100777384Y-99961690D01*
X100786573Y-99899849D01*
X100787438Y-99894753D01*
X100791308Y-99874470D01*
X100792379Y-99869419D01*
X100806590Y-99808594D01*
X100807869Y-99803588D01*
X100867568Y-99588323D01*
X100869050Y-99583374D01*
X100888196Y-99523918D01*
X100889879Y-99519035D01*
X100897008Y-99499657D01*
X100898892Y-99494843D01*
X100922864Y-99437109D01*
X100924944Y-99432377D01*
X101018999Y-99229752D01*
X101021272Y-99225108D01*
X101049896Y-99169533D01*
X101052356Y-99164987D01*
X101062556Y-99147033D01*
X101065199Y-99142595D01*
X101098256Y-99089591D01*
X101101080Y-99085265D01*
X101119012Y-99058978D01*
X101042688Y-98934429D01*
X101040079Y-98929969D01*
X101033682Y-98918500D01*
X100455000Y-98918500D01*
X97976504Y-98918500D01*
X97997490Y-98905990D01*
X98002584Y-98901139D01*
X98002588Y-98901136D01*
X98088505Y-98819318D01*
X98120721Y-98788639D01*
X98161933Y-98726610D01*
X98216289Y-98680941D01*
X98286709Y-98671908D01*
X98335873Y-98690906D01*
X98369346Y-98712810D01*
X98375950Y-98715266D01*
X98375952Y-98715267D01*
X98412344Y-98728801D01*
X98528841Y-98772126D01*
X98697515Y-98794632D01*
X98704526Y-98793994D01*
X98704530Y-98793994D01*
X98859962Y-98779848D01*
X98866983Y-98779209D01*
X98873685Y-98777031D01*
X98873687Y-98777031D01*
X99022123Y-98728801D01*
X99022126Y-98728800D01*
X99028822Y-98726624D01*
X99174990Y-98639490D01*
X99180084Y-98634639D01*
X99180088Y-98634636D01*
X99252971Y-98565230D01*
X99298221Y-98522139D01*
X99321277Y-98487438D01*
X99351222Y-98442366D01*
X99392391Y-98380402D01*
X99452819Y-98221325D01*
X99476501Y-98052813D01*
X99476799Y-98031500D01*
X99457831Y-97862392D01*
X99441247Y-97814768D01*
X99404186Y-97708346D01*
X99401868Y-97701689D01*
X99395883Y-97692110D01*
X99363244Y-97639878D01*
X99311692Y-97557379D01*
X99191786Y-97436632D01*
X99181872Y-97430340D01*
X99112907Y-97386574D01*
X99048108Y-97345451D01*
X98887800Y-97288368D01*
X98718829Y-97268220D01*
X98711826Y-97268956D01*
X98711825Y-97268956D01*
X98556601Y-97285270D01*
X98556597Y-97285271D01*
X98549593Y-97286007D01*
X98542922Y-97288278D01*
X98395173Y-97338575D01*
X98395170Y-97338576D01*
X98388503Y-97340846D01*
X98382505Y-97344536D01*
X98382503Y-97344537D01*
X98249565Y-97426321D01*
X98249563Y-97426323D01*
X98243566Y-97430012D01*
X98121986Y-97549073D01*
X98118175Y-97554987D01*
X98118173Y-97554989D01*
X98088038Y-97601749D01*
X98034323Y-97648173D01*
X97964036Y-97658187D01*
X97914616Y-97639880D01*
X97870608Y-97611951D01*
X97710300Y-97554868D01*
X97541329Y-97534720D01*
X97534326Y-97535456D01*
X97534325Y-97535456D01*
X97379101Y-97551770D01*
X97379097Y-97551771D01*
X97372093Y-97552507D01*
X97365422Y-97554778D01*
X97217673Y-97605075D01*
X97217670Y-97605076D01*
X97211003Y-97607346D01*
X97205005Y-97611036D01*
X97205003Y-97611037D01*
X97072065Y-97692821D01*
X97072063Y-97692823D01*
X97066066Y-97696512D01*
X96944486Y-97815573D01*
X96940675Y-97821487D01*
X96940673Y-97821489D01*
X96897606Y-97888316D01*
X96852304Y-97958610D01*
X96794103Y-98118516D01*
X96772775Y-98287343D01*
X96776380Y-98324108D01*
X96780184Y-98362905D01*
X96766925Y-98432653D01*
X96718062Y-98484160D01*
X96655587Y-98500751D01*
X96652680Y-98500404D01*
X96645677Y-98501140D01*
X96645674Y-98501140D01*
X96472288Y-98519364D01*
X96471968Y-98516315D01*
X96414712Y-98512356D01*
X96357777Y-98469943D01*
X96336760Y-98426808D01*
X96325101Y-98383296D01*
X96318835Y-98368168D01*
X96247051Y-98243832D01*
X96237079Y-98230837D01*
X96135563Y-98129321D01*
X96122568Y-98119349D01*
X95998232Y-98047565D01*
X95983099Y-98041297D01*
X95873899Y-98012036D01*
X95859800Y-98012371D01*
X95856400Y-98020312D01*
X95856400Y-98515500D01*
X95836398Y-98583621D01*
X95782742Y-98630114D01*
X95730400Y-98641500D01*
X95582400Y-98641500D01*
X95514279Y-98621498D01*
X95467786Y-98567842D01*
X95456400Y-98515500D01*
X95456400Y-98025462D01*
X95452427Y-98011931D01*
X95443879Y-98010702D01*
X95329701Y-98041297D01*
X95314568Y-98047565D01*
X95190232Y-98119349D01*
X95177237Y-98129321D01*
X95075721Y-98230837D01*
X95065749Y-98243832D01*
X94993965Y-98368168D01*
X94987697Y-98383301D01*
X94950539Y-98521974D01*
X94948400Y-98538216D01*
X94948400Y-98620500D01*
X94928398Y-98688621D01*
X94874742Y-98735114D01*
X94822400Y-98746500D01*
X94337760Y-98746500D01*
X94269639Y-98726498D01*
X94223146Y-98672842D01*
X94212986Y-98602965D01*
X94222085Y-98538216D01*
X94235001Y-98446313D01*
X94235299Y-98425000D01*
X94216331Y-98255892D01*
X94204294Y-98221325D01*
X94172254Y-98129321D01*
X94160368Y-98095189D01*
X94146465Y-98072939D01*
X94108617Y-98012371D01*
X94070192Y-97950879D01*
X93950286Y-97830132D01*
X93943987Y-97826134D01*
X93904129Y-97800840D01*
X93857330Y-97747451D01*
X93846825Y-97677236D01*
X93875949Y-97612488D01*
X93906620Y-97587556D01*
X93906617Y-97587552D01*
X93906685Y-97587503D01*
X93906690Y-97587499D01*
X93913026Y-97582896D01*
X93913029Y-97582894D01*
X93942387Y-97561564D01*
X93952307Y-97555048D01*
X93983535Y-97536580D01*
X93983538Y-97536578D01*
X93990362Y-97532542D01*
X94004683Y-97518221D01*
X94019717Y-97505380D01*
X94029694Y-97498131D01*
X94036107Y-97493472D01*
X94041158Y-97487367D01*
X94041163Y-97487362D01*
X94064299Y-97459396D01*
X94072287Y-97450618D01*
X94774500Y-96748405D01*
X94836812Y-96714379D01*
X94863595Y-96711500D01*
X95121641Y-96711500D01*
X95189762Y-96731502D01*
X95236255Y-96785158D01*
X95247039Y-96825204D01*
X95250663Y-96862160D01*
X95307918Y-97034273D01*
X95311565Y-97040295D01*
X95311566Y-97040297D01*
X95386772Y-97164477D01*
X95401880Y-97189424D01*
X95406769Y-97194487D01*
X95406770Y-97194488D01*
X95464868Y-97254650D01*
X95527882Y-97319902D01*
X95582618Y-97355720D01*
X95629768Y-97386574D01*
X95679659Y-97419222D01*
X95686263Y-97421678D01*
X95686265Y-97421679D01*
X95843058Y-97479990D01*
X95843060Y-97479990D01*
X95849668Y-97482448D01*
X95932287Y-97493472D01*
X96022480Y-97505507D01*
X96022484Y-97505507D01*
X96029461Y-97506438D01*
X96036472Y-97505800D01*
X96036476Y-97505800D01*
X96178959Y-97492832D01*
X96210100Y-97489998D01*
X96216802Y-97487820D01*
X96216804Y-97487820D01*
X96375909Y-97436124D01*
X96375912Y-97436123D01*
X96382608Y-97433947D01*
X96524722Y-97349230D01*
X96532360Y-97344677D01*
X96532362Y-97344676D01*
X96538412Y-97341069D01*
X96669766Y-97215982D01*
X96770143Y-97064902D01*
X96821981Y-96928440D01*
X96832055Y-96901920D01*
X96832056Y-96901918D01*
X96834555Y-96895338D01*
X96835535Y-96888366D01*
X96859248Y-96719639D01*
X96859248Y-96719636D01*
X96859799Y-96715717D01*
X96860116Y-96693000D01*
X96839897Y-96512745D01*
X96829517Y-96482937D01*
X96782564Y-96348106D01*
X96782562Y-96348103D01*
X96780245Y-96341448D01*
X96746553Y-96287529D01*
X96687859Y-96193598D01*
X96684126Y-96187624D01*
X96679164Y-96182627D01*
X96561279Y-96063916D01*
X96561275Y-96063913D01*
X96556315Y-96058918D01*
X96517543Y-96034312D01*
X96504744Y-96025013D01*
X96477902Y-96002808D01*
X96469121Y-95994817D01*
X96397086Y-95922782D01*
X96364474Y-95866299D01*
X96350419Y-95813845D01*
X96343934Y-95789643D01*
X96343934Y-95724420D01*
X96362262Y-95656019D01*
X96362915Y-95651059D01*
X96359925Y-95640876D01*
X96358535Y-95639671D01*
X96337617Y-95635121D01*
X96337940Y-95633636D01*
X96284682Y-95617998D01*
X96254592Y-95586456D01*
X96252479Y-95588077D01*
X96247449Y-95581522D01*
X96243321Y-95574372D01*
X96130028Y-95461079D01*
X96129821Y-95460959D01*
X96090147Y-95406625D01*
X96085925Y-95335754D01*
X96120689Y-95273851D01*
X96183401Y-95240570D01*
X96208718Y-95238000D01*
X96346285Y-95238000D01*
X96361524Y-95233525D01*
X96362729Y-95232135D01*
X96363435Y-95228888D01*
X96362261Y-95219974D01*
X96325103Y-95081301D01*
X96318835Y-95066168D01*
X96264549Y-94972140D01*
X97391963Y-94972140D01*
X97409663Y-95152660D01*
X97466918Y-95324773D01*
X97470565Y-95330795D01*
X97470566Y-95330797D01*
X97551214Y-95463963D01*
X97560880Y-95479924D01*
X97565769Y-95484987D01*
X97565770Y-95484988D01*
X97608742Y-95529486D01*
X97686882Y-95610402D01*
X97749185Y-95651172D01*
X97828679Y-95703191D01*
X97838659Y-95709722D01*
X97845263Y-95712178D01*
X97845265Y-95712179D01*
X98002058Y-95770490D01*
X98002060Y-95770490D01*
X98008668Y-95772948D01*
X98092495Y-95784133D01*
X98181480Y-95796007D01*
X98181484Y-95796007D01*
X98188461Y-95796938D01*
X98195472Y-95796300D01*
X98195476Y-95796300D01*
X98345015Y-95782690D01*
X98369100Y-95780498D01*
X98375802Y-95778320D01*
X98375804Y-95778320D01*
X98534909Y-95726624D01*
X98534912Y-95726623D01*
X98541608Y-95724447D01*
X98664528Y-95651172D01*
X98691360Y-95635177D01*
X98691362Y-95635176D01*
X98697412Y-95631569D01*
X98768444Y-95563926D01*
X98831569Y-95531434D01*
X98902240Y-95538227D01*
X98958019Y-95582150D01*
X98974894Y-95615401D01*
X98995926Y-95678624D01*
X99002094Y-95697167D01*
X99005741Y-95703189D01*
X99005742Y-95703191D01*
X99080975Y-95827414D01*
X99090246Y-95842723D01*
X99208455Y-95965132D01*
X99266030Y-96002808D01*
X99322412Y-96039703D01*
X99350846Y-96058310D01*
X99357450Y-96060766D01*
X99357452Y-96060767D01*
X99393844Y-96074301D01*
X99510341Y-96117626D01*
X99679015Y-96140132D01*
X99686026Y-96139494D01*
X99686030Y-96139494D01*
X99841462Y-96125348D01*
X99848483Y-96124709D01*
X99855185Y-96122531D01*
X99855187Y-96122531D01*
X100003623Y-96074301D01*
X100003626Y-96074300D01*
X100010322Y-96072124D01*
X100156490Y-95984990D01*
X100161584Y-95980139D01*
X100161588Y-95980136D01*
X100245712Y-95900025D01*
X100279721Y-95867639D01*
X100306447Y-95827414D01*
X100337617Y-95780498D01*
X100373891Y-95725902D01*
X100434319Y-95566825D01*
X100458001Y-95398313D01*
X100458299Y-95377000D01*
X100439331Y-95207892D01*
X100430665Y-95183005D01*
X100394747Y-95079866D01*
X100383368Y-95047189D01*
X100379582Y-95041129D01*
X100353698Y-94999707D01*
X100293192Y-94902879D01*
X100277458Y-94887034D01*
X100213462Y-94822590D01*
X100173286Y-94782132D01*
X100161434Y-94774610D01*
X100072722Y-94718312D01*
X100029608Y-94690951D01*
X99869300Y-94633868D01*
X99700329Y-94613720D01*
X99693326Y-94614456D01*
X99693325Y-94614456D01*
X99538101Y-94630770D01*
X99538097Y-94630771D01*
X99531093Y-94631507D01*
X99524422Y-94633778D01*
X99376673Y-94684075D01*
X99376670Y-94684076D01*
X99370003Y-94686346D01*
X99364005Y-94690036D01*
X99364003Y-94690037D01*
X99231065Y-94771821D01*
X99231063Y-94771823D01*
X99225066Y-94775512D01*
X99220033Y-94780441D01*
X99191063Y-94808810D01*
X99128398Y-94842180D01*
X99057639Y-94836374D01*
X99001252Y-94793234D01*
X98983915Y-94760223D01*
X98941564Y-94638606D01*
X98941562Y-94638603D01*
X98939245Y-94631948D01*
X98927855Y-94613720D01*
X98846859Y-94484098D01*
X98843126Y-94478124D01*
X98838164Y-94473127D01*
X98720278Y-94354415D01*
X98720274Y-94354412D01*
X98715315Y-94349418D01*
X98704197Y-94342362D01*
X98643235Y-94303675D01*
X98562166Y-94252227D01*
X98526520Y-94239534D01*
X98397925Y-94193743D01*
X98397920Y-94193742D01*
X98391290Y-94191381D01*
X98384302Y-94190548D01*
X98384299Y-94190547D01*
X98261198Y-94175868D01*
X98211180Y-94169904D01*
X98204177Y-94170640D01*
X98204176Y-94170640D01*
X98037788Y-94188128D01*
X98037786Y-94188129D01*
X98030788Y-94188864D01*
X97859079Y-94247318D01*
X97844957Y-94256006D01*
X97710595Y-94338666D01*
X97710592Y-94338668D01*
X97704588Y-94342362D01*
X97699553Y-94347293D01*
X97699550Y-94347295D01*
X97580202Y-94464170D01*
X97574993Y-94469271D01*
X97476735Y-94621738D01*
X97474326Y-94628358D01*
X97474324Y-94628361D01*
X97419730Y-94778357D01*
X97414697Y-94792185D01*
X97391963Y-94972140D01*
X96264549Y-94972140D01*
X96247051Y-94941832D01*
X96237079Y-94928837D01*
X96135563Y-94827321D01*
X96122568Y-94817349D01*
X95998232Y-94745565D01*
X95983099Y-94739297D01*
X95873899Y-94710036D01*
X95859800Y-94710371D01*
X95856400Y-94718312D01*
X95856400Y-95213500D01*
X95836398Y-95281621D01*
X95782742Y-95328114D01*
X95730400Y-95339500D01*
X95667375Y-95339500D01*
X95599254Y-95319498D01*
X95558302Y-95273105D01*
X95557368Y-95273689D01*
X95553856Y-95268069D01*
X95475546Y-95142748D01*
X95456400Y-95075978D01*
X95456400Y-94723462D01*
X95452427Y-94709931D01*
X95443879Y-94708702D01*
X95329701Y-94739297D01*
X95314568Y-94745565D01*
X95190232Y-94817349D01*
X95177237Y-94827321D01*
X95173959Y-94830599D01*
X95111647Y-94864625D01*
X95056091Y-94864175D01*
X95049939Y-94862732D01*
X95043300Y-94860368D01*
X94874329Y-94840220D01*
X94867326Y-94840956D01*
X94867325Y-94840956D01*
X94712101Y-94857270D01*
X94712097Y-94857271D01*
X94705093Y-94858007D01*
X94698422Y-94860278D01*
X94550673Y-94910575D01*
X94550670Y-94910576D01*
X94544003Y-94912846D01*
X94538005Y-94916536D01*
X94538003Y-94916537D01*
X94405065Y-94998321D01*
X94405063Y-94998323D01*
X94399066Y-95002012D01*
X94359036Y-95041213D01*
X94316076Y-95083283D01*
X94277486Y-95121073D01*
X94273675Y-95126987D01*
X94273673Y-95126989D01*
X94199264Y-95242449D01*
X94185304Y-95264110D01*
X94127103Y-95424016D01*
X94108109Y-95574372D01*
X94106486Y-95587217D01*
X94078104Y-95652294D01*
X94070575Y-95660520D01*
X93688708Y-96042387D01*
X93626396Y-96076413D01*
X93555581Y-96071348D01*
X93498764Y-96028825D01*
X93498073Y-96027903D01*
X93473250Y-95961390D01*
X93473282Y-95949815D01*
X93473001Y-95949811D01*
X93473244Y-95932459D01*
X93473244Y-95932453D01*
X93473299Y-95928498D01*
X93466473Y-95867639D01*
X93462459Y-95831850D01*
X93474744Y-95761924D01*
X93486846Y-95742243D01*
X93494787Y-95731647D01*
X93503324Y-95716054D01*
X93548478Y-95595606D01*
X93552105Y-95580351D01*
X93557631Y-95529486D01*
X93558000Y-95522672D01*
X93558000Y-95000115D01*
X93553525Y-94984876D01*
X93552135Y-94983671D01*
X93544452Y-94982000D01*
X90560115Y-94982000D01*
X90544876Y-94986475D01*
X90543671Y-94987865D01*
X90542000Y-94995548D01*
X90542000Y-95522672D01*
X90542369Y-95529486D01*
X90547895Y-95580351D01*
X90551522Y-95595606D01*
X90596676Y-95716054D01*
X90605214Y-95731648D01*
X90657953Y-95802018D01*
X90682801Y-95868524D01*
X90667748Y-95937907D01*
X90657953Y-95953148D01*
X90599385Y-96031295D01*
X90548255Y-96167684D01*
X90541500Y-96229866D01*
X90541500Y-96268500D01*
X90521498Y-96336621D01*
X90467842Y-96383114D01*
X90415500Y-96394500D01*
X87384500Y-96394500D01*
X87316379Y-96374498D01*
X87269886Y-96320842D01*
X87258500Y-96268500D01*
X87258500Y-95871664D01*
X87278502Y-95803543D01*
X87332158Y-95757050D01*
X87387139Y-95745692D01*
X87387531Y-95745700D01*
X87394515Y-95746632D01*
X87563983Y-95731209D01*
X87570685Y-95729031D01*
X87570687Y-95729031D01*
X87719123Y-95680801D01*
X87719126Y-95680800D01*
X87725822Y-95678624D01*
X87871990Y-95591490D01*
X87877084Y-95586639D01*
X87877088Y-95586636D01*
X87989146Y-95479924D01*
X87995221Y-95474139D01*
X88013870Y-95446071D01*
X88059760Y-95377000D01*
X88089391Y-95332402D01*
X88149819Y-95173325D01*
X88173501Y-95004813D01*
X88173799Y-94983500D01*
X88154831Y-94814392D01*
X88141292Y-94775512D01*
X88110240Y-94686346D01*
X88098868Y-94653689D01*
X88084547Y-94630770D01*
X88065005Y-94599498D01*
X88008692Y-94509379D01*
X87987953Y-94488494D01*
X87925987Y-94426094D01*
X87888786Y-94388632D01*
X87872539Y-94378321D01*
X87795035Y-94329136D01*
X87745108Y-94297451D01*
X87584800Y-94240368D01*
X87415829Y-94220220D01*
X87408826Y-94220956D01*
X87408825Y-94220956D01*
X87253601Y-94237270D01*
X87253597Y-94237271D01*
X87246593Y-94238007D01*
X87239922Y-94240278D01*
X87092173Y-94290575D01*
X87092170Y-94290576D01*
X87085503Y-94292846D01*
X87079505Y-94296536D01*
X87079503Y-94296537D01*
X86946565Y-94378321D01*
X86946563Y-94378323D01*
X86940566Y-94382012D01*
X86895551Y-94426094D01*
X86831180Y-94489132D01*
X86818986Y-94501073D01*
X86815175Y-94506987D01*
X86815173Y-94506989D01*
X86779878Y-94561756D01*
X86726163Y-94608180D01*
X86673967Y-94619500D01*
X86509500Y-94619500D01*
X86441379Y-94599498D01*
X86394886Y-94545842D01*
X86383500Y-94493500D01*
X86383500Y-94457793D01*
X86385732Y-94434184D01*
X86385790Y-94433881D01*
X86385790Y-94433877D01*
X86387275Y-94426094D01*
X86383749Y-94370049D01*
X86383500Y-94362138D01*
X86383500Y-93922319D01*
X86403502Y-93854198D01*
X86457158Y-93807705D01*
X86527432Y-93797601D01*
X86578492Y-93816886D01*
X86635510Y-93854198D01*
X86645625Y-93860817D01*
X86685346Y-93886810D01*
X86691950Y-93889266D01*
X86691952Y-93889267D01*
X86738105Y-93906431D01*
X86844841Y-93946126D01*
X87013515Y-93968632D01*
X87020526Y-93967994D01*
X87020530Y-93967994D01*
X87175962Y-93953848D01*
X87182983Y-93953209D01*
X87189685Y-93951031D01*
X87189687Y-93951031D01*
X87244171Y-93933328D01*
X90542000Y-93933328D01*
X90542000Y-94455885D01*
X90546475Y-94471124D01*
X90547865Y-94472329D01*
X90555548Y-94474000D01*
X91777885Y-94474000D01*
X91793124Y-94469525D01*
X91794329Y-94468135D01*
X91796000Y-94460452D01*
X91796000Y-93488115D01*
X91794659Y-93483548D01*
X92304000Y-93483548D01*
X92304000Y-94455885D01*
X92308475Y-94471124D01*
X92309865Y-94472329D01*
X92317548Y-94474000D01*
X93539885Y-94474000D01*
X93555124Y-94469525D01*
X93558337Y-94465817D01*
X93618063Y-94427433D01*
X93689060Y-94427433D01*
X93697465Y-94430226D01*
X93795341Y-94466626D01*
X93964015Y-94489132D01*
X93971026Y-94488494D01*
X93971030Y-94488494D01*
X94126462Y-94474348D01*
X94133483Y-94473709D01*
X94140185Y-94471531D01*
X94140187Y-94471531D01*
X94288623Y-94423301D01*
X94288626Y-94423300D01*
X94295322Y-94421124D01*
X94441490Y-94333990D01*
X94446584Y-94329139D01*
X94446588Y-94329136D01*
X94523381Y-94256006D01*
X94564721Y-94216639D01*
X94581503Y-94191381D01*
X94624783Y-94126238D01*
X94658891Y-94074902D01*
X94719319Y-93915825D01*
X94743001Y-93747313D01*
X94743299Y-93726000D01*
X94724331Y-93556892D01*
X94716086Y-93533214D01*
X94675363Y-93416277D01*
X94668368Y-93396189D01*
X94663467Y-93388345D01*
X94640420Y-93351464D01*
X94578192Y-93251879D01*
X94458286Y-93131132D01*
X94442039Y-93120821D01*
X94403406Y-93096304D01*
X94314608Y-93039951D01*
X94154300Y-92982868D01*
X93985329Y-92962720D01*
X93978326Y-92963456D01*
X93978325Y-92963456D01*
X93823101Y-92979770D01*
X93823097Y-92979771D01*
X93816093Y-92980507D01*
X93809422Y-92982778D01*
X93661673Y-93033075D01*
X93661670Y-93033076D01*
X93655003Y-93035346D01*
X93649005Y-93039036D01*
X93649003Y-93039037D01*
X93516065Y-93120821D01*
X93516063Y-93120823D01*
X93510066Y-93124512D01*
X93505033Y-93129441D01*
X93405601Y-93226813D01*
X93388486Y-93243573D01*
X93296304Y-93386610D01*
X93293309Y-93394840D01*
X93292656Y-93395726D01*
X93290764Y-93399538D01*
X93290094Y-93399206D01*
X93251216Y-93452010D01*
X93184895Y-93477349D01*
X93160348Y-93475453D01*
X93160207Y-93476748D01*
X93101486Y-93470369D01*
X93094672Y-93470000D01*
X92322115Y-93470000D01*
X92306876Y-93474475D01*
X92305671Y-93475865D01*
X92304000Y-93483548D01*
X91794659Y-93483548D01*
X91791525Y-93472876D01*
X91790135Y-93471671D01*
X91782452Y-93470000D01*
X91005328Y-93470000D01*
X90998514Y-93470369D01*
X90947649Y-93475895D01*
X90932394Y-93479522D01*
X90811946Y-93524676D01*
X90796351Y-93533214D01*
X90694276Y-93609715D01*
X90681715Y-93622276D01*
X90605214Y-93724351D01*
X90596676Y-93739946D01*
X90551522Y-93860394D01*
X90547895Y-93875649D01*
X90542369Y-93926514D01*
X90542000Y-93933328D01*
X87244171Y-93933328D01*
X87338123Y-93902801D01*
X87338126Y-93902800D01*
X87344822Y-93900624D01*
X87490990Y-93813490D01*
X87496084Y-93808639D01*
X87496088Y-93808636D01*
X87586999Y-93722062D01*
X87614221Y-93696139D01*
X87620134Y-93687240D01*
X87679998Y-93597137D01*
X87708391Y-93554402D01*
X87768819Y-93395325D01*
X87792501Y-93226813D01*
X87792799Y-93205500D01*
X87773831Y-93036392D01*
X87760486Y-92998069D01*
X87720186Y-92882346D01*
X87717868Y-92875689D01*
X87627692Y-92731379D01*
X87609804Y-92713365D01*
X87533441Y-92636467D01*
X87507786Y-92610632D01*
X87481886Y-92594195D01*
X87391691Y-92536956D01*
X87364108Y-92519451D01*
X87203800Y-92462368D01*
X87034829Y-92442220D01*
X87027826Y-92442956D01*
X87027825Y-92442956D01*
X86872601Y-92459270D01*
X86872597Y-92459271D01*
X86865593Y-92460007D01*
X86858922Y-92462278D01*
X86711173Y-92512575D01*
X86711170Y-92512576D01*
X86704503Y-92514846D01*
X86698507Y-92518535D01*
X86698496Y-92518540D01*
X86575522Y-92594195D01*
X86507021Y-92612854D01*
X86439307Y-92591515D01*
X86393879Y-92536956D01*
X86383500Y-92486878D01*
X86383500Y-91298500D01*
X87755000Y-91298500D01*
X87755000Y-91585322D01*
X87789246Y-91599718D01*
X87795655Y-91602625D01*
X87820902Y-91614939D01*
X87827137Y-91618199D01*
X87901394Y-91659700D01*
X87907437Y-91663303D01*
X88051115Y-91754484D01*
X88056948Y-91758418D01*
X88126109Y-91807932D01*
X88131712Y-91812185D01*
X88153604Y-91829786D01*
X88158964Y-91834348D01*
X88222197Y-91891283D01*
X88227293Y-91896135D01*
X88347199Y-92016882D01*
X88352016Y-92022012D01*
X88408496Y-92085628D01*
X88413019Y-92091018D01*
X88430467Y-92113032D01*
X88434681Y-92118665D01*
X88483716Y-92188176D01*
X88487610Y-92194037D01*
X88577786Y-92338347D01*
X88581347Y-92344417D01*
X88622339Y-92418982D01*
X88625556Y-92425241D01*
X88637693Y-92450574D01*
X88640554Y-92457001D01*
X88672966Y-92535640D01*
X88675464Y-92542217D01*
X88731427Y-92702920D01*
X88733554Y-92709624D01*
X88757000Y-92791384D01*
X88758750Y-92798199D01*
X88764726Y-92824500D01*
X89281000Y-92824500D01*
X89281000Y-91298500D01*
X90295000Y-91298500D01*
X90295000Y-92651982D01*
X90301523Y-92648102D01*
X90331947Y-92631445D01*
X90332762Y-92628404D01*
X90340274Y-92607765D01*
X90430195Y-92414928D01*
X90441177Y-92395907D01*
X90563219Y-92221614D01*
X90577337Y-92204790D01*
X90727790Y-92054337D01*
X90744614Y-92040219D01*
X90918907Y-91918177D01*
X90937928Y-91907195D01*
X91130765Y-91817274D01*
X91151403Y-91809762D01*
X91356925Y-91754692D01*
X91378556Y-91750878D01*
X91590519Y-91732334D01*
X91612481Y-91732334D01*
X91821000Y-91750577D01*
X91821000Y-91298500D01*
X92835000Y-91298500D01*
X92835000Y-92369667D01*
X92869771Y-92339227D01*
X92875191Y-92334743D01*
X92897327Y-92317448D01*
X92902991Y-92313272D01*
X92972855Y-92264714D01*
X92978744Y-92260860D01*
X93123681Y-92171694D01*
X93129775Y-92168176D01*
X93204617Y-92127710D01*
X93210898Y-92124537D01*
X93236315Y-92112577D01*
X93242763Y-92109760D01*
X93321635Y-92077895D01*
X93328229Y-92075443D01*
X93489319Y-92020604D01*
X93496040Y-92018524D01*
X93577975Y-91995647D01*
X93584802Y-91993944D01*
X93612237Y-91987912D01*
X93619149Y-91986594D01*
X93703129Y-91972992D01*
X93710104Y-91972061D01*
X93879340Y-91954274D01*
X93886356Y-91953734D01*
X93971322Y-91949579D01*
X93978355Y-91949432D01*
X94006443Y-91949628D01*
X94013475Y-91949874D01*
X94098379Y-91955215D01*
X94105386Y-91955852D01*
X94274357Y-91976000D01*
X94281319Y-91977028D01*
X94361000Y-91991078D01*
X94361000Y-91298500D01*
X95375000Y-91298500D01*
X95375000Y-92626003D01*
X95380967Y-92633532D01*
X95385181Y-92639165D01*
X95434216Y-92708676D01*
X95438110Y-92714537D01*
X95506823Y-92824500D01*
X96901000Y-92824500D01*
X96901000Y-91298500D01*
X97915000Y-91298500D01*
X97915000Y-92824500D01*
X99441000Y-92824500D01*
X99441000Y-91298500D01*
X100455000Y-91298500D01*
X100455000Y-92824500D01*
X100754089Y-92824500D01*
X100748932Y-92735064D01*
X100748740Y-92729901D01*
X100747704Y-92667438D01*
X100747725Y-92662272D01*
X100748229Y-92641630D01*
X100748461Y-92636467D01*
X100752548Y-92574095D01*
X100752991Y-92568945D01*
X100776729Y-92346820D01*
X100777384Y-92341690D01*
X100786573Y-92279849D01*
X100787438Y-92274753D01*
X100791308Y-92254470D01*
X100792379Y-92249419D01*
X100806590Y-92188594D01*
X100807869Y-92183588D01*
X100867568Y-91968323D01*
X100869050Y-91963374D01*
X100888196Y-91903918D01*
X100889879Y-91899035D01*
X100897008Y-91879657D01*
X100898892Y-91874843D01*
X100922864Y-91817109D01*
X100924944Y-91812377D01*
X101018999Y-91609752D01*
X101021272Y-91605108D01*
X101049896Y-91549533D01*
X101052356Y-91544987D01*
X101062556Y-91527033D01*
X101065199Y-91522595D01*
X101098256Y-91469591D01*
X101101080Y-91465265D01*
X101119012Y-91438978D01*
X101042688Y-91314429D01*
X101040079Y-91309969D01*
X101033682Y-91298500D01*
X100455000Y-91298500D01*
X99441000Y-91298500D01*
X97915000Y-91298500D01*
X96901000Y-91298500D01*
X95375000Y-91298500D01*
X94361000Y-91298500D01*
X92835000Y-91298500D01*
X91821000Y-91298500D01*
X90295000Y-91298500D01*
X89281000Y-91298500D01*
X87755000Y-91298500D01*
X86383500Y-91298500D01*
X86383500Y-88758500D01*
X87755000Y-88758500D01*
X87755000Y-90284500D01*
X89281000Y-90284500D01*
X89281000Y-88758500D01*
X90295000Y-88758500D01*
X90295000Y-90284500D01*
X91821000Y-90284500D01*
X91821000Y-88758500D01*
X92835000Y-88758500D01*
X92835000Y-90284500D01*
X94361000Y-90284500D01*
X94361000Y-88758500D01*
X95375000Y-88758500D01*
X95375000Y-90284500D01*
X96901000Y-90284500D01*
X96901000Y-88758500D01*
X97915000Y-88758500D01*
X97915000Y-90284500D01*
X99441000Y-90284500D01*
X99441000Y-88758500D01*
X100455000Y-88758500D01*
X100455000Y-90284500D01*
X100754089Y-90284500D01*
X100748932Y-90195064D01*
X100748740Y-90189901D01*
X100747704Y-90127438D01*
X100747725Y-90122272D01*
X100748229Y-90101630D01*
X100748461Y-90096467D01*
X100752548Y-90034095D01*
X100752991Y-90028945D01*
X100776729Y-89806820D01*
X100777384Y-89801690D01*
X100786573Y-89739849D01*
X100787438Y-89734753D01*
X100791308Y-89714470D01*
X100792379Y-89709419D01*
X100806590Y-89648594D01*
X100807869Y-89643588D01*
X100867568Y-89428323D01*
X100869050Y-89423374D01*
X100888196Y-89363918D01*
X100889879Y-89359035D01*
X100897008Y-89339657D01*
X100898892Y-89334843D01*
X100922864Y-89277109D01*
X100924944Y-89272377D01*
X101018999Y-89069752D01*
X101021272Y-89065108D01*
X101049896Y-89009533D01*
X101052356Y-89004987D01*
X101062556Y-88987033D01*
X101065199Y-88982595D01*
X101098256Y-88929591D01*
X101101079Y-88925265D01*
X101119320Y-88898525D01*
X101043136Y-88774204D01*
X101040527Y-88769743D01*
X101034256Y-88758500D01*
X100455000Y-88758500D01*
X99441000Y-88758500D01*
X97915000Y-88758500D01*
X96901000Y-88758500D01*
X95375000Y-88758500D01*
X94361000Y-88758500D01*
X92835000Y-88758500D01*
X91821000Y-88758500D01*
X90295000Y-88758500D01*
X89281000Y-88758500D01*
X87755000Y-88758500D01*
X86383500Y-88758500D01*
X86383500Y-86218500D01*
X87755000Y-86218500D01*
X87755000Y-87744500D01*
X89281000Y-87744500D01*
X89281000Y-86218500D01*
X90295000Y-86218500D01*
X90295000Y-87744500D01*
X91821000Y-87744500D01*
X91821000Y-86218500D01*
X92835000Y-86218500D01*
X92835000Y-87744500D01*
X94361000Y-87744500D01*
X94361000Y-86218500D01*
X95375000Y-86218500D01*
X95375000Y-87744500D01*
X96901000Y-87744500D01*
X96901000Y-86218500D01*
X97915000Y-86218500D01*
X97915000Y-87744500D01*
X98999801Y-87744500D01*
X98903335Y-87644607D01*
X98898589Y-87639410D01*
X98842996Y-87575003D01*
X98838550Y-87569550D01*
X98821411Y-87547294D01*
X98817275Y-87541602D01*
X98769218Y-87471416D01*
X98765407Y-87465502D01*
X98677255Y-87319946D01*
X98673779Y-87313828D01*
X98633838Y-87238709D01*
X98630710Y-87232406D01*
X98618928Y-87206907D01*
X98616156Y-87200441D01*
X98584840Y-87121347D01*
X98582434Y-87114735D01*
X98528721Y-86953267D01*
X98526687Y-86946532D01*
X98504387Y-86864457D01*
X98502733Y-86857620D01*
X98496892Y-86830144D01*
X98495622Y-86823222D01*
X98482603Y-86739133D01*
X98481720Y-86732151D01*
X98465114Y-86562795D01*
X98464623Y-86555773D01*
X98461061Y-86470752D01*
X98460965Y-86463843D01*
X99474275Y-86463843D01*
X99490881Y-86633199D01*
X99544594Y-86794667D01*
X99548241Y-86800689D01*
X99548242Y-86800691D01*
X99626899Y-86930568D01*
X99632746Y-86940223D01*
X99750955Y-87062632D01*
X99893346Y-87155810D01*
X99899950Y-87158266D01*
X99899952Y-87158267D01*
X99936344Y-87171801D01*
X100052841Y-87215126D01*
X100221515Y-87237632D01*
X100228526Y-87236994D01*
X100228530Y-87236994D01*
X100383962Y-87222848D01*
X100390983Y-87222209D01*
X100397685Y-87220031D01*
X100397687Y-87220031D01*
X100546123Y-87171801D01*
X100546126Y-87171800D01*
X100552822Y-87169624D01*
X100698990Y-87082490D01*
X100704084Y-87077639D01*
X100704088Y-87077636D01*
X100771333Y-87013599D01*
X100822221Y-86965139D01*
X100830520Y-86952649D01*
X100889114Y-86864457D01*
X100916391Y-86823402D01*
X100976819Y-86664325D01*
X101000501Y-86495813D01*
X101000799Y-86474500D01*
X100981831Y-86305392D01*
X100974910Y-86285516D01*
X100928186Y-86151346D01*
X100925868Y-86144689D01*
X100919883Y-86135110D01*
X100877472Y-86067240D01*
X100835692Y-86000379D01*
X100715786Y-85879632D01*
X100699539Y-85869321D01*
X100631394Y-85826075D01*
X100572108Y-85788451D01*
X100411800Y-85731368D01*
X100242829Y-85711220D01*
X100235826Y-85711956D01*
X100235825Y-85711956D01*
X100080601Y-85728270D01*
X100080597Y-85728271D01*
X100073593Y-85729007D01*
X100066922Y-85731278D01*
X99919173Y-85781575D01*
X99919170Y-85781576D01*
X99912503Y-85783846D01*
X99906505Y-85787536D01*
X99906503Y-85787537D01*
X99773565Y-85869321D01*
X99773563Y-85869323D01*
X99767566Y-85873012D01*
X99645986Y-85992073D01*
X99642175Y-85997987D01*
X99642173Y-85997989D01*
X99558690Y-86127529D01*
X99553804Y-86135110D01*
X99495603Y-86295016D01*
X99474275Y-86463843D01*
X98460965Y-86463843D01*
X98460963Y-86463715D01*
X98461356Y-86435627D01*
X98461651Y-86428599D01*
X98467585Y-86343755D01*
X98468272Y-86336754D01*
X98483211Y-86218500D01*
X97915000Y-86218500D01*
X96901000Y-86218500D01*
X95375000Y-86218500D01*
X94361000Y-86218500D01*
X92835000Y-86218500D01*
X91821000Y-86218500D01*
X90295000Y-86218500D01*
X89281000Y-86218500D01*
X87755000Y-86218500D01*
X86383500Y-86218500D01*
X86383500Y-83678500D01*
X87755000Y-83678500D01*
X87755000Y-85204500D01*
X89281000Y-85204500D01*
X89281000Y-83678500D01*
X90295000Y-83678500D01*
X90295000Y-85204500D01*
X91821000Y-85204500D01*
X91821000Y-83678500D01*
X92835000Y-83678500D01*
X92835000Y-85204500D01*
X94361000Y-85204500D01*
X94361000Y-83678500D01*
X95375000Y-83678500D01*
X95375000Y-85204500D01*
X96901000Y-85204500D01*
X96901000Y-83678500D01*
X97915000Y-83678500D01*
X97915000Y-85204500D01*
X99000960Y-85204500D01*
X99058104Y-85148540D01*
X99063267Y-85143759D01*
X99127271Y-85087727D01*
X99132691Y-85083243D01*
X99154827Y-85065948D01*
X99160491Y-85061772D01*
X99230355Y-85013214D01*
X99236244Y-85009360D01*
X99381181Y-84920194D01*
X99387275Y-84916676D01*
X99441000Y-84887628D01*
X99441000Y-83678500D01*
X100455000Y-83678500D01*
X100455000Y-84715336D01*
X100531857Y-84724500D01*
X100538819Y-84725528D01*
X100622610Y-84740303D01*
X100629504Y-84741718D01*
X100656853Y-84748133D01*
X100663654Y-84749931D01*
X100745256Y-84773948D01*
X100751948Y-84776122D01*
X100770745Y-84782815D01*
X100776729Y-84726820D01*
X100777384Y-84721690D01*
X100786573Y-84659849D01*
X100787438Y-84654753D01*
X100791308Y-84634470D01*
X100792379Y-84629419D01*
X100806590Y-84568594D01*
X100807869Y-84563588D01*
X100867568Y-84348323D01*
X100869050Y-84343374D01*
X100888196Y-84283918D01*
X100889879Y-84279035D01*
X100897008Y-84259657D01*
X100898892Y-84254843D01*
X100922864Y-84197109D01*
X100924944Y-84192377D01*
X101018999Y-83989752D01*
X101021272Y-83985108D01*
X101049896Y-83929533D01*
X101052356Y-83924987D01*
X101062556Y-83907033D01*
X101065199Y-83902595D01*
X101098256Y-83849591D01*
X101101080Y-83845265D01*
X101119012Y-83818978D01*
X101042688Y-83694429D01*
X101040079Y-83689969D01*
X101033682Y-83678500D01*
X100455000Y-83678500D01*
X99441000Y-83678500D01*
X97915000Y-83678500D01*
X96901000Y-83678500D01*
X95375000Y-83678500D01*
X94361000Y-83678500D01*
X92835000Y-83678500D01*
X91821000Y-83678500D01*
X90295000Y-83678500D01*
X89281000Y-83678500D01*
X87755000Y-83678500D01*
X86383500Y-83678500D01*
X86383500Y-81138500D01*
X87755000Y-81138500D01*
X87755000Y-82664500D01*
X89281000Y-82664500D01*
X89281000Y-81138500D01*
X90295000Y-81138500D01*
X90295000Y-82664500D01*
X91821000Y-82664500D01*
X91821000Y-81138500D01*
X92835000Y-81138500D01*
X92835000Y-82664500D01*
X94361000Y-82664500D01*
X94361000Y-81138500D01*
X95375000Y-81138500D01*
X95375000Y-82664500D01*
X96901000Y-82664500D01*
X96901000Y-81138500D01*
X97915000Y-81138500D01*
X97915000Y-82664500D01*
X99441000Y-82664500D01*
X99441000Y-81138500D01*
X100455000Y-81138500D01*
X100455000Y-82664500D01*
X100754089Y-82664500D01*
X100748932Y-82575064D01*
X100748740Y-82569901D01*
X100747704Y-82507438D01*
X100747725Y-82502272D01*
X100748229Y-82481630D01*
X100748461Y-82476467D01*
X100752548Y-82414095D01*
X100752991Y-82408945D01*
X100776729Y-82186820D01*
X100777384Y-82181690D01*
X100786573Y-82119849D01*
X100787438Y-82114753D01*
X100791308Y-82094470D01*
X100792379Y-82089419D01*
X100806590Y-82028594D01*
X100807869Y-82023588D01*
X100867568Y-81808323D01*
X100869050Y-81803374D01*
X100888196Y-81743918D01*
X100889879Y-81739035D01*
X100897008Y-81719657D01*
X100898892Y-81714843D01*
X100922864Y-81657109D01*
X100924944Y-81652377D01*
X101018999Y-81449752D01*
X101021272Y-81445108D01*
X101049896Y-81389533D01*
X101052356Y-81384987D01*
X101062556Y-81367033D01*
X101065199Y-81362595D01*
X101098256Y-81309591D01*
X101101080Y-81305265D01*
X101119012Y-81278978D01*
X101042688Y-81154429D01*
X101040079Y-81149969D01*
X101033682Y-81138500D01*
X100455000Y-81138500D01*
X99441000Y-81138500D01*
X97915000Y-81138500D01*
X96901000Y-81138500D01*
X95375000Y-81138500D01*
X94361000Y-81138500D01*
X92835000Y-81138500D01*
X91821000Y-81138500D01*
X90295000Y-81138500D01*
X89281000Y-81138500D01*
X87755000Y-81138500D01*
X86383500Y-81138500D01*
X86383500Y-80240768D01*
X86384027Y-80229585D01*
X86385702Y-80222092D01*
X86385158Y-80204767D01*
X86383562Y-80154002D01*
X86383500Y-80150044D01*
X86383500Y-80122144D01*
X86382996Y-80118153D01*
X86382063Y-80106311D01*
X86381908Y-80101358D01*
X86380674Y-80062111D01*
X86375021Y-80042652D01*
X86371012Y-80023293D01*
X86370846Y-80021983D01*
X86368474Y-80003203D01*
X86365558Y-79995837D01*
X86365556Y-79995831D01*
X86352200Y-79962098D01*
X86348355Y-79950868D01*
X86338230Y-79916017D01*
X86338230Y-79916016D01*
X86336019Y-79908407D01*
X86325705Y-79890966D01*
X86317008Y-79873213D01*
X86312472Y-79861758D01*
X86309552Y-79854383D01*
X86283563Y-79818612D01*
X86277047Y-79808692D01*
X86264432Y-79787361D01*
X86254542Y-79770638D01*
X86240221Y-79756317D01*
X86227380Y-79741283D01*
X86220131Y-79731306D01*
X86215472Y-79724893D01*
X86181395Y-79696702D01*
X86172616Y-79688712D01*
X85082404Y-78598500D01*
X87755000Y-78598500D01*
X87755000Y-80124500D01*
X89281000Y-80124500D01*
X89281000Y-78598500D01*
X90295000Y-78598500D01*
X90295000Y-80124500D01*
X91821000Y-80124500D01*
X91821000Y-78598500D01*
X92835000Y-78598500D01*
X92835000Y-80124500D01*
X94361000Y-80124500D01*
X94361000Y-78598500D01*
X95375000Y-78598500D01*
X95375000Y-80124500D01*
X96901000Y-80124500D01*
X96901000Y-78598500D01*
X97915000Y-78598500D01*
X97915000Y-80124500D01*
X99441000Y-80124500D01*
X99441000Y-78598500D01*
X100455000Y-78598500D01*
X100455000Y-80124500D01*
X100754089Y-80124500D01*
X100748932Y-80035064D01*
X100748740Y-80029901D01*
X100747704Y-79967438D01*
X100747725Y-79962272D01*
X100748229Y-79941630D01*
X100748461Y-79936467D01*
X100752548Y-79874095D01*
X100752991Y-79868945D01*
X100776729Y-79646820D01*
X100777384Y-79641690D01*
X100786573Y-79579849D01*
X100787438Y-79574753D01*
X100791308Y-79554470D01*
X100792379Y-79549419D01*
X100806590Y-79488594D01*
X100807869Y-79483588D01*
X100867568Y-79268323D01*
X100869050Y-79263374D01*
X100888196Y-79203918D01*
X100889879Y-79199035D01*
X100897008Y-79179657D01*
X100898892Y-79174843D01*
X100922864Y-79117109D01*
X100924944Y-79112377D01*
X101018999Y-78909752D01*
X101021272Y-78905108D01*
X101049896Y-78849533D01*
X101052356Y-78844987D01*
X101062556Y-78827033D01*
X101065199Y-78822595D01*
X101098256Y-78769591D01*
X101101080Y-78765265D01*
X101119012Y-78738978D01*
X101042688Y-78614429D01*
X101040079Y-78609969D01*
X101033682Y-78598500D01*
X100455000Y-78598500D01*
X99441000Y-78598500D01*
X97915000Y-78598500D01*
X96901000Y-78598500D01*
X95375000Y-78598500D01*
X94361000Y-78598500D01*
X92835000Y-78598500D01*
X91821000Y-78598500D01*
X90295000Y-78598500D01*
X89281000Y-78598500D01*
X87755000Y-78598500D01*
X85082404Y-78598500D01*
X82900715Y-76416811D01*
X82542404Y-76058500D01*
X85215000Y-76058500D01*
X85215000Y-77297086D01*
X85502414Y-77584500D01*
X86741000Y-77584500D01*
X86741000Y-76058500D01*
X87755000Y-76058500D01*
X87755000Y-77584500D01*
X89281000Y-77584500D01*
X89281000Y-76058500D01*
X90295000Y-76058500D01*
X90295000Y-77584500D01*
X91821000Y-77584500D01*
X91821000Y-76058500D01*
X92835000Y-76058500D01*
X92835000Y-77584500D01*
X94361000Y-77584500D01*
X94361000Y-76058500D01*
X95375000Y-76058500D01*
X95375000Y-77584500D01*
X96901000Y-77584500D01*
X96901000Y-76058500D01*
X97915000Y-76058500D01*
X97915000Y-77584500D01*
X99441000Y-77584500D01*
X99441000Y-76058500D01*
X100455000Y-76058500D01*
X100455000Y-77584500D01*
X100754089Y-77584500D01*
X100748932Y-77495064D01*
X100748740Y-77489901D01*
X100747704Y-77427438D01*
X100747725Y-77422272D01*
X100748229Y-77401630D01*
X100748461Y-77396467D01*
X100752548Y-77334095D01*
X100752991Y-77328945D01*
X100776729Y-77106820D01*
X100777384Y-77101690D01*
X100786573Y-77039849D01*
X100787438Y-77034753D01*
X100791308Y-77014470D01*
X100792379Y-77009419D01*
X100806590Y-76948594D01*
X100807869Y-76943588D01*
X100867568Y-76728323D01*
X100869050Y-76723374D01*
X100888196Y-76663918D01*
X100889879Y-76659035D01*
X100897008Y-76639657D01*
X100898892Y-76634843D01*
X100922864Y-76577109D01*
X100924944Y-76572377D01*
X101018999Y-76369752D01*
X101021272Y-76365108D01*
X101049896Y-76309533D01*
X101052356Y-76304987D01*
X101062556Y-76287033D01*
X101065199Y-76282595D01*
X101098256Y-76229591D01*
X101101080Y-76225265D01*
X101119012Y-76198978D01*
X101042688Y-76074429D01*
X101040079Y-76069969D01*
X101033682Y-76058500D01*
X100455000Y-76058500D01*
X99441000Y-76058500D01*
X97915000Y-76058500D01*
X96901000Y-76058500D01*
X95375000Y-76058500D01*
X94361000Y-76058500D01*
X92835000Y-76058500D01*
X91821000Y-76058500D01*
X90295000Y-76058500D01*
X89281000Y-76058500D01*
X87755000Y-76058500D01*
X86741000Y-76058500D01*
X85215000Y-76058500D01*
X82542404Y-76058500D01*
X80002405Y-73518500D01*
X82675000Y-73518500D01*
X82675000Y-74757086D01*
X82962414Y-75044500D01*
X84201000Y-75044500D01*
X84201000Y-73518500D01*
X85215000Y-73518500D01*
X85215000Y-75044500D01*
X86741000Y-75044500D01*
X86741000Y-73518500D01*
X87755000Y-73518500D01*
X87755000Y-75044500D01*
X89281000Y-75044500D01*
X89281000Y-73518500D01*
X90295000Y-73518500D01*
X90295000Y-75044500D01*
X91821000Y-75044500D01*
X91821000Y-73518500D01*
X92835000Y-73518500D01*
X92835000Y-75044500D01*
X94361000Y-75044500D01*
X94361000Y-73518500D01*
X95375000Y-73518500D01*
X95375000Y-75044500D01*
X96901000Y-75044500D01*
X96901000Y-73518500D01*
X97915000Y-73518500D01*
X97915000Y-75044500D01*
X99441000Y-75044500D01*
X99441000Y-73518500D01*
X100455000Y-73518500D01*
X100455000Y-75044500D01*
X100754089Y-75044500D01*
X100748932Y-74955064D01*
X100748740Y-74949901D01*
X100747704Y-74887438D01*
X100747725Y-74882272D01*
X100748229Y-74861630D01*
X100748461Y-74856467D01*
X100752548Y-74794095D01*
X100752991Y-74788945D01*
X100776729Y-74566820D01*
X100777384Y-74561690D01*
X100786573Y-74499849D01*
X100787438Y-74494753D01*
X100791308Y-74474470D01*
X100792379Y-74469419D01*
X100806590Y-74408594D01*
X100807869Y-74403588D01*
X100867568Y-74188323D01*
X100869050Y-74183374D01*
X100888196Y-74123918D01*
X100889879Y-74119035D01*
X100897008Y-74099657D01*
X100898892Y-74094843D01*
X100922864Y-74037109D01*
X100924944Y-74032377D01*
X100944787Y-73989629D01*
X100944102Y-73988477D01*
X100926946Y-73957142D01*
X100922926Y-73949135D01*
X100877796Y-73850679D01*
X100874354Y-73842406D01*
X100823274Y-73706151D01*
X100820738Y-73698681D01*
X100792915Y-73607464D01*
X100790850Y-73599850D01*
X100783569Y-73569228D01*
X100781986Y-73561500D01*
X100774569Y-73518500D01*
X100455000Y-73518500D01*
X99441000Y-73518500D01*
X97915000Y-73518500D01*
X96901000Y-73518500D01*
X95375000Y-73518500D01*
X94361000Y-73518500D01*
X92835000Y-73518500D01*
X91821000Y-73518500D01*
X90295000Y-73518500D01*
X89281000Y-73518500D01*
X87755000Y-73518500D01*
X86741000Y-73518500D01*
X85215000Y-73518500D01*
X84201000Y-73518500D01*
X82675000Y-73518500D01*
X80002405Y-73518500D01*
X79667540Y-73183635D01*
X79633515Y-73121325D01*
X79638580Y-73050510D01*
X79651688Y-73024815D01*
X79668990Y-72998773D01*
X79672891Y-72992902D01*
X79733319Y-72833825D01*
X79757001Y-72665313D01*
X79757217Y-72649865D01*
X79757244Y-72647961D01*
X79757244Y-72647955D01*
X79757299Y-72644000D01*
X79738331Y-72474892D01*
X79682368Y-72314189D01*
X79592192Y-72169879D01*
X79472286Y-72049132D01*
X79328608Y-71957951D01*
X79168300Y-71900868D01*
X78999329Y-71880720D01*
X78992326Y-71881456D01*
X78992325Y-71881456D01*
X78837101Y-71897770D01*
X78837097Y-71897771D01*
X78830093Y-71898507D01*
X78823422Y-71900778D01*
X78715521Y-71937510D01*
X78644589Y-71940528D01*
X78607400Y-71924616D01*
X78594619Y-71916505D01*
X78588666Y-71912727D01*
X78553020Y-71900034D01*
X78464463Y-71868500D01*
X80592336Y-71868500D01*
X80602193Y-71889074D01*
X80605054Y-71895501D01*
X80637466Y-71974140D01*
X80639964Y-71980717D01*
X80695927Y-72141420D01*
X80698054Y-72148124D01*
X80721500Y-72229884D01*
X80723250Y-72236699D01*
X80729474Y-72264091D01*
X80730841Y-72270996D01*
X80745032Y-72354897D01*
X80746012Y-72361865D01*
X80762011Y-72504500D01*
X81661000Y-72504500D01*
X81661000Y-71868500D01*
X82675000Y-71868500D01*
X82675000Y-72504500D01*
X84201000Y-72504500D01*
X84201000Y-71868500D01*
X85215000Y-71868500D01*
X85215000Y-72504500D01*
X86741000Y-72504500D01*
X86741000Y-71868500D01*
X87755000Y-71868500D01*
X87755000Y-72504500D01*
X89281000Y-72504500D01*
X89281000Y-71868500D01*
X90295000Y-71868500D01*
X90295000Y-72504500D01*
X91821000Y-72504500D01*
X91821000Y-71868500D01*
X92835000Y-71868500D01*
X92835000Y-72504500D01*
X94361000Y-72504500D01*
X94361000Y-71868500D01*
X95375000Y-71868500D01*
X95375000Y-72504500D01*
X96901000Y-72504500D01*
X96901000Y-71868500D01*
X97915000Y-71868500D01*
X97915000Y-72504500D01*
X99441000Y-72504500D01*
X99441000Y-71868500D01*
X97915000Y-71868500D01*
X96901000Y-71868500D01*
X95375000Y-71868500D01*
X94361000Y-71868500D01*
X92835000Y-71868500D01*
X91821000Y-71868500D01*
X90295000Y-71868500D01*
X89281000Y-71868500D01*
X87755000Y-71868500D01*
X86741000Y-71868500D01*
X85215000Y-71868500D01*
X84201000Y-71868500D01*
X82675000Y-71868500D01*
X81661000Y-71868500D01*
X80592336Y-71868500D01*
X78464463Y-71868500D01*
X78424425Y-71854243D01*
X78424420Y-71854242D01*
X78417790Y-71851881D01*
X78410802Y-71851048D01*
X78410799Y-71851047D01*
X78287698Y-71836368D01*
X78237680Y-71830404D01*
X78230677Y-71831140D01*
X78230676Y-71831140D01*
X78064288Y-71848628D01*
X78064286Y-71848629D01*
X78057288Y-71849364D01*
X77885579Y-71907818D01*
X77803282Y-71958448D01*
X77750522Y-71990906D01*
X77682021Y-72009565D01*
X77614307Y-71988226D01*
X77568879Y-71933667D01*
X77558500Y-71883589D01*
X77558500Y-71491866D01*
X77551745Y-71429684D01*
X77500615Y-71293295D01*
X77426621Y-71194565D01*
X77401773Y-71128059D01*
X77416826Y-71058676D01*
X77467000Y-71008446D01*
X77527447Y-70993000D01*
X78813794Y-70993000D01*
X78834698Y-70994746D01*
X78836386Y-70995030D01*
X78854462Y-70998071D01*
X78860628Y-70998146D01*
X78862136Y-70998165D01*
X78862141Y-70998165D01*
X78867001Y-70998224D01*
X78871812Y-70997535D01*
X78871828Y-70997534D01*
X78883130Y-70995915D01*
X78891100Y-70995031D01*
X79066287Y-70981243D01*
X79260665Y-70934576D01*
X79353008Y-70896326D01*
X79440779Y-70859971D01*
X79440781Y-70859970D01*
X79445351Y-70858077D01*
X79615795Y-70753628D01*
X79619403Y-70750546D01*
X79693412Y-70726500D01*
X99630588Y-70726500D01*
X99704597Y-70750546D01*
G37*
%TD.AperFunction*%
%TA.AperFunction,Conductor*%
G36*
X77716379Y-73275955D02*
G01*
X77739052Y-73287700D01*
X77822568Y-73342351D01*
X77845880Y-73357606D01*
X77865159Y-73370222D01*
X77871763Y-73372678D01*
X77871765Y-73372679D01*
X78028558Y-73430990D01*
X78028560Y-73430990D01*
X78035168Y-73433448D01*
X78042153Y-73434380D01*
X78042157Y-73434381D01*
X78077087Y-73439041D01*
X78097187Y-73441723D01*
X78162063Y-73470558D01*
X78169617Y-73477521D01*
X85079595Y-80387499D01*
X85113621Y-80449811D01*
X85116500Y-80476594D01*
X85116500Y-93550113D01*
X85096498Y-93618234D01*
X85042842Y-93664727D01*
X84982728Y-93674110D01*
X84982720Y-93675287D01*
X84975672Y-93675238D01*
X84968680Y-93674404D01*
X84961677Y-93675140D01*
X84961676Y-93675140D01*
X84795288Y-93692628D01*
X84795286Y-93692629D01*
X84788288Y-93693364D01*
X84616579Y-93751818D01*
X84610575Y-93755512D01*
X84468095Y-93843166D01*
X84468092Y-93843168D01*
X84462088Y-93846862D01*
X84457053Y-93851793D01*
X84457050Y-93851795D01*
X84337525Y-93968843D01*
X84332493Y-93973771D01*
X84234235Y-94126238D01*
X84231826Y-94132858D01*
X84231824Y-94132861D01*
X84174606Y-94290066D01*
X84172197Y-94296685D01*
X84149463Y-94476640D01*
X84167163Y-94657160D01*
X84224418Y-94829273D01*
X84241374Y-94857270D01*
X84251109Y-94873345D01*
X84269288Y-94941974D01*
X84261315Y-94982845D01*
X84251029Y-95010282D01*
X84251027Y-95010289D01*
X84248255Y-95017684D01*
X84241500Y-95079866D01*
X84241500Y-98976134D01*
X84248255Y-99038316D01*
X84299385Y-99174705D01*
X84386739Y-99291261D01*
X84503295Y-99378615D01*
X84639684Y-99429745D01*
X84701866Y-99436500D01*
X85340687Y-99436500D01*
X85408808Y-99456502D01*
X85455301Y-99510158D01*
X85465693Y-99578291D01*
X85453963Y-99671140D01*
X85471663Y-99851660D01*
X85528918Y-100023773D01*
X85532565Y-100029795D01*
X85532566Y-100029797D01*
X85603862Y-100147521D01*
X85622880Y-100178924D01*
X85627769Y-100183987D01*
X85627770Y-100183988D01*
X85688540Y-100246916D01*
X85748882Y-100309402D01*
X85786742Y-100334177D01*
X85887190Y-100399908D01*
X85900659Y-100408722D01*
X85907263Y-100411178D01*
X85907265Y-100411179D01*
X86064058Y-100469490D01*
X86064060Y-100469490D01*
X86070668Y-100471948D01*
X86154495Y-100483133D01*
X86243480Y-100495007D01*
X86243484Y-100495007D01*
X86250461Y-100495938D01*
X86257472Y-100495300D01*
X86257476Y-100495300D01*
X86399959Y-100482332D01*
X86431100Y-100479498D01*
X86437802Y-100477320D01*
X86437804Y-100477320D01*
X86596909Y-100425624D01*
X86596912Y-100425623D01*
X86603608Y-100423447D01*
X86724446Y-100351413D01*
X86753360Y-100334177D01*
X86753362Y-100334176D01*
X86759412Y-100330569D01*
X86890766Y-100205482D01*
X86991143Y-100054402D01*
X87055045Y-99886181D01*
X87097933Y-99829604D01*
X87164601Y-99805195D01*
X87233883Y-99820705D01*
X87261927Y-99841831D01*
X88142343Y-100722247D01*
X88149887Y-100730537D01*
X88154000Y-100737018D01*
X88159777Y-100742443D01*
X88203667Y-100783658D01*
X88206509Y-100786413D01*
X88226230Y-100806134D01*
X88229425Y-100808612D01*
X88238447Y-100816318D01*
X88270679Y-100846586D01*
X88277628Y-100850406D01*
X88288432Y-100856346D01*
X88304956Y-100867199D01*
X88320959Y-100879613D01*
X88361543Y-100897176D01*
X88372181Y-100902387D01*
X88384775Y-100909311D01*
X88403464Y-100919585D01*
X88453523Y-100969930D01*
X88468417Y-101039347D01*
X88443417Y-101105796D01*
X88386460Y-101148181D01*
X88342764Y-101156000D01*
X86006663Y-101156000D01*
X86001387Y-101155889D01*
X85985235Y-101155212D01*
X85938447Y-101153251D01*
X85895379Y-101163352D01*
X85883718Y-101165513D01*
X85864266Y-101168178D01*
X85848408Y-101170350D01*
X85848407Y-101170350D01*
X85839897Y-101171516D01*
X85832014Y-101174928D01*
X85832012Y-101174928D01*
X85825747Y-101177639D01*
X85804476Y-101184674D01*
X85789471Y-101188193D01*
X85781946Y-101192330D01*
X85750709Y-101209503D01*
X85740049Y-101214725D01*
X85707347Y-101228876D01*
X85707345Y-101228877D01*
X85699463Y-101232288D01*
X85687484Y-101241988D01*
X85668892Y-101254481D01*
X85661169Y-101258727D01*
X85661164Y-101258731D01*
X85655379Y-101261911D01*
X85647141Y-101269022D01*
X85622192Y-101293971D01*
X85612392Y-101302796D01*
X85580544Y-101328586D01*
X85575568Y-101335588D01*
X85575567Y-101335589D01*
X85569398Y-101344270D01*
X85555787Y-101360376D01*
X83689819Y-103226344D01*
X83686010Y-103229997D01*
X83639622Y-103272653D01*
X83635097Y-103279951D01*
X83616318Y-103310239D01*
X83609593Y-103320023D01*
X83588047Y-103348409D01*
X83588045Y-103348412D01*
X83582852Y-103355254D01*
X83579689Y-103363243D01*
X83577176Y-103369589D01*
X83567112Y-103389599D01*
X83563517Y-103395397D01*
X83563515Y-103395402D01*
X83558988Y-103402703D01*
X83556591Y-103410954D01*
X83546648Y-103445178D01*
X83542803Y-103456407D01*
X83529684Y-103489542D01*
X83529683Y-103489548D01*
X83526523Y-103497528D01*
X83525626Y-103506066D01*
X83525624Y-103506072D01*
X83524910Y-103512863D01*
X83520600Y-103534835D01*
X83516297Y-103549647D01*
X83515500Y-103560500D01*
X83515500Y-103595791D01*
X83514810Y-103608960D01*
X83510527Y-103649709D01*
X83513737Y-103668687D01*
X83515500Y-103689689D01*
X83515500Y-109839521D01*
X83506649Y-109885911D01*
X83504654Y-109890949D01*
X83494592Y-109910954D01*
X83490997Y-109916752D01*
X83490995Y-109916757D01*
X83486468Y-109924058D01*
X83484071Y-109932309D01*
X83474128Y-109966533D01*
X83470283Y-109977762D01*
X83457164Y-110010897D01*
X83457163Y-110010903D01*
X83454003Y-110018883D01*
X83453106Y-110027421D01*
X83453104Y-110027427D01*
X83452390Y-110034218D01*
X83448080Y-110056190D01*
X83443777Y-110071002D01*
X83442980Y-110081855D01*
X83442980Y-110117146D01*
X83442290Y-110130315D01*
X83438007Y-110171064D01*
X83441217Y-110190042D01*
X83442980Y-110211044D01*
X83442980Y-112593155D01*
X83422978Y-112661276D01*
X83406075Y-112682250D01*
X83308819Y-112779506D01*
X83305010Y-112783159D01*
X83258622Y-112825815D01*
X83254097Y-112833113D01*
X83235318Y-112863401D01*
X83228593Y-112873185D01*
X83207047Y-112901571D01*
X83207045Y-112901574D01*
X83201852Y-112908416D01*
X83198689Y-112916405D01*
X83196176Y-112922751D01*
X83186112Y-112942761D01*
X83182517Y-112948559D01*
X83182515Y-112948564D01*
X83177988Y-112955865D01*
X83168815Y-112987438D01*
X83165648Y-112998340D01*
X83161803Y-113009569D01*
X83148684Y-113042704D01*
X83148683Y-113042710D01*
X83145523Y-113050690D01*
X83144626Y-113059228D01*
X83144624Y-113059234D01*
X83143910Y-113066025D01*
X83139600Y-113087997D01*
X83135297Y-113102809D01*
X83134500Y-113113662D01*
X83134500Y-113148953D01*
X83133810Y-113162122D01*
X83129527Y-113202871D01*
X83130960Y-113211344D01*
X83131230Y-113219924D01*
X83128812Y-113220000D01*
X83121938Y-113277948D01*
X83104737Y-113306389D01*
X83101486Y-113309573D01*
X83009304Y-113452610D01*
X82951103Y-113612516D01*
X82929775Y-113781343D01*
X82946381Y-113950699D01*
X82948605Y-113957384D01*
X82948605Y-113957385D01*
X82970182Y-114022249D01*
X83000094Y-114112167D01*
X83003743Y-114118193D01*
X83004700Y-114120263D01*
X83015117Y-114190491D01*
X83008723Y-114216207D01*
X82951103Y-114374516D01*
X82929775Y-114543343D01*
X82946381Y-114712699D01*
X83000094Y-114874167D01*
X83003741Y-114880189D01*
X83003742Y-114880191D01*
X83081743Y-115008985D01*
X83088246Y-115019723D01*
X83206455Y-115142132D01*
X83212351Y-115145990D01*
X83329289Y-115222512D01*
X83348846Y-115235310D01*
X83355450Y-115237766D01*
X83355452Y-115237767D01*
X83452565Y-115273883D01*
X83509441Y-115316375D01*
X83534315Y-115382872D01*
X83519290Y-115452260D01*
X83469135Y-115502510D01*
X83408645Y-115517980D01*
X78491283Y-115517980D01*
X78480099Y-115517453D01*
X78472611Y-115515779D01*
X78464688Y-115516028D01*
X78404553Y-115517918D01*
X78400595Y-115517980D01*
X78372664Y-115517980D01*
X78368749Y-115518475D01*
X78368745Y-115518475D01*
X78368687Y-115518483D01*
X78368658Y-115518486D01*
X78356816Y-115519419D01*
X78312630Y-115520807D01*
X78295264Y-115525852D01*
X78293178Y-115526458D01*
X78273826Y-115530466D01*
X78261588Y-115532012D01*
X78261586Y-115532013D01*
X78253723Y-115533006D01*
X78212606Y-115549286D01*
X78201405Y-115553121D01*
X78158926Y-115565462D01*
X78152107Y-115569495D01*
X78152102Y-115569497D01*
X78141491Y-115575773D01*
X78123741Y-115584470D01*
X78104903Y-115591928D01*
X78098487Y-115596589D01*
X78098486Y-115596590D01*
X78069145Y-115617908D01*
X78059221Y-115624427D01*
X78027980Y-115642902D01*
X78027975Y-115642906D01*
X78021157Y-115646938D01*
X78006833Y-115661262D01*
X77991801Y-115674101D01*
X77975413Y-115686008D01*
X77954503Y-115711284D01*
X77947232Y-115720073D01*
X77939242Y-115728853D01*
X77752740Y-115915355D01*
X77690428Y-115949381D01*
X77619613Y-115944316D01*
X77562777Y-115901769D01*
X77537966Y-115835249D01*
X77538723Y-115809813D01*
X77550452Y-115720729D01*
X77561529Y-115636590D01*
X77561900Y-115621404D01*
X77563074Y-115573365D01*
X77563074Y-115573361D01*
X77563156Y-115570000D01*
X77544852Y-115347361D01*
X77490431Y-115130702D01*
X77401354Y-114925840D01*
X77280014Y-114738277D01*
X77129670Y-114573051D01*
X77125619Y-114569852D01*
X77125615Y-114569848D01*
X76958414Y-114437800D01*
X76958410Y-114437798D01*
X76954359Y-114434598D01*
X76913053Y-114411796D01*
X76863084Y-114361364D01*
X76848312Y-114291921D01*
X76873428Y-114225516D01*
X76900780Y-114198909D01*
X76957431Y-114158500D01*
X80135000Y-114158500D01*
X80135000Y-114503980D01*
X81661000Y-114503980D01*
X81661000Y-114158500D01*
X80135000Y-114158500D01*
X76957431Y-114158500D01*
X77079860Y-114071173D01*
X77132737Y-114018481D01*
X77234435Y-113917137D01*
X77238096Y-113913489D01*
X77243368Y-113906153D01*
X77365435Y-113736277D01*
X77368453Y-113732077D01*
X77380579Y-113707543D01*
X77465136Y-113536453D01*
X77465137Y-113536451D01*
X77467430Y-113531811D01*
X77519235Y-113361302D01*
X77530865Y-113323023D01*
X77530865Y-113323021D01*
X77532370Y-113318069D01*
X77561529Y-113096590D01*
X77562633Y-113051413D01*
X77563074Y-113033365D01*
X77563074Y-113033361D01*
X77563156Y-113030000D01*
X77544852Y-112807361D01*
X77490431Y-112590702D01*
X77401354Y-112385840D01*
X77319157Y-112258783D01*
X77282822Y-112202617D01*
X77282820Y-112202614D01*
X77280014Y-112198277D01*
X77129670Y-112033051D01*
X77125619Y-112029852D01*
X77125615Y-112029848D01*
X76958414Y-111897800D01*
X76958410Y-111897798D01*
X76954359Y-111894598D01*
X76913053Y-111871796D01*
X76863084Y-111821364D01*
X76850604Y-111762696D01*
X78205913Y-111762696D01*
X78252728Y-111835061D01*
X78255446Y-111839457D01*
X78287211Y-111893276D01*
X78289746Y-111897779D01*
X78299503Y-111915976D01*
X78301850Y-111920579D01*
X78329094Y-111976811D01*
X78331251Y-111981506D01*
X78420328Y-112186368D01*
X78422291Y-112191147D01*
X78444831Y-112249407D01*
X78446596Y-112254262D01*
X78453251Y-112273809D01*
X78454816Y-112278736D01*
X78472519Y-112338689D01*
X78473881Y-112343675D01*
X78528302Y-112560334D01*
X78529458Y-112565373D01*
X78542187Y-112626574D01*
X78543136Y-112631655D01*
X78546508Y-112652027D01*
X78547246Y-112657139D01*
X78554913Y-112719137D01*
X78555442Y-112724277D01*
X78573746Y-112946916D01*
X78573977Y-112950263D01*
X78576223Y-112990761D01*
X78576364Y-112994110D01*
X78576750Y-113007512D01*
X78576802Y-113010863D01*
X78576891Y-113051413D01*
X78576853Y-113054768D01*
X78575226Y-113121358D01*
X78575100Y-113124707D01*
X78574089Y-113144500D01*
X79121000Y-113144500D01*
X79121000Y-111618500D01*
X80135000Y-111618500D01*
X80135000Y-113144500D01*
X81661000Y-113144500D01*
X81661000Y-111618500D01*
X80135000Y-111618500D01*
X79121000Y-111618500D01*
X78288784Y-111618500D01*
X78277491Y-111641350D01*
X78275108Y-111645934D01*
X78245156Y-111700757D01*
X78242587Y-111705238D01*
X78231953Y-111722937D01*
X78229200Y-111727312D01*
X78205913Y-111762696D01*
X76850604Y-111762696D01*
X76848312Y-111751921D01*
X76873428Y-111685516D01*
X76900780Y-111658909D01*
X76957431Y-111618500D01*
X77079860Y-111531173D01*
X77085716Y-111525338D01*
X77234435Y-111377137D01*
X77238096Y-111373489D01*
X77268257Y-111331516D01*
X77365435Y-111196277D01*
X77368453Y-111192077D01*
X77380579Y-111167543D01*
X77465136Y-110996453D01*
X77465137Y-110996451D01*
X77467430Y-110991811D01*
X77532370Y-110778069D01*
X77561529Y-110556590D01*
X77561942Y-110539694D01*
X77563074Y-110493365D01*
X77563074Y-110493361D01*
X77563156Y-110490000D01*
X77544852Y-110267361D01*
X77490431Y-110050702D01*
X77401354Y-109845840D01*
X77319157Y-109718783D01*
X77282822Y-109662617D01*
X77282820Y-109662614D01*
X77280014Y-109658277D01*
X77129670Y-109493051D01*
X77125619Y-109489852D01*
X77125615Y-109489848D01*
X76958414Y-109357800D01*
X76958410Y-109357798D01*
X76954359Y-109354598D01*
X76913053Y-109331796D01*
X76863084Y-109281364D01*
X76850604Y-109222696D01*
X78205913Y-109222696D01*
X78252728Y-109295061D01*
X78255446Y-109299457D01*
X78287211Y-109353276D01*
X78289746Y-109357779D01*
X78299503Y-109375976D01*
X78301850Y-109380579D01*
X78329094Y-109436811D01*
X78331251Y-109441506D01*
X78420328Y-109646368D01*
X78422291Y-109651147D01*
X78444831Y-109709407D01*
X78446596Y-109714262D01*
X78453251Y-109733809D01*
X78454816Y-109738736D01*
X78472519Y-109798689D01*
X78473881Y-109803675D01*
X78528302Y-110020334D01*
X78529458Y-110025373D01*
X78542187Y-110086574D01*
X78543136Y-110091655D01*
X78546508Y-110112027D01*
X78547246Y-110117139D01*
X78554913Y-110179137D01*
X78555442Y-110184277D01*
X78573746Y-110406916D01*
X78573977Y-110410263D01*
X78576223Y-110450761D01*
X78576364Y-110454110D01*
X78576750Y-110467512D01*
X78576802Y-110470863D01*
X78576891Y-110511413D01*
X78576853Y-110514768D01*
X78575226Y-110581358D01*
X78575100Y-110584707D01*
X78574089Y-110604500D01*
X79121000Y-110604500D01*
X79121000Y-109078500D01*
X80135000Y-109078500D01*
X80135000Y-110604500D01*
X81661000Y-110604500D01*
X81661000Y-109078500D01*
X80135000Y-109078500D01*
X79121000Y-109078500D01*
X78288784Y-109078500D01*
X78277491Y-109101350D01*
X78275108Y-109105934D01*
X78245156Y-109160757D01*
X78242587Y-109165238D01*
X78231953Y-109182937D01*
X78229200Y-109187312D01*
X78205913Y-109222696D01*
X76850604Y-109222696D01*
X76848312Y-109211921D01*
X76873428Y-109145516D01*
X76900780Y-109118909D01*
X76957431Y-109078500D01*
X77079860Y-108991173D01*
X77238096Y-108833489D01*
X77297594Y-108750689D01*
X77365435Y-108656277D01*
X77368453Y-108652077D01*
X77380579Y-108627543D01*
X77465136Y-108456453D01*
X77465137Y-108456451D01*
X77467430Y-108451811D01*
X77532370Y-108238069D01*
X77561529Y-108016590D01*
X77561611Y-108013240D01*
X77563074Y-107953365D01*
X77563074Y-107953361D01*
X77563156Y-107950000D01*
X77544852Y-107727361D01*
X77490431Y-107510702D01*
X77401354Y-107305840D01*
X77319157Y-107178783D01*
X77282822Y-107122617D01*
X77282820Y-107122614D01*
X77280014Y-107118277D01*
X77129670Y-106953051D01*
X77125619Y-106949852D01*
X77125615Y-106949848D01*
X76958414Y-106817800D01*
X76958410Y-106817798D01*
X76954359Y-106814598D01*
X76912569Y-106791529D01*
X76862598Y-106741097D01*
X76850077Y-106682236D01*
X78205615Y-106682236D01*
X78252728Y-106755061D01*
X78255446Y-106759457D01*
X78287211Y-106813276D01*
X78289746Y-106817779D01*
X78299503Y-106835976D01*
X78301850Y-106840579D01*
X78329094Y-106896811D01*
X78331251Y-106901506D01*
X78420328Y-107106368D01*
X78422291Y-107111147D01*
X78444831Y-107169407D01*
X78446596Y-107174262D01*
X78453251Y-107193809D01*
X78454816Y-107198736D01*
X78472519Y-107258689D01*
X78473881Y-107263675D01*
X78528302Y-107480334D01*
X78529458Y-107485373D01*
X78542187Y-107546574D01*
X78543136Y-107551655D01*
X78546508Y-107572027D01*
X78547246Y-107577139D01*
X78554913Y-107639137D01*
X78555442Y-107644277D01*
X78573746Y-107866916D01*
X78573977Y-107870263D01*
X78576223Y-107910761D01*
X78576364Y-107914110D01*
X78576750Y-107927512D01*
X78576802Y-107930863D01*
X78576891Y-107971413D01*
X78576853Y-107974768D01*
X78575226Y-108041358D01*
X78575100Y-108044707D01*
X78574089Y-108064500D01*
X79121000Y-108064500D01*
X79121000Y-106538500D01*
X80135000Y-106538500D01*
X80135000Y-108064500D01*
X81661000Y-108064500D01*
X81661000Y-106538500D01*
X80135000Y-106538500D01*
X79121000Y-106538500D01*
X78288225Y-106538500D01*
X78277058Y-106561095D01*
X78274673Y-106565682D01*
X78244706Y-106620529D01*
X78242136Y-106625011D01*
X78231501Y-106642710D01*
X78228750Y-106647083D01*
X78205615Y-106682236D01*
X76850077Y-106682236D01*
X76847826Y-106671654D01*
X76872942Y-106605248D01*
X76900294Y-106578641D01*
X77075328Y-106453792D01*
X77083200Y-106447139D01*
X77234052Y-106296812D01*
X77240730Y-106288965D01*
X77365003Y-106116020D01*
X77370313Y-106107183D01*
X77464670Y-105916267D01*
X77468469Y-105906672D01*
X77530377Y-105702910D01*
X77532555Y-105692837D01*
X77533986Y-105681962D01*
X77531775Y-105667778D01*
X77518617Y-105664000D01*
X76072000Y-105664000D01*
X76003879Y-105643998D01*
X75957386Y-105590342D01*
X75946000Y-105538000D01*
X75946000Y-105282000D01*
X75966002Y-105213879D01*
X76019658Y-105167386D01*
X76072000Y-105156000D01*
X77518344Y-105156000D01*
X77531875Y-105152027D01*
X77533180Y-105142947D01*
X77491214Y-104975875D01*
X77487894Y-104966124D01*
X77402972Y-104770814D01*
X77398105Y-104761739D01*
X77282426Y-104582926D01*
X77276136Y-104574757D01*
X77132806Y-104417240D01*
X77125273Y-104410215D01*
X76958139Y-104278222D01*
X76949556Y-104272520D01*
X76912602Y-104252120D01*
X76862631Y-104201687D01*
X76850179Y-104143152D01*
X78205613Y-104143152D01*
X78252287Y-104215299D01*
X78255004Y-104219694D01*
X78286761Y-104273499D01*
X78289295Y-104278001D01*
X78299053Y-104296199D01*
X78301402Y-104300804D01*
X78328654Y-104357052D01*
X78330812Y-104361748D01*
X78419855Y-104566534D01*
X78421817Y-104571313D01*
X78444364Y-104629592D01*
X78446130Y-104634450D01*
X78452784Y-104653996D01*
X78454348Y-104658920D01*
X78472043Y-104718848D01*
X78473405Y-104723833D01*
X78519909Y-104908970D01*
X78520661Y-104912136D01*
X78529255Y-104950519D01*
X78529924Y-104953700D01*
X78532438Y-104966464D01*
X78534771Y-104987558D01*
X78541379Y-105243258D01*
X78540138Y-105264445D01*
X78530034Y-105334719D01*
X78527940Y-105345764D01*
X78510526Y-105419455D01*
X78521547Y-105449547D01*
X78527727Y-105473462D01*
X78535687Y-105524500D01*
X79121000Y-105524500D01*
X79121000Y-103998500D01*
X80135000Y-103998500D01*
X80135000Y-105524500D01*
X81661000Y-105524500D01*
X81661000Y-103998500D01*
X80135000Y-103998500D01*
X79121000Y-103998500D01*
X78288784Y-103998500D01*
X78277491Y-104021350D01*
X78275108Y-104025934D01*
X78245156Y-104080757D01*
X78242587Y-104085238D01*
X78231953Y-104102937D01*
X78229200Y-104107312D01*
X78205613Y-104143152D01*
X76850179Y-104143152D01*
X76847859Y-104132245D01*
X76872975Y-104065839D01*
X76900327Y-104039232D01*
X76935100Y-104014429D01*
X77079860Y-103911173D01*
X77238096Y-103753489D01*
X77297594Y-103670689D01*
X77365435Y-103576277D01*
X77368453Y-103572077D01*
X77380579Y-103547543D01*
X77465136Y-103376453D01*
X77465137Y-103376451D01*
X77467430Y-103371811D01*
X77514287Y-103217586D01*
X77530865Y-103163023D01*
X77530865Y-103163021D01*
X77532370Y-103158069D01*
X77561529Y-102936590D01*
X77563156Y-102870000D01*
X77544852Y-102647361D01*
X77490431Y-102430702D01*
X77401354Y-102225840D01*
X77319157Y-102098783D01*
X77282822Y-102042617D01*
X77282820Y-102042614D01*
X77280014Y-102038277D01*
X77129670Y-101873051D01*
X77125619Y-101869852D01*
X77125615Y-101869848D01*
X76958414Y-101737800D01*
X76958410Y-101737798D01*
X76954359Y-101734598D01*
X76913053Y-101711796D01*
X76863084Y-101661364D01*
X76850604Y-101602696D01*
X78205913Y-101602696D01*
X78252728Y-101675061D01*
X78255446Y-101679457D01*
X78287211Y-101733276D01*
X78289746Y-101737779D01*
X78299503Y-101755976D01*
X78301850Y-101760579D01*
X78329094Y-101816811D01*
X78331251Y-101821506D01*
X78420328Y-102026368D01*
X78422291Y-102031147D01*
X78444831Y-102089407D01*
X78446596Y-102094262D01*
X78453251Y-102113809D01*
X78454816Y-102118736D01*
X78472519Y-102178689D01*
X78473881Y-102183675D01*
X78528302Y-102400334D01*
X78529458Y-102405373D01*
X78542187Y-102466574D01*
X78543136Y-102471655D01*
X78546508Y-102492027D01*
X78547246Y-102497139D01*
X78554913Y-102559137D01*
X78555442Y-102564277D01*
X78573746Y-102786916D01*
X78573977Y-102790263D01*
X78576223Y-102830761D01*
X78576364Y-102834110D01*
X78576750Y-102847512D01*
X78576802Y-102850863D01*
X78576891Y-102891413D01*
X78576853Y-102894768D01*
X78575226Y-102961358D01*
X78575100Y-102964707D01*
X78574089Y-102984500D01*
X79121000Y-102984500D01*
X79121000Y-101458500D01*
X82675000Y-101458500D01*
X82675000Y-102908042D01*
X82688102Y-102880572D01*
X82692054Y-102872963D01*
X82708843Y-102843166D01*
X82713305Y-102835842D01*
X82770223Y-102749191D01*
X82775169Y-102742192D01*
X82776590Y-102740320D01*
X82777830Y-102738320D01*
X82782592Y-102731194D01*
X82843090Y-102647003D01*
X82848329Y-102640213D01*
X82870130Y-102613861D01*
X82875816Y-102607445D01*
X82947159Y-102532266D01*
X82953270Y-102526251D01*
X82985985Y-102496168D01*
X84023653Y-101458500D01*
X82675000Y-101458500D01*
X79121000Y-101458500D01*
X78288784Y-101458500D01*
X78277491Y-101481350D01*
X78275108Y-101485934D01*
X78245156Y-101540757D01*
X78242587Y-101545238D01*
X78231953Y-101562937D01*
X78229200Y-101567312D01*
X78205913Y-101602696D01*
X76850604Y-101602696D01*
X76848312Y-101591921D01*
X76873428Y-101525516D01*
X76900780Y-101498909D01*
X76957431Y-101458500D01*
X77079860Y-101371173D01*
X77238096Y-101213489D01*
X77268257Y-101171516D01*
X77365435Y-101036277D01*
X77368453Y-101032077D01*
X77380579Y-101007543D01*
X77465136Y-100836453D01*
X77465137Y-100836451D01*
X77467430Y-100831811D01*
X77509311Y-100693966D01*
X77530865Y-100623023D01*
X77530865Y-100623021D01*
X77532370Y-100618069D01*
X77561529Y-100396590D01*
X77562205Y-100368938D01*
X77563074Y-100333365D01*
X77563074Y-100333361D01*
X77563156Y-100330000D01*
X77544852Y-100107361D01*
X77490431Y-99890702D01*
X77401354Y-99685840D01*
X77319157Y-99558783D01*
X77282822Y-99502617D01*
X77282820Y-99502614D01*
X77280014Y-99498277D01*
X77129670Y-99333051D01*
X77125619Y-99329852D01*
X77125615Y-99329848D01*
X76958414Y-99197800D01*
X76958410Y-99197798D01*
X76954359Y-99194598D01*
X76913053Y-99171796D01*
X76863084Y-99121364D01*
X76850604Y-99062696D01*
X78205913Y-99062696D01*
X78252728Y-99135061D01*
X78255446Y-99139457D01*
X78287211Y-99193276D01*
X78289746Y-99197779D01*
X78299503Y-99215976D01*
X78301850Y-99220579D01*
X78329094Y-99276811D01*
X78331251Y-99281506D01*
X78420328Y-99486368D01*
X78422291Y-99491147D01*
X78444831Y-99549407D01*
X78446596Y-99554262D01*
X78453251Y-99573809D01*
X78454816Y-99578736D01*
X78472519Y-99638689D01*
X78473881Y-99643675D01*
X78528302Y-99860334D01*
X78529458Y-99865373D01*
X78542187Y-99926574D01*
X78543136Y-99931655D01*
X78546508Y-99952027D01*
X78547246Y-99957139D01*
X78554913Y-100019137D01*
X78555442Y-100024277D01*
X78573746Y-100246916D01*
X78573977Y-100250263D01*
X78576223Y-100290761D01*
X78576364Y-100294110D01*
X78576750Y-100307512D01*
X78576802Y-100310863D01*
X78576891Y-100351413D01*
X78576853Y-100354768D01*
X78575226Y-100421358D01*
X78575100Y-100424707D01*
X78574089Y-100444500D01*
X79121000Y-100444500D01*
X79121000Y-98918500D01*
X80135000Y-98918500D01*
X80135000Y-100444500D01*
X81661000Y-100444500D01*
X81661000Y-98918500D01*
X82675000Y-98918500D01*
X82675000Y-100444500D01*
X84201000Y-100444500D01*
X84201000Y-100348201D01*
X84147352Y-100328089D01*
X84139080Y-100324647D01*
X84040623Y-100279517D01*
X84032615Y-100275497D01*
X84001280Y-100258341D01*
X83993580Y-100253762D01*
X83902531Y-100195140D01*
X83895176Y-100190025D01*
X83778620Y-100102671D01*
X83771646Y-100097046D01*
X83689820Y-100026103D01*
X83683264Y-100019997D01*
X83658003Y-99994736D01*
X83651897Y-99988180D01*
X83580954Y-99906354D01*
X83575329Y-99899380D01*
X83487975Y-99782824D01*
X83482860Y-99775469D01*
X83424238Y-99684420D01*
X83419659Y-99676720D01*
X83402503Y-99645385D01*
X83398483Y-99637377D01*
X83353353Y-99538920D01*
X83349911Y-99530648D01*
X83298781Y-99394259D01*
X83296245Y-99386790D01*
X83268422Y-99295574D01*
X83266357Y-99287959D01*
X83259076Y-99257337D01*
X83257493Y-99249609D01*
X83241283Y-99155636D01*
X83240186Y-99147826D01*
X83233431Y-99085644D01*
X83233109Y-99082252D01*
X83229767Y-99041167D01*
X83229536Y-99037765D01*
X83228799Y-99024157D01*
X83228661Y-99020751D01*
X83227546Y-98979542D01*
X83227500Y-98976134D01*
X83227500Y-98918500D01*
X82675000Y-98918500D01*
X81661000Y-98918500D01*
X80135000Y-98918500D01*
X79121000Y-98918500D01*
X78288784Y-98918500D01*
X78277491Y-98941350D01*
X78275108Y-98945934D01*
X78245156Y-99000757D01*
X78242587Y-99005238D01*
X78231953Y-99022937D01*
X78229200Y-99027312D01*
X78205913Y-99062696D01*
X76850604Y-99062696D01*
X76848312Y-99051921D01*
X76873428Y-98985516D01*
X76900780Y-98958909D01*
X76969917Y-98909594D01*
X77079860Y-98831173D01*
X77086831Y-98824227D01*
X77168703Y-98742640D01*
X77238096Y-98673489D01*
X77277707Y-98618365D01*
X77365435Y-98496277D01*
X77368453Y-98492077D01*
X77379393Y-98469943D01*
X77465136Y-98296453D01*
X77465137Y-98296451D01*
X77467430Y-98291811D01*
X77516798Y-98129321D01*
X77530865Y-98083023D01*
X77530865Y-98083021D01*
X77532370Y-98078069D01*
X77561529Y-97856590D01*
X77561611Y-97853240D01*
X77563074Y-97793365D01*
X77563074Y-97793361D01*
X77563156Y-97790000D01*
X77544852Y-97567361D01*
X77490431Y-97350702D01*
X77401354Y-97145840D01*
X77344731Y-97058314D01*
X77282822Y-96962617D01*
X77282820Y-96962614D01*
X77280014Y-96958277D01*
X77129670Y-96793051D01*
X77125619Y-96789852D01*
X77125615Y-96789848D01*
X76958414Y-96657800D01*
X76958410Y-96657798D01*
X76954359Y-96654598D01*
X76913053Y-96631796D01*
X76863084Y-96581364D01*
X76850604Y-96522696D01*
X78205913Y-96522696D01*
X78252728Y-96595061D01*
X78255446Y-96599457D01*
X78287211Y-96653276D01*
X78289746Y-96657779D01*
X78299503Y-96675976D01*
X78301850Y-96680579D01*
X78329094Y-96736811D01*
X78331251Y-96741506D01*
X78420328Y-96946368D01*
X78422291Y-96951147D01*
X78444831Y-97009407D01*
X78446596Y-97014262D01*
X78453251Y-97033809D01*
X78454816Y-97038736D01*
X78472519Y-97098689D01*
X78473881Y-97103675D01*
X78528302Y-97320334D01*
X78529458Y-97325373D01*
X78542187Y-97386574D01*
X78543136Y-97391655D01*
X78546508Y-97412027D01*
X78547246Y-97417139D01*
X78554913Y-97479137D01*
X78555442Y-97484277D01*
X78573746Y-97706916D01*
X78573977Y-97710263D01*
X78576223Y-97750761D01*
X78576364Y-97754110D01*
X78576750Y-97767512D01*
X78576802Y-97770863D01*
X78576891Y-97811413D01*
X78576853Y-97814768D01*
X78575226Y-97881358D01*
X78575100Y-97884707D01*
X78574089Y-97904500D01*
X79121000Y-97904500D01*
X79121000Y-97399491D01*
X80135000Y-97399491D01*
X80135000Y-97904500D01*
X81661000Y-97904500D01*
X81661000Y-96378500D01*
X82675000Y-96378500D01*
X82675000Y-97904500D01*
X83227500Y-97904500D01*
X83227500Y-96378500D01*
X82675000Y-96378500D01*
X81661000Y-96378500D01*
X81619869Y-96378500D01*
X81599515Y-96424215D01*
X81596475Y-96430561D01*
X81583635Y-96455544D01*
X81580245Y-96461709D01*
X81537201Y-96535075D01*
X81533473Y-96541041D01*
X81439303Y-96682778D01*
X81435248Y-96688527D01*
X81384296Y-96756637D01*
X81379926Y-96762151D01*
X81361870Y-96783670D01*
X81357197Y-96788933D01*
X81298952Y-96850958D01*
X81293994Y-96855951D01*
X81170763Y-96973302D01*
X81165534Y-96978010D01*
X81100753Y-97033143D01*
X81095270Y-97037551D01*
X81072896Y-97054534D01*
X81067175Y-97058630D01*
X80996645Y-97106204D01*
X80990704Y-97109975D01*
X80844536Y-97197109D01*
X80838392Y-97200542D01*
X80762988Y-97239961D01*
X80756663Y-97243046D01*
X80731081Y-97254650D01*
X80724596Y-97257376D01*
X80645294Y-97288135D01*
X80638666Y-97290495D01*
X80476827Y-97343080D01*
X80470077Y-97345067D01*
X80387821Y-97366800D01*
X80380970Y-97368407D01*
X80353454Y-97374055D01*
X80346525Y-97375276D01*
X80262372Y-97387702D01*
X80255386Y-97388535D01*
X80135000Y-97399491D01*
X79121000Y-97399491D01*
X79121000Y-97167011D01*
X79116611Y-97164477D01*
X79110617Y-97160789D01*
X78968226Y-97067611D01*
X78962448Y-97063595D01*
X78893982Y-97013117D01*
X78888439Y-97008787D01*
X78866795Y-96990882D01*
X78861501Y-96986247D01*
X78799073Y-96928440D01*
X78794044Y-96923516D01*
X78675835Y-96801107D01*
X78671089Y-96795910D01*
X78615496Y-96731503D01*
X78611050Y-96726050D01*
X78593911Y-96703794D01*
X78589775Y-96698102D01*
X78541718Y-96627916D01*
X78537907Y-96622002D01*
X78449755Y-96476446D01*
X78446279Y-96470328D01*
X78406338Y-96395209D01*
X78403210Y-96388906D01*
X78398402Y-96378500D01*
X78288784Y-96378500D01*
X78277491Y-96401350D01*
X78275108Y-96405934D01*
X78245156Y-96460757D01*
X78242587Y-96465238D01*
X78231953Y-96482937D01*
X78229200Y-96487312D01*
X78205913Y-96522696D01*
X76850604Y-96522696D01*
X76848312Y-96511921D01*
X76873428Y-96445516D01*
X76900780Y-96418909D01*
X76967068Y-96371626D01*
X77079860Y-96291173D01*
X77102613Y-96268500D01*
X77234435Y-96137137D01*
X77238096Y-96133489D01*
X77297594Y-96050689D01*
X77365435Y-95956277D01*
X77368453Y-95952077D01*
X77380107Y-95928498D01*
X77465136Y-95756453D01*
X77465137Y-95756451D01*
X77467430Y-95751811D01*
X77507373Y-95620343D01*
X79246775Y-95620343D01*
X79263381Y-95789699D01*
X79317094Y-95951167D01*
X79320741Y-95957189D01*
X79320742Y-95957191D01*
X79392946Y-96076413D01*
X79405246Y-96096723D01*
X79523455Y-96219132D01*
X79545080Y-96233283D01*
X79638127Y-96294171D01*
X79665846Y-96312310D01*
X79672450Y-96314766D01*
X79672452Y-96314767D01*
X79708844Y-96328301D01*
X79825341Y-96371626D01*
X79994015Y-96394132D01*
X80001026Y-96393494D01*
X80001030Y-96393494D01*
X80156462Y-96379348D01*
X80163483Y-96378709D01*
X80170185Y-96376531D01*
X80170187Y-96376531D01*
X80318623Y-96328301D01*
X80318626Y-96328300D01*
X80325322Y-96326124D01*
X80471490Y-96238990D01*
X80476584Y-96234139D01*
X80476588Y-96234136D01*
X80546369Y-96167684D01*
X80594721Y-96121639D01*
X80688891Y-95979902D01*
X80749319Y-95820825D01*
X80773001Y-95652313D01*
X80773241Y-95635177D01*
X80773244Y-95634961D01*
X80773244Y-95634955D01*
X80773299Y-95631000D01*
X80754331Y-95461892D01*
X80748368Y-95444767D01*
X80709665Y-95333630D01*
X80698368Y-95301189D01*
X80692383Y-95291610D01*
X80661663Y-95242449D01*
X80608192Y-95156879D01*
X80594160Y-95142748D01*
X80518113Y-95066168D01*
X80488286Y-95036132D01*
X80474466Y-95027361D01*
X80430889Y-94999707D01*
X80344608Y-94944951D01*
X80184300Y-94887868D01*
X80015329Y-94867720D01*
X80008326Y-94868456D01*
X80008325Y-94868456D01*
X79853101Y-94884770D01*
X79853097Y-94884771D01*
X79846093Y-94885507D01*
X79839422Y-94887778D01*
X79691673Y-94938075D01*
X79691670Y-94938076D01*
X79685003Y-94940346D01*
X79679005Y-94944036D01*
X79679003Y-94944037D01*
X79546065Y-95025821D01*
X79546063Y-95025823D01*
X79540066Y-95029512D01*
X79418486Y-95148573D01*
X79414675Y-95154487D01*
X79414673Y-95154489D01*
X79330121Y-95285687D01*
X79326304Y-95291610D01*
X79268103Y-95451516D01*
X79246775Y-95620343D01*
X77507373Y-95620343D01*
X77509498Y-95613349D01*
X77530865Y-95543023D01*
X77530865Y-95543021D01*
X77532370Y-95538069D01*
X77561529Y-95316590D01*
X77562051Y-95295213D01*
X77563074Y-95253365D01*
X77563074Y-95253361D01*
X77563156Y-95250000D01*
X77544852Y-95027361D01*
X77490431Y-94810702D01*
X77401354Y-94605840D01*
X77325852Y-94489132D01*
X77282822Y-94422617D01*
X77282820Y-94422614D01*
X77280014Y-94418277D01*
X77129670Y-94253051D01*
X77125619Y-94249852D01*
X77125615Y-94249848D01*
X76958414Y-94117800D01*
X76958410Y-94117798D01*
X76954359Y-94114598D01*
X76913053Y-94091796D01*
X76863084Y-94041364D01*
X76848312Y-93971921D01*
X76873428Y-93905516D01*
X76900780Y-93878909D01*
X76957431Y-93838500D01*
X80135000Y-93838500D01*
X80135000Y-93860817D01*
X80135386Y-93860852D01*
X80304357Y-93881000D01*
X80311319Y-93882028D01*
X80395110Y-93896803D01*
X80402004Y-93898218D01*
X80429353Y-93904633D01*
X80436154Y-93906431D01*
X80517756Y-93930448D01*
X80524448Y-93932622D01*
X80684756Y-93989705D01*
X80691316Y-93992249D01*
X80769746Y-94025218D01*
X80776155Y-94028125D01*
X80801402Y-94040439D01*
X80807637Y-94043699D01*
X80881894Y-94085200D01*
X80887937Y-94088803D01*
X81031615Y-94179984D01*
X81037448Y-94183918D01*
X81106609Y-94233432D01*
X81112212Y-94237685D01*
X81134104Y-94255286D01*
X81139464Y-94259848D01*
X81202697Y-94316783D01*
X81207793Y-94321635D01*
X81327699Y-94442382D01*
X81332516Y-94447512D01*
X81388996Y-94511128D01*
X81393519Y-94516518D01*
X81410967Y-94538532D01*
X81415181Y-94544165D01*
X81464216Y-94613676D01*
X81468110Y-94619537D01*
X81558286Y-94763847D01*
X81561847Y-94769917D01*
X81602839Y-94844482D01*
X81606056Y-94850741D01*
X81618193Y-94876074D01*
X81621054Y-94882501D01*
X81653466Y-94961140D01*
X81655964Y-94967717D01*
X81661000Y-94982178D01*
X81661000Y-93838500D01*
X82675000Y-93838500D01*
X82675000Y-95364500D01*
X83227500Y-95364500D01*
X83227500Y-95079866D01*
X83227546Y-95076458D01*
X83228333Y-95047360D01*
X83205004Y-94977231D01*
X83202970Y-94970496D01*
X83180668Y-94888413D01*
X83179014Y-94881575D01*
X83173173Y-94854098D01*
X83171902Y-94847176D01*
X83158884Y-94763090D01*
X83158002Y-94756108D01*
X83140302Y-94575588D01*
X83139811Y-94568567D01*
X83136249Y-94483548D01*
X83136151Y-94476511D01*
X83136544Y-94448424D01*
X83136839Y-94441396D01*
X83142773Y-94356551D01*
X83143460Y-94349550D01*
X83166194Y-94169595D01*
X83167270Y-94162642D01*
X83182625Y-94078977D01*
X83184088Y-94072095D01*
X83190693Y-94044792D01*
X83192538Y-94038001D01*
X83217129Y-93956551D01*
X83219350Y-93949874D01*
X83259887Y-93838500D01*
X82675000Y-93838500D01*
X81661000Y-93838500D01*
X80135000Y-93838500D01*
X76957431Y-93838500D01*
X77079860Y-93751173D01*
X77087695Y-93743366D01*
X77234435Y-93597137D01*
X77238096Y-93593489D01*
X77264394Y-93556892D01*
X77365435Y-93416277D01*
X77368453Y-93412077D01*
X77376306Y-93396189D01*
X77465136Y-93216453D01*
X77465137Y-93216451D01*
X77467430Y-93211811D01*
X77532370Y-92998069D01*
X77561529Y-92776590D01*
X77563156Y-92710000D01*
X77544852Y-92487361D01*
X77490431Y-92270702D01*
X77401354Y-92065840D01*
X77330200Y-91955852D01*
X77282822Y-91882617D01*
X77282820Y-91882614D01*
X77280014Y-91878277D01*
X77129670Y-91713051D01*
X77125619Y-91709852D01*
X77125615Y-91709848D01*
X76958414Y-91577800D01*
X76958410Y-91577798D01*
X76954359Y-91574598D01*
X76913053Y-91551796D01*
X76863084Y-91501364D01*
X76850604Y-91442696D01*
X78205913Y-91442696D01*
X78252728Y-91515061D01*
X78255446Y-91519457D01*
X78287211Y-91573276D01*
X78289746Y-91577779D01*
X78299503Y-91595976D01*
X78301850Y-91600579D01*
X78329094Y-91656811D01*
X78331251Y-91661506D01*
X78420328Y-91866368D01*
X78422291Y-91871147D01*
X78444831Y-91929407D01*
X78446596Y-91934262D01*
X78453251Y-91953809D01*
X78454816Y-91958736D01*
X78472519Y-92018689D01*
X78473881Y-92023675D01*
X78528302Y-92240334D01*
X78529458Y-92245373D01*
X78542187Y-92306574D01*
X78543136Y-92311655D01*
X78546508Y-92332027D01*
X78547246Y-92337139D01*
X78554913Y-92399137D01*
X78555442Y-92404277D01*
X78573746Y-92626916D01*
X78573977Y-92630263D01*
X78576223Y-92670761D01*
X78576364Y-92674110D01*
X78576750Y-92687512D01*
X78576802Y-92690863D01*
X78576891Y-92731413D01*
X78576853Y-92734768D01*
X78575226Y-92801358D01*
X78575100Y-92804707D01*
X78574089Y-92824500D01*
X79121000Y-92824500D01*
X79121000Y-91298500D01*
X80135000Y-91298500D01*
X80135000Y-92824500D01*
X81661000Y-92824500D01*
X81661000Y-91298500D01*
X82675000Y-91298500D01*
X82675000Y-92824500D01*
X84102500Y-92824500D01*
X84102500Y-91298500D01*
X82675000Y-91298500D01*
X81661000Y-91298500D01*
X80135000Y-91298500D01*
X79121000Y-91298500D01*
X78288784Y-91298500D01*
X78277491Y-91321350D01*
X78275108Y-91325934D01*
X78245156Y-91380757D01*
X78242587Y-91385238D01*
X78231953Y-91402937D01*
X78229200Y-91407312D01*
X78205913Y-91442696D01*
X76850604Y-91442696D01*
X76848312Y-91431921D01*
X76873428Y-91365516D01*
X76900780Y-91338909D01*
X76957431Y-91298500D01*
X77079860Y-91211173D01*
X77238096Y-91053489D01*
X77297594Y-90970689D01*
X77365435Y-90876277D01*
X77368453Y-90872077D01*
X77380579Y-90847543D01*
X77465136Y-90676453D01*
X77465137Y-90676451D01*
X77467430Y-90671811D01*
X77532370Y-90458069D01*
X77561529Y-90236590D01*
X77563156Y-90170000D01*
X77544852Y-89947361D01*
X77490431Y-89730702D01*
X77401354Y-89525840D01*
X77319157Y-89398783D01*
X77282822Y-89342617D01*
X77282820Y-89342614D01*
X77280014Y-89338277D01*
X77129670Y-89173051D01*
X77125619Y-89169852D01*
X77125615Y-89169848D01*
X76958414Y-89037800D01*
X76958410Y-89037798D01*
X76954359Y-89034598D01*
X76913053Y-89011796D01*
X76863084Y-88961364D01*
X76850604Y-88902696D01*
X78205913Y-88902696D01*
X78252728Y-88975061D01*
X78255446Y-88979457D01*
X78287211Y-89033276D01*
X78289746Y-89037779D01*
X78299503Y-89055976D01*
X78301850Y-89060579D01*
X78329094Y-89116811D01*
X78331251Y-89121506D01*
X78420328Y-89326368D01*
X78422291Y-89331147D01*
X78444831Y-89389407D01*
X78446596Y-89394262D01*
X78453251Y-89413809D01*
X78454816Y-89418736D01*
X78472519Y-89478689D01*
X78473881Y-89483675D01*
X78528302Y-89700334D01*
X78529458Y-89705373D01*
X78542187Y-89766574D01*
X78543136Y-89771655D01*
X78546508Y-89792027D01*
X78547246Y-89797139D01*
X78554913Y-89859137D01*
X78555442Y-89864277D01*
X78573746Y-90086916D01*
X78573977Y-90090263D01*
X78576223Y-90130761D01*
X78576364Y-90134110D01*
X78576750Y-90147512D01*
X78576802Y-90150863D01*
X78576891Y-90191413D01*
X78576853Y-90194768D01*
X78575226Y-90261358D01*
X78575100Y-90264707D01*
X78574089Y-90284500D01*
X79121000Y-90284500D01*
X79121000Y-88758500D01*
X80135000Y-88758500D01*
X80135000Y-90284500D01*
X81661000Y-90284500D01*
X81661000Y-88758500D01*
X82675000Y-88758500D01*
X82675000Y-90284500D01*
X84102500Y-90284500D01*
X84102500Y-88758500D01*
X82675000Y-88758500D01*
X81661000Y-88758500D01*
X80135000Y-88758500D01*
X79121000Y-88758500D01*
X78288784Y-88758500D01*
X78277491Y-88781350D01*
X78275108Y-88785934D01*
X78245156Y-88840757D01*
X78242587Y-88845238D01*
X78231953Y-88862937D01*
X78229200Y-88867312D01*
X78205913Y-88902696D01*
X76850604Y-88902696D01*
X76848312Y-88891921D01*
X76873428Y-88825516D01*
X76900780Y-88798909D01*
X76957431Y-88758500D01*
X77079860Y-88671173D01*
X77238096Y-88513489D01*
X77368453Y-88332077D01*
X77394661Y-88279050D01*
X77465136Y-88136453D01*
X77465137Y-88136451D01*
X77467430Y-88131811D01*
X77532370Y-87918069D01*
X77561529Y-87696590D01*
X77563156Y-87630000D01*
X77544852Y-87407361D01*
X77490431Y-87190702D01*
X77401354Y-86985840D01*
X77322828Y-86864457D01*
X77282822Y-86802617D01*
X77282820Y-86802614D01*
X77280014Y-86798277D01*
X77129670Y-86633051D01*
X77125619Y-86629852D01*
X77125615Y-86629848D01*
X76958414Y-86497800D01*
X76958410Y-86497798D01*
X76954359Y-86494598D01*
X76913053Y-86471796D01*
X76863084Y-86421364D01*
X76850604Y-86362696D01*
X78205913Y-86362696D01*
X78252728Y-86435061D01*
X78255446Y-86439457D01*
X78287211Y-86493276D01*
X78289746Y-86497779D01*
X78299503Y-86515976D01*
X78301850Y-86520579D01*
X78329094Y-86576811D01*
X78331251Y-86581506D01*
X78420328Y-86786368D01*
X78422291Y-86791147D01*
X78444831Y-86849407D01*
X78446596Y-86854262D01*
X78453251Y-86873809D01*
X78454816Y-86878736D01*
X78472519Y-86938689D01*
X78473881Y-86943675D01*
X78528302Y-87160334D01*
X78529458Y-87165373D01*
X78542187Y-87226574D01*
X78543136Y-87231655D01*
X78546508Y-87252027D01*
X78547246Y-87257139D01*
X78554913Y-87319137D01*
X78555442Y-87324277D01*
X78573746Y-87546916D01*
X78573977Y-87550263D01*
X78576223Y-87590761D01*
X78576364Y-87594110D01*
X78576750Y-87607512D01*
X78576802Y-87610863D01*
X78576891Y-87651413D01*
X78576853Y-87654768D01*
X78575226Y-87721358D01*
X78575100Y-87724707D01*
X78574089Y-87744500D01*
X79121000Y-87744500D01*
X79121000Y-86218500D01*
X80135000Y-86218500D01*
X80135000Y-87744500D01*
X81661000Y-87744500D01*
X81661000Y-86218500D01*
X82675000Y-86218500D01*
X82675000Y-87744500D01*
X84102500Y-87744500D01*
X84102500Y-86218500D01*
X82675000Y-86218500D01*
X81661000Y-86218500D01*
X80135000Y-86218500D01*
X79121000Y-86218500D01*
X78288784Y-86218500D01*
X78277491Y-86241350D01*
X78275108Y-86245934D01*
X78245156Y-86300757D01*
X78242587Y-86305238D01*
X78231953Y-86322937D01*
X78229200Y-86327312D01*
X78205913Y-86362696D01*
X76850604Y-86362696D01*
X76848312Y-86351921D01*
X76873428Y-86285516D01*
X76900780Y-86258909D01*
X76957431Y-86218500D01*
X77079860Y-86131173D01*
X77238096Y-85973489D01*
X77297594Y-85890689D01*
X77365435Y-85796277D01*
X77368453Y-85792077D01*
X77373644Y-85781575D01*
X77465136Y-85596453D01*
X77465137Y-85596451D01*
X77467430Y-85591811D01*
X77532370Y-85378069D01*
X77561529Y-85156590D01*
X77563156Y-85090000D01*
X77544852Y-84867361D01*
X77490431Y-84650702D01*
X77401354Y-84445840D01*
X77319157Y-84318783D01*
X77282822Y-84262617D01*
X77282820Y-84262614D01*
X77280014Y-84258277D01*
X77129670Y-84093051D01*
X77125619Y-84089852D01*
X77125615Y-84089848D01*
X76958414Y-83957800D01*
X76958410Y-83957798D01*
X76954359Y-83954598D01*
X76913053Y-83931796D01*
X76863084Y-83881364D01*
X76850604Y-83822696D01*
X78205913Y-83822696D01*
X78252728Y-83895061D01*
X78255446Y-83899457D01*
X78287211Y-83953276D01*
X78289746Y-83957779D01*
X78299503Y-83975976D01*
X78301850Y-83980579D01*
X78329094Y-84036811D01*
X78331251Y-84041506D01*
X78420328Y-84246368D01*
X78422291Y-84251147D01*
X78444831Y-84309407D01*
X78446596Y-84314262D01*
X78453251Y-84333809D01*
X78454816Y-84338736D01*
X78472519Y-84398689D01*
X78473881Y-84403675D01*
X78528302Y-84620334D01*
X78529458Y-84625373D01*
X78542187Y-84686574D01*
X78543136Y-84691655D01*
X78546508Y-84712027D01*
X78547246Y-84717139D01*
X78554913Y-84779137D01*
X78555442Y-84784277D01*
X78573746Y-85006916D01*
X78573977Y-85010263D01*
X78576223Y-85050761D01*
X78576364Y-85054110D01*
X78576750Y-85067512D01*
X78576802Y-85070863D01*
X78576891Y-85111413D01*
X78576853Y-85114768D01*
X78575226Y-85181358D01*
X78575100Y-85184707D01*
X78574089Y-85204500D01*
X79121000Y-85204500D01*
X79121000Y-83678500D01*
X80135000Y-83678500D01*
X80135000Y-85204500D01*
X81661000Y-85204500D01*
X81661000Y-83678500D01*
X82675000Y-83678500D01*
X82675000Y-85204500D01*
X84102500Y-85204500D01*
X84102500Y-83678500D01*
X82675000Y-83678500D01*
X81661000Y-83678500D01*
X80135000Y-83678500D01*
X79121000Y-83678500D01*
X78288784Y-83678500D01*
X78277491Y-83701350D01*
X78275108Y-83705934D01*
X78245156Y-83760757D01*
X78242587Y-83765238D01*
X78231953Y-83782937D01*
X78229200Y-83787312D01*
X78205913Y-83822696D01*
X76850604Y-83822696D01*
X76848312Y-83811921D01*
X76873428Y-83745516D01*
X76900780Y-83718909D01*
X76957431Y-83678500D01*
X77079860Y-83591173D01*
X77238096Y-83433489D01*
X77297594Y-83350689D01*
X77365435Y-83256277D01*
X77368453Y-83252077D01*
X77380579Y-83227543D01*
X77465136Y-83056453D01*
X77465137Y-83056451D01*
X77467430Y-83051811D01*
X77532370Y-82838069D01*
X77561529Y-82616590D01*
X77563156Y-82550000D01*
X77544852Y-82327361D01*
X77490431Y-82110702D01*
X77401354Y-81905840D01*
X77319157Y-81778783D01*
X77282822Y-81722617D01*
X77282820Y-81722614D01*
X77280014Y-81718277D01*
X77129670Y-81553051D01*
X77125619Y-81549852D01*
X77125615Y-81549848D01*
X76958414Y-81417800D01*
X76958410Y-81417798D01*
X76954359Y-81414598D01*
X76913053Y-81391796D01*
X76863084Y-81341364D01*
X76850604Y-81282696D01*
X78205913Y-81282696D01*
X78252728Y-81355061D01*
X78255446Y-81359457D01*
X78287211Y-81413276D01*
X78289746Y-81417779D01*
X78299503Y-81435976D01*
X78301850Y-81440579D01*
X78329094Y-81496811D01*
X78331251Y-81501506D01*
X78420328Y-81706368D01*
X78422291Y-81711147D01*
X78444831Y-81769407D01*
X78446596Y-81774262D01*
X78453251Y-81793809D01*
X78454816Y-81798736D01*
X78472519Y-81858689D01*
X78473881Y-81863675D01*
X78528302Y-82080334D01*
X78529458Y-82085373D01*
X78542187Y-82146574D01*
X78543136Y-82151655D01*
X78546508Y-82172027D01*
X78547246Y-82177139D01*
X78554913Y-82239137D01*
X78555442Y-82244277D01*
X78573746Y-82466916D01*
X78573977Y-82470263D01*
X78576223Y-82510761D01*
X78576364Y-82514110D01*
X78576750Y-82527512D01*
X78576802Y-82530863D01*
X78576891Y-82571413D01*
X78576853Y-82574768D01*
X78575226Y-82641358D01*
X78575100Y-82644707D01*
X78574089Y-82664500D01*
X79121000Y-82664500D01*
X79121000Y-81138500D01*
X80135000Y-81138500D01*
X80135000Y-82664500D01*
X81661000Y-82664500D01*
X81661000Y-81138500D01*
X82675000Y-81138500D01*
X82675000Y-82664500D01*
X84102500Y-82664500D01*
X84102500Y-81138500D01*
X82675000Y-81138500D01*
X81661000Y-81138500D01*
X80135000Y-81138500D01*
X79121000Y-81138500D01*
X78288784Y-81138500D01*
X78277491Y-81161350D01*
X78275108Y-81165934D01*
X78245156Y-81220757D01*
X78242587Y-81225238D01*
X78231953Y-81242937D01*
X78229200Y-81247312D01*
X78205913Y-81282696D01*
X76850604Y-81282696D01*
X76848312Y-81271921D01*
X76873428Y-81205516D01*
X76900780Y-81178909D01*
X76957431Y-81138500D01*
X77079860Y-81051173D01*
X77238096Y-80893489D01*
X77297594Y-80810689D01*
X77365435Y-80716277D01*
X77368453Y-80712077D01*
X77380579Y-80687543D01*
X77465136Y-80516453D01*
X77465137Y-80516451D01*
X77467430Y-80511811D01*
X77532370Y-80298069D01*
X77561529Y-80076590D01*
X77563156Y-80010000D01*
X77544852Y-79787361D01*
X77490431Y-79570702D01*
X77401354Y-79365840D01*
X77319157Y-79238783D01*
X77282822Y-79182617D01*
X77282820Y-79182614D01*
X77280014Y-79178277D01*
X77129670Y-79013051D01*
X77125619Y-79009852D01*
X77125615Y-79009848D01*
X76958414Y-78877800D01*
X76958410Y-78877798D01*
X76954359Y-78874598D01*
X76913053Y-78851796D01*
X76863084Y-78801364D01*
X76850604Y-78742696D01*
X78205913Y-78742696D01*
X78252728Y-78815061D01*
X78255446Y-78819457D01*
X78287211Y-78873276D01*
X78289746Y-78877779D01*
X78299503Y-78895976D01*
X78301850Y-78900579D01*
X78329094Y-78956811D01*
X78331251Y-78961506D01*
X78420328Y-79166368D01*
X78422291Y-79171147D01*
X78444831Y-79229407D01*
X78446596Y-79234262D01*
X78453251Y-79253809D01*
X78454816Y-79258736D01*
X78472519Y-79318689D01*
X78473881Y-79323675D01*
X78528302Y-79540334D01*
X78529458Y-79545373D01*
X78542187Y-79606574D01*
X78543136Y-79611655D01*
X78546508Y-79632027D01*
X78547246Y-79637139D01*
X78554913Y-79699137D01*
X78555442Y-79704277D01*
X78573746Y-79926916D01*
X78573977Y-79930263D01*
X78576223Y-79970761D01*
X78576364Y-79974110D01*
X78576750Y-79987512D01*
X78576802Y-79990863D01*
X78576891Y-80031413D01*
X78576853Y-80034768D01*
X78575226Y-80101358D01*
X78575100Y-80104707D01*
X78574089Y-80124500D01*
X79121000Y-80124500D01*
X79121000Y-78598500D01*
X80135000Y-78598500D01*
X80135000Y-80124500D01*
X81661000Y-80124500D01*
X81661000Y-78598500D01*
X80135000Y-78598500D01*
X79121000Y-78598500D01*
X78288784Y-78598500D01*
X78277491Y-78621350D01*
X78275108Y-78625934D01*
X78245156Y-78680757D01*
X78242587Y-78685238D01*
X78231953Y-78702937D01*
X78229200Y-78707312D01*
X78205913Y-78742696D01*
X76850604Y-78742696D01*
X76848312Y-78731921D01*
X76873428Y-78665516D01*
X76900780Y-78638909D01*
X76957431Y-78598500D01*
X77079860Y-78511173D01*
X77238096Y-78353489D01*
X77297594Y-78270689D01*
X77365435Y-78176277D01*
X77368453Y-78172077D01*
X77380579Y-78147543D01*
X77465136Y-77976453D01*
X77465137Y-77976451D01*
X77467430Y-77971811D01*
X77532370Y-77758069D01*
X77561529Y-77536590D01*
X77563156Y-77470000D01*
X77544852Y-77247361D01*
X77490431Y-77030702D01*
X77401354Y-76825840D01*
X77319157Y-76698783D01*
X77282822Y-76642617D01*
X77282820Y-76642614D01*
X77280014Y-76638277D01*
X77129670Y-76473051D01*
X77125619Y-76469852D01*
X77125615Y-76469848D01*
X76958414Y-76337800D01*
X76958410Y-76337798D01*
X76954359Y-76334598D01*
X76913053Y-76311796D01*
X76863084Y-76261364D01*
X76850604Y-76202696D01*
X78205913Y-76202696D01*
X78252728Y-76275061D01*
X78255446Y-76279457D01*
X78287211Y-76333276D01*
X78289746Y-76337779D01*
X78299503Y-76355976D01*
X78301850Y-76360579D01*
X78329094Y-76416811D01*
X78331251Y-76421506D01*
X78420328Y-76626368D01*
X78422291Y-76631147D01*
X78444831Y-76689407D01*
X78446596Y-76694262D01*
X78453251Y-76713809D01*
X78454816Y-76718736D01*
X78472519Y-76778689D01*
X78473881Y-76783675D01*
X78528302Y-77000334D01*
X78529458Y-77005373D01*
X78542187Y-77066574D01*
X78543136Y-77071655D01*
X78546508Y-77092027D01*
X78547246Y-77097139D01*
X78554913Y-77159137D01*
X78555442Y-77164277D01*
X78573746Y-77386916D01*
X78573977Y-77390263D01*
X78576223Y-77430761D01*
X78576364Y-77434110D01*
X78576750Y-77447512D01*
X78576802Y-77450863D01*
X78576891Y-77491413D01*
X78576853Y-77494768D01*
X78575226Y-77561358D01*
X78575100Y-77564707D01*
X78574089Y-77584500D01*
X79121000Y-77584500D01*
X79121000Y-76058500D01*
X78288784Y-76058500D01*
X78277491Y-76081350D01*
X78275108Y-76085934D01*
X78245156Y-76140757D01*
X78242587Y-76145238D01*
X78231953Y-76162937D01*
X78229200Y-76167312D01*
X78205913Y-76202696D01*
X76850604Y-76202696D01*
X76848312Y-76191921D01*
X76873428Y-76125516D01*
X76900780Y-76098909D01*
X76957431Y-76058500D01*
X77079860Y-75971173D01*
X77238096Y-75813489D01*
X77297594Y-75730689D01*
X77365435Y-75636277D01*
X77368453Y-75632077D01*
X77380579Y-75607543D01*
X77465136Y-75436453D01*
X77465137Y-75436451D01*
X77467430Y-75431811D01*
X77532370Y-75218069D01*
X77561529Y-74996590D01*
X77563156Y-74930000D01*
X77544852Y-74707361D01*
X77490431Y-74490702D01*
X77401354Y-74285840D01*
X77280014Y-74098277D01*
X77276532Y-74094450D01*
X77132798Y-73936488D01*
X77101746Y-73872642D01*
X77110141Y-73802143D01*
X77155317Y-73747375D01*
X77181761Y-73733706D01*
X77288297Y-73693767D01*
X77296705Y-73690615D01*
X77413261Y-73603261D01*
X77500615Y-73486705D01*
X77551745Y-73350316D01*
X77554662Y-73351409D01*
X77582714Y-73302326D01*
X77645675Y-73269517D01*
X77716379Y-73275955D01*
G37*
%TD.AperFunction*%
%TA.AperFunction,Conductor*%
G36*
X84968012Y-110502370D02*
G01*
X84974595Y-110508499D01*
X84980779Y-110514683D01*
X84993619Y-110529716D01*
X85005528Y-110546107D01*
X85018200Y-110556590D01*
X85039605Y-110574298D01*
X85048384Y-110582288D01*
X87654095Y-113187999D01*
X87688121Y-113250311D01*
X87691000Y-113277094D01*
X87691000Y-114053885D01*
X87695475Y-114069124D01*
X87696865Y-114070329D01*
X87704548Y-114072000D01*
X88441782Y-114072000D01*
X88444507Y-114071200D01*
X88515503Y-114071201D01*
X88569098Y-114103002D01*
X89285343Y-114819247D01*
X89292887Y-114827537D01*
X89297000Y-114834018D01*
X89302777Y-114839443D01*
X89346667Y-114880658D01*
X89349509Y-114883413D01*
X89369230Y-114903134D01*
X89372425Y-114905612D01*
X89381447Y-114913318D01*
X89413679Y-114943586D01*
X89420628Y-114947406D01*
X89431432Y-114953346D01*
X89447956Y-114964199D01*
X89463959Y-114976613D01*
X89504543Y-114994176D01*
X89515173Y-114999383D01*
X89553940Y-115020695D01*
X89561617Y-115022666D01*
X89561622Y-115022668D01*
X89573558Y-115025732D01*
X89592266Y-115032137D01*
X89610855Y-115040181D01*
X89618683Y-115041421D01*
X89618690Y-115041423D01*
X89654524Y-115047099D01*
X89666144Y-115049505D01*
X89697959Y-115057673D01*
X89708970Y-115060500D01*
X89729224Y-115060500D01*
X89748934Y-115062051D01*
X89768943Y-115065220D01*
X89776835Y-115064474D01*
X89795580Y-115062702D01*
X89812962Y-115061059D01*
X89824819Y-115060500D01*
X90547252Y-115060500D01*
X90558435Y-115061027D01*
X90565928Y-115062702D01*
X90573854Y-115062453D01*
X90573855Y-115062453D01*
X90634005Y-115060562D01*
X90637964Y-115060500D01*
X90665875Y-115060500D01*
X90669810Y-115060003D01*
X90669875Y-115059995D01*
X90681712Y-115059062D01*
X90713970Y-115058048D01*
X90717989Y-115057922D01*
X90725908Y-115057673D01*
X90745362Y-115052021D01*
X90764719Y-115048013D01*
X90776949Y-115046468D01*
X90776950Y-115046468D01*
X90784816Y-115045474D01*
X90792187Y-115042555D01*
X90792189Y-115042555D01*
X90825931Y-115029196D01*
X90837161Y-115025351D01*
X90872002Y-115015229D01*
X90872003Y-115015229D01*
X90879612Y-115013018D01*
X90889601Y-115007111D01*
X90892409Y-115006398D01*
X90893712Y-115005834D01*
X90893803Y-115006044D01*
X90958414Y-114989648D01*
X91025747Y-115012161D01*
X91051387Y-115035925D01*
X91146572Y-115152634D01*
X91155216Y-115161338D01*
X91301813Y-115282613D01*
X91309091Y-115287522D01*
X91354380Y-115342198D01*
X91362920Y-115412679D01*
X91331999Y-115476588D01*
X91271435Y-115513635D01*
X91238632Y-115517980D01*
X88085287Y-115517980D01*
X88017166Y-115497978D01*
X87970673Y-115444322D01*
X87960569Y-115374048D01*
X87990063Y-115309468D01*
X88006335Y-115293784D01*
X88158443Y-115171485D01*
X88167213Y-115162897D01*
X88289499Y-115017162D01*
X88296437Y-115007031D01*
X88388094Y-114840308D01*
X88392924Y-114829038D01*
X88450452Y-114647684D01*
X88453001Y-114635692D01*
X88457229Y-114598002D01*
X88454676Y-114583472D01*
X88442132Y-114580000D01*
X86432217Y-114580000D01*
X86417790Y-114584236D01*
X86415729Y-114596589D01*
X86418170Y-114621481D01*
X86420553Y-114633519D01*
X86475542Y-114815651D01*
X86480217Y-114826993D01*
X86569535Y-114994977D01*
X86576322Y-115005193D01*
X86696572Y-115152634D01*
X86705216Y-115161338D01*
X86851813Y-115282613D01*
X86859091Y-115287522D01*
X86904380Y-115342198D01*
X86912920Y-115412679D01*
X86881999Y-115476588D01*
X86821435Y-115513635D01*
X86788632Y-115517980D01*
X83976401Y-115517980D01*
X83908280Y-115497978D01*
X83861787Y-115444322D01*
X83851683Y-115374048D01*
X83881177Y-115309468D01*
X83937465Y-115272147D01*
X84001623Y-115251301D01*
X84001626Y-115251300D01*
X84008322Y-115249124D01*
X84154490Y-115161990D01*
X84159584Y-115157139D01*
X84159588Y-115157136D01*
X84242930Y-115077770D01*
X84277721Y-115044639D01*
X84282775Y-115037033D01*
X84338376Y-114953346D01*
X84371891Y-114902902D01*
X84432319Y-114743825D01*
X84456001Y-114575313D01*
X84456299Y-114554000D01*
X84437331Y-114384892D01*
X84435014Y-114378238D01*
X84400322Y-114278616D01*
X84396808Y-114207706D01*
X84432190Y-114146154D01*
X84480376Y-114117346D01*
X84496317Y-114112167D01*
X84509278Y-114107956D01*
X84509281Y-114107955D01*
X84515977Y-114105779D01*
X84602840Y-114053998D01*
X86416771Y-114053998D01*
X86419324Y-114068528D01*
X86431868Y-114072000D01*
X87164885Y-114072000D01*
X87180124Y-114067525D01*
X87181329Y-114066135D01*
X87183000Y-114058452D01*
X87183000Y-113242014D01*
X87179027Y-113228483D01*
X87171232Y-113227363D01*
X87054068Y-113261846D01*
X87042700Y-113266439D01*
X86874089Y-113354586D01*
X86863827Y-113361302D01*
X86715557Y-113480515D01*
X86706787Y-113489103D01*
X86584501Y-113634838D01*
X86577563Y-113644969D01*
X86485906Y-113811692D01*
X86481076Y-113822962D01*
X86423548Y-114004316D01*
X86420999Y-114016308D01*
X86416771Y-114053998D01*
X84602840Y-114053998D01*
X84662145Y-114018645D01*
X84667239Y-114013794D01*
X84667243Y-114013791D01*
X84776977Y-113909292D01*
X84785376Y-113901294D01*
X84798337Y-113881787D01*
X84837420Y-113822962D01*
X84879546Y-113759557D01*
X84939974Y-113600480D01*
X84963656Y-113431968D01*
X84963954Y-113410655D01*
X84944986Y-113241547D01*
X84941757Y-113232273D01*
X84904298Y-113124707D01*
X84889023Y-113080844D01*
X84875520Y-113059234D01*
X84844485Y-113009569D01*
X84798847Y-112936534D01*
X84793882Y-112931534D01*
X84789507Y-112926014D01*
X84791181Y-112924687D01*
X84762288Y-112871338D01*
X84759500Y-112844978D01*
X84759500Y-110597594D01*
X84779502Y-110529473D01*
X84833158Y-110482980D01*
X84903432Y-110472876D01*
X84968012Y-110502370D01*
G37*
%TD.AperFunction*%
%TA.AperFunction,Conductor*%
G36*
X95036947Y-107826148D02*
G01*
X95089103Y-107874317D01*
X95107000Y-107939046D01*
X95107000Y-111525338D01*
X95106889Y-111530614D01*
X95104251Y-111593554D01*
X95114351Y-111636614D01*
X95116513Y-111648283D01*
X95122516Y-111692104D01*
X95125928Y-111699987D01*
X95125928Y-111699989D01*
X95128639Y-111706254D01*
X95135674Y-111727526D01*
X95137231Y-111734167D01*
X95137232Y-111734171D01*
X95139193Y-111742530D01*
X95150579Y-111763241D01*
X95160503Y-111781293D01*
X95165725Y-111791953D01*
X95178453Y-111821364D01*
X95183288Y-111832538D01*
X95188691Y-111839211D01*
X95188694Y-111839215D01*
X95192989Y-111844519D01*
X95205481Y-111863109D01*
X95209727Y-111870832D01*
X95212911Y-111876623D01*
X95217223Y-111881618D01*
X95217226Y-111881622D01*
X95218509Y-111883108D01*
X95220022Y-111884860D01*
X95244971Y-111909809D01*
X95253796Y-111919609D01*
X95279586Y-111951457D01*
X95286588Y-111956433D01*
X95286589Y-111956434D01*
X95295270Y-111962603D01*
X95311376Y-111976214D01*
X96744925Y-113409763D01*
X96778951Y-113472075D01*
X96781229Y-113486562D01*
X96789381Y-113569699D01*
X96791605Y-113576384D01*
X96791605Y-113576385D01*
X96805972Y-113619574D01*
X96843094Y-113731167D01*
X96846741Y-113737189D01*
X96846742Y-113737191D01*
X96906795Y-113836349D01*
X96931246Y-113876723D01*
X97049455Y-113999132D01*
X97120650Y-114045721D01*
X97165209Y-114074879D01*
X97191846Y-114092310D01*
X97198450Y-114094766D01*
X97198452Y-114094767D01*
X97259165Y-114117346D01*
X97351341Y-114151626D01*
X97520015Y-114174132D01*
X97527026Y-114173494D01*
X97527030Y-114173494D01*
X97527080Y-114173489D01*
X97527112Y-114173495D01*
X97534073Y-114173641D01*
X97534047Y-114174864D01*
X97596733Y-114187234D01*
X97647898Y-114236455D01*
X97664500Y-114298970D01*
X97664500Y-114910467D01*
X97644498Y-114978588D01*
X97627595Y-114999562D01*
X97510666Y-115116491D01*
X97448354Y-115150517D01*
X97377539Y-115145452D01*
X97367927Y-115141327D01*
X97362608Y-115137951D01*
X97202300Y-115080868D01*
X97033329Y-115060720D01*
X97026326Y-115061456D01*
X97026325Y-115061456D01*
X96871101Y-115077770D01*
X96871097Y-115077771D01*
X96864093Y-115078507D01*
X96857422Y-115080778D01*
X96709673Y-115131075D01*
X96709670Y-115131076D01*
X96703003Y-115133346D01*
X96697005Y-115137036D01*
X96697003Y-115137037D01*
X96564065Y-115218821D01*
X96564063Y-115218823D01*
X96558066Y-115222512D01*
X96507381Y-115272147D01*
X96458815Y-115319707D01*
X96436486Y-115341573D01*
X96432675Y-115347487D01*
X96432673Y-115347489D01*
X96360012Y-115460236D01*
X96306297Y-115506660D01*
X96254101Y-115517980D01*
X92535287Y-115517980D01*
X92467166Y-115497978D01*
X92420673Y-115444322D01*
X92410569Y-115374048D01*
X92440063Y-115309468D01*
X92456335Y-115293784D01*
X92608443Y-115171485D01*
X92617213Y-115162897D01*
X92739499Y-115017162D01*
X92746437Y-115007031D01*
X92838094Y-114840308D01*
X92842924Y-114829038D01*
X92900452Y-114647684D01*
X92903001Y-114635692D01*
X92907229Y-114598002D01*
X92904676Y-114583472D01*
X92892132Y-114580000D01*
X91759000Y-114580000D01*
X91690879Y-114559998D01*
X91644386Y-114506342D01*
X91633000Y-114454000D01*
X91633000Y-114368113D01*
X91653002Y-114299992D01*
X91669905Y-114279018D01*
X91840018Y-114108905D01*
X91902330Y-114074879D01*
X91929113Y-114072000D01*
X92891783Y-114072000D01*
X92906210Y-114067764D01*
X92908271Y-114055411D01*
X92905830Y-114030519D01*
X92903447Y-114018481D01*
X92848458Y-113836349D01*
X92843783Y-113825007D01*
X92771526Y-113689111D01*
X92757206Y-113619574D01*
X92777829Y-113560231D01*
X92794742Y-113534775D01*
X92794745Y-113534768D01*
X92798643Y-113528902D01*
X92801145Y-113522316D01*
X92860555Y-113365920D01*
X92860556Y-113365918D01*
X92863055Y-113359338D01*
X92879544Y-113242014D01*
X92887748Y-113183639D01*
X92887748Y-113183636D01*
X92888299Y-113179717D01*
X92888452Y-113168738D01*
X92888561Y-113160962D01*
X92888561Y-113160957D01*
X92888616Y-113157000D01*
X92868397Y-112976745D01*
X92863999Y-112964116D01*
X92811064Y-112812106D01*
X92811062Y-112812103D01*
X92808745Y-112805448D01*
X92789877Y-112775253D01*
X92716359Y-112657598D01*
X92712626Y-112651624D01*
X92615081Y-112553396D01*
X93794695Y-112553396D01*
X93825994Y-112643274D01*
X93828122Y-112649979D01*
X93851567Y-112731738D01*
X93853316Y-112738552D01*
X93859540Y-112765944D01*
X93860907Y-112772848D01*
X93875098Y-112856746D01*
X93876078Y-112863715D01*
X93896297Y-113043970D01*
X93896676Y-113047909D01*
X93900515Y-113095620D01*
X93900771Y-113099570D01*
X93901544Y-113115373D01*
X93901675Y-113119328D01*
X93902115Y-113144500D01*
X94361000Y-113144500D01*
X94361000Y-112424581D01*
X94349663Y-112406297D01*
X94330490Y-112379016D01*
X94325801Y-112371836D01*
X94308085Y-112342583D01*
X94303895Y-112335101D01*
X94256358Y-112242999D01*
X94252688Y-112235253D01*
X94251755Y-112233096D01*
X94250616Y-112231025D01*
X94246743Y-112223374D01*
X94203096Y-112129341D01*
X94199752Y-112121444D01*
X94187496Y-112089514D01*
X94184697Y-112081409D01*
X94170401Y-112034938D01*
X94154173Y-111989111D01*
X94151587Y-111980933D01*
X94142390Y-111947991D01*
X94140367Y-111939659D01*
X94119350Y-111838166D01*
X94117898Y-111829721D01*
X94117579Y-111827394D01*
X94117041Y-111825099D01*
X94115369Y-111816692D01*
X94100306Y-111724700D01*
X94100086Y-111730709D01*
X94099980Y-111733015D01*
X94098445Y-111760931D01*
X94098297Y-111763241D01*
X94097500Y-111774094D01*
X94096844Y-111780659D01*
X94086846Y-111859795D01*
X94085848Y-111866315D01*
X94081183Y-111892241D01*
X94079845Y-111898703D01*
X94071166Y-111935701D01*
X94065436Y-111968539D01*
X94063675Y-111976934D01*
X94055517Y-112010148D01*
X94053190Y-112018400D01*
X94021677Y-112117146D01*
X94018792Y-112125226D01*
X94017921Y-112127426D01*
X94017269Y-112129670D01*
X94014597Y-112137822D01*
X93978977Y-112235158D01*
X93975758Y-112243105D01*
X93961847Y-112274350D01*
X93958094Y-112282062D01*
X93935353Y-112325011D01*
X93914414Y-112368912D01*
X93910461Y-112376521D01*
X93893671Y-112406319D01*
X93889210Y-112413642D01*
X93832296Y-112500286D01*
X93827350Y-112507285D01*
X93825929Y-112509157D01*
X93824689Y-112511157D01*
X93819927Y-112518283D01*
X93794695Y-112553396D01*
X92615081Y-112553396D01*
X92587639Y-112525762D01*
X92553832Y-112463332D01*
X92559144Y-112392534D01*
X92587950Y-112347883D01*
X92912700Y-112023133D01*
X92916509Y-112019480D01*
X92926657Y-112010148D01*
X92962897Y-111976824D01*
X92986201Y-111939237D01*
X92992926Y-111929454D01*
X93014474Y-111901065D01*
X93014475Y-111901063D01*
X93019667Y-111894223D01*
X93024068Y-111883108D01*
X93025343Y-111879889D01*
X93035410Y-111859873D01*
X93039003Y-111854078D01*
X93039005Y-111854073D01*
X93043531Y-111846774D01*
X93055869Y-111804307D01*
X93059714Y-111793077D01*
X93072835Y-111759938D01*
X93072837Y-111759931D01*
X93075997Y-111751949D01*
X93077608Y-111736619D01*
X93081921Y-111714635D01*
X93086222Y-111699830D01*
X93086705Y-111693253D01*
X93086850Y-111691284D01*
X93086850Y-111691273D01*
X93087019Y-111688977D01*
X93087019Y-111653689D01*
X93087709Y-111640518D01*
X93091094Y-111608312D01*
X93091992Y-111599768D01*
X93088782Y-111580790D01*
X93087019Y-111559788D01*
X93087019Y-108114000D01*
X93107021Y-108045879D01*
X93160677Y-107999386D01*
X93213019Y-107988000D01*
X94507338Y-107988000D01*
X94512614Y-107988111D01*
X94528744Y-107988787D01*
X94575554Y-107990749D01*
X94618622Y-107980648D01*
X94630283Y-107978487D01*
X94655270Y-107975064D01*
X94665593Y-107973650D01*
X94665594Y-107973650D01*
X94674104Y-107972484D01*
X94681987Y-107969072D01*
X94681989Y-107969072D01*
X94688254Y-107966361D01*
X94709526Y-107959326D01*
X94716167Y-107957769D01*
X94716171Y-107957768D01*
X94724530Y-107955807D01*
X94763293Y-107934497D01*
X94773953Y-107929275D01*
X94806656Y-107915123D01*
X94806657Y-107915123D01*
X94814538Y-107911712D01*
X94821211Y-107906309D01*
X94821215Y-107906306D01*
X94826519Y-107902011D01*
X94845109Y-107889519D01*
X94852832Y-107885273D01*
X94852835Y-107885271D01*
X94858623Y-107882089D01*
X94863618Y-107877777D01*
X94863622Y-107877774D01*
X94865108Y-107876491D01*
X94865116Y-107876484D01*
X94866860Y-107874978D01*
X94891809Y-107850029D01*
X94901449Y-107841334D01*
X94901545Y-107841256D01*
X94967028Y-107813823D01*
X95036947Y-107826148D01*
G37*
%TD.AperFunction*%
%TA.AperFunction,Conductor*%
G36*
X94795121Y-105722002D02*
G01*
X94841614Y-105775658D01*
X94853000Y-105828000D01*
X94853000Y-105929839D01*
X94832998Y-105997960D01*
X94779342Y-106044453D01*
X94709068Y-106054557D01*
X94702016Y-106053225D01*
X94696800Y-106051368D01*
X94527829Y-106031220D01*
X94520826Y-106031956D01*
X94520825Y-106031956D01*
X94365601Y-106048270D01*
X94365597Y-106048271D01*
X94358593Y-106049007D01*
X94351922Y-106051278D01*
X94204173Y-106101575D01*
X94204170Y-106101576D01*
X94197503Y-106103846D01*
X94191505Y-106107536D01*
X94191503Y-106107537D01*
X94181814Y-106113498D01*
X94052566Y-106193012D01*
X94046355Y-106199095D01*
X94045409Y-106200021D01*
X94043718Y-106200922D01*
X94041983Y-106202277D01*
X94041745Y-106201972D01*
X93982745Y-106233393D01*
X93957249Y-106236000D01*
X93312028Y-106236000D01*
X93243907Y-106215998D01*
X93222933Y-106199095D01*
X93101657Y-106077819D01*
X93098004Y-106074010D01*
X93061166Y-106033949D01*
X93059424Y-106032054D01*
X93055348Y-106027622D01*
X93056258Y-106026785D01*
X93021268Y-105974988D01*
X93019643Y-105904010D01*
X93056649Y-105843421D01*
X93076802Y-105828502D01*
X93199944Y-105755094D01*
X93205990Y-105751490D01*
X93221464Y-105736755D01*
X93284588Y-105704262D01*
X93308356Y-105702000D01*
X94727000Y-105702000D01*
X94795121Y-105722002D01*
G37*
%TD.AperFunction*%
%TD*%
M02*
