%TF.GenerationSoftware,KiCad,Pcbnew,(5.99.0-11435-g252647e93c)*%
%TF.CreationDate,2021-07-20T11:27:29+10:00*%
%TF.ProjectId,ESP32 Clone devkit,45535033-3220-4436-9c6f-6e6520646576,1*%
%TF.SameCoordinates,Original*%
%TF.FileFunction,Copper,L1,Top*%
%TF.FilePolarity,Positive*%
%FSLAX46Y46*%
G04 Gerber Fmt 4.6, Leading zero omitted, Abs format (unit mm)*
G04 Created by KiCad (PCBNEW (5.99.0-11435-g252647e93c)) date 2021-07-20 11:27:29*
%MOMM*%
%LPD*%
G01*
G04 APERTURE LIST*
G04 Aperture macros list*
%AMRoundRect*
0 Rectangle with rounded corners*
0 $1 Rounding radius*
0 $2 $3 $4 $5 $6 $7 $8 $9 X,Y pos of 4 corners*
0 Add a 4 corners polygon primitive as box body*
4,1,4,$2,$3,$4,$5,$6,$7,$8,$9,$2,$3,0*
0 Add four circle primitives for the rounded corners*
1,1,$1+$1,$2,$3*
1,1,$1+$1,$4,$5*
1,1,$1+$1,$6,$7*
1,1,$1+$1,$8,$9*
0 Add four rect primitives between the rounded corners*
20,1,$1+$1,$2,$3,$4,$5,0*
20,1,$1+$1,$4,$5,$6,$7,0*
20,1,$1+$1,$6,$7,$8,$9,0*
20,1,$1+$1,$8,$9,$2,$3,0*%
G04 Aperture macros list end*
%TA.AperFunction,SMDPad,CuDef*%
%ADD10R,0.875000X1.900000*%
%TD*%
%TA.AperFunction,SMDPad,CuDef*%
%ADD11R,2.900000X1.900000*%
%TD*%
%TA.AperFunction,SMDPad,CuDef*%
%ADD12R,0.400000X1.350000*%
%TD*%
%TA.AperFunction,ComponentPad*%
%ADD13O,1.000000X1.900000*%
%TD*%
%TA.AperFunction,ComponentPad*%
%ADD14O,1.050000X1.250000*%
%TD*%
%TA.AperFunction,SMDPad,CuDef*%
%ADD15R,5.000000X5.000000*%
%TD*%
%TA.AperFunction,SMDPad,CuDef*%
%ADD16R,2.000000X0.900000*%
%TD*%
%TA.AperFunction,SMDPad,CuDef*%
%ADD17R,0.900000X2.000000*%
%TD*%
%TA.AperFunction,SMDPad,CuDef*%
%ADD18RoundRect,0.075000X-0.125000X-0.075000X0.125000X-0.075000X0.125000X0.075000X-0.125000X0.075000X0*%
%TD*%
%TA.AperFunction,SMDPad,CuDef*%
%ADD19RoundRect,0.075000X0.125000X0.075000X-0.125000X0.075000X-0.125000X-0.075000X0.125000X-0.075000X0*%
%TD*%
%TA.AperFunction,SMDPad,CuDef*%
%ADD20R,1.550000X1.300000*%
%TD*%
%TA.AperFunction,SMDPad,CuDef*%
%ADD21R,1.300000X0.600000*%
%TD*%
%TA.AperFunction,ComponentPad*%
%ADD22O,1.700000X1.700000*%
%TD*%
%TA.AperFunction,ComponentPad*%
%ADD23R,1.700000X1.700000*%
%TD*%
%TA.AperFunction,SMDPad,CuDef*%
%ADD24R,0.600000X0.700000*%
%TD*%
%TA.AperFunction,SMDPad,CuDef*%
%ADD25R,0.600000X0.450000*%
%TD*%
%TA.AperFunction,SMDPad,CuDef*%
%ADD26RoundRect,0.218750X-0.218750X-0.256250X0.218750X-0.256250X0.218750X0.256250X-0.218750X0.256250X0*%
%TD*%
%TA.AperFunction,SMDPad,CuDef*%
%ADD27RoundRect,0.100000X-0.130000X-0.100000X0.130000X-0.100000X0.130000X0.100000X-0.130000X0.100000X0*%
%TD*%
%TA.AperFunction,ViaPad*%
%ADD28C,0.600000*%
%TD*%
%TA.AperFunction,ViaPad*%
%ADD29C,0.500000*%
%TD*%
%TA.AperFunction,Conductor*%
%ADD30C,0.100000*%
%TD*%
%TA.AperFunction,Conductor*%
%ADD31C,0.250000*%
%TD*%
G04 APERTURE END LIST*
D10*
%TO.P,J1,6,Shield*%
%TO.N,GND*%
X85924500Y-117326000D03*
X93399500Y-117326000D03*
D11*
X89662000Y-117326000D03*
D12*
%TO.P,J1,2,D-*%
%TO.N,/USB_DN*%
X90312000Y-114651000D03*
D13*
%TO.P,J1,6,Shield*%
%TO.N,GND*%
X93837000Y-117326000D03*
X85487000Y-117326000D03*
D14*
X91887000Y-114326000D03*
D12*
%TO.P,J1,1,VBUS*%
%TO.N,/VBUS*%
X90962000Y-114651000D03*
%TO.P,J1,3,D+*%
%TO.N,/USB_DP*%
X89662000Y-114651000D03*
%TO.P,J1,4,ID*%
%TO.N,N/C*%
X89012000Y-114651000D03*
%TO.P,J1,5,GND*%
%TO.N,GND*%
X88362000Y-114651000D03*
D14*
%TO.P,J1,6,Shield*%
X87437000Y-114326000D03*
%TD*%
D15*
%TO.P,MOD1,39,GND*%
%TO.N,GND*%
X88677000Y-77620000D03*
D16*
%TO.P,MOD1,25,IO0*%
%TO.N,/IO0*%
X98177000Y-87630000D03*
%TO.P,MOD1,26,IO4*%
%TO.N,/IO4*%
X98177000Y-86360000D03*
%TO.P,MOD1,27,IO16*%
%TO.N,/IO16*%
X98177000Y-85090000D03*
%TO.P,MOD1,28,IO17*%
%TO.N,/IO17*%
X98177000Y-83820000D03*
%TO.P,MOD1,29,IO5*%
%TO.N,/IO5*%
X98177000Y-82550000D03*
%TO.P,MOD1,30,IO18*%
%TO.N,/IO18*%
X98177000Y-81280000D03*
%TO.P,MOD1,31,IO19*%
%TO.N,/IO19*%
X98177000Y-80010000D03*
%TO.P,MOD1,32,NC*%
%TO.N,N/C*%
X98177000Y-78740000D03*
%TO.P,MOD1,33,IO21*%
%TO.N,/IO21*%
X98177000Y-77470000D03*
%TO.P,MOD1,34,RXD0*%
%TO.N,/RXD0*%
X98177000Y-76200000D03*
%TO.P,MOD1,35,TXD0*%
%TO.N,/TXD0*%
X98177000Y-74930000D03*
%TO.P,MOD1,36,IO22*%
%TO.N,/IO22*%
X98177000Y-73660000D03*
%TO.P,MOD1,37,IO23*%
%TO.N,/IO23*%
X98177000Y-72390000D03*
%TO.P,MOD1,38,GND*%
%TO.N,GND*%
X98177000Y-71120000D03*
%TO.P,MOD1,14,IO12*%
%TO.N,/IO12*%
X81177000Y-87630000D03*
%TO.P,MOD1,13,IO14*%
%TO.N,/IO14*%
X81177000Y-86360000D03*
%TO.P,MOD1,12,IO27*%
%TO.N,/IO27*%
X81177000Y-85090000D03*
%TO.P,MOD1,11,IO26*%
%TO.N,/IO26*%
X81177000Y-83820000D03*
%TO.P,MOD1,10,IO25*%
%TO.N,/IO25*%
X81177000Y-82550000D03*
%TO.P,MOD1,9,IO33*%
%TO.N,/IO33*%
X81177000Y-81280000D03*
%TO.P,MOD1,8,IO32*%
%TO.N,/IO32*%
X81177000Y-80010000D03*
%TO.P,MOD1,7,IO35*%
%TO.N,/IO35*%
X81177000Y-78740000D03*
%TO.P,MOD1,6,IO34*%
%TO.N,/IO34*%
X81177000Y-77470000D03*
%TO.P,MOD1,5,SENSOR_VN*%
%TO.N,/SENSOR_VN*%
X81177000Y-76200000D03*
%TO.P,MOD1,4,SENSOR_VP*%
%TO.N,/SENSOR_VP*%
X81177000Y-74930000D03*
%TO.P,MOD1,3,EN*%
%TO.N,/EN*%
X81177000Y-73660000D03*
%TO.P,MOD1,2,3V3*%
%TO.N,Net-(C21-Pad1)*%
X81177000Y-72390000D03*
D17*
%TO.P,MOD1,24,IO2*%
%TO.N,/IO2*%
X95392000Y-88630000D03*
%TO.P,MOD1,23,IO15*%
%TO.N,/IO15*%
X94122000Y-88630000D03*
%TO.P,MOD1,22,SDI/SD1*%
%TO.N,/SD1*%
X92852000Y-88630000D03*
%TO.P,MOD1,21,SDO/SD0*%
%TO.N,/SD0*%
X91582000Y-88630000D03*
%TO.P,MOD1,20,SCK/CLK*%
%TO.N,/CLK*%
X90312000Y-88630000D03*
%TO.P,MOD1,19,SCS/CMD*%
%TO.N,/CMD*%
X89042000Y-88630000D03*
%TO.P,MOD1,18,SWP/SD3*%
%TO.N,/SD3*%
X87772000Y-88630000D03*
%TO.P,MOD1,17,SHD/SD2*%
%TO.N,/SD2*%
X86502000Y-88630000D03*
%TO.P,MOD1,16,IO13*%
%TO.N,/IO13*%
X85232000Y-88630000D03*
%TO.P,MOD1,15,GND*%
%TO.N,GND*%
X83962000Y-88630000D03*
D16*
%TO.P,MOD1,1,GND*%
X81177000Y-71120000D03*
%TD*%
D18*
%TO.P,C20,1*%
%TO.N,GND*%
X84068640Y-96215200D03*
%TO.P,C20,2*%
%TO.N,/VDD33*%
X84568640Y-96215200D03*
%TD*%
D19*
%TO.P,C15,1*%
%TO.N,GND*%
X80310800Y-103124000D03*
%TO.P,C15,2*%
%TO.N,/IO0*%
X79810800Y-103124000D03*
%TD*%
D20*
%TO.P,SW2,2,2*%
%TO.N,/EN*%
X99191000Y-110962000D03*
X91241000Y-110962000D03*
%TO.P,SW2,1,1*%
%TO.N,GND*%
X99191000Y-106462000D03*
X91241000Y-106462000D03*
%TD*%
%TO.P,SW1,2,2*%
%TO.N,/IO0*%
X88083000Y-110962000D03*
X80133000Y-110962000D03*
%TO.P,SW1,1,1*%
%TO.N,GND*%
X88083000Y-106462000D03*
X80133000Y-106462000D03*
%TD*%
D18*
%TO.P,R26,2*%
%TO.N,GND*%
X93312932Y-103124000D03*
%TO.P,R26,1*%
%TO.N,Net-(R25-Pad1)*%
X92812932Y-103124000D03*
%TD*%
%TO.P,R25,2*%
%TO.N,/VBUS*%
X86811866Y-103124000D03*
%TO.P,R25,1*%
%TO.N,Net-(R25-Pad1)*%
X86311866Y-103124000D03*
%TD*%
%TO.P,R24,2*%
%TO.N,Net-(R24-Pad2)*%
X91763520Y-96215200D03*
%TO.P,R24,1*%
%TO.N,/VDD33*%
X91263520Y-96215200D03*
%TD*%
%TO.P,R23,2*%
%TO.N,GND*%
X94521700Y-98907600D03*
%TO.P,R23,1*%
%TO.N,Net-(R23-Pad1)*%
X94021700Y-98907600D03*
%TD*%
%TO.P,R22,2*%
%TO.N,Net-(Q2-Pad1)*%
X98171000Y-119126000D03*
%TO.P,R22,1*%
%TO.N,/RTS*%
X97671000Y-119126000D03*
%TD*%
D19*
%TO.P,R21,2*%
%TO.N,Net-(Q1-Pad1)*%
X81030000Y-118237000D03*
%TO.P,R21,1*%
%TO.N,/DTR*%
X81530000Y-118237000D03*
%TD*%
%TO.P,R18,2*%
%TO.N,/TXD*%
X98458400Y-96215200D03*
%TO.P,R18,1*%
%TO.N,/RXD0*%
X98958400Y-96215200D03*
%TD*%
D18*
%TO.P,R17,2*%
%TO.N,/RXD*%
X95360960Y-96215200D03*
%TO.P,R17,1*%
%TO.N,/TXD0*%
X94860960Y-96215200D03*
%TD*%
%TO.P,R11,2*%
%TO.N,/EN*%
X98954400Y-98907600D03*
%TO.P,R11,1*%
%TO.N,/VDD33*%
X98454400Y-98907600D03*
%TD*%
%TO.P,R2,2*%
%TO.N,/EXT_5V*%
X90089000Y-98907600D03*
%TO.P,R2,1*%
%TO.N,Net-(D1-Pad2)*%
X89589000Y-98907600D03*
%TD*%
D21*
%TO.P,Q2,1,B*%
%TO.N,Net-(Q2-Pad1)*%
X96994000Y-114670800D03*
%TO.P,Q2,2,E*%
%TO.N,/IO0*%
X96994000Y-116570800D03*
%TO.P,Q2,3,C*%
%TO.N,/DTR*%
X99094000Y-115620800D03*
%TD*%
%TO.P,Q1,1,B*%
%TO.N,Net-(Q1-Pad1)*%
X80191000Y-114467600D03*
%TO.P,Q1,2,E*%
%TO.N,/RTS*%
X80191000Y-116367600D03*
%TO.P,Q1,3,C*%
%TO.N,/EN*%
X82291000Y-115417600D03*
%TD*%
D22*
%TO.P,J3,19,Pin_19*%
%TO.N,/CLK*%
X103124000Y-118110000D03*
%TO.P,J3,18,Pin_18*%
%TO.N,/SD0*%
X103124000Y-115570000D03*
%TO.P,J3,17,Pin_17*%
%TO.N,/SD1*%
X103124000Y-113030000D03*
%TO.P,J3,16,Pin_16*%
%TO.N,/IO15*%
X103124000Y-110490000D03*
%TO.P,J3,15,Pin_15*%
%TO.N,/IO2*%
X103124000Y-107950000D03*
%TO.P,J3,14,Pin_14*%
%TO.N,/IO0*%
X103124000Y-105410000D03*
%TO.P,J3,13,Pin_13*%
%TO.N,/IO4*%
X103124000Y-102870000D03*
%TO.P,J3,12,Pin_12*%
%TO.N,/IO16*%
X103124000Y-100330000D03*
%TO.P,J3,11,Pin_11*%
%TO.N,/IO17*%
X103124000Y-97790000D03*
%TO.P,J3,10,Pin_10*%
%TO.N,/IO5*%
X103124000Y-95250000D03*
%TO.P,J3,9,Pin_9*%
%TO.N,/IO18*%
X103124000Y-92710000D03*
%TO.P,J3,8,Pin_8*%
%TO.N,/IO19*%
X103124000Y-90170000D03*
%TO.P,J3,7,Pin_7*%
%TO.N,GND*%
X103124000Y-87630000D03*
%TO.P,J3,6,Pin_6*%
%TO.N,/IO21*%
X103124000Y-85090000D03*
%TO.P,J3,5,Pin_5*%
%TO.N,/RXD0*%
X103124000Y-82550000D03*
%TO.P,J3,4,Pin_4*%
%TO.N,/TXD0*%
X103124000Y-80010000D03*
%TO.P,J3,3,Pin_3*%
%TO.N,/IO22*%
X103124000Y-77470000D03*
%TO.P,J3,2,Pin_2*%
%TO.N,/IO23*%
X103124000Y-74930000D03*
D23*
%TO.P,J3,1,Pin_1*%
%TO.N,GND*%
X103124000Y-72390000D03*
%TD*%
D22*
%TO.P,J2,19,Pin_19*%
%TO.N,/EXT_5V*%
X76200000Y-118110000D03*
%TO.P,J2,18,Pin_18*%
%TO.N,/CMD*%
X76200000Y-115570000D03*
%TO.P,J2,17,Pin_17*%
%TO.N,/SD3*%
X76200000Y-113030000D03*
%TO.P,J2,16,Pin_16*%
%TO.N,/SD2*%
X76200000Y-110490000D03*
%TO.P,J2,15,Pin_15*%
%TO.N,/IO13*%
X76200000Y-107950000D03*
%TO.P,J2,14,Pin_14*%
%TO.N,GND*%
X76200000Y-105410000D03*
%TO.P,J2,13,Pin_13*%
%TO.N,/IO12*%
X76200000Y-102870000D03*
%TO.P,J2,12,Pin_12*%
%TO.N,/IO14*%
X76200000Y-100330000D03*
%TO.P,J2,11,Pin_11*%
%TO.N,/IO27*%
X76200000Y-97790000D03*
%TO.P,J2,10,Pin_10*%
%TO.N,/IO26*%
X76200000Y-95250000D03*
%TO.P,J2,9,Pin_9*%
%TO.N,/IO25*%
X76200000Y-92710000D03*
%TO.P,J2,8,Pin_8*%
%TO.N,/IO33*%
X76200000Y-90170000D03*
%TO.P,J2,7,Pin_7*%
%TO.N,/IO32*%
X76200000Y-87630000D03*
%TO.P,J2,6,Pin_6*%
%TO.N,/IO35*%
X76200000Y-85090000D03*
%TO.P,J2,5,Pin_5*%
%TO.N,/IO34*%
X76200000Y-82550000D03*
%TO.P,J2,4,Pin_4*%
%TO.N,/SENSOR_VN*%
X76200000Y-80010000D03*
%TO.P,J2,3,Pin_3*%
%TO.N,/SENSOR_VP*%
X76200000Y-77470000D03*
%TO.P,J2,2,Pin_2*%
%TO.N,/EN*%
X76200000Y-74930000D03*
D23*
%TO.P,J2,1,Pin_1*%
%TO.N,/VDD33*%
X76200000Y-72390000D03*
%TD*%
D24*
%TO.P,D6,1,A1*%
%TO.N,GND*%
X80376800Y-92510800D03*
%TO.P,D6,2,A2*%
%TO.N,/VBUS*%
X81776800Y-92510800D03*
%TD*%
%TO.P,D5,1,A1*%
%TO.N,GND*%
X84329900Y-92510800D03*
%TO.P,D5,2,A2*%
%TO.N,/USB_DP*%
X85729900Y-92510800D03*
%TD*%
%TO.P,D4,1,A1*%
%TO.N,GND*%
X92736100Y-92510800D03*
%TO.P,D4,2,A2*%
%TO.N,/USB_DN*%
X94136100Y-92510800D03*
%TD*%
D25*
%TO.P,D3,2,A*%
%TO.N,/VBUS*%
X98789200Y-92760800D03*
%TO.P,D3,1,K*%
%TO.N,/EXT_5V*%
X96689200Y-92760800D03*
%TD*%
D26*
%TO.P,D1,2,A*%
%TO.N,Net-(D1-Pad2)*%
X90040500Y-92580800D03*
%TO.P,D1,1,K*%
%TO.N,GND*%
X88465500Y-92580800D03*
%TD*%
D18*
%TO.P,C22,2*%
%TO.N,GND*%
X80971200Y-96215200D03*
%TO.P,C22,1*%
%TO.N,Net-(C21-Pad1)*%
X80471200Y-96215200D03*
%TD*%
D27*
%TO.P,C21,2*%
%TO.N,GND*%
X81193600Y-98957600D03*
%TO.P,C21,1*%
%TO.N,Net-(C21-Pad1)*%
X80553600Y-98957600D03*
%TD*%
D18*
%TO.P,C19,2*%
%TO.N,/VDD33*%
X85656300Y-98907600D03*
%TO.P,C19,1*%
%TO.N,GND*%
X85156300Y-98907600D03*
%TD*%
%TO.P,C14,2*%
%TO.N,/EN*%
X99814000Y-103124000D03*
%TO.P,C14,1*%
%TO.N,GND*%
X99314000Y-103124000D03*
%TD*%
%TO.P,C9,2*%
%TO.N,GND*%
X88166080Y-96215200D03*
%TO.P,C9,1*%
%TO.N,/EN*%
X87666080Y-96215200D03*
%TD*%
D28*
%TO.N,GND*%
X91601500Y-93078500D03*
X80806500Y-102222500D03*
%TO.N,/VDD33*%
X86267500Y-99682500D03*
%TO.N,/VBUS*%
X87537500Y-102363520D03*
X98205500Y-94983500D03*
D29*
%TO.N,Net-(R25-Pad1)*%
X92582989Y-102476500D03*
X91093500Y-109455500D03*
%TO.N,/USB_DP*%
X87029500Y-93205500D03*
D28*
%TO.N,/EXT_5V*%
X90077500Y-99555500D03*
%TO.N,/VDD33*%
X96046500Y-96693000D03*
D29*
%TO.N,/EN*%
X98713500Y-98031500D03*
X87410500Y-94983500D03*
%TO.N,/IO4*%
X100237500Y-86474500D03*
D28*
%TO.N,GND*%
X93506500Y-106032500D03*
D29*
%TO.N,/USB_DN*%
X92744500Y-105143500D03*
X93980000Y-93726000D03*
%TO.N,/TXD*%
X89535000Y-102616000D03*
X97536000Y-98298000D03*
%TO.N,/TXD0*%
X94869000Y-95603500D03*
%TO.N,/RXD*%
X88900000Y-102616000D03*
%TO.N,Net-(R24-Pad2)*%
X92710000Y-95928498D03*
X90263500Y-109855000D03*
%TO.N,Net-(R23-Pad1)*%
X93472000Y-98425000D03*
X88900000Y-109855000D03*
D28*
%TO.N,/EXT_5V*%
X77597000Y-116967000D03*
D29*
%TO.N,/RXD0*%
X99695000Y-95377000D03*
D28*
%TO.N,/EXT_5V*%
X96647000Y-99314000D03*
%TO.N,/VBUS*%
X85725000Y-103886000D03*
X92075000Y-113157000D03*
%TO.N,/VDD33*%
X84963000Y-94488000D03*
X78232000Y-72644000D03*
D29*
%TO.N,Net-(C21-Pad1)*%
X78994000Y-72644000D03*
X80010000Y-95631000D03*
D28*
%TO.N,/VDD33*%
X91440000Y-108585000D03*
X92837000Y-104267000D03*
D29*
%TO.N,/USB_DP*%
X94522500Y-106794500D03*
X92129019Y-109601000D03*
%TO.N,/DTR*%
X97536000Y-113411000D03*
%TO.N,/USB_DP*%
X89662000Y-113411000D03*
%TO.N,/USB_DN*%
X90551000Y-113284000D03*
%TO.N,/IO0*%
X97028000Y-115824000D03*
%TO.N,/DTR*%
X83693000Y-113792000D03*
%TO.N,/RTS*%
X84200655Y-113410655D03*
%TO.N,/EN*%
X91059000Y-112522000D03*
X83693000Y-114554000D03*
%TD*%
D30*
%TO.N,Net-(D1-Pad2)*%
X89589000Y-98907600D02*
X89589000Y-98757600D01*
X93345000Y-95377000D02*
X92710000Y-94742000D01*
X90932000Y-94742000D02*
X90040500Y-93850500D01*
X89589000Y-98757600D02*
X91318600Y-97028000D01*
X92583000Y-97028000D02*
X93345000Y-96266000D01*
X93345000Y-96266000D02*
X93345000Y-95377000D01*
X92710000Y-94742000D02*
X90932000Y-94742000D01*
X91318600Y-97028000D02*
X92583000Y-97028000D01*
X90040500Y-93850500D02*
X90040500Y-92580800D01*
%TO.N,Net-(R25-Pad1)*%
X92582989Y-102476500D02*
X92236500Y-102476500D01*
X92236500Y-102476500D02*
X91474500Y-103238500D01*
X87918500Y-101841500D02*
X87156500Y-101841500D01*
X88807500Y-103238500D02*
X88426500Y-102857500D01*
X88426500Y-102857500D02*
X88426500Y-102349500D01*
X91474500Y-103238500D02*
X88807500Y-103238500D01*
X88426500Y-102349500D02*
X87918500Y-101841500D01*
X86311866Y-102686134D02*
X86311866Y-103124000D01*
X87156500Y-101841500D02*
X86311866Y-102686134D01*
%TO.N,Net-(C21-Pad1)*%
X80553600Y-98957600D02*
X80553600Y-97411200D01*
X80553600Y-97411200D02*
X80471200Y-97328800D01*
X80471200Y-97328800D02*
X80471200Y-96215200D01*
D31*
%TO.N,GND*%
X80376800Y-92510800D02*
X80376800Y-94583400D01*
X80376800Y-94583400D02*
X80971200Y-95177800D01*
X80971200Y-95177800D02*
X80971200Y-96215200D01*
D30*
%TO.N,Net-(Q2-Pad1)*%
X96994000Y-114670800D02*
X96994000Y-114774000D01*
X98044000Y-115824000D02*
X98044000Y-117094000D01*
X98044000Y-117094000D02*
X98078500Y-117128500D01*
X96994000Y-114774000D02*
X98044000Y-115824000D01*
X98078500Y-119033500D02*
X98171000Y-119126000D01*
X98078500Y-117128500D02*
X98078500Y-119033500D01*
D31*
%TO.N,GND*%
X89662000Y-117326000D02*
X90705000Y-117326000D01*
X90705000Y-117326000D02*
X91887000Y-116144000D01*
X91887000Y-116144000D02*
X91887000Y-114326000D01*
X89662000Y-117326000D02*
X89127000Y-117326000D01*
X89127000Y-117326000D02*
X87437000Y-115636000D01*
X87437000Y-115636000D02*
X87437000Y-114326000D01*
D30*
%TO.N,/DTR*%
X81530000Y-118237000D02*
X82169000Y-118237000D01*
X82169000Y-118237000D02*
X84582000Y-115824000D01*
X83947000Y-113792000D02*
X83693000Y-113792000D01*
X84582000Y-115824000D02*
X84582000Y-114427000D01*
X84582000Y-114427000D02*
X83947000Y-113792000D01*
%TO.N,/RTS*%
X97671000Y-119126000D02*
X97417000Y-119380000D01*
X84781520Y-115906643D02*
X84781520Y-113991520D01*
X84962999Y-119379999D02*
X84382480Y-118799479D01*
X97417000Y-119380000D02*
X84962999Y-119379999D01*
X84382480Y-118799479D02*
X84382480Y-116305685D01*
X84382480Y-116305685D02*
X84781520Y-115906643D01*
X84781520Y-113991520D02*
X84200655Y-113410655D01*
%TO.N,Net-(Q1-Pad1)*%
X80191000Y-114467600D02*
X79588400Y-114467600D01*
X79588400Y-114467600D02*
X78867000Y-115189000D01*
X78867000Y-115189000D02*
X78867000Y-117602000D01*
X78867000Y-117602000D02*
X79502000Y-118237000D01*
X79502000Y-118237000D02*
X81030000Y-118237000D01*
D31*
%TO.N,GND*%
X80133000Y-106462000D02*
X80310800Y-106284200D01*
X80310800Y-106284200D02*
X80310800Y-103124000D01*
X92962439Y-106032500D02*
X92599469Y-105669531D01*
X92599469Y-105669531D02*
X92236500Y-105306561D01*
X91241000Y-106462000D02*
X91807000Y-106462000D01*
X91807000Y-106462000D02*
X92599469Y-105669531D01*
X88362000Y-114651000D02*
X87762000Y-114651000D01*
X87762000Y-114651000D02*
X87437000Y-114326000D01*
X92169200Y-92510800D02*
X91601500Y-93078500D01*
X92736100Y-92510800D02*
X92169200Y-92510800D01*
X80806500Y-102628300D02*
X80310800Y-103124000D01*
X80806500Y-102222500D02*
X80806500Y-102628300D01*
%TO.N,/VDD33*%
X85656300Y-98907600D02*
X85656300Y-99325300D01*
X85656300Y-99325300D02*
X86013500Y-99682500D01*
X86013500Y-99682500D02*
X86267500Y-99682500D01*
%TO.N,/VBUS*%
X87537500Y-102398366D02*
X86811866Y-103124000D01*
X87537500Y-102363520D02*
X87537500Y-102398366D01*
X98205500Y-94602500D02*
X98205500Y-94983500D01*
X98459500Y-94348500D02*
X98205500Y-94602500D01*
X98789200Y-94018800D02*
X98459500Y-94348500D01*
X98789200Y-92760800D02*
X98789200Y-94018800D01*
D30*
%TO.N,Net-(R25-Pad1)*%
X92582989Y-102476500D02*
X92582989Y-102894057D01*
X92582989Y-102894057D02*
X92812932Y-103124000D01*
%TO.N,/USB_DP*%
X86334800Y-92510800D02*
X87029500Y-93205500D01*
X85729900Y-92510800D02*
X86334800Y-92510800D01*
D31*
%TO.N,/EXT_5V*%
X90089000Y-99544000D02*
X90077500Y-99555500D01*
X90089000Y-98907600D02*
X90089000Y-99544000D01*
%TO.N,/VDD33*%
X98099489Y-98772511D02*
X97443500Y-99428500D01*
X96046500Y-99682500D02*
X96046500Y-96693000D01*
X98454400Y-98907600D02*
X98319311Y-98772511D01*
X97033489Y-99838511D02*
X96202511Y-99838511D01*
X96202511Y-99838511D02*
X96046500Y-99682500D01*
X97443500Y-99428500D02*
X97033489Y-99838511D01*
X98319311Y-98772511D02*
X98099489Y-98772511D01*
D30*
%TO.N,/EN*%
X98713500Y-98031500D02*
X98954400Y-98272400D01*
X98954400Y-98272400D02*
X98954400Y-98907600D01*
X87410500Y-95110500D02*
X87410500Y-94983500D01*
X87666080Y-95366080D02*
X87537500Y-95237500D01*
X87666080Y-96215200D02*
X87666080Y-95366080D01*
X87537500Y-95237500D02*
X87410500Y-95110500D01*
%TO.N,/IO4*%
X100110500Y-86347500D02*
X100237500Y-86474500D01*
X99983500Y-86347500D02*
X100110500Y-86347500D01*
X99971000Y-86360000D02*
X99983500Y-86347500D01*
X98177000Y-86360000D02*
X99971000Y-86360000D01*
D31*
%TO.N,GND*%
X92617500Y-103619500D02*
X92998500Y-103619500D01*
X92998500Y-103619500D02*
X93312932Y-103305068D01*
X93506500Y-106032500D02*
X92962439Y-106032500D01*
X92236500Y-104000500D02*
X92617500Y-103619500D01*
X92236500Y-105306561D02*
X92236500Y-104000500D01*
X93312932Y-103305068D02*
X93312932Y-103124000D01*
%TO.N,/VDD33*%
X91440000Y-108585000D02*
X94002000Y-108585000D01*
X94002000Y-108585000D02*
X95919500Y-106667500D01*
X95919500Y-106667500D02*
X95919500Y-104762500D01*
X95919500Y-104762500D02*
X95424000Y-104267000D01*
X95424000Y-104267000D02*
X92837000Y-104267000D01*
D30*
%TO.N,/USB_DN*%
X94136100Y-92510800D02*
X94136100Y-93569900D01*
X94136100Y-93569900D02*
X93980000Y-93726000D01*
%TO.N,/TXD*%
X97536000Y-97536000D02*
X97536000Y-98298000D01*
X97790000Y-97282000D02*
X97536000Y-97536000D01*
X98458400Y-96215200D02*
X98458400Y-96613600D01*
X98458400Y-96613600D02*
X97790000Y-97282000D01*
%TO.N,/TXD0*%
X94860960Y-96215200D02*
X94860960Y-95611540D01*
X94860960Y-95611540D02*
X94869000Y-95603500D01*
%TO.N,/RXD*%
X95360960Y-96282040D02*
X95377000Y-96298080D01*
X88900000Y-101600000D02*
X88900000Y-102616000D01*
X95360960Y-96215200D02*
X95360960Y-96282040D01*
X95377000Y-97409000D02*
X94760511Y-98025489D01*
X94760511Y-98025489D02*
X92474511Y-98025489D01*
X95377000Y-96298080D02*
X95377000Y-97409000D01*
X91059000Y-99441000D02*
X88900000Y-101600000D01*
X92474511Y-98025489D02*
X91059000Y-99441000D01*
%TO.N,Net-(R24-Pad2)*%
X92710000Y-95928498D02*
X92423298Y-96215200D01*
X92423298Y-96215200D02*
X91763520Y-96215200D01*
%TO.N,Net-(R23-Pad1)*%
X94021700Y-98907600D02*
X93954600Y-98907600D01*
X93954600Y-98907600D02*
X93472000Y-98425000D01*
D31*
%TO.N,/EXT_5V*%
X76454000Y-118110000D02*
X77597000Y-116967000D01*
X76200000Y-118110000D02*
X76454000Y-118110000D01*
D30*
%TO.N,/IO0*%
X79810800Y-103124000D02*
X79810800Y-103958200D01*
X79810800Y-103958200D02*
X78613000Y-105156000D01*
X78613000Y-105156000D02*
X78613000Y-109442000D01*
X78613000Y-109442000D02*
X80133000Y-110962000D01*
%TO.N,/EN*%
X99814000Y-103124000D02*
X99814000Y-104132000D01*
X99814000Y-104132000D02*
X100330000Y-104648000D01*
X100330000Y-104648000D02*
X100330000Y-109093000D01*
X100330000Y-109093000D02*
X99191000Y-110232000D01*
X99191000Y-110232000D02*
X99191000Y-110962000D01*
%TO.N,/RXD0*%
X98958400Y-96215200D02*
X98958400Y-96113600D01*
X98958400Y-96113600D02*
X99695000Y-95377000D01*
D31*
%TO.N,/EXT_5V*%
X96689200Y-99271800D02*
X96647000Y-99314000D01*
X96689200Y-92760800D02*
X96689200Y-99271800D01*
%TO.N,/VBUS*%
X85725000Y-103886000D02*
X81534000Y-99695000D01*
X81534000Y-99695000D02*
X80264000Y-99695000D01*
X79375000Y-98806000D02*
X79375000Y-92456000D01*
X80264000Y-99695000D02*
X79375000Y-98806000D01*
X79375000Y-92456000D02*
X80391000Y-91440000D01*
X80391000Y-91440000D02*
X81534000Y-91440000D01*
X81776800Y-91682800D02*
X81776800Y-92510800D01*
X81534000Y-91440000D02*
X81776800Y-91682800D01*
X86811866Y-103274000D02*
X86811866Y-103124000D01*
X90962000Y-113762000D02*
X91440000Y-113284000D01*
X91440000Y-113284000D02*
X91567000Y-113157000D01*
X91567000Y-113157000D02*
X92075000Y-113157000D01*
X90962000Y-114651000D02*
X90962000Y-113762000D01*
X85725000Y-103886000D02*
X86199866Y-103886000D01*
X86199866Y-103886000D02*
X86811866Y-103274000D01*
%TO.N,/VDD33*%
X84568640Y-94882360D02*
X84963000Y-94488000D01*
X84568640Y-96215200D02*
X84568640Y-94882360D01*
X77978000Y-72390000D02*
X78232000Y-72644000D01*
X76200000Y-72390000D02*
X77978000Y-72390000D01*
D30*
%TO.N,Net-(C21-Pad1)*%
X80471200Y-96215200D02*
X80471200Y-96092200D01*
X78994000Y-72644000D02*
X79248000Y-72390000D01*
X80471200Y-96092200D02*
X80010000Y-95631000D01*
X79248000Y-72390000D02*
X81177000Y-72390000D01*
D31*
%TO.N,/VDD33*%
X85656300Y-98907600D02*
X85656300Y-98874700D01*
X85656300Y-98874700D02*
X86614000Y-97917000D01*
X86614000Y-97917000D02*
X87884000Y-97917000D01*
X87884000Y-97917000D02*
X89585800Y-96215200D01*
X89585800Y-96215200D02*
X91263520Y-96215200D01*
%TO.N,GND*%
X92736100Y-92510800D02*
X92736100Y-91847100D01*
X92329000Y-91440000D02*
X89535000Y-91440000D01*
X89535000Y-91440000D02*
X88465500Y-92509500D01*
X92736100Y-91847100D02*
X92329000Y-91440000D01*
X88465500Y-92509500D02*
X88465500Y-92580800D01*
X88465500Y-92580800D02*
X88465500Y-95557500D01*
X88465500Y-95557500D02*
X88166080Y-95856920D01*
X88166080Y-95856920D02*
X88166080Y-96215200D01*
X81416000Y-96215200D02*
X83388200Y-96215200D01*
X84329900Y-92510800D02*
X84329900Y-94613100D01*
X83388200Y-96215200D02*
X84068640Y-96215200D01*
X84329900Y-94613100D02*
X83312000Y-95631000D01*
X83312000Y-96139000D02*
X83388200Y-96215200D01*
X83312000Y-95631000D02*
X83312000Y-96139000D01*
X81193600Y-96437600D02*
X81416000Y-96215200D01*
X81193600Y-98957600D02*
X81193600Y-96437600D01*
X81193600Y-96437600D02*
X80971200Y-96215200D01*
X84068640Y-96215200D02*
X84068640Y-96895640D01*
X84068640Y-96895640D02*
X85156300Y-97983300D01*
X85156300Y-97983300D02*
X85156300Y-98104700D01*
X85156300Y-98907600D02*
X85156300Y-98104700D01*
X85156300Y-98104700D02*
X85979000Y-97282000D01*
X85979000Y-97282000D02*
X87757000Y-97282000D01*
X87757000Y-97282000D02*
X88166080Y-96872920D01*
X88166080Y-96872920D02*
X88166080Y-96215200D01*
X94521700Y-98907600D02*
X94521700Y-101820300D01*
X94521700Y-101820300D02*
X93312932Y-103029068D01*
X93312932Y-103029068D02*
X93312932Y-103124000D01*
D30*
%TO.N,/EN*%
X99814000Y-103124000D02*
X99814000Y-99767200D01*
X99814000Y-99767200D02*
X98954400Y-98907600D01*
D31*
%TO.N,GND*%
X93312932Y-103124000D02*
X99314000Y-103124000D01*
X99191000Y-106462000D02*
X99191000Y-103247000D01*
X99191000Y-103247000D02*
X99314000Y-103124000D01*
D30*
%TO.N,/DTR*%
X99094000Y-115620800D02*
X99094000Y-114969000D01*
X99094000Y-114969000D02*
X97536000Y-113411000D01*
%TO.N,/USB_DP*%
X89662000Y-114651000D02*
X89662000Y-113411000D01*
%TO.N,/USB_DN*%
X90312000Y-114651000D02*
X90312000Y-113523000D01*
X90312000Y-113523000D02*
X90551000Y-113284000D01*
%TO.N,/IO0*%
X96994000Y-116570800D02*
X96994000Y-115858000D01*
X96994000Y-115858000D02*
X97028000Y-115824000D01*
X96994000Y-116570800D02*
X94384320Y-119180480D01*
X94384320Y-119180480D02*
X85045644Y-119180480D01*
X84981040Y-114046000D02*
X85997040Y-113030000D01*
X85045644Y-119180480D02*
X84582000Y-118716836D01*
X84582000Y-118716836D02*
X84582000Y-116388328D01*
X84582000Y-116388328D02*
X84981039Y-115989289D01*
X84981039Y-115989289D02*
X84981040Y-114046000D01*
X85997040Y-113030000D02*
X86741000Y-113030000D01*
X86741000Y-113030000D02*
X88083000Y-111688000D01*
X88083000Y-111688000D02*
X88083000Y-110962000D01*
%TO.N,/RTS*%
X80191000Y-116367600D02*
X80191000Y-116024000D01*
X84074000Y-113284000D02*
X84200655Y-113410655D01*
X80191000Y-116024000D02*
X82931000Y-113284000D01*
X82931000Y-113284000D02*
X84074000Y-113284000D01*
%TO.N,/EN*%
X82291000Y-115417600D02*
X82829400Y-115417600D01*
X82829400Y-115417600D02*
X83693000Y-114554000D01*
X91059000Y-112522000D02*
X91241000Y-112340000D01*
X91241000Y-112340000D02*
X91241000Y-110962000D01*
D31*
%TO.N,GND*%
X89898000Y-107805000D02*
X91241000Y-106462000D01*
X89789000Y-107914000D02*
X89898000Y-107805000D01*
X89898000Y-107805000D02*
X89426000Y-107805000D01*
X89426000Y-107805000D02*
X88083000Y-106462000D01*
X87437000Y-114326000D02*
X87437000Y-114239000D01*
X87437000Y-114239000D02*
X89789000Y-111887000D01*
X89789000Y-111887000D02*
X89789000Y-107914000D01*
D30*
%TO.N,/IO0*%
X88083000Y-110962000D02*
X80133000Y-110962000D01*
%TO.N,/EN*%
X99191000Y-110962000D02*
X91241000Y-110962000D01*
D31*
%TO.N,GND*%
X80133000Y-106462000D02*
X88083000Y-106462000D01*
X91241000Y-106462000D02*
X88083000Y-106462000D01*
X89662000Y-117326000D02*
X85924500Y-117326000D01*
X89662000Y-117326000D02*
X93399500Y-117326000D01*
D30*
%TO.N,/CMD*%
X86525286Y-90442040D02*
X85283451Y-90442040D01*
X77542519Y-111080645D02*
X77343000Y-111280164D01*
X88900000Y-90043000D02*
X86924328Y-90043000D01*
X86924328Y-90043000D02*
X86525286Y-90442040D01*
X89042000Y-88630000D02*
X89042000Y-89901000D01*
X89042000Y-89901000D02*
X88900000Y-90043000D01*
X85283451Y-90442040D02*
X84956930Y-90768560D01*
X84956930Y-90768560D02*
X84791642Y-90768559D01*
X84791642Y-90768559D02*
X79919441Y-90768559D01*
X77869040Y-109463877D02*
X77542520Y-109790397D01*
X79664718Y-91023282D02*
X79664717Y-91502592D01*
X79919441Y-90768559D02*
X79664718Y-91023282D01*
X79664717Y-91502592D02*
X78866640Y-92300669D01*
X78866640Y-92300669D02*
X78866638Y-101332019D01*
X78866638Y-101332019D02*
X78068560Y-102130097D01*
X78068560Y-102130097D02*
X78068558Y-106927935D01*
X78068558Y-106927935D02*
X77869040Y-107127452D01*
X77869040Y-107127452D02*
X77869040Y-109463877D01*
X77542520Y-109790397D02*
X77542519Y-111080645D01*
X77343000Y-111280164D02*
X77343000Y-114427000D01*
X77343000Y-114427000D02*
X76200000Y-115570000D01*
%TO.N,/SD3*%
X87772000Y-88630000D02*
X87772000Y-89109022D01*
X76200000Y-112141000D02*
X76200000Y-113030000D01*
X87101511Y-89779511D02*
X86905653Y-89779511D01*
X77669520Y-107044807D02*
X77669519Y-109302645D01*
X77669519Y-109302645D02*
X77343000Y-109629164D01*
X86905653Y-89779511D02*
X86442643Y-90242520D01*
X77343000Y-109629164D02*
X77343000Y-110998000D01*
X86442643Y-90242520D02*
X85200807Y-90242520D01*
X85200807Y-90242520D02*
X84874287Y-90569040D01*
X84874287Y-90569040D02*
X79610960Y-90569040D01*
X79610960Y-90569040D02*
X79465198Y-90714802D01*
X87772000Y-89109022D02*
X87101511Y-89779511D01*
X79465198Y-90714802D02*
X79465198Y-91419948D01*
X79465198Y-91419948D02*
X78667120Y-92218026D01*
X78667120Y-92218026D02*
X78667119Y-101249373D01*
X78667119Y-101249373D02*
X78550243Y-101366248D01*
X78550243Y-101366248D02*
X77869040Y-102047452D01*
X77869040Y-102047452D02*
X77869038Y-106845290D01*
X77869038Y-106845290D02*
X77669520Y-107044807D01*
X77343000Y-110998000D02*
X76200000Y-112141000D01*
%TO.N,/SD2*%
X86502000Y-88630000D02*
X86502000Y-89901000D01*
X85118164Y-90043000D02*
X84791644Y-90369520D01*
X86502000Y-89901000D02*
X86360000Y-90043000D01*
X86360000Y-90043000D02*
X85118164Y-90043000D01*
X79429480Y-90369520D02*
X79265678Y-90533322D01*
X79265678Y-90533322D02*
X79265678Y-91337305D01*
X84791644Y-90369520D02*
X79429480Y-90369520D01*
X79265678Y-91337305D02*
X78467600Y-92135383D01*
X78467600Y-92135383D02*
X78467600Y-101166728D01*
X78467600Y-101166728D02*
X77669520Y-101964808D01*
X77669520Y-101964808D02*
X77669519Y-106762645D01*
X77669519Y-106762645D02*
X77470000Y-106962164D01*
X77470000Y-106962164D02*
X77470000Y-109220000D01*
X77470000Y-109220000D02*
X76200000Y-110490000D01*
%TO.N,/IO13*%
X85232000Y-88630000D02*
X85232000Y-89647000D01*
X79066158Y-90318365D02*
X79066158Y-91254662D01*
X77470000Y-106680000D02*
X76200000Y-107950000D01*
X84709000Y-90170000D02*
X79214523Y-90170000D01*
X79214523Y-90170000D02*
X79066158Y-90318365D01*
X85232000Y-89647000D02*
X84709000Y-90170000D01*
X79066158Y-91254662D02*
X78268080Y-92052740D01*
X78268080Y-92052740D02*
X78268080Y-101084084D01*
X78268080Y-101084084D02*
X77470000Y-101882164D01*
X77470000Y-101882164D02*
X77470000Y-106680000D01*
%TO.N,/CLK*%
X100185324Y-92310799D02*
X100384840Y-92510315D01*
X91443082Y-90311082D02*
X92568918Y-90311082D01*
X92568918Y-90311082D02*
X93080877Y-90823040D01*
X90312000Y-88630000D02*
X90312000Y-89180000D01*
X100185324Y-90998816D02*
X100185324Y-92310799D01*
X90312000Y-89180000D02*
X91443082Y-90311082D01*
X100384840Y-92510315D02*
X100384848Y-94768160D01*
X93080877Y-90823040D02*
X100009548Y-90823040D01*
X100009548Y-90823040D02*
X100185324Y-90998816D01*
X101981000Y-116967000D02*
X103124000Y-118110000D01*
X100384848Y-94768160D02*
X100584360Y-94967672D01*
X100584360Y-94967672D02*
X100584367Y-97225515D01*
X100584367Y-97225515D02*
X100783880Y-97425028D01*
X100783880Y-97425028D02*
X100783884Y-99682869D01*
X100783884Y-99682869D02*
X100983400Y-99882385D01*
X100983400Y-99882385D02*
X100983400Y-109195892D01*
X100983400Y-109195892D02*
X101327960Y-109540452D01*
X101327960Y-109540452D02*
X101327961Y-111798288D01*
X101327961Y-111798288D02*
X101781480Y-112251807D01*
X101781480Y-112251807D02*
X101781481Y-114509645D01*
X101781481Y-114509645D02*
X101981000Y-114709164D01*
X101981000Y-114709164D02*
X101981000Y-116967000D01*
%TO.N,/SD0*%
X93163520Y-90623520D02*
X100092192Y-90623520D01*
X100092192Y-90623520D02*
X100384843Y-90916171D01*
X91582000Y-89042000D02*
X93163520Y-90623520D01*
X91582000Y-88630000D02*
X91582000Y-89042000D01*
X100384843Y-90916171D02*
X100384848Y-92228160D01*
X100384848Y-92228160D02*
X100584360Y-92427672D01*
X100584360Y-92427672D02*
X100584367Y-94685515D01*
X100783880Y-94885028D02*
X100783886Y-97142870D01*
X100584367Y-94685515D02*
X100783880Y-94885028D01*
X100783886Y-97142870D02*
X100983400Y-97342384D01*
X100983400Y-97342384D02*
X100983403Y-99600223D01*
X100983403Y-99600223D02*
X101182920Y-99799738D01*
X101182920Y-99799738D02*
X101182922Y-109113250D01*
X101182922Y-109113250D02*
X101527480Y-109457808D01*
X101527480Y-109457808D02*
X101527481Y-111715645D01*
X101527481Y-111715645D02*
X101981000Y-112169164D01*
X101981000Y-112169164D02*
X101981000Y-114427000D01*
X101981000Y-114427000D02*
X103124000Y-115570000D01*
%TO.N,/SD1*%
X92852000Y-88630000D02*
X93522489Y-89300489D01*
X100783880Y-92345028D02*
X100783886Y-94602870D01*
X93522489Y-89300489D02*
X93522489Y-89779511D01*
X100174836Y-90424000D02*
X100584362Y-90833526D01*
X94166978Y-90424000D02*
X100174836Y-90424000D01*
X93522489Y-89779511D02*
X94166978Y-90424000D01*
X100584367Y-92145515D02*
X100783880Y-92345028D01*
X100584362Y-90833526D02*
X100584367Y-92145515D01*
X100783886Y-94602870D02*
X100983400Y-94802384D01*
X100983400Y-94802384D02*
X100983405Y-97060225D01*
X100983405Y-97060225D02*
X101182920Y-97259740D01*
X101182920Y-97259740D02*
X101182923Y-99517578D01*
X101182923Y-99517578D02*
X101382440Y-99717094D01*
X101727000Y-111633000D02*
X103124000Y-113030000D01*
X101382440Y-99717094D02*
X101382441Y-109030605D01*
X101382441Y-109030605D02*
X101727000Y-109375164D01*
X101727000Y-109375164D02*
X101727000Y-111633000D01*
%TO.N,/IO15*%
X94122000Y-89550000D02*
X94742000Y-90170000D01*
X94742000Y-90170000D02*
X100203000Y-90170000D01*
X100783886Y-92062870D02*
X100983400Y-92262384D01*
X101182920Y-94719740D02*
X101182924Y-96977580D01*
X94122000Y-88630000D02*
X94122000Y-89550000D01*
X100783882Y-90750882D02*
X100783886Y-92062870D01*
X100983400Y-92262384D02*
X100983405Y-94520225D01*
X100983405Y-94520225D02*
X101182920Y-94719740D01*
X100203000Y-90170000D02*
X100783882Y-90750882D01*
X101182924Y-96977580D02*
X101382440Y-97177096D01*
X101382440Y-97177096D02*
X101382442Y-99434933D01*
X101382442Y-99434933D02*
X101581960Y-99634451D01*
X101581960Y-99634451D02*
X101581960Y-108947960D01*
X101581960Y-108947960D02*
X103124000Y-110490000D01*
%TO.N,/IO2*%
X95392000Y-88630000D02*
X100187000Y-88630000D01*
X100187000Y-88630000D02*
X100783885Y-89226885D01*
X100783885Y-89226885D02*
X100783886Y-89522870D01*
X100783886Y-89522870D02*
X100983400Y-89722384D01*
X100983400Y-89722384D02*
X100983405Y-91980225D01*
X100983405Y-91980225D02*
X101182920Y-92179740D01*
X101182920Y-92179740D02*
X101182924Y-94437580D01*
X101182924Y-94437580D02*
X101382440Y-94637096D01*
X101382440Y-94637096D02*
X101382443Y-96894935D01*
X101382443Y-96894935D02*
X101581960Y-97094452D01*
X101581960Y-97094452D02*
X101581962Y-99352290D01*
X101581962Y-99352290D02*
X101781480Y-99551808D01*
X101781480Y-99551808D02*
X101781480Y-106607480D01*
X101781480Y-106607480D02*
X103124000Y-107950000D01*
D31*
%TO.N,GND*%
X83962000Y-88630000D02*
X83962000Y-84821000D01*
X83962000Y-84821000D02*
X88677000Y-80106000D01*
X88677000Y-80106000D02*
X88677000Y-77620000D01*
D30*
%TO.N,/IO0*%
X98177000Y-87630000D02*
X100838000Y-87630000D01*
X101581960Y-94554452D02*
X101581962Y-96812290D01*
X100838000Y-87630000D02*
X100983403Y-87775403D01*
X101182924Y-91897580D02*
X101382440Y-92097096D01*
X101981000Y-99469164D02*
X101981000Y-104267000D01*
X101382443Y-94354935D02*
X101581960Y-94554452D01*
X100983405Y-89440225D02*
X101182920Y-89639740D01*
X101581962Y-96812290D02*
X101781480Y-97011808D01*
X101182920Y-89639740D02*
X101182924Y-91897580D01*
X101382440Y-92097096D02*
X101382443Y-94354935D01*
X101781480Y-97011808D02*
X101781481Y-99269645D01*
X100983403Y-87775403D02*
X100983405Y-89440225D01*
X101981000Y-104267000D02*
X103124000Y-105410000D01*
X101781481Y-99269645D02*
X101981000Y-99469164D01*
%TO.N,/IO16*%
X98177000Y-85090000D02*
X100965000Y-85090000D01*
X101981000Y-96929164D02*
X101981000Y-99187000D01*
X100965000Y-85090000D02*
X101182921Y-85307921D01*
X101182924Y-89357580D02*
X101382440Y-89557096D01*
X101182921Y-85307921D02*
X101182924Y-89357580D01*
X101382443Y-91814935D02*
X101581960Y-92014452D01*
X101581960Y-92014452D02*
X101581962Y-94272290D01*
X101382440Y-89557096D02*
X101382443Y-91814935D01*
X101781480Y-94471808D02*
X101781481Y-96729645D01*
X101581962Y-94272290D02*
X101781480Y-94471808D01*
X101781481Y-96729645D02*
X101981000Y-96929164D01*
X101981000Y-99187000D02*
X103124000Y-100330000D01*
%TO.N,/IO17*%
X101182923Y-83910923D02*
X101182924Y-84277580D01*
X101981000Y-94389164D02*
X101981000Y-96647000D01*
X101382440Y-84477096D02*
X101382443Y-89274935D01*
X101092000Y-83820000D02*
X101182923Y-83910923D01*
X98177000Y-83820000D02*
X101092000Y-83820000D01*
X101382443Y-89274935D02*
X101581960Y-89474452D01*
X101581960Y-89474452D02*
X101581962Y-91732290D01*
X101581962Y-91732290D02*
X101781480Y-91931808D01*
X101781481Y-94189645D02*
X101981000Y-94389164D01*
X101182924Y-84277580D02*
X101382440Y-84477096D01*
X101781480Y-91931808D02*
X101781481Y-94189645D01*
X101981000Y-96647000D02*
X103124000Y-97790000D01*
%TO.N,/IO5*%
X101092000Y-82550000D02*
X101382442Y-82840442D01*
X101581960Y-84394452D02*
X101581962Y-89192290D01*
X101382442Y-82840442D02*
X101382443Y-84194935D01*
X98177000Y-82550000D02*
X101092000Y-82550000D01*
X101581962Y-89192290D02*
X101781480Y-89391808D01*
X101781480Y-89391808D02*
X101781481Y-91649645D01*
X101382443Y-84194935D02*
X101581960Y-84394452D01*
X101781481Y-91649645D02*
X101981000Y-91849164D01*
X101981000Y-91849164D02*
X101981000Y-94107000D01*
X101981000Y-94107000D02*
X103124000Y-95250000D01*
%TO.N,/IO18*%
X98177000Y-81280000D02*
X100965000Y-81280000D01*
X100965000Y-81280000D02*
X101581962Y-81896962D01*
X101581962Y-81896962D02*
X101581962Y-84112290D01*
X101781481Y-89109645D02*
X101981000Y-89309164D01*
X101581962Y-84112290D02*
X101781480Y-84311808D01*
X101981000Y-89309164D02*
X101981000Y-91567000D01*
X101781480Y-84311808D02*
X101781481Y-89109645D01*
X101981000Y-91567000D02*
X103124000Y-92710000D01*
%TO.N,/IO19*%
X98177000Y-80010000D02*
X101346000Y-80010000D01*
X101581960Y-80245960D02*
X101581962Y-81572290D01*
X101581962Y-81572290D02*
X101781480Y-81771808D01*
X101981000Y-84229164D02*
X101981000Y-89027000D01*
X101981000Y-89027000D02*
X103124000Y-90170000D01*
X101781480Y-81771808D02*
X101781481Y-84029645D01*
X101346000Y-80010000D02*
X101581960Y-80245960D01*
X101781481Y-84029645D02*
X101981000Y-84229164D01*
%TO.N,/IO21*%
X98177000Y-77470000D02*
X101092000Y-77470000D01*
X101581962Y-79032290D02*
X101781480Y-79231808D01*
X101092000Y-77470000D02*
X101581961Y-77959961D01*
X101781481Y-81489645D02*
X101981000Y-81689164D01*
X101581961Y-77959961D02*
X101581962Y-79032290D01*
X101781480Y-79231808D02*
X101781481Y-81489645D01*
X101981000Y-81689164D02*
X101981000Y-83947000D01*
X101981000Y-83947000D02*
X103124000Y-85090000D01*
%TO.N,/RXD0*%
X98177000Y-76200000D02*
X101473000Y-76200000D01*
X101981000Y-79149164D02*
X101981000Y-81407000D01*
X101473000Y-76200000D02*
X101581961Y-76308961D01*
X101581962Y-76492290D02*
X101781481Y-76691809D01*
X101581961Y-76308961D02*
X101581962Y-76492290D01*
X101781481Y-76691809D02*
X101781481Y-78949645D01*
X101781481Y-78949645D02*
X101981000Y-79149164D01*
X101981000Y-81407000D02*
X103124000Y-82550000D01*
%TO.N,/TXD0*%
X98177000Y-74930000D02*
X101473000Y-74930000D01*
X101473000Y-74930000D02*
X101781480Y-75238480D01*
X101781480Y-75238480D02*
X101781481Y-76409645D01*
X101781481Y-76409645D02*
X101981000Y-76609164D01*
X101981000Y-76609164D02*
X101981000Y-78867000D01*
X101981000Y-78867000D02*
X103124000Y-80010000D01*
%TO.N,/IO22*%
X98177000Y-73660000D02*
X101571836Y-73660000D01*
X101571836Y-73660000D02*
X101981000Y-74069164D01*
X101981000Y-74069164D02*
X101981000Y-76327000D01*
X101981000Y-76327000D02*
X103124000Y-77470000D01*
%TO.N,/IO23*%
X98177000Y-72390000D02*
X100584000Y-72390000D01*
X100584000Y-72390000D02*
X103124000Y-74930000D01*
D31*
%TO.N,GND*%
X98177000Y-71120000D02*
X101854000Y-71120000D01*
X101854000Y-71120000D02*
X103124000Y-72390000D01*
D30*
%TO.N,/IO12*%
X81177000Y-87630000D02*
X78994000Y-87630000D01*
X78994000Y-87630000D02*
X78866640Y-87757360D01*
X78866639Y-91172017D02*
X78068560Y-91970096D01*
X78866640Y-87757360D02*
X78866639Y-91172017D01*
X78068560Y-101001440D02*
X76200000Y-102870000D01*
X78068560Y-91970096D02*
X78068560Y-101001440D01*
%TO.N,/IO14*%
X81177000Y-86360000D02*
X78994000Y-86360000D01*
X78994000Y-86360000D02*
X78667120Y-86686880D01*
X78667120Y-86686880D02*
X78667120Y-91089372D01*
X78667120Y-91089372D02*
X77869040Y-91887452D01*
X77869040Y-91887452D02*
X77869040Y-98660960D01*
X77869040Y-98660960D02*
X76200000Y-100330000D01*
%TO.N,/IO27*%
X78740000Y-85090000D02*
X78467600Y-85362400D01*
X78467600Y-85362400D02*
X78467598Y-91006730D01*
X78467598Y-91006730D02*
X77669520Y-91804808D01*
X81177000Y-85090000D02*
X78740000Y-85090000D01*
X77669520Y-91804808D02*
X77669520Y-96320480D01*
X77669520Y-96320480D02*
X76200000Y-97790000D01*
%TO.N,/IO26*%
X81177000Y-83820000D02*
X78613000Y-83820000D01*
X78268080Y-84164920D02*
X78268079Y-90924085D01*
X78613000Y-83820000D02*
X78268080Y-84164920D01*
X77470000Y-93472000D02*
X76200000Y-94742000D01*
X78268079Y-90924085D02*
X77470000Y-91722164D01*
X77470000Y-91722164D02*
X77470000Y-93472000D01*
X76200000Y-94742000D02*
X76200000Y-95250000D01*
%TO.N,/IO25*%
X81177000Y-82550000D02*
X78359000Y-82550000D01*
X78359000Y-82550000D02*
X78068560Y-82840440D01*
X78068560Y-82840440D02*
X78068560Y-90841440D01*
X78068560Y-90841440D02*
X76200000Y-92710000D01*
%TO.N,/IO33*%
X81177000Y-81280000D02*
X78316491Y-81280000D01*
X78316491Y-81280000D02*
X77869040Y-81727451D01*
X77869040Y-81727451D02*
X77869039Y-88500961D01*
X77869039Y-88500961D02*
X76200000Y-90170000D01*
%TO.N,/IO32*%
X81177000Y-80010000D02*
X77978000Y-80010000D01*
X77978000Y-80010000D02*
X77869039Y-80118961D01*
X77470000Y-86360000D02*
X76200000Y-87630000D01*
X77869039Y-80118961D02*
X77869039Y-81445288D01*
X77869039Y-81445288D02*
X77669520Y-81644807D01*
X77669520Y-81644807D02*
X77669520Y-85779480D01*
X77669520Y-85779480D02*
X77470000Y-85979000D01*
X77470000Y-85979000D02*
X77470000Y-86360000D01*
%TO.N,/IO35*%
X81177000Y-78740000D02*
X78387164Y-78740000D01*
X77669519Y-79457645D02*
X77669519Y-81362645D01*
X78387164Y-78740000D02*
X77669519Y-79457645D01*
X77669519Y-81362645D02*
X77470000Y-81562164D01*
X77470000Y-81562164D02*
X77470000Y-83820000D01*
X77470000Y-83820000D02*
X76200000Y-85090000D01*
%TO.N,/IO34*%
X81177000Y-77470000D02*
X79375000Y-77470000D01*
X77470000Y-81280000D02*
X76200000Y-82550000D01*
X79375000Y-77470000D02*
X77470000Y-79375000D01*
X77470000Y-79375000D02*
X77470000Y-81280000D01*
%TO.N,/SENSOR_VN*%
X81177000Y-76200000D02*
X79530164Y-76200000D01*
X79530164Y-76200000D02*
X77597000Y-78133164D01*
X77597000Y-78133164D02*
X77597000Y-78613000D01*
X77597000Y-78613000D02*
X76200000Y-80010000D01*
%TO.N,/SENSOR_VP*%
X81177000Y-74930000D02*
X80506511Y-75600489D01*
X80506511Y-75600489D02*
X79847511Y-75600489D01*
X79847511Y-75600489D02*
X77849000Y-77599000D01*
X77849000Y-77599000D02*
X77345000Y-77599000D01*
X77345000Y-77599000D02*
X77216000Y-77470000D01*
X77216000Y-77470000D02*
X76200000Y-77470000D01*
%TO.N,/EN*%
X81177000Y-73660000D02*
X79121000Y-73660000D01*
X79121000Y-73660000D02*
X77851000Y-74930000D01*
X77851000Y-74930000D02*
X76200000Y-74930000D01*
D31*
%TO.N,GND*%
X98177000Y-71120000D02*
X90932000Y-71120000D01*
X90932000Y-71120000D02*
X88677000Y-73375000D01*
X88677000Y-73375000D02*
X88677000Y-77620000D01*
X81177000Y-71120000D02*
X84328000Y-71120000D01*
X84328000Y-71120000D02*
X88677000Y-75469000D01*
X88677000Y-75469000D02*
X88677000Y-77620000D01*
%TD*%
%TA.AperFunction,Conductor*%
%TO.N,/VDD33*%
G36*
X98499621Y-103777502D02*
G01*
X98546114Y-103831158D01*
X98557500Y-103883500D01*
X98557500Y-105177500D01*
X98537498Y-105245621D01*
X98483842Y-105292114D01*
X98431500Y-105303500D01*
X98367866Y-105303500D01*
X98305684Y-105310255D01*
X98169295Y-105361385D01*
X98052739Y-105448739D01*
X97965385Y-105565295D01*
X97914255Y-105701684D01*
X97907500Y-105763866D01*
X97907500Y-107160134D01*
X97914255Y-107222316D01*
X97965385Y-107358705D01*
X98052739Y-107475261D01*
X98169295Y-107562615D01*
X98305684Y-107613745D01*
X98367866Y-107620500D01*
X99645500Y-107620500D01*
X99713621Y-107640502D01*
X99760114Y-107694158D01*
X99771500Y-107746500D01*
X99771500Y-108809472D01*
X99751498Y-108877593D01*
X99734595Y-108898567D01*
X98866567Y-109766595D01*
X98804255Y-109800621D01*
X98777472Y-109803500D01*
X98367866Y-109803500D01*
X98305684Y-109810255D01*
X98169295Y-109861385D01*
X98052739Y-109948739D01*
X97965385Y-110065295D01*
X97914255Y-110201684D01*
X97907500Y-110263866D01*
X97907500Y-110277500D01*
X97887498Y-110345621D01*
X97833842Y-110392114D01*
X97781500Y-110403500D01*
X92701276Y-110403500D01*
X92633155Y-110383498D01*
X92586662Y-110329842D01*
X92576558Y-110259568D01*
X92606052Y-110194988D01*
X92614384Y-110186254D01*
X92713740Y-110091639D01*
X92807910Y-109949902D01*
X92868338Y-109790825D01*
X92892020Y-109622313D01*
X92892318Y-109601000D01*
X92873350Y-109431892D01*
X92858588Y-109389500D01*
X92845565Y-109352104D01*
X92817387Y-109271189D01*
X92727211Y-109126879D01*
X92679169Y-109078500D01*
X95375000Y-109078500D01*
X95375000Y-109389500D01*
X96901000Y-109389500D01*
X96901000Y-109078500D01*
X95375000Y-109078500D01*
X92679169Y-109078500D01*
X92607305Y-109006132D01*
X92583734Y-108991173D01*
X92552425Y-108971304D01*
X92463627Y-108914951D01*
X92303319Y-108857868D01*
X92134348Y-108837720D01*
X92127345Y-108838456D01*
X92127344Y-108838456D01*
X91972120Y-108854770D01*
X91972116Y-108854771D01*
X91965112Y-108855507D01*
X91804022Y-108910346D01*
X91775561Y-108927856D01*
X91707062Y-108946513D01*
X91639348Y-108925174D01*
X91620139Y-108909324D01*
X91571786Y-108860632D01*
X91428108Y-108769451D01*
X91267800Y-108712368D01*
X91098829Y-108692220D01*
X91091826Y-108692956D01*
X91091825Y-108692956D01*
X90936601Y-108709270D01*
X90936597Y-108709271D01*
X90929593Y-108710007D01*
X90922922Y-108712278D01*
X90775173Y-108762575D01*
X90775170Y-108762576D01*
X90768503Y-108764846D01*
X90762505Y-108768536D01*
X90762503Y-108768537D01*
X90754875Y-108773230D01*
X90623566Y-108854012D01*
X90623511Y-108854066D01*
X90560079Y-108879227D01*
X90490409Y-108865570D01*
X90439182Y-108816414D01*
X90422500Y-108753760D01*
X90422500Y-108228594D01*
X90442502Y-108160473D01*
X90459405Y-108139499D01*
X90534404Y-108064500D01*
X95759188Y-108064500D01*
X96901000Y-108064500D01*
X96901000Y-107284087D01*
X96899431Y-107269644D01*
X96899109Y-107266252D01*
X96895767Y-107225167D01*
X96895536Y-107221765D01*
X96894799Y-107208157D01*
X96894661Y-107204751D01*
X96893546Y-107163542D01*
X96893500Y-107160134D01*
X96893500Y-106538500D01*
X96277443Y-106538500D01*
X96293480Y-106681473D01*
X96293859Y-106685414D01*
X96297698Y-106733132D01*
X96297954Y-106737082D01*
X96298727Y-106752889D01*
X96298858Y-106756843D01*
X96299694Y-106804715D01*
X96299701Y-106808677D01*
X96299403Y-106829990D01*
X96299285Y-106833947D01*
X96297112Y-106881770D01*
X96296870Y-106885720D01*
X96295656Y-106901493D01*
X96295291Y-106905433D01*
X96290123Y-106953003D01*
X96289634Y-106956929D01*
X96265952Y-107125441D01*
X96264778Y-107132379D01*
X96248254Y-107215833D01*
X96246696Y-107222695D01*
X96239710Y-107249904D01*
X96237770Y-107256667D01*
X96212046Y-107337760D01*
X96209732Y-107344406D01*
X96149304Y-107503483D01*
X96146622Y-107509989D01*
X96112015Y-107587715D01*
X96108975Y-107594061D01*
X96096135Y-107619044D01*
X96092745Y-107625209D01*
X96049701Y-107698575D01*
X96045973Y-107704541D01*
X95951803Y-107846278D01*
X95947748Y-107852027D01*
X95896796Y-107920137D01*
X95892426Y-107925651D01*
X95874370Y-107947170D01*
X95869697Y-107952433D01*
X95811452Y-108014458D01*
X95806494Y-108019451D01*
X95759188Y-108064500D01*
X90534404Y-108064500D01*
X90941499Y-107657405D01*
X91003811Y-107623379D01*
X91030594Y-107620500D01*
X92064134Y-107620500D01*
X92126316Y-107613745D01*
X92262705Y-107562615D01*
X92379261Y-107475261D01*
X92466615Y-107358705D01*
X92517745Y-107222316D01*
X92524500Y-107160134D01*
X92524500Y-106727716D01*
X92544502Y-106659595D01*
X92598158Y-106613102D01*
X92668432Y-106602998D01*
X92711198Y-106617300D01*
X92720433Y-106622377D01*
X92720436Y-106622378D01*
X92727379Y-106626195D01*
X92747011Y-106631236D01*
X92765703Y-106637636D01*
X92784295Y-106645681D01*
X92827961Y-106652597D01*
X92839567Y-106655000D01*
X92882409Y-106666000D01*
X92902671Y-106666000D01*
X92922380Y-106667551D01*
X92942383Y-106670719D01*
X92950275Y-106669973D01*
X92950276Y-106669973D01*
X92953323Y-106669685D01*
X92955688Y-106670143D01*
X92958198Y-106670222D01*
X92958185Y-106670627D01*
X93023024Y-106683188D01*
X93034173Y-106689694D01*
X93106590Y-106737082D01*
X93139659Y-106758722D01*
X93146263Y-106761178D01*
X93146265Y-106761179D01*
X93303058Y-106819490D01*
X93303060Y-106819490D01*
X93309668Y-106821948D01*
X93387933Y-106832391D01*
X93482480Y-106845007D01*
X93482484Y-106845007D01*
X93489461Y-106845938D01*
X93496472Y-106845300D01*
X93496476Y-106845300D01*
X93638315Y-106832391D01*
X93707968Y-106846136D01*
X93759133Y-106895357D01*
X93773168Y-106939414D01*
X93773728Y-106939295D01*
X93774926Y-106944933D01*
X93775134Y-106945584D01*
X93775881Y-106953199D01*
X93829594Y-107114667D01*
X93833241Y-107120689D01*
X93833242Y-107120691D01*
X93911535Y-107249967D01*
X93917746Y-107260223D01*
X94035955Y-107382632D01*
X94178346Y-107475810D01*
X94184950Y-107478266D01*
X94184952Y-107478267D01*
X94221344Y-107491801D01*
X94337841Y-107535126D01*
X94506515Y-107557632D01*
X94513526Y-107556994D01*
X94513530Y-107556994D01*
X94668962Y-107542848D01*
X94675983Y-107542209D01*
X94682685Y-107540031D01*
X94682687Y-107540031D01*
X94831123Y-107491801D01*
X94831126Y-107491800D01*
X94837822Y-107489624D01*
X94983990Y-107402490D01*
X94989084Y-107397639D01*
X94989088Y-107397636D01*
X95085057Y-107306245D01*
X95107221Y-107285139D01*
X95201391Y-107143402D01*
X95261819Y-106984325D01*
X95285501Y-106815813D01*
X95285799Y-106794500D01*
X95266831Y-106625392D01*
X95259910Y-106605516D01*
X95213186Y-106471346D01*
X95210868Y-106464689D01*
X95120692Y-106320379D01*
X95000786Y-106199632D01*
X94857108Y-106108451D01*
X94696800Y-106051368D01*
X94527829Y-106031220D01*
X94520826Y-106031956D01*
X94520825Y-106031956D01*
X94473198Y-106036962D01*
X94446832Y-106039733D01*
X94376994Y-106026961D01*
X94325147Y-105978459D01*
X94308447Y-105928468D01*
X94300682Y-105859244D01*
X94299897Y-105852245D01*
X94247466Y-105701684D01*
X94242564Y-105687606D01*
X94242562Y-105687603D01*
X94240245Y-105680948D01*
X94236509Y-105674969D01*
X94147859Y-105533098D01*
X94144126Y-105527124D01*
X94097611Y-105480283D01*
X94021278Y-105403415D01*
X94021274Y-105403412D01*
X94016315Y-105398418D01*
X93863166Y-105301227D01*
X93833963Y-105290828D01*
X93698925Y-105242743D01*
X93698920Y-105242742D01*
X93692290Y-105240381D01*
X93640537Y-105234210D01*
X93615475Y-105231221D01*
X93550202Y-105203293D01*
X93510390Y-105144510D01*
X93505180Y-105120152D01*
X93489616Y-104981390D01*
X93489616Y-104981389D01*
X93488831Y-104974392D01*
X93432868Y-104813689D01*
X93406505Y-104771500D01*
X95375000Y-104771500D01*
X95375000Y-105237861D01*
X95394394Y-105248700D01*
X95400437Y-105252303D01*
X95544115Y-105343484D01*
X95549948Y-105347418D01*
X95619109Y-105396932D01*
X95624712Y-105401185D01*
X95646604Y-105418786D01*
X95651964Y-105423348D01*
X95715197Y-105480283D01*
X95720293Y-105485135D01*
X95759384Y-105524500D01*
X96901000Y-105524500D01*
X96901000Y-104771500D01*
X95375000Y-104771500D01*
X93406505Y-104771500D01*
X93342692Y-104669379D01*
X93222786Y-104548632D01*
X93201525Y-104535139D01*
X93124110Y-104486010D01*
X93099159Y-104470175D01*
X93052360Y-104416787D01*
X93041855Y-104346572D01*
X93070979Y-104281824D01*
X93130485Y-104243100D01*
X93146713Y-104239666D01*
X93149433Y-104238967D01*
X93157297Y-104237974D01*
X93164668Y-104235055D01*
X93164670Y-104235055D01*
X93198412Y-104221696D01*
X93209642Y-104217851D01*
X93244483Y-104207729D01*
X93244484Y-104207729D01*
X93252093Y-104205518D01*
X93258912Y-104201485D01*
X93258917Y-104201483D01*
X93269528Y-104195207D01*
X93287276Y-104186512D01*
X93306117Y-104179052D01*
X93324125Y-104165969D01*
X93341887Y-104153064D01*
X93351807Y-104146548D01*
X93359840Y-104141797D01*
X93389862Y-104124042D01*
X93395469Y-104118436D01*
X93404185Y-104109720D01*
X93419219Y-104096879D01*
X93429195Y-104089631D01*
X93429196Y-104089630D01*
X93435607Y-104084972D01*
X93463788Y-104050907D01*
X93471778Y-104042126D01*
X93705190Y-103808715D01*
X93713472Y-103801179D01*
X93719950Y-103797068D01*
X93725375Y-103791291D01*
X93731269Y-103786415D01*
X93796506Y-103758405D01*
X93811584Y-103757500D01*
X98431500Y-103757500D01*
X98499621Y-103777502D01*
G37*
%TD.AperFunction*%
%TA.AperFunction,Conductor*%
G36*
X89296988Y-93356918D02*
G01*
X89342078Y-93385840D01*
X89367947Y-93411664D01*
X89412793Y-93439307D01*
X89422116Y-93445054D01*
X89469609Y-93497826D01*
X89482000Y-93552314D01*
X89482000Y-93835338D01*
X89481889Y-93840614D01*
X89479251Y-93903554D01*
X89489351Y-93946614D01*
X89491513Y-93958283D01*
X89497516Y-94002104D01*
X89500928Y-94009987D01*
X89500928Y-94009989D01*
X89503639Y-94016254D01*
X89510674Y-94037526D01*
X89512231Y-94044167D01*
X89512232Y-94044171D01*
X89514193Y-94052530D01*
X89526492Y-94074902D01*
X89535503Y-94091293D01*
X89540725Y-94101953D01*
X89558288Y-94142538D01*
X89563691Y-94149211D01*
X89563694Y-94149215D01*
X89567989Y-94154519D01*
X89580481Y-94173109D01*
X89584229Y-94179926D01*
X89587911Y-94186623D01*
X89592223Y-94191618D01*
X89592226Y-94191622D01*
X89593509Y-94193108D01*
X89595022Y-94194860D01*
X89619971Y-94219809D01*
X89628796Y-94229609D01*
X89654586Y-94261457D01*
X89661588Y-94266433D01*
X89661589Y-94266434D01*
X89670270Y-94272603D01*
X89686376Y-94286214D01*
X90526343Y-95126181D01*
X90529996Y-95129990D01*
X90572652Y-95176378D01*
X90594750Y-95190079D01*
X90610236Y-95199681D01*
X90620020Y-95206406D01*
X90648403Y-95227950D01*
X90648407Y-95227952D01*
X90655252Y-95233148D01*
X90663242Y-95236311D01*
X90663241Y-95236311D01*
X90669588Y-95238824D01*
X90689599Y-95248889D01*
X90695399Y-95252485D01*
X90695404Y-95252487D01*
X90702702Y-95257012D01*
X90710949Y-95259408D01*
X90745176Y-95269352D01*
X90756405Y-95273197D01*
X90789535Y-95286314D01*
X90789540Y-95286315D01*
X90797526Y-95289477D01*
X90806065Y-95290375D01*
X90806075Y-95290377D01*
X90812862Y-95291090D01*
X90834839Y-95295401D01*
X90843312Y-95297863D01*
X90843314Y-95297863D01*
X90849646Y-95299703D01*
X90856706Y-95300221D01*
X90858192Y-95300331D01*
X90858203Y-95300331D01*
X90860499Y-95300500D01*
X90895790Y-95300500D01*
X90908959Y-95301190D01*
X90949708Y-95305473D01*
X90968686Y-95302263D01*
X90989688Y-95300500D01*
X91981199Y-95300500D01*
X92049320Y-95320502D01*
X92095813Y-95374158D01*
X92105917Y-95444432D01*
X92087113Y-95494752D01*
X92083378Y-95500548D01*
X92029665Y-95546974D01*
X91965339Y-95556574D01*
X91965339Y-95556700D01*
X91561701Y-95556700D01*
X91545164Y-95561131D01*
X91479948Y-95561131D01*
X91473254Y-95559338D01*
X91457017Y-95557200D01*
X91431635Y-95557200D01*
X91416396Y-95561675D01*
X91399628Y-95581026D01*
X91384976Y-95607859D01*
X91358884Y-95627880D01*
X91301039Y-95661278D01*
X91232045Y-95678015D01*
X91164953Y-95654795D01*
X91121066Y-95598988D01*
X91117144Y-95587657D01*
X91109045Y-95560076D01*
X91107655Y-95558871D01*
X91099972Y-95557200D01*
X91070023Y-95557200D01*
X91053793Y-95559337D01*
X90921466Y-95594793D01*
X90906338Y-95601059D01*
X90787699Y-95669556D01*
X90774710Y-95679523D01*
X90677843Y-95776390D01*
X90667876Y-95789379D01*
X90599379Y-95908018D01*
X90593113Y-95923146D01*
X90557812Y-96054892D01*
X90559995Y-96062324D01*
X90561385Y-96063529D01*
X90569068Y-96065200D01*
X90929020Y-96065200D01*
X90997141Y-96085202D01*
X91043634Y-96138858D01*
X91055020Y-96191200D01*
X91055020Y-96239200D01*
X91035018Y-96307321D01*
X90981362Y-96353814D01*
X90929020Y-96365200D01*
X90573635Y-96365200D01*
X90558396Y-96369675D01*
X90557191Y-96371065D01*
X90557164Y-96371189D01*
X90557657Y-96374927D01*
X90593113Y-96507254D01*
X90599379Y-96522382D01*
X90667876Y-96641021D01*
X90677843Y-96654010D01*
X90701203Y-96677370D01*
X90735229Y-96739682D01*
X90730164Y-96810497D01*
X90701205Y-96855557D01*
X89302429Y-98254333D01*
X89253883Y-98282361D01*
X89254383Y-98283568D01*
X89246756Y-98286727D01*
X89238777Y-98288865D01*
X89231625Y-98292994D01*
X89231623Y-98292995D01*
X89130849Y-98351177D01*
X89105723Y-98365684D01*
X88997084Y-98474323D01*
X88920265Y-98607377D01*
X88880500Y-98755781D01*
X88880500Y-99059419D01*
X88920265Y-99207823D01*
X88997084Y-99340877D01*
X89105723Y-99449516D01*
X89207545Y-99508303D01*
X89256537Y-99559684D01*
X89269943Y-99605124D01*
X89281663Y-99724660D01*
X89338918Y-99896773D01*
X89342565Y-99902795D01*
X89342566Y-99902797D01*
X89423457Y-100036364D01*
X89432880Y-100051924D01*
X89437774Y-100056992D01*
X89437775Y-100056993D01*
X89457581Y-100077503D01*
X89490512Y-100140400D01*
X89484212Y-100211116D01*
X89456038Y-100254124D01*
X88515819Y-101194343D01*
X88512010Y-101197996D01*
X88465622Y-101240652D01*
X88461097Y-101247950D01*
X88442318Y-101278238D01*
X88435593Y-101288022D01*
X88414049Y-101316405D01*
X88414046Y-101316410D01*
X88408852Y-101323253D01*
X88405855Y-101330823D01*
X88355145Y-101380201D01*
X88285577Y-101394368D01*
X88220057Y-101369183D01*
X88202091Y-101355546D01*
X88202086Y-101355543D01*
X88195247Y-101350352D01*
X88186546Y-101346907D01*
X88180912Y-101344676D01*
X88160902Y-101334612D01*
X88155104Y-101331017D01*
X88155099Y-101331015D01*
X88147798Y-101326488D01*
X88105323Y-101314148D01*
X88094094Y-101310303D01*
X88060959Y-101297184D01*
X88060953Y-101297183D01*
X88052973Y-101294023D01*
X88044435Y-101293126D01*
X88044429Y-101293124D01*
X88037638Y-101292410D01*
X88015666Y-101288100D01*
X88000854Y-101283797D01*
X87993480Y-101283256D01*
X87992308Y-101283169D01*
X87992297Y-101283169D01*
X87990001Y-101283000D01*
X87954710Y-101283000D01*
X87941541Y-101282310D01*
X87900792Y-101278027D01*
X87881814Y-101281237D01*
X87860812Y-101283000D01*
X87171662Y-101283000D01*
X87166386Y-101282889D01*
X87150234Y-101282212D01*
X87103446Y-101280251D01*
X87060378Y-101290352D01*
X87048717Y-101292513D01*
X87037696Y-101294023D01*
X87013407Y-101297350D01*
X87013406Y-101297350D01*
X87004896Y-101298516D01*
X86997013Y-101301928D01*
X86997011Y-101301928D01*
X86990746Y-101304639D01*
X86969475Y-101311674D01*
X86954470Y-101315193D01*
X86946945Y-101319330D01*
X86915708Y-101336503D01*
X86905048Y-101341725D01*
X86872346Y-101355876D01*
X86872344Y-101355877D01*
X86864462Y-101359288D01*
X86854285Y-101367529D01*
X86852483Y-101368988D01*
X86833891Y-101381481D01*
X86826168Y-101385727D01*
X86826163Y-101385731D01*
X86820378Y-101388911D01*
X86812140Y-101396022D01*
X86787191Y-101420971D01*
X86777391Y-101429796D01*
X86745543Y-101455586D01*
X86740567Y-101462588D01*
X86740566Y-101462589D01*
X86734397Y-101471270D01*
X86720786Y-101487376D01*
X85927685Y-102280477D01*
X85923876Y-102284130D01*
X85877488Y-102326786D01*
X85872963Y-102334084D01*
X85854184Y-102364372D01*
X85847459Y-102374156D01*
X85825913Y-102402542D01*
X85825911Y-102402545D01*
X85820718Y-102409387D01*
X85817555Y-102417376D01*
X85815042Y-102423722D01*
X85804978Y-102443732D01*
X85801383Y-102449530D01*
X85801381Y-102449535D01*
X85796854Y-102456836D01*
X85794457Y-102465087D01*
X85784514Y-102499311D01*
X85780669Y-102510540D01*
X85767550Y-102543675D01*
X85767549Y-102543681D01*
X85764389Y-102551661D01*
X85763492Y-102560199D01*
X85763490Y-102560205D01*
X85762776Y-102566996D01*
X85758466Y-102588968D01*
X85754163Y-102603780D01*
X85753366Y-102614633D01*
X85752917Y-102614600D01*
X85752509Y-102616867D01*
X85751374Y-102616663D01*
X85727653Y-102682456D01*
X85725793Y-102684880D01*
X85719950Y-102690723D01*
X85715818Y-102697879D01*
X85715817Y-102697881D01*
X85694322Y-102735110D01*
X85642939Y-102784103D01*
X85573225Y-102797538D01*
X85507315Y-102771151D01*
X85496109Y-102761204D01*
X82037652Y-99302747D01*
X82030112Y-99294461D01*
X82026000Y-99287982D01*
X82005629Y-99268852D01*
X81976349Y-99241357D01*
X81973507Y-99238602D01*
X81968156Y-99233251D01*
X81934130Y-99170939D01*
X81932747Y-99137711D01*
X81932100Y-99137711D01*
X81932100Y-98777489D01*
X81890632Y-98622728D01*
X81843980Y-98541925D01*
X81827100Y-98478927D01*
X81827100Y-96974700D01*
X81847102Y-96906579D01*
X81900758Y-96860086D01*
X81953100Y-96848700D01*
X83311250Y-96848700D01*
X83379371Y-96868702D01*
X83425864Y-96922358D01*
X83437188Y-96970741D01*
X83437967Y-96995529D01*
X83443618Y-97014979D01*
X83447627Y-97034340D01*
X83450166Y-97054437D01*
X83453085Y-97061808D01*
X83453085Y-97061810D01*
X83466444Y-97095552D01*
X83470289Y-97106782D01*
X83480411Y-97141623D01*
X83482622Y-97149233D01*
X83486655Y-97156052D01*
X83486657Y-97156057D01*
X83492933Y-97166668D01*
X83501628Y-97184416D01*
X83509088Y-97203257D01*
X83513750Y-97209673D01*
X83513750Y-97209674D01*
X83535076Y-97239027D01*
X83541592Y-97248947D01*
X83559111Y-97278569D01*
X83564098Y-97287002D01*
X83578419Y-97301323D01*
X83591259Y-97316356D01*
X83603168Y-97332747D01*
X83624872Y-97350702D01*
X83637245Y-97360938D01*
X83646024Y-97368928D01*
X84485895Y-98208799D01*
X84519921Y-98271111D01*
X84522800Y-98297894D01*
X84522800Y-98512587D01*
X84505919Y-98575587D01*
X84487565Y-98607377D01*
X84447800Y-98755781D01*
X84447800Y-99059419D01*
X84487565Y-99207823D01*
X84564384Y-99340877D01*
X84673023Y-99449516D01*
X84680173Y-99453644D01*
X84788762Y-99516338D01*
X84806077Y-99526335D01*
X84954481Y-99566100D01*
X85358119Y-99566100D01*
X85374656Y-99561669D01*
X85439872Y-99561669D01*
X85446566Y-99563462D01*
X85462803Y-99565600D01*
X85488185Y-99565600D01*
X85503424Y-99561125D01*
X85520192Y-99541774D01*
X85534844Y-99514941D01*
X85560936Y-99494920D01*
X85618781Y-99461522D01*
X85687775Y-99444785D01*
X85754867Y-99468005D01*
X85798754Y-99523812D01*
X85802676Y-99535143D01*
X85810775Y-99562724D01*
X85812165Y-99563929D01*
X85819848Y-99565600D01*
X85849797Y-99565600D01*
X85866027Y-99563463D01*
X85998354Y-99528007D01*
X86013482Y-99521741D01*
X86132121Y-99453244D01*
X86145110Y-99443277D01*
X86241977Y-99346410D01*
X86251944Y-99333421D01*
X86320441Y-99214782D01*
X86326707Y-99199654D01*
X86362008Y-99067908D01*
X86359825Y-99060476D01*
X86358435Y-99059271D01*
X86350752Y-99057600D01*
X85990800Y-99057600D01*
X85922679Y-99037598D01*
X85876186Y-98983942D01*
X85864800Y-98931600D01*
X85864800Y-98883600D01*
X85884802Y-98815479D01*
X85938458Y-98768986D01*
X85990800Y-98757600D01*
X86346185Y-98757600D01*
X86361424Y-98753125D01*
X86362629Y-98751735D01*
X86362656Y-98751611D01*
X86362163Y-98747873D01*
X86326707Y-98615546D01*
X86320441Y-98600418D01*
X86251944Y-98481779D01*
X86241977Y-98468790D01*
X86145110Y-98371923D01*
X86132121Y-98361956D01*
X86060568Y-98320645D01*
X86011575Y-98269263D01*
X85998139Y-98199549D01*
X86024525Y-98133638D01*
X86034473Y-98122431D01*
X86204499Y-97952405D01*
X86266811Y-97918379D01*
X86293594Y-97915500D01*
X87678233Y-97915500D01*
X87689416Y-97916027D01*
X87696909Y-97917702D01*
X87704835Y-97917453D01*
X87704836Y-97917453D01*
X87764986Y-97915562D01*
X87768945Y-97915500D01*
X87796856Y-97915500D01*
X87800791Y-97915003D01*
X87800856Y-97914995D01*
X87812693Y-97914062D01*
X87844951Y-97913048D01*
X87848970Y-97912922D01*
X87856889Y-97912673D01*
X87876343Y-97907021D01*
X87895700Y-97903013D01*
X87907930Y-97901468D01*
X87907931Y-97901468D01*
X87915797Y-97900474D01*
X87923168Y-97897555D01*
X87923170Y-97897555D01*
X87956912Y-97884196D01*
X87968142Y-97880351D01*
X88002983Y-97870229D01*
X88002984Y-97870229D01*
X88010593Y-97868018D01*
X88017412Y-97863985D01*
X88017417Y-97863983D01*
X88028028Y-97857707D01*
X88045776Y-97849012D01*
X88064617Y-97841552D01*
X88100387Y-97815564D01*
X88110307Y-97809048D01*
X88141535Y-97790580D01*
X88141538Y-97790578D01*
X88148362Y-97786542D01*
X88162683Y-97772221D01*
X88177717Y-97759380D01*
X88194107Y-97747472D01*
X88222298Y-97713395D01*
X88230288Y-97704616D01*
X88558327Y-97376577D01*
X88566617Y-97369033D01*
X88573098Y-97364920D01*
X88586450Y-97350702D01*
X88619738Y-97315253D01*
X88622493Y-97312411D01*
X88642214Y-97292690D01*
X88644692Y-97289495D01*
X88652398Y-97280473D01*
X88677238Y-97254021D01*
X88682666Y-97248241D01*
X88692426Y-97230488D01*
X88703279Y-97213965D01*
X88710833Y-97204226D01*
X88715693Y-97197961D01*
X88733256Y-97157377D01*
X88738463Y-97146747D01*
X88759775Y-97107980D01*
X88761746Y-97100303D01*
X88761748Y-97100298D01*
X88764812Y-97088362D01*
X88771218Y-97069650D01*
X88776114Y-97058337D01*
X88779261Y-97051065D01*
X88783469Y-97024501D01*
X88786177Y-97007401D01*
X88788584Y-96995780D01*
X88797608Y-96960631D01*
X88797608Y-96960630D01*
X88799580Y-96952950D01*
X88799580Y-96932689D01*
X88801131Y-96912978D01*
X88802145Y-96906579D01*
X88804299Y-96892977D01*
X88800139Y-96848966D01*
X88799580Y-96837109D01*
X88799580Y-96610213D01*
X88816461Y-96547213D01*
X88819040Y-96542747D01*
X88834815Y-96515423D01*
X88874580Y-96367019D01*
X88874580Y-96097191D01*
X88894582Y-96029070D01*
X88908729Y-96010939D01*
X88919143Y-95999849D01*
X88921899Y-95997006D01*
X88941635Y-95977270D01*
X88944115Y-95974073D01*
X88951820Y-95965051D01*
X88962669Y-95953498D01*
X88982086Y-95932821D01*
X88985905Y-95925875D01*
X88985907Y-95925872D01*
X88991848Y-95915066D01*
X89002699Y-95898547D01*
X89010258Y-95888801D01*
X89015114Y-95882541D01*
X89018259Y-95875272D01*
X89018262Y-95875268D01*
X89032674Y-95841963D01*
X89037891Y-95831313D01*
X89059195Y-95792560D01*
X89064233Y-95772937D01*
X89070637Y-95754234D01*
X89075533Y-95742920D01*
X89075533Y-95742919D01*
X89078681Y-95735645D01*
X89079920Y-95727822D01*
X89079923Y-95727812D01*
X89085599Y-95691976D01*
X89088005Y-95680356D01*
X89097028Y-95645211D01*
X89097028Y-95645210D01*
X89099000Y-95637530D01*
X89099000Y-95617276D01*
X89100551Y-95597565D01*
X89102480Y-95585386D01*
X89103720Y-95577557D01*
X89099559Y-95533538D01*
X89099000Y-95521681D01*
X89099000Y-93502447D01*
X89119002Y-93434326D01*
X89139679Y-93411495D01*
X89139054Y-93410872D01*
X89147481Y-93402430D01*
X89163887Y-93385995D01*
X89226168Y-93351916D01*
X89296988Y-93356918D01*
G37*
%TD.AperFunction*%
%TA.AperFunction,Conductor*%
G36*
X96010659Y-97720074D02*
G01*
X96050005Y-97779170D01*
X96055700Y-97816623D01*
X96055700Y-98708411D01*
X96035698Y-98776532D01*
X96025531Y-98789016D01*
X96025980Y-98789382D01*
X96021531Y-98794838D01*
X96016493Y-98799771D01*
X95918235Y-98952238D01*
X95915826Y-98958858D01*
X95915824Y-98958861D01*
X95877433Y-99064339D01*
X95856197Y-99122685D01*
X95833463Y-99302640D01*
X95851163Y-99483160D01*
X95908418Y-99655273D01*
X95912065Y-99661295D01*
X95912066Y-99661297D01*
X95967024Y-99752043D01*
X96002380Y-99810424D01*
X96007269Y-99815487D01*
X96007270Y-99815488D01*
X96049584Y-99859305D01*
X96128382Y-99940902D01*
X96280159Y-100040222D01*
X96286763Y-100042678D01*
X96286765Y-100042679D01*
X96443558Y-100100990D01*
X96443560Y-100100990D01*
X96450168Y-100103448D01*
X96527174Y-100113723D01*
X96622980Y-100126507D01*
X96622984Y-100126507D01*
X96629961Y-100127438D01*
X96636972Y-100126800D01*
X96636976Y-100126800D01*
X96780658Y-100113723D01*
X96810600Y-100110998D01*
X96817302Y-100108820D01*
X96817304Y-100108820D01*
X96976409Y-100057124D01*
X96976412Y-100057123D01*
X96983108Y-100054947D01*
X97095225Y-99988112D01*
X97132860Y-99965677D01*
X97132862Y-99965676D01*
X97138912Y-99962069D01*
X97270266Y-99836982D01*
X97370643Y-99685902D01*
X97417835Y-99561669D01*
X97432555Y-99522920D01*
X97432556Y-99522918D01*
X97435055Y-99516338D01*
X97436035Y-99509366D01*
X97459748Y-99340639D01*
X97459748Y-99340636D01*
X97460299Y-99336717D01*
X97460616Y-99314000D01*
X97447481Y-99196902D01*
X97459765Y-99126978D01*
X97507904Y-99074793D01*
X97561277Y-99057377D01*
X97635811Y-99050594D01*
X97705464Y-99064339D01*
X97756628Y-99113561D01*
X97768937Y-99143464D01*
X97783993Y-99199654D01*
X97790259Y-99214782D01*
X97858756Y-99333421D01*
X97868723Y-99346410D01*
X97965590Y-99443277D01*
X97978579Y-99453244D01*
X98097218Y-99521741D01*
X98112346Y-99528007D01*
X98244673Y-99563463D01*
X98260903Y-99565600D01*
X98286285Y-99565600D01*
X98301524Y-99561125D01*
X98302729Y-99559735D01*
X98306139Y-99544057D01*
X98340163Y-99481745D01*
X98402475Y-99447719D01*
X98473291Y-99452783D01*
X98492260Y-99461719D01*
X98553283Y-99496951D01*
X98602276Y-99548333D01*
X98607592Y-99561613D01*
X98610265Y-99563929D01*
X98617948Y-99565600D01*
X98647897Y-99565600D01*
X98664134Y-99563462D01*
X98670828Y-99561669D01*
X98736044Y-99561669D01*
X98752581Y-99566100D01*
X98770872Y-99566100D01*
X98838993Y-99586102D01*
X98859967Y-99603005D01*
X99218595Y-99961633D01*
X99252621Y-100023945D01*
X99255500Y-100050728D01*
X99255500Y-102339500D01*
X99235498Y-102407621D01*
X99181842Y-102454114D01*
X99129500Y-102465500D01*
X99112181Y-102465500D01*
X99034902Y-102486207D01*
X99002291Y-102490500D01*
X95052546Y-102490500D01*
X94984425Y-102470498D01*
X94937932Y-102416842D01*
X94927828Y-102346568D01*
X94960694Y-102278249D01*
X94975341Y-102262651D01*
X94978098Y-102259807D01*
X94997835Y-102240070D01*
X95000315Y-102236873D01*
X95008020Y-102227851D01*
X95038286Y-102195621D01*
X95042105Y-102188675D01*
X95042107Y-102188672D01*
X95048048Y-102177866D01*
X95058899Y-102161347D01*
X95066458Y-102151601D01*
X95071314Y-102145341D01*
X95074459Y-102138072D01*
X95074462Y-102138068D01*
X95088874Y-102104763D01*
X95094091Y-102094113D01*
X95115395Y-102055360D01*
X95120433Y-102035737D01*
X95126837Y-102017034D01*
X95131733Y-102005720D01*
X95131733Y-102005719D01*
X95134881Y-101998445D01*
X95136120Y-101990622D01*
X95136123Y-101990612D01*
X95141799Y-101954776D01*
X95144205Y-101943156D01*
X95153228Y-101908011D01*
X95153228Y-101908010D01*
X95155200Y-101900330D01*
X95155200Y-101880076D01*
X95156751Y-101860365D01*
X95158680Y-101848186D01*
X95159920Y-101840357D01*
X95155759Y-101796338D01*
X95155200Y-101784481D01*
X95155200Y-99302613D01*
X95172081Y-99239613D01*
X95186306Y-99214975D01*
X95186306Y-99214974D01*
X95190435Y-99207823D01*
X95230200Y-99059419D01*
X95230200Y-98755781D01*
X95190435Y-98607377D01*
X95159324Y-98553492D01*
X95142587Y-98484500D01*
X95165807Y-98417408D01*
X95169265Y-98413187D01*
X95171468Y-98411403D01*
X95182614Y-98395719D01*
X95196225Y-98379613D01*
X95761181Y-97814657D01*
X95764990Y-97811004D01*
X95787201Y-97790580D01*
X95811378Y-97768348D01*
X95815902Y-97761051D01*
X95815904Y-97761049D01*
X95822612Y-97750229D01*
X95875507Y-97702873D01*
X95945609Y-97691631D01*
X96010659Y-97720074D01*
G37*
%TD.AperFunction*%
%TA.AperFunction,Conductor*%
G36*
X85164966Y-93297753D02*
G01*
X85169627Y-93301246D01*
X85183195Y-93311415D01*
X85319584Y-93362545D01*
X85381766Y-93369300D01*
X86078034Y-93369300D01*
X86140216Y-93362545D01*
X86147616Y-93359771D01*
X86155300Y-93357944D01*
X86155845Y-93360237D01*
X86214880Y-93355913D01*
X86277251Y-93389831D01*
X86307866Y-93439307D01*
X86336594Y-93525667D01*
X86340241Y-93531689D01*
X86340242Y-93531691D01*
X86393217Y-93619162D01*
X86424746Y-93671223D01*
X86542955Y-93793632D01*
X86610706Y-93837967D01*
X86652766Y-93865490D01*
X86685346Y-93886810D01*
X86691950Y-93889266D01*
X86691952Y-93889267D01*
X86744596Y-93908845D01*
X86844841Y-93946126D01*
X87013515Y-93968632D01*
X87020526Y-93967994D01*
X87020530Y-93967994D01*
X87175962Y-93953848D01*
X87182983Y-93953209D01*
X87189685Y-93951031D01*
X87189687Y-93951031D01*
X87338123Y-93902801D01*
X87338126Y-93902800D01*
X87344822Y-93900624D01*
X87490990Y-93813490D01*
X87496084Y-93808639D01*
X87496088Y-93808636D01*
X87609121Y-93700996D01*
X87609122Y-93700994D01*
X87614221Y-93696139D01*
X87614964Y-93696920D01*
X87668589Y-93661243D01*
X87739577Y-93660117D01*
X87799904Y-93697549D01*
X87830417Y-93761654D01*
X87832000Y-93781561D01*
X87832000Y-94149776D01*
X87811998Y-94217897D01*
X87758342Y-94264390D01*
X87688068Y-94274494D01*
X87663736Y-94268476D01*
X87584800Y-94240368D01*
X87415829Y-94220220D01*
X87408826Y-94220956D01*
X87408825Y-94220956D01*
X87253601Y-94237270D01*
X87253597Y-94237271D01*
X87246593Y-94238007D01*
X87239922Y-94240278D01*
X87092173Y-94290575D01*
X87092170Y-94290576D01*
X87085503Y-94292846D01*
X87079505Y-94296536D01*
X87079503Y-94296537D01*
X86946565Y-94378321D01*
X86946563Y-94378323D01*
X86940566Y-94382012D01*
X86884808Y-94436615D01*
X86828331Y-94491922D01*
X86818986Y-94501073D01*
X86815175Y-94506987D01*
X86815173Y-94506989D01*
X86730621Y-94638187D01*
X86726804Y-94644110D01*
X86668603Y-94804016D01*
X86647275Y-94972843D01*
X86663881Y-95142199D01*
X86666105Y-95148884D01*
X86666105Y-95148885D01*
X86679808Y-95190079D01*
X86717594Y-95303667D01*
X86721241Y-95309689D01*
X86721242Y-95309691D01*
X86799988Y-95439715D01*
X86805746Y-95449223D01*
X86923955Y-95571632D01*
X87021394Y-95635394D01*
X87067441Y-95689430D01*
X87076965Y-95759784D01*
X87061519Y-95803825D01*
X87005978Y-95900025D01*
X86997345Y-95914977D01*
X86957580Y-96063381D01*
X86957580Y-96367019D01*
X86973672Y-96427073D01*
X86990503Y-96489889D01*
X86988813Y-96560865D01*
X86949019Y-96619661D01*
X86883755Y-96647609D01*
X86868796Y-96648500D01*
X86057763Y-96648500D01*
X86046579Y-96647973D01*
X86039091Y-96646299D01*
X86031168Y-96646548D01*
X85971033Y-96648438D01*
X85967075Y-96648500D01*
X85939144Y-96648500D01*
X85935229Y-96648995D01*
X85935225Y-96648995D01*
X85935167Y-96649003D01*
X85935138Y-96649006D01*
X85923296Y-96649939D01*
X85879110Y-96651327D01*
X85867851Y-96654598D01*
X85859658Y-96656978D01*
X85840306Y-96660986D01*
X85828068Y-96662532D01*
X85828066Y-96662533D01*
X85820203Y-96663526D01*
X85779086Y-96679806D01*
X85767885Y-96683641D01*
X85725406Y-96695982D01*
X85718587Y-96700015D01*
X85718582Y-96700017D01*
X85707971Y-96706293D01*
X85690221Y-96714990D01*
X85671383Y-96722448D01*
X85664967Y-96727109D01*
X85664966Y-96727110D01*
X85635625Y-96748428D01*
X85625701Y-96754947D01*
X85594460Y-96773422D01*
X85594455Y-96773426D01*
X85587637Y-96777458D01*
X85573313Y-96791782D01*
X85558281Y-96804621D01*
X85541893Y-96816528D01*
X85515278Y-96848700D01*
X85513712Y-96850593D01*
X85505722Y-96859373D01*
X85306095Y-97059000D01*
X85243783Y-97093026D01*
X85172968Y-97087961D01*
X85127905Y-97059000D01*
X85024450Y-96955545D01*
X84990424Y-96893233D01*
X84995489Y-96822418D01*
X85038036Y-96765582D01*
X85039816Y-96764408D01*
X85057450Y-96750877D01*
X85154317Y-96654010D01*
X85164284Y-96641021D01*
X85232781Y-96522382D01*
X85239047Y-96507254D01*
X85274348Y-96375508D01*
X85272165Y-96368076D01*
X85270775Y-96366871D01*
X85263092Y-96365200D01*
X84903140Y-96365200D01*
X84835019Y-96345198D01*
X84788526Y-96291542D01*
X84777140Y-96239200D01*
X84777140Y-96191200D01*
X84797142Y-96123079D01*
X84850798Y-96076586D01*
X84903140Y-96065200D01*
X85258525Y-96065200D01*
X85273764Y-96060725D01*
X85274969Y-96059335D01*
X85274996Y-96059211D01*
X85274503Y-96055473D01*
X85239047Y-95923146D01*
X85232781Y-95908018D01*
X85164284Y-95789379D01*
X85154317Y-95776390D01*
X85057450Y-95679523D01*
X85044461Y-95669556D01*
X84925822Y-95601059D01*
X84910694Y-95594793D01*
X84778367Y-95559337D01*
X84762137Y-95557200D01*
X84736755Y-95557200D01*
X84721516Y-95561675D01*
X84720311Y-95563065D01*
X84716901Y-95578743D01*
X84682877Y-95641055D01*
X84620565Y-95675081D01*
X84549749Y-95670017D01*
X84530781Y-95661081D01*
X84503293Y-95645211D01*
X84469757Y-95625849D01*
X84420764Y-95574467D01*
X84411861Y-95552228D01*
X84404509Y-95527189D01*
X84404509Y-95456192D01*
X84436310Y-95402596D01*
X84722158Y-95116748D01*
X84730438Y-95109213D01*
X84736918Y-95105100D01*
X84783544Y-95055448D01*
X84786298Y-95052607D01*
X84806035Y-95032870D01*
X84808515Y-95029673D01*
X84816220Y-95020651D01*
X84828390Y-95007691D01*
X84846486Y-94988421D01*
X84850305Y-94981475D01*
X84850307Y-94981472D01*
X84856248Y-94970666D01*
X84867099Y-94954147D01*
X84874658Y-94944401D01*
X84879514Y-94938141D01*
X84882659Y-94930872D01*
X84882662Y-94930868D01*
X84897074Y-94897563D01*
X84902291Y-94886913D01*
X84923595Y-94848160D01*
X84928633Y-94828537D01*
X84935037Y-94809834D01*
X84939933Y-94798520D01*
X84939933Y-94798519D01*
X84943081Y-94791245D01*
X84944320Y-94783422D01*
X84944323Y-94783412D01*
X84949999Y-94747576D01*
X84952405Y-94735956D01*
X84961428Y-94700811D01*
X84961428Y-94700810D01*
X84963400Y-94693130D01*
X84963400Y-94672876D01*
X84964951Y-94653165D01*
X84966880Y-94640986D01*
X84968120Y-94633157D01*
X84963959Y-94589138D01*
X84963400Y-94577281D01*
X84963400Y-93398578D01*
X84983402Y-93330457D01*
X85037058Y-93283964D01*
X85107332Y-93273860D01*
X85164966Y-93297753D01*
G37*
%TD.AperFunction*%
%TA.AperFunction,Conductor*%
G36*
X79612876Y-70841806D02*
G01*
X79658209Y-70896445D01*
X79668500Y-70946320D01*
X79668500Y-71618134D01*
X79675165Y-71679484D01*
X79675255Y-71680316D01*
X79675120Y-71680331D01*
X79671623Y-71747258D01*
X79630176Y-71804900D01*
X79564144Y-71830983D01*
X79552744Y-71831500D01*
X79263162Y-71831500D01*
X79257886Y-71831389D01*
X79241756Y-71830713D01*
X79194946Y-71828751D01*
X79186582Y-71830713D01*
X79186580Y-71830713D01*
X79151885Y-71838851D01*
X79140211Y-71841015D01*
X79133440Y-71841942D01*
X79104912Y-71845849D01*
X79104908Y-71845850D01*
X79096396Y-71847016D01*
X79088509Y-71850429D01*
X79088506Y-71850430D01*
X79082241Y-71853141D01*
X79060976Y-71860174D01*
X79054339Y-71861731D01*
X79054338Y-71861731D01*
X79045970Y-71863694D01*
X79038441Y-71867833D01*
X79030420Y-71870912D01*
X79030022Y-71869875D01*
X78993437Y-71881339D01*
X78936090Y-71887367D01*
X78830093Y-71898507D01*
X78823422Y-71900778D01*
X78675673Y-71951075D01*
X78675670Y-71951076D01*
X78669003Y-71953346D01*
X78663005Y-71957036D01*
X78663003Y-71957037D01*
X78530065Y-72038821D01*
X78530063Y-72038823D01*
X78524066Y-72042512D01*
X78402486Y-72161573D01*
X78398675Y-72167487D01*
X78398673Y-72167489D01*
X78314121Y-72298687D01*
X78310304Y-72304610D01*
X78252103Y-72464516D01*
X78230775Y-72633343D01*
X78247381Y-72802699D01*
X78301094Y-72964167D01*
X78304741Y-72970189D01*
X78304742Y-72970191D01*
X78377627Y-73090537D01*
X78389246Y-73109723D01*
X78507455Y-73232132D01*
X78520280Y-73240524D01*
X78529788Y-73246746D01*
X78575836Y-73300784D01*
X78585359Y-73371139D01*
X78555334Y-73435474D01*
X78549889Y-73441273D01*
X77656567Y-74334595D01*
X77594255Y-74368621D01*
X77567472Y-74371500D01*
X77521210Y-74371500D01*
X77453089Y-74351498D01*
X77405663Y-74295747D01*
X77403419Y-74290587D01*
X77403414Y-74290578D01*
X77401354Y-74285840D01*
X77280014Y-74098277D01*
X77276540Y-74094459D01*
X77276533Y-74094450D01*
X77132435Y-73936088D01*
X77101383Y-73872242D01*
X77109779Y-73801744D01*
X77154956Y-73746976D01*
X77181400Y-73733307D01*
X77288052Y-73693325D01*
X77303649Y-73684786D01*
X77405724Y-73608285D01*
X77418285Y-73595724D01*
X77494786Y-73493649D01*
X77503324Y-73478054D01*
X77548478Y-73357606D01*
X77552105Y-73342351D01*
X77557631Y-73291486D01*
X77558000Y-73284672D01*
X77558000Y-72662115D01*
X77553525Y-72646876D01*
X77552135Y-72645671D01*
X77544452Y-72644000D01*
X76072000Y-72644000D01*
X76003879Y-72623998D01*
X75957386Y-72570342D01*
X75946000Y-72518000D01*
X75946000Y-72262000D01*
X75966002Y-72193879D01*
X76019658Y-72147386D01*
X76072000Y-72136000D01*
X77539885Y-72136000D01*
X77555124Y-72131525D01*
X77556329Y-72130135D01*
X77558000Y-72122452D01*
X77558000Y-71495328D01*
X77557631Y-71488514D01*
X77552105Y-71437649D01*
X77548478Y-71422394D01*
X77503324Y-71301946D01*
X77494786Y-71286351D01*
X77425996Y-71194565D01*
X77401148Y-71128058D01*
X77416201Y-71058676D01*
X77466375Y-71008446D01*
X77526822Y-70993000D01*
X78813794Y-70993000D01*
X78834698Y-70994746D01*
X78854462Y-70998071D01*
X78860628Y-70998146D01*
X78862136Y-70998165D01*
X78862141Y-70998165D01*
X78867001Y-70998224D01*
X78871812Y-70997535D01*
X78871828Y-70997534D01*
X78883130Y-70995915D01*
X78891100Y-70995031D01*
X79066287Y-70981243D01*
X79260665Y-70934576D01*
X79394155Y-70879283D01*
X79440779Y-70859971D01*
X79440781Y-70859970D01*
X79445351Y-70858077D01*
X79476666Y-70838887D01*
X79545199Y-70820349D01*
X79612876Y-70841806D01*
G37*
%TD.AperFunction*%
%TD*%
M02*
